M48
; DRILL file {KiCad (6.0.7)} date Mon Nov 14 17:20:22 2022
; FORMAT={-:-/ absolute / inch / decimal}
; #@! TF.CreationDate,2022-11-14T17:20:22+01:00
; #@! TF.GenerationSoftware,Kicad,Pcbnew,(6.0.7)
; #@! TF.FileFunction,Plated,1,2,PTH
FMAT,2
INCH
; #@! TA.AperFunction,Plated,PTH,ViaDrill
T1C0.0118
; #@! TA.AperFunction,Plated,PTH,ComponentDrill
T2C0.0315
; #@! TA.AperFunction,Plated,PTH,ComponentDrill
T3C0.0354
; #@! TA.AperFunction,Plated,PTH,ComponentDrill
T4C0.0394
; #@! TA.AperFunction,Plated,PTH,ComponentDrill
T5C0.0450
%
G90
G05
T1
X0.3484Y1.2787
X0.3504Y1.1614
X0.4693Y1.3138
X0.5476Y1.8134
X0.6419Y2.0731
T2
X0.0565Y1.8701
X0.1024Y0.3504
X0.1093Y1.439
X0.1093Y1.339
X0.1093Y1.239
X0.1093Y1.139
X0.1093Y1.039
X0.1093Y0.939
X0.1093Y0.839
X0.1093Y0.739
X0.1093Y0.639
X0.1093Y0.539
X0.2024Y0.3504
X0.2559Y2.1063
X0.2559Y2.0276
X0.2565Y1.8701
X0.3024Y0.3504
X0.374Y2.3055
X0.374Y1.9055
X0.4024Y0.3504
X0.4093Y1.439
X0.4093Y1.339
X0.4093Y1.239
X0.4093Y1.139
X0.4093Y1.039
X0.4093Y0.939
X0.4093Y0.839
X0.4093Y0.739
X0.4093Y0.639
X0.4093Y0.539
X0.5024Y0.3504
X0.5315Y2.0276
X0.5315Y1.9488
X0.5394Y1.1827
X0.5394Y0.9827
X0.5455Y0.8376
X0.5455Y0.5376
X0.6024Y0.3504
X0.6455Y0.8376
X0.6455Y0.5376
X0.6984Y1.0059
X0.7024Y0.3504
X0.7455Y0.8376
X0.7455Y0.5376
X0.7764Y2.3356
X0.7764Y2.0356
X0.8024Y0.3504
X0.8455Y0.8376
X0.8455Y0.5376
X0.8764Y2.3356
X0.8764Y2.0356
X0.9429Y0.3504
X0.9646Y0.8087
X0.9646Y0.6087
X0.9764Y2.3356
X0.9764Y2.0356
X1.0429Y0.3504
X1.0764Y2.3356
X1.0764Y2.0356
X1.0876Y0.8888
X1.0876Y0.4888
X1.0984Y1.0059
X1.1429Y0.3504
X1.1764Y2.3356
X1.1764Y2.0356
X1.2165Y1.0181
X1.2165Y0.6181
X1.2362Y0.4921
X1.2429Y0.3504
X1.2764Y2.3356
X1.2764Y2.0356
X1.3429Y0.3504
X1.3465Y1.0181
X1.3465Y0.6181
X1.3764Y2.3356
X1.3764Y2.0356
X1.4429Y0.3504
X1.4764Y2.3356
X1.4764Y2.0356
X1.4764Y1.0181
X1.4764Y0.6181
X1.5429Y0.3504
X1.5945Y2.3047
X1.5945Y2.1047
X1.6014Y1.1142
X1.6014Y1.0142
X1.6014Y0.9142
X1.6014Y0.8142
X1.6333Y0.6841
X1.6362Y0.4921
X1.6429Y0.3504
X1.652Y1.2402
X1.7126Y2.1063
X1.7126Y2.0276
X1.8031Y0.3022
X1.8327Y0.5394
X1.8327Y0.4409
X1.8333Y0.6841
X1.852Y1.2402
X1.8819Y0.3022
X1.9014Y1.1142
X1.9014Y1.0142
X1.9014Y0.9142
X1.9014Y0.8142
T3
X0.5142Y2.2126
X0.6142Y2.2126
T4
X0.139Y2.2756
X0.1969Y0.1681
X0.1969Y0.0681
X0.239Y2.2756
X0.374Y0.1681
X0.374Y0.0681
X0.5512Y0.1681
X0.5512Y0.0681
X0.7283Y0.1681
X0.7283Y0.0681
X0.9055Y0.1681
X0.9055Y0.0681
X1.0827Y0.1681
X1.0827Y0.0681
X1.2598Y0.1681
X1.2598Y0.0681
X1.437Y0.1681
X1.437Y0.0681
X1.6634Y1.8406
X1.6634Y1.6634
X1.6634Y1.5551
X1.6634Y1.378
X1.9193Y1.8406
X1.9193Y1.6634
X1.9193Y1.5551
X1.9193Y1.378
T5
X0.1175Y1.6699
X0.2175Y1.6699
X0.3175Y1.6699
T4
G00X0.6933Y1.8353
M15
G01X0.6933Y1.8747
M16
G05
G00X0.6933Y1.1253
M15
G01X0.6933Y1.1647
M16
G05
G00X0.7933Y1.8353
M15
G01X0.7933Y1.8747
M16
G05
G00X0.7933Y1.1253
M15
G01X0.7933Y1.1647
M16
G05
G00X0.8933Y1.8353
M15
G01X0.8933Y1.8747
M16
G05
G00X0.8933Y1.1253
M15
G01X0.8933Y1.1647
M16
G05
G00X0.9933Y1.8353
M15
G01X0.9933Y1.8747
M16
G05
G00X0.9933Y1.1253
M15
G01X0.9933Y1.1647
M16
G05
G00X1.0933Y1.8353
M15
G01X1.0933Y1.8747
M16
G05
G00X1.0933Y1.1253
M15
G01X1.0933Y1.1647
M16
G05
G00X1.1933Y1.8353
M15
G01X1.1933Y1.8747
M16
G05
G00X1.1933Y1.1253
M15
G01X1.1933Y1.1647
M16
G05
G00X1.2933Y1.8353
M15
G01X1.2933Y1.8747
M16
G05
G00X1.2933Y1.1253
M15
G01X1.2933Y1.1647
M16
G05
G00X1.3933Y1.8353
M15
G01X1.3933Y1.8747
M16
G05
G00X1.3933Y1.1253
M15
G01X1.3933Y1.1647
M16
G05
T0
M30
