G04 #@! TF.GenerationSoftware,KiCad,Pcbnew,(5.1.4)-1*
G04 #@! TF.CreationDate,2019-12-17T09:59:54+01:00*
G04 #@! TF.ProjectId,dancebots-pcb,64616e63-6562-46f7-9473-2d7063622e6b,rev?*
G04 #@! TF.SameCoordinates,PX5f5e100PY8f0d180*
G04 #@! TF.FileFunction,Legend,Bot*
G04 #@! TF.FilePolarity,Positive*
%FSLAX46Y46*%
G04 Gerber Fmt 4.6, Leading zero omitted, Abs format (unit mm)*
G04 Created by KiCad (PCBNEW (5.1.4)-1) date 2019-12-17 09:59:54*
%MOMM*%
%LPD*%
G04 APERTURE LIST*
%ADD10C,0.170000*%
%ADD11C,0.100000*%
G04 APERTURE END LIST*
D10*
X19992952Y49519620D02*
X19469142Y49519620D01*
X19469142Y48419620D01*
X20359619Y49519620D02*
X20359619Y48786286D01*
X20359619Y48419620D02*
X20307238Y48472000D01*
X20359619Y48524381D01*
X20412000Y48472000D01*
X20359619Y48419620D01*
X20359619Y48524381D01*
X21354857Y49467239D02*
X21250095Y49519620D01*
X21040571Y49519620D01*
X20935809Y49467239D01*
X20883428Y49414858D01*
X20831047Y49310096D01*
X20831047Y48995810D01*
X20883428Y48891048D01*
X20935809Y48838667D01*
X21040571Y48786286D01*
X21250095Y48786286D01*
X21354857Y48838667D01*
X22245333Y49467239D02*
X22140571Y49519620D01*
X21931047Y49519620D01*
X21826285Y49467239D01*
X21773904Y49362477D01*
X21773904Y48943429D01*
X21826285Y48838667D01*
X21931047Y48786286D01*
X22140571Y48786286D01*
X22245333Y48838667D01*
X22297714Y48943429D01*
X22297714Y49048191D01*
X21773904Y49152953D01*
X22769142Y48786286D02*
X22769142Y49519620D01*
X22769142Y48891048D02*
X22821523Y48838667D01*
X22926285Y48786286D01*
X23083428Y48786286D01*
X23188190Y48838667D01*
X23240571Y48943429D01*
X23240571Y49519620D01*
X23712000Y49467239D02*
X23816761Y49519620D01*
X24026285Y49519620D01*
X24131047Y49467239D01*
X24183428Y49362477D01*
X24183428Y49310096D01*
X24131047Y49205334D01*
X24026285Y49152953D01*
X23869142Y49152953D01*
X23764380Y49100572D01*
X23712000Y48995810D01*
X23712000Y48943429D01*
X23764380Y48838667D01*
X23869142Y48786286D01*
X24026285Y48786286D01*
X24131047Y48838667D01*
X25073904Y49467239D02*
X24969142Y49519620D01*
X24759619Y49519620D01*
X24654857Y49467239D01*
X24602476Y49362477D01*
X24602476Y48943429D01*
X24654857Y48838667D01*
X24759619Y48786286D01*
X24969142Y48786286D01*
X25073904Y48838667D01*
X25126285Y48943429D01*
X25126285Y49048191D01*
X24602476Y49152953D01*
X26069142Y49519620D02*
X26069142Y48419620D01*
X26069142Y49467239D02*
X25964380Y49519620D01*
X25754857Y49519620D01*
X25650095Y49467239D01*
X25597714Y49414858D01*
X25545333Y49310096D01*
X25545333Y48995810D01*
X25597714Y48891048D01*
X25650095Y48838667D01*
X25754857Y48786286D01*
X25964380Y48786286D01*
X26069142Y48838667D01*
X27902476Y48786286D02*
X27902476Y49519620D01*
X27431047Y48786286D02*
X27431047Y49362477D01*
X27483428Y49467239D01*
X27588190Y49519620D01*
X27745333Y49519620D01*
X27850095Y49467239D01*
X27902476Y49414858D01*
X28426285Y48786286D02*
X28426285Y49519620D01*
X28426285Y48891048D02*
X28478666Y48838667D01*
X28583428Y48786286D01*
X28740571Y48786286D01*
X28845333Y48838667D01*
X28897714Y48943429D01*
X28897714Y49519620D01*
X29892952Y49519620D02*
X29892952Y48419620D01*
X29892952Y49467239D02*
X29788190Y49519620D01*
X29578666Y49519620D01*
X29473904Y49467239D01*
X29421523Y49414858D01*
X29369142Y49310096D01*
X29369142Y48995810D01*
X29421523Y48891048D01*
X29473904Y48838667D01*
X29578666Y48786286D01*
X29788190Y48786286D01*
X29892952Y48838667D01*
X30835809Y49467239D02*
X30731047Y49519620D01*
X30521523Y49519620D01*
X30416761Y49467239D01*
X30364380Y49362477D01*
X30364380Y48943429D01*
X30416761Y48838667D01*
X30521523Y48786286D01*
X30731047Y48786286D01*
X30835809Y48838667D01*
X30888190Y48943429D01*
X30888190Y49048191D01*
X30364380Y49152953D01*
X31359619Y49519620D02*
X31359619Y48786286D01*
X31359619Y48995810D02*
X31412000Y48891048D01*
X31464380Y48838667D01*
X31569142Y48786286D01*
X31673904Y48786286D01*
X33507238Y49414858D02*
X33454857Y49467239D01*
X33297714Y49519620D01*
X33192952Y49519620D01*
X33035809Y49467239D01*
X32931047Y49362477D01*
X32878666Y49257715D01*
X32826285Y49048191D01*
X32826285Y48891048D01*
X32878666Y48681524D01*
X32931047Y48576762D01*
X33035809Y48472000D01*
X33192952Y48419620D01*
X33297714Y48419620D01*
X33454857Y48472000D01*
X33507238Y48524381D01*
X33978666Y48943429D02*
X34345333Y48943429D01*
X34502476Y49519620D02*
X33978666Y49519620D01*
X33978666Y48419620D01*
X34502476Y48419620D01*
X35602476Y49519620D02*
X35235809Y48995810D01*
X34973904Y49519620D02*
X34973904Y48419620D01*
X35392952Y48419620D01*
X35497714Y48472000D01*
X35550095Y48524381D01*
X35602476Y48629143D01*
X35602476Y48786286D01*
X35550095Y48891048D01*
X35497714Y48943429D01*
X35392952Y48995810D01*
X34973904Y48995810D01*
X36073904Y49519620D02*
X36073904Y48419620D01*
X36702476Y49519620D01*
X36702476Y48419620D01*
X38273904Y48419620D02*
X38483428Y48419620D01*
X38588190Y48472000D01*
X38692952Y48576762D01*
X38745333Y48786286D01*
X38745333Y49152953D01*
X38692952Y49362477D01*
X38588190Y49467239D01*
X38483428Y49519620D01*
X38273904Y49519620D01*
X38169142Y49467239D01*
X38064380Y49362477D01*
X38012000Y49152953D01*
X38012000Y48786286D01*
X38064380Y48576762D01*
X38169142Y48472000D01*
X38273904Y48419620D01*
X39216761Y49519620D02*
X39216761Y48419620D01*
X39216761Y48943429D02*
X39845333Y48943429D01*
X39845333Y49519620D02*
X39845333Y48419620D01*
X40892952Y49519620D02*
X40369142Y49519620D01*
X40369142Y48419620D01*
X41992952Y48786286D02*
X42254857Y49519620D01*
X42516761Y48786286D01*
X42935809Y49414858D02*
X42988190Y49467239D01*
X42935809Y49519620D01*
X42883428Y49467239D01*
X42935809Y49414858D01*
X42935809Y49519620D01*
X44035809Y49519620D02*
X43407238Y49519620D01*
X43721523Y49519620D02*
X43721523Y48419620D01*
X43616761Y48576762D01*
X43512000Y48681524D01*
X43407238Y48733905D01*
X44507238Y49414858D02*
X44559619Y49467239D01*
X44507238Y49519620D01*
X44454857Y49467239D01*
X44507238Y49414858D01*
X44507238Y49519620D01*
X44978666Y48524381D02*
X45031047Y48472000D01*
X45135809Y48419620D01*
X45397714Y48419620D01*
X45502476Y48472000D01*
X45554857Y48524381D01*
X45607238Y48629143D01*
X45607238Y48733905D01*
X45554857Y48891048D01*
X44926285Y49519620D01*
X45607238Y49519620D01*
X19467142Y47741620D02*
X19467142Y46641620D01*
X19729047Y46641620D01*
X19886190Y46694000D01*
X19990952Y46798762D01*
X20043333Y46903524D01*
X20095714Y47113048D01*
X20095714Y47270191D01*
X20043333Y47479715D01*
X19990952Y47584477D01*
X19886190Y47689239D01*
X19729047Y47741620D01*
X19467142Y47741620D01*
X20986190Y47689239D02*
X20881428Y47741620D01*
X20671904Y47741620D01*
X20567142Y47689239D01*
X20514761Y47584477D01*
X20514761Y47165429D01*
X20567142Y47060667D01*
X20671904Y47008286D01*
X20881428Y47008286D01*
X20986190Y47060667D01*
X21038571Y47165429D01*
X21038571Y47270191D01*
X20514761Y47374953D01*
X21457619Y47689239D02*
X21562380Y47741620D01*
X21771904Y47741620D01*
X21876666Y47689239D01*
X21929047Y47584477D01*
X21929047Y47532096D01*
X21876666Y47427334D01*
X21771904Y47374953D01*
X21614761Y47374953D01*
X21510000Y47322572D01*
X21457619Y47217810D01*
X21457619Y47165429D01*
X21510000Y47060667D01*
X21614761Y47008286D01*
X21771904Y47008286D01*
X21876666Y47060667D01*
X22400476Y47741620D02*
X22400476Y47008286D01*
X22400476Y46641620D02*
X22348095Y46694000D01*
X22400476Y46746381D01*
X22452857Y46694000D01*
X22400476Y46641620D01*
X22400476Y46746381D01*
X23395714Y47008286D02*
X23395714Y47898762D01*
X23343333Y48003524D01*
X23290952Y48055905D01*
X23186190Y48108286D01*
X23029047Y48108286D01*
X22924285Y48055905D01*
X23395714Y47689239D02*
X23290952Y47741620D01*
X23081428Y47741620D01*
X22976666Y47689239D01*
X22924285Y47636858D01*
X22871904Y47532096D01*
X22871904Y47217810D01*
X22924285Y47113048D01*
X22976666Y47060667D01*
X23081428Y47008286D01*
X23290952Y47008286D01*
X23395714Y47060667D01*
X23919523Y47008286D02*
X23919523Y47741620D01*
X23919523Y47113048D02*
X23971904Y47060667D01*
X24076666Y47008286D01*
X24233809Y47008286D01*
X24338571Y47060667D01*
X24390952Y47165429D01*
X24390952Y47741620D01*
X25333809Y47689239D02*
X25229047Y47741620D01*
X25019523Y47741620D01*
X24914761Y47689239D01*
X24862380Y47584477D01*
X24862380Y47165429D01*
X24914761Y47060667D01*
X25019523Y47008286D01*
X25229047Y47008286D01*
X25333809Y47060667D01*
X25386190Y47165429D01*
X25386190Y47270191D01*
X24862380Y47374953D01*
X26329047Y47741620D02*
X26329047Y46641620D01*
X26329047Y47689239D02*
X26224285Y47741620D01*
X26014761Y47741620D01*
X25910000Y47689239D01*
X25857619Y47636858D01*
X25805238Y47532096D01*
X25805238Y47217810D01*
X25857619Y47113048D01*
X25910000Y47060667D01*
X26014761Y47008286D01*
X26224285Y47008286D01*
X26329047Y47060667D01*
X27690952Y47741620D02*
X27690952Y47008286D01*
X27690952Y46641620D02*
X27638571Y46694000D01*
X27690952Y46746381D01*
X27743333Y46694000D01*
X27690952Y46641620D01*
X27690952Y46746381D01*
X28214761Y47008286D02*
X28214761Y47741620D01*
X28214761Y47113048D02*
X28267142Y47060667D01*
X28371904Y47008286D01*
X28529047Y47008286D01*
X28633809Y47060667D01*
X28686190Y47165429D01*
X28686190Y47741620D01*
X29995714Y47689239D02*
X30152857Y47741620D01*
X30414761Y47741620D01*
X30519523Y47689239D01*
X30571904Y47636858D01*
X30624285Y47532096D01*
X30624285Y47427334D01*
X30571904Y47322572D01*
X30519523Y47270191D01*
X30414761Y47217810D01*
X30205238Y47165429D01*
X30100476Y47113048D01*
X30048095Y47060667D01*
X29995714Y46955905D01*
X29995714Y46851143D01*
X30048095Y46746381D01*
X30100476Y46694000D01*
X30205238Y46641620D01*
X30467142Y46641620D01*
X30624285Y46694000D01*
X30990952Y47008286D02*
X31200476Y47741620D01*
X31410000Y47217810D01*
X31619523Y47741620D01*
X31829047Y47008286D01*
X32248095Y47741620D02*
X32248095Y47008286D01*
X32248095Y46641620D02*
X32195714Y46694000D01*
X32248095Y46746381D01*
X32300476Y46694000D01*
X32248095Y46641620D01*
X32248095Y46746381D01*
X32614761Y47008286D02*
X33033809Y47008286D01*
X32771904Y46641620D02*
X32771904Y47584477D01*
X32824285Y47689239D01*
X32929047Y47741620D01*
X33033809Y47741620D01*
X33295714Y47008286D02*
X33871904Y47008286D01*
X33295714Y47741620D01*
X33871904Y47741620D01*
X34710000Y47689239D02*
X34605238Y47741620D01*
X34395714Y47741620D01*
X34290952Y47689239D01*
X34238571Y47584477D01*
X34238571Y47165429D01*
X34290952Y47060667D01*
X34395714Y47008286D01*
X34605238Y47008286D01*
X34710000Y47060667D01*
X34762380Y47165429D01*
X34762380Y47270191D01*
X34238571Y47374953D01*
X35233809Y47741620D02*
X35233809Y47008286D01*
X35233809Y47217810D02*
X35286190Y47113048D01*
X35338571Y47060667D01*
X35443333Y47008286D01*
X35548095Y47008286D01*
X36071904Y47741620D02*
X35967142Y47689239D01*
X35914761Y47584477D01*
X35914761Y46641620D01*
X36962380Y47741620D02*
X36962380Y47165429D01*
X36910000Y47060667D01*
X36805238Y47008286D01*
X36595714Y47008286D01*
X36490952Y47060667D01*
X36962380Y47689239D02*
X36857619Y47741620D01*
X36595714Y47741620D01*
X36490952Y47689239D01*
X36438571Y47584477D01*
X36438571Y47479715D01*
X36490952Y47374953D01*
X36595714Y47322572D01*
X36857619Y47322572D01*
X36962380Y47270191D01*
X37486190Y47008286D02*
X37486190Y47741620D01*
X37486190Y47113048D02*
X37538571Y47060667D01*
X37643333Y47008286D01*
X37800476Y47008286D01*
X37905238Y47060667D01*
X37957619Y47165429D01*
X37957619Y47741620D01*
X38952857Y47741620D02*
X38952857Y46641620D01*
X38952857Y47689239D02*
X38848095Y47741620D01*
X38638571Y47741620D01*
X38533809Y47689239D01*
X38481428Y47636858D01*
X38429047Y47532096D01*
X38429047Y47217810D01*
X38481428Y47113048D01*
X38533809Y47060667D01*
X38638571Y47008286D01*
X38848095Y47008286D01*
X38952857Y47060667D01*
X47337619Y47677596D02*
X46237619Y47677596D01*
X47023333Y47310929D01*
X46237619Y46944262D01*
X47337619Y46944262D01*
X47337619Y46420453D02*
X46237619Y46420453D01*
X46237619Y46001405D01*
X46290000Y45896643D01*
X46342380Y45844262D01*
X46447142Y45791881D01*
X46604285Y45791881D01*
X46709047Y45844262D01*
X46761428Y45896643D01*
X46813809Y46001405D01*
X46813809Y46420453D01*
X46237619Y45425215D02*
X46237619Y44744262D01*
X46656666Y45110929D01*
X46656666Y44953786D01*
X46709047Y44849024D01*
X46761428Y44796643D01*
X46866190Y44744262D01*
X47128095Y44744262D01*
X47232857Y44796643D01*
X47285238Y44849024D01*
X47337619Y44953786D01*
X47337619Y45268072D01*
X47285238Y45372834D01*
X47232857Y45425215D01*
X47337619Y43434739D02*
X46237619Y43434739D01*
X46237619Y43172834D01*
X46290000Y43015691D01*
X46394761Y42910929D01*
X46499523Y42858548D01*
X46709047Y42806167D01*
X46866190Y42806167D01*
X47075714Y42858548D01*
X47180476Y42910929D01*
X47285238Y43015691D01*
X47337619Y43172834D01*
X47337619Y43434739D01*
X47337619Y41863310D02*
X46761428Y41863310D01*
X46656666Y41915691D01*
X46604285Y42020453D01*
X46604285Y42229977D01*
X46656666Y42334739D01*
X47285238Y41863310D02*
X47337619Y41968072D01*
X47337619Y42229977D01*
X47285238Y42334739D01*
X47180476Y42387120D01*
X47075714Y42387120D01*
X46970952Y42334739D01*
X46918571Y42229977D01*
X46918571Y41968072D01*
X46866190Y41863310D01*
X46604285Y41339500D02*
X47337619Y41339500D01*
X46709047Y41339500D02*
X46656666Y41287120D01*
X46604285Y41182358D01*
X46604285Y41025215D01*
X46656666Y40920453D01*
X46761428Y40868072D01*
X47337619Y40868072D01*
X47285238Y39872834D02*
X47337619Y39977596D01*
X47337619Y40187120D01*
X47285238Y40291881D01*
X47232857Y40344262D01*
X47128095Y40396643D01*
X46813809Y40396643D01*
X46709047Y40344262D01*
X46656666Y40291881D01*
X46604285Y40187120D01*
X46604285Y39977596D01*
X46656666Y39872834D01*
X47285238Y38982358D02*
X47337619Y39087120D01*
X47337619Y39296643D01*
X47285238Y39401405D01*
X47180476Y39453786D01*
X46761428Y39453786D01*
X46656666Y39401405D01*
X46604285Y39296643D01*
X46604285Y39087120D01*
X46656666Y38982358D01*
X46761428Y38929977D01*
X46866190Y38929977D01*
X46970952Y39453786D01*
X46761428Y38091881D02*
X46813809Y37934739D01*
X46866190Y37882358D01*
X46970952Y37829977D01*
X47128095Y37829977D01*
X47232857Y37882358D01*
X47285238Y37934739D01*
X47337619Y38039500D01*
X47337619Y38458548D01*
X46237619Y38458548D01*
X46237619Y38091881D01*
X46290000Y37987120D01*
X46342380Y37934739D01*
X46447142Y37882358D01*
X46551904Y37882358D01*
X46656666Y37934739D01*
X46709047Y37987120D01*
X46761428Y38091881D01*
X46761428Y38458548D01*
X47337619Y37201405D02*
X47285238Y37306167D01*
X47232857Y37358548D01*
X47128095Y37410929D01*
X46813809Y37410929D01*
X46709047Y37358548D01*
X46656666Y37306167D01*
X46604285Y37201405D01*
X46604285Y37044262D01*
X46656666Y36939500D01*
X46709047Y36887120D01*
X46813809Y36834739D01*
X47128095Y36834739D01*
X47232857Y36887120D01*
X47285238Y36939500D01*
X47337619Y37044262D01*
X47337619Y37201405D01*
X46604285Y36520453D02*
X46604285Y36101405D01*
X46237619Y36363310D02*
X47180476Y36363310D01*
X47285238Y36310929D01*
X47337619Y36206167D01*
X47337619Y36101405D01*
X46237619Y35053786D02*
X47337619Y34687120D01*
X46237619Y34320453D01*
X46237619Y34058548D02*
X46237619Y33325215D01*
X47337619Y33796643D01*
X47232857Y32906167D02*
X47285238Y32853786D01*
X47337619Y32906167D01*
X47285238Y32958548D01*
X47232857Y32906167D01*
X47337619Y32906167D01*
X46342380Y32434739D02*
X46290000Y32382358D01*
X46237619Y32277596D01*
X46237619Y32015691D01*
X46290000Y31910929D01*
X46342380Y31858548D01*
X46447142Y31806167D01*
X46551904Y31806167D01*
X46709047Y31858548D01*
X47337619Y32487120D01*
X47337619Y31806167D01*
X49157619Y47677596D02*
X48424285Y47677596D01*
X48529047Y47677596D02*
X48476666Y47625215D01*
X48424285Y47520453D01*
X48424285Y47363310D01*
X48476666Y47258548D01*
X48581428Y47206167D01*
X49157619Y47206167D01*
X48581428Y47206167D02*
X48476666Y47153786D01*
X48424285Y47049024D01*
X48424285Y46891881D01*
X48476666Y46787120D01*
X48581428Y46734739D01*
X49157619Y46734739D01*
X49157619Y46210929D02*
X48424285Y46210929D01*
X48057619Y46210929D02*
X48110000Y46263310D01*
X48162380Y46210929D01*
X48110000Y46158548D01*
X48057619Y46210929D01*
X48162380Y46210929D01*
X48424285Y45687120D02*
X49157619Y45687120D01*
X48529047Y45687120D02*
X48476666Y45634739D01*
X48424285Y45529977D01*
X48424285Y45372834D01*
X48476666Y45268072D01*
X48581428Y45215691D01*
X49157619Y45215691D01*
X48424285Y44849024D02*
X48424285Y44429977D01*
X48057619Y44691881D02*
X49000476Y44691881D01*
X49105238Y44639500D01*
X49157619Y44534739D01*
X49157619Y44429977D01*
X49157619Y42334739D02*
X49157619Y42387120D01*
X49105238Y42491881D01*
X48948095Y42649024D01*
X48633809Y42910929D01*
X48476666Y43015691D01*
X48319523Y43068072D01*
X48214761Y43068072D01*
X48110000Y43015691D01*
X48057619Y42910929D01*
X48057619Y42858548D01*
X48110000Y42753786D01*
X48214761Y42701405D01*
X48267142Y42701405D01*
X48371904Y42753786D01*
X48424285Y42806167D01*
X48633809Y43120453D01*
X48686190Y43172834D01*
X48790952Y43225215D01*
X48948095Y43225215D01*
X49052857Y43172834D01*
X49105238Y43120453D01*
X49157619Y43015691D01*
X49157619Y42858548D01*
X49105238Y42753786D01*
X49052857Y42701405D01*
X48843333Y42544262D01*
X48686190Y42491881D01*
X48581428Y42491881D01*
X48424285Y41025215D02*
X49524285Y41025215D01*
X48476666Y41025215D02*
X48424285Y40920453D01*
X48424285Y40710929D01*
X48476666Y40606167D01*
X48529047Y40553786D01*
X48633809Y40501405D01*
X48948095Y40501405D01*
X49052857Y40553786D01*
X49105238Y40606167D01*
X49157619Y40710929D01*
X49157619Y40920453D01*
X49105238Y41025215D01*
X49105238Y39610929D02*
X49157619Y39715691D01*
X49157619Y39925215D01*
X49105238Y40029977D01*
X49000476Y40082358D01*
X48581428Y40082358D01*
X48476666Y40029977D01*
X48424285Y39925215D01*
X48424285Y39715691D01*
X48476666Y39610929D01*
X48581428Y39558548D01*
X48686190Y39558548D01*
X48790952Y40082358D01*
X48424285Y39087120D02*
X49524285Y39087120D01*
X48476666Y39087120D02*
X48424285Y38982358D01*
X48424285Y38772834D01*
X48476666Y38668072D01*
X48529047Y38615691D01*
X48633809Y38563310D01*
X48948095Y38563310D01*
X49052857Y38615691D01*
X49105238Y38668072D01*
X49157619Y38772834D01*
X49157619Y38982358D01*
X49105238Y39087120D01*
X48424285Y38091881D02*
X49524285Y38091881D01*
X48476666Y38091881D02*
X48424285Y37987120D01*
X48424285Y37777596D01*
X48476666Y37672834D01*
X48529047Y37620453D01*
X48633809Y37568072D01*
X48948095Y37568072D01*
X49052857Y37620453D01*
X49105238Y37672834D01*
X49157619Y37777596D01*
X49157619Y37987120D01*
X49105238Y38091881D01*
X49105238Y36677596D02*
X49157619Y36782358D01*
X49157619Y36991881D01*
X49105238Y37096643D01*
X49000476Y37149024D01*
X48581428Y37149024D01*
X48476666Y37096643D01*
X48424285Y36991881D01*
X48424285Y36782358D01*
X48476666Y36677596D01*
X48581428Y36625215D01*
X48686190Y36625215D01*
X48790952Y37149024D01*
X49157619Y36153786D02*
X48424285Y36153786D01*
X48633809Y36153786D02*
X48529047Y36101405D01*
X48476666Y36049024D01*
X48424285Y35944262D01*
X48424285Y35839500D01*
X48162380Y34687120D02*
X48110000Y34634739D01*
X48057619Y34529977D01*
X48057619Y34268072D01*
X48110000Y34163310D01*
X48162380Y34110929D01*
X48267142Y34058548D01*
X48371904Y34058548D01*
X48529047Y34110929D01*
X49157619Y34739500D01*
X49157619Y34058548D01*
X48057619Y33377596D02*
X48057619Y33272834D01*
X48110000Y33168072D01*
X48162380Y33115691D01*
X48267142Y33063310D01*
X48476666Y33010929D01*
X48738571Y33010929D01*
X48948095Y33063310D01*
X49052857Y33115691D01*
X49105238Y33168072D01*
X49157619Y33272834D01*
X49157619Y33377596D01*
X49105238Y33482358D01*
X49052857Y33534739D01*
X48948095Y33587120D01*
X48738571Y33639500D01*
X48476666Y33639500D01*
X48267142Y33587120D01*
X48162380Y33534739D01*
X48110000Y33482358D01*
X48057619Y33377596D01*
X49157619Y31963310D02*
X49157619Y32591881D01*
X49157619Y32277596D02*
X48057619Y32277596D01*
X48214761Y32382358D01*
X48319523Y32487120D01*
X48371904Y32591881D01*
X49157619Y31439500D02*
X49157619Y31229977D01*
X49105238Y31125215D01*
X49052857Y31072834D01*
X48895714Y30968072D01*
X48686190Y30915691D01*
X48267142Y30915691D01*
X48162380Y30968072D01*
X48110000Y31020453D01*
X48057619Y31125215D01*
X48057619Y31334739D01*
X48110000Y31439500D01*
X48162380Y31491881D01*
X48267142Y31544262D01*
X48529047Y31544262D01*
X48633809Y31491881D01*
X48686190Y31439500D01*
X48738571Y31334739D01*
X48738571Y31125215D01*
X48686190Y31020453D01*
X48633809Y30968072D01*
X48529047Y30915691D01*
D11*
X0Y2500000D02*
G75*
G03X2500000Y0I2500000J0D01*
G01*
X47500000Y0D02*
G75*
G03X50000000Y2500000I0J2500000D01*
G01*
X50000000Y2500000D02*
X50000000Y47500000D01*
X2500000Y0D02*
X47500000Y0D01*
X0Y47500000D02*
X0Y2500000D01*
X50000000Y47500000D02*
G75*
G03X47500000Y50000000I-2500000J0D01*
G01*
X2500000Y50000000D02*
G75*
G03X0Y47500000I0J-2500000D01*
G01*
X2500000Y50000000D02*
X47500000Y50000000D01*
M02*
