G04 #@! TF.GenerationSoftware,KiCad,Pcbnew,(5.1.4)-1*
G04 #@! TF.CreationDate,2019-12-16T12:13:05+01:00*
G04 #@! TF.ProjectId,dancebots-pcb,64616e63-6562-46f7-9473-2d7063622e6b,rev?*
G04 #@! TF.SameCoordinates,PX5f5e100PY8f0d180*
G04 #@! TF.FileFunction,Soldermask,Bot*
G04 #@! TF.FilePolarity,Negative*
%FSLAX46Y46*%
G04 Gerber Fmt 4.6, Leading zero omitted, Abs format (unit mm)*
G04 Created by KiCad (PCBNEW (5.1.4)-1) date 2019-12-16 12:13:05*
%MOMM*%
%LPD*%
G04 APERTURE LIST*
%ADD10C,0.100000*%
%ADD11O,1.600000X2.400000*%
%ADD12R,1.600000X2.400000*%
%ADD13C,1.800000*%
%ADD14R,1.800000X1.800000*%
%ADD15R,2.000000X2.000000*%
%ADD16C,2.100000*%
%ADD17C,1.700000*%
%ADD18R,1.700000X1.700000*%
%ADD19C,2.000000*%
%ADD20O,2.540000X2.032000*%
%ADD21C,2.200000*%
%ADD22O,1.800000X2.000000*%
%ADD23O,2.000000X1.800000*%
%ADD24O,2.000000X1.400000*%
%ADD25O,1.400000X2.000000*%
G04 APERTURE END LIST*
D10*
X0Y2500000D02*
G75*
G03X2500000Y0I2500000J0D01*
G01*
X47500000Y0D02*
G75*
G03X50000000Y2500000I0J2500000D01*
G01*
X50000000Y2500000D02*
X50000000Y47500000D01*
X2500000Y0D02*
X47500000Y0D01*
X0Y47500000D02*
X0Y2500000D01*
X50000000Y47500000D02*
G75*
G03X47500000Y50000000I-2500000J0D01*
G01*
X2500000Y50000000D02*
G75*
G03X0Y47500000I0J-2500000D01*
G01*
X2500000Y50000000D02*
X47500000Y50000000D01*
D11*
X33000000Y36630000D03*
X25380000Y44250000D03*
X30460000Y36630000D03*
X27920000Y44250000D03*
X27920000Y36630000D03*
X30460000Y44250000D03*
X25380000Y36630000D03*
D12*
X33000000Y44250000D03*
D11*
X26400000Y25380000D03*
X18780000Y33000000D03*
X23860000Y25380000D03*
X21320000Y33000000D03*
X21320000Y25380000D03*
X23860000Y33000000D03*
X18780000Y25380000D03*
D12*
X26400000Y33000000D03*
D11*
X24750000Y21120000D03*
X47610000Y13500000D03*
X27290000Y21120000D03*
X45070000Y13500000D03*
X29830000Y21120000D03*
X42530000Y13500000D03*
X32370000Y21120000D03*
X39990000Y13500000D03*
X34910000Y21120000D03*
X37450000Y13500000D03*
X37450000Y21120000D03*
X34910000Y13500000D03*
X39990000Y21120000D03*
X32370000Y13500000D03*
X42530000Y21120000D03*
X29830000Y13500000D03*
X45070000Y21120000D03*
X27290000Y13500000D03*
X47610000Y21120000D03*
D12*
X24750000Y13500000D03*
D11*
X2500000Y21120000D03*
X20280000Y13500000D03*
X5040000Y21120000D03*
X17740000Y13500000D03*
X7580000Y21120000D03*
X15200000Y13500000D03*
X10120000Y21120000D03*
X12660000Y13500000D03*
X12660000Y21120000D03*
X10120000Y13500000D03*
X15200000Y21120000D03*
X7580000Y13500000D03*
X17740000Y21120000D03*
X5040000Y13500000D03*
X20280000Y21120000D03*
D12*
X2500000Y13500000D03*
D13*
X16500000Y37710000D03*
D14*
X16500000Y40250000D03*
D15*
X3330000Y47800000D03*
D16*
X5870000Y47800000D03*
D17*
X11500000Y33500000D03*
D18*
X9500000Y33500000D03*
D14*
X43950000Y30800000D03*
D13*
X46450000Y30800000D03*
D19*
X5000000Y1730000D03*
X5000000Y4270000D03*
X9500000Y1730000D03*
X9500000Y4270000D03*
X14000000Y1730000D03*
X14000000Y4270000D03*
X18500000Y1730000D03*
X18500000Y4270000D03*
X23000000Y1730000D03*
X23000000Y4270000D03*
X27500000Y1730000D03*
X27500000Y4270000D03*
X32000000Y1730000D03*
X32000000Y4270000D03*
X36500000Y1730000D03*
X36500000Y4270000D03*
D20*
X9750000Y41750000D03*
X9750000Y39210000D03*
X9750000Y44290000D03*
D21*
X15750000Y46900000D03*
D19*
X17550000Y48500000D03*
X13950000Y48500000D03*
X23500000Y9000000D03*
X26040000Y9000000D03*
X28580000Y9000000D03*
X31120000Y9000000D03*
X33660000Y9000000D03*
X36200000Y9000000D03*
X38740000Y9000000D03*
X41280000Y9000000D03*
X2000000Y9000000D03*
X4540000Y9000000D03*
X7080000Y9000000D03*
X9620000Y9000000D03*
X12160000Y9000000D03*
X14700000Y9000000D03*
X17240000Y9000000D03*
X19780000Y9000000D03*
D22*
X37000000Y35400000D03*
X37000000Y45560000D03*
X40600000Y35400000D03*
X40600000Y45560000D03*
D23*
X4700000Y27200000D03*
X14860000Y27200000D03*
D24*
X6500000Y42500000D03*
X6500000Y40500000D03*
X43500000Y40500000D03*
X43500000Y42500000D03*
D25*
X43000000Y6500000D03*
X45000000Y6500000D03*
D19*
X1460000Y34500000D03*
X6540000Y34500000D03*
X1460000Y31500000D03*
X6540000Y31500000D03*
X47790000Y24750000D03*
X42710000Y24750000D03*
X39540000Y32000000D03*
X34460000Y32000000D03*
X39540000Y27600000D03*
X34460000Y27600000D03*
X21750000Y39210000D03*
X21750000Y44290000D03*
X30800000Y31740000D03*
X30800000Y26660000D03*
M02*
