M48
; DRILL file {KiCad (5.1.4)-1} date 12/16/2019 12:13:08 PM
; FORMAT={-:-/ absolute / inch / decimal}
; #@! TF.CreationDate,2019-12-16T12:13:08+01:00
; #@! TF.GenerationSoftware,Kicad,Pcbnew,(5.1.4)-1
; #@! TF.FileFunction,Plated,1,2,PTH
FMAT,2
INCH
T1C0.0157
T2C0.0315
T3C0.0354
T4C0.0394
T5C0.0450
T6C0.0472
%
G90
G05
T1
X0.0709Y1.7835
X0.0866Y1.0591
X0.1339Y1.4764
X0.1772Y1.2205
X0.2047Y0.9764
X0.2087Y0.689
X0.2402Y1.1614
X0.2638Y0.5945
X0.2677Y0.6299
X0.2992Y0.9291
X0.3346Y0.5945
X0.3386Y0.6299
X0.3425Y1.4331
X0.3839Y1.8307
X0.4331Y1.4331
X0.463Y1.0598
X0.4961Y0.6693
X0.58Y1.35
X0.5984Y0.9252
X0.6496Y0.9331
X0.6594Y1.7618
X0.689Y0.7205
X0.6929Y0.6693
X0.6988Y0.9232
X0.7283Y1.7618
X0.7362Y1.5433
X0.748Y1.0866
X0.7559Y0.5984
X0.7598Y0.8937
X0.7677Y0.6299
X0.7992Y0.7323
X0.8024Y1.4094
X0.8307Y0.5984
X0.8346Y0.6693
X0.8346Y0.6299
X0.8386Y1.1713
X0.8386Y1.1024
X0.8642Y0.565
X0.874Y0.6969
X0.876Y0.75
X0.8937Y0.5256
X0.9213Y0.5551
X0.9331Y0.748
X0.9606Y1.0945
X1.0118Y0.7224
X1.0728Y0.9331
X1.0886Y1.0669
X1.126Y0.6654
X1.1476Y1.5039
X1.2018Y1.5768
X1.2106Y0.7008
X1.2126Y1.3504
X1.2323Y0.6713
X1.2835Y1.2362
X1.2921Y0.9799
X1.311Y0.6535
X1.378Y1.5354
X1.3937Y1.189
X1.3937Y1.1575
X1.4291Y1.6732
X1.4626Y1.2559
X1.4646Y1.3307
X1.4724Y0.6535
X1.4744Y0.75
X1.4882Y1.5276
X1.5177Y0.2559
X1.5236Y1.1575
X1.5354Y0.4528
X1.5433Y0.9252
X1.5472Y1.3307
X1.5472Y1.189
X1.563Y1.6732
X1.5787Y0.6181
X1.5906Y1.5276
X1.6693Y0.4528
X1.7165Y1.0709
X1.7795Y0.4201
X1.7984Y1.4122
X1.8307Y0.6535
X1.8976Y1.1496
T2
X0.0787Y0.3543
X0.1787Y0.3543
X0.2787Y0.3543
X0.3787Y0.3543
X0.4787Y0.3543
X0.5787Y0.3543
X0.6787Y0.3543
X0.7787Y0.3543
X0.9992Y1.7421
X0.9992Y1.4421
X1.0992Y1.7421
X1.0992Y1.4421
X1.1992Y1.7421
X1.1992Y1.4421
X1.2992Y1.7421
X1.2992Y1.4421
X1.7126Y1.6732
X1.7126Y1.5945
X0.0984Y0.8315
X0.0984Y0.5315
X0.1984Y0.8315
X0.1984Y0.5315
X0.2984Y0.8315
X0.2984Y0.5315
X0.3984Y0.8315
X0.3984Y0.5315
X0.4984Y0.8315
X0.4984Y0.5315
X0.5984Y0.8315
X0.5984Y0.5315
X0.6984Y0.8315
X0.6984Y0.5315
X0.7984Y0.8315
X0.7984Y0.5315
X0.8563Y1.7437
X0.8563Y1.5437
X0.7394Y1.2992
X0.7394Y0.9992
X0.8394Y1.2992
X0.8394Y0.9992
X0.9394Y1.2992
X0.9394Y0.9992
X1.0394Y1.2992
X1.0394Y0.9992
X0.0575Y1.3583
X0.2575Y1.3583
X1.4567Y1.7937
X1.4567Y1.3937
X1.5984Y1.7937
X1.5984Y1.3937
X1.6815Y0.9744
X1.8815Y0.9744
X0.9744Y0.8315
X0.9744Y0.5315
X1.0744Y0.8315
X1.0744Y0.5315
X1.1744Y0.8315
X1.1744Y0.5315
X1.2744Y0.8315
X1.2744Y0.5315
X1.3744Y0.8315
X1.3744Y0.5315
X1.4744Y0.8315
X1.4744Y0.5315
X1.5744Y0.8315
X1.5744Y0.5315
X1.6744Y0.8315
X1.6744Y0.5315
X1.7744Y0.8315
X1.7744Y0.5315
X1.8744Y0.8315
X1.8744Y0.5315
X1.7303Y1.2126
X1.8287Y1.2126
X0.2559Y1.6732
X0.2559Y1.5945
X0.9252Y0.3543
X1.0252Y0.3543
X1.1252Y0.3543
X1.2252Y0.3543
X1.3252Y0.3543
X1.4252Y0.3543
X1.5252Y0.3543
X1.6252Y0.3543
X1.2126Y1.2496
X1.2126Y1.0496
X0.0575Y1.2402
X0.2575Y1.2402
X1.3567Y1.0866
X1.5567Y1.0866
X0.185Y1.0709
X0.585Y1.0709
X0.374Y1.3189
X0.4528Y1.3189
X1.6929Y0.2559
X1.7717Y0.2559
X1.3567Y1.2598
X1.5567Y1.2598
T3
X0.6496Y1.5846
X0.6496Y1.4846
T4
X0.5492Y1.9094
X0.6909Y1.9094
X1.437Y0.1681
X1.437Y0.0681
X0.9055Y0.1681
X0.9055Y0.0681
X0.7283Y0.1681
X0.7283Y0.0681
X0.1311Y1.8819
X0.2311Y1.8819
X0.1969Y0.1681
X0.1969Y0.0681
X1.0827Y0.1681
X1.0827Y0.0681
X1.2598Y0.1681
X1.2598Y0.0681
X0.5512Y0.1681
X0.5512Y0.0681
X0.374Y0.1681
X0.374Y0.0681
T5
X0.3839Y1.7437
X0.3839Y1.6437
X0.3839Y1.5437
T6
X0.6201Y1.8465
T0
M30
