G04 #@! TF.FileFunction,Soldermask,Top*
%FSLAX46Y46*%
G04 Gerber Fmt 4.6, Leading zero omitted, Abs format (unit mm)*
G04 Created by KiCad (PCBNEW 4.0.2+dfsg1-stable) date Die 12 Sep 2017 09:23:44 CEST*
%MOMM*%
G01*
G04 APERTURE LIST*
%ADD10C,0.100000*%
%ADD11C,0.150000*%
%ADD12O,2.700000X2.000000*%
%ADD13R,2.127200X2.127200*%
%ADD14O,2.127200X2.127200*%
%ADD15O,4.400000X2.200000*%
%ADD16C,1.200000*%
%ADD17O,2.200000X1.550000*%
%ADD18O,2.400000X1.850000*%
%ADD19R,1.700000X0.850000*%
G04 APERTURE END LIST*
D10*
D11*
X0Y0D02*
X0Y45000000D01*
X31000000Y0D02*
X0Y0D01*
X31000000Y45000000D02*
X31000000Y0D01*
X0Y45000000D02*
X31000000Y45000000D01*
D12*
X21000000Y26450000D03*
X21000000Y23910000D03*
X21000000Y21370000D03*
X21000000Y18830000D03*
X21000000Y16290000D03*
X21000000Y13750000D03*
X21000000Y11210000D03*
X21000000Y8670000D03*
X21000000Y6130000D03*
X21000000Y3590000D03*
X28620000Y3590000D03*
X28620000Y6130000D03*
X28620000Y8670000D03*
X28620000Y11210000D03*
X28620000Y13750000D03*
X28620000Y16290000D03*
X28620000Y18830000D03*
X28620000Y21370000D03*
X28620000Y23910000D03*
X28620000Y26450000D03*
D13*
X23250000Y40000000D03*
D14*
X25790000Y40000000D03*
X23250000Y37460000D03*
X25790000Y37460000D03*
X23250000Y34920000D03*
X25790000Y34920000D03*
D15*
X3251100Y26426400D03*
X3251100Y23886400D03*
X3251100Y21346400D03*
X3251100Y18806400D03*
X3251100Y16266400D03*
X3251100Y13726400D03*
X3251100Y11186400D03*
X3251100Y8646400D03*
X3251100Y6106400D03*
X3251100Y3566400D03*
X11751100Y3566400D03*
X11751100Y6106400D03*
X11751100Y8646400D03*
X11751100Y11186400D03*
X11751100Y13726400D03*
X11751100Y16266400D03*
X11751100Y18806400D03*
X11751100Y21346400D03*
X11751100Y23886400D03*
X11751100Y26426400D03*
D16*
X4550000Y35750000D03*
D17*
X1800000Y34375000D03*
X1800000Y42125000D03*
D18*
X5600000Y34525000D03*
X5600000Y41975000D03*
D16*
X4550000Y40750000D03*
D19*
X5650000Y39550000D03*
X5650000Y38900000D03*
X5650000Y38250000D03*
X5650000Y37600000D03*
X5650000Y36950000D03*
M02*
