G04 #@! TF.FileFunction,Copper,L1,Top,Signal*
%FSLAX46Y46*%
G04 Gerber Fmt 4.6, Leading zero omitted, Abs format (unit mm)*
G04 Created by KiCad (PCBNEW 4.0.2+dfsg1-stable) date Die 12 Sep 2017 09:23:44 CEST*
%MOMM*%
G01*
G04 APERTURE LIST*
%ADD10C,0.100000*%
%ADD11C,0.150000*%
%ADD12O,2.300000X1.600000*%
%ADD13R,1.727200X1.727200*%
%ADD14O,1.727200X1.727200*%
%ADD15O,4.000000X1.800000*%
%ADD16O,1.800000X1.150000*%
%ADD17O,2.000000X1.450000*%
%ADD18R,1.300000X0.450000*%
%ADD19C,0.600000*%
%ADD20C,0.250000*%
G04 APERTURE END LIST*
D10*
D11*
X0Y0D02*
X0Y45000000D01*
X31000000Y0D02*
X0Y0D01*
X31000000Y45000000D02*
X31000000Y0D01*
X0Y45000000D02*
X31000000Y45000000D01*
D12*
X21000000Y26450000D03*
X21000000Y23910000D03*
X21000000Y21370000D03*
X21000000Y18830000D03*
X21000000Y16290000D03*
X21000000Y13750000D03*
X21000000Y11210000D03*
X21000000Y8670000D03*
X21000000Y6130000D03*
X21000000Y3590000D03*
X28620000Y3590000D03*
X28620000Y6130000D03*
X28620000Y8670000D03*
X28620000Y11210000D03*
X28620000Y13750000D03*
X28620000Y16290000D03*
X28620000Y18830000D03*
X28620000Y21370000D03*
X28620000Y23910000D03*
X28620000Y26450000D03*
D13*
X23250000Y40000000D03*
D14*
X25790000Y40000000D03*
X23250000Y37460000D03*
X25790000Y37460000D03*
X23250000Y34920000D03*
X25790000Y34920000D03*
D15*
X3251100Y26426400D03*
X3251100Y23886400D03*
X3251100Y21346400D03*
X3251100Y18806400D03*
X3251100Y16266400D03*
X3251100Y13726400D03*
X3251100Y11186400D03*
X3251100Y8646400D03*
X3251100Y6106400D03*
X3251100Y3566400D03*
X11751100Y3566400D03*
X11751100Y6106400D03*
X11751100Y8646400D03*
X11751100Y11186400D03*
X11751100Y13726400D03*
X11751100Y16266400D03*
X11751100Y18806400D03*
X11751100Y21346400D03*
X11751100Y23886400D03*
X11751100Y26426400D03*
D16*
X1800000Y34375000D03*
X1800000Y42125000D03*
D17*
X5600000Y34525000D03*
X5600000Y41975000D03*
D18*
X5650000Y39550000D03*
X5650000Y38900000D03*
X5650000Y38250000D03*
X5650000Y37600000D03*
X5650000Y36950000D03*
D19*
X7050000Y36950000D03*
X14600000Y17000000D03*
X6000000Y13000000D03*
X25200000Y26400000D03*
X18900000Y27150000D03*
X24750000Y16250000D03*
X23750000Y15250000D03*
D20*
X5650000Y36950000D02*
X7050000Y36950000D01*
X11751100Y16266400D02*
X13866400Y16266400D01*
X13866400Y16266400D02*
X14600000Y17000000D01*
X3251100Y13726400D02*
X5273600Y13726400D01*
X5273600Y13726400D02*
X6000000Y13000000D01*
X5650000Y39550000D02*
X15650000Y39550000D01*
X23290000Y42500000D02*
X25790000Y40000000D01*
X18600000Y42500000D02*
X23290000Y42500000D01*
X15650000Y39550000D02*
X18600000Y42500000D01*
X11751100Y13726400D02*
X9273600Y13726400D01*
X6733600Y16266400D02*
X3251100Y16266400D01*
X9273600Y13726400D02*
X6733600Y16266400D01*
X21000000Y16290000D02*
X18290000Y16290000D01*
X15726400Y13726400D02*
X11751100Y13726400D01*
X18290000Y16290000D02*
X15726400Y13726400D01*
X28620000Y13750000D02*
X26250000Y13750000D01*
X23710000Y16290000D02*
X21000000Y16290000D01*
X26250000Y13750000D02*
X23710000Y16290000D01*
X25790000Y40000000D02*
X28750000Y40000000D01*
X30500000Y15250000D02*
X29000000Y13750000D01*
X30500000Y38250000D02*
X30500000Y15250000D01*
X28750000Y40000000D02*
X30500000Y38250000D01*
X29000000Y13750000D02*
X28620000Y13750000D01*
X27400000Y35850000D02*
X25790000Y37460000D01*
X27400000Y28600000D02*
X27400000Y35850000D01*
X25200000Y26400000D02*
X27400000Y28600000D01*
X21000000Y26450000D02*
X15750000Y26450000D01*
X6226400Y26426400D02*
X3251100Y26426400D01*
X7600000Y27800000D02*
X6226400Y26426400D01*
X14400000Y27800000D02*
X7600000Y27800000D01*
X15750000Y26450000D02*
X14400000Y27800000D01*
X20950000Y40000000D02*
X23250000Y40000000D01*
X18800000Y37850000D02*
X20950000Y40000000D01*
X18800000Y27250000D02*
X18800000Y37850000D01*
X18900000Y27150000D02*
X18800000Y27250000D01*
X21000000Y23910000D02*
X14990000Y23910000D01*
X6536400Y23886400D02*
X3251100Y23886400D01*
X7800000Y25150000D02*
X6536400Y23886400D01*
X13750000Y25150000D02*
X7800000Y25150000D01*
X14990000Y23910000D02*
X13750000Y25150000D01*
X3251100Y21346400D02*
X7196400Y21346400D01*
X18480000Y21370000D02*
X21000000Y21370000D01*
X17250000Y22600000D02*
X18480000Y21370000D01*
X8450000Y22600000D02*
X17250000Y22600000D01*
X7196400Y21346400D02*
X8450000Y22600000D01*
X23250000Y37460000D02*
X23210000Y37460000D01*
X23210000Y37460000D02*
X21750000Y36000000D01*
X21750000Y36000000D02*
X21750000Y28000000D01*
X21750000Y28000000D02*
X22750000Y27000000D01*
X22750000Y27000000D02*
X22750000Y22500000D01*
X22750000Y22500000D02*
X21620000Y21370000D01*
X21620000Y21370000D02*
X21000000Y21370000D01*
X21000000Y3590000D02*
X21590000Y3590000D01*
X21590000Y3590000D02*
X23750000Y5750000D01*
X24250000Y33920000D02*
X23250000Y34920000D01*
X24250000Y16750000D02*
X24250000Y33920000D01*
X24750000Y16250000D02*
X24250000Y16750000D01*
X23750000Y5750000D02*
X23750000Y15250000D01*
X21000000Y3590000D02*
X17090000Y3590000D01*
X3251100Y1998900D02*
X3251100Y3566400D01*
X4000000Y1250000D02*
X3251100Y1998900D01*
X14750000Y1250000D02*
X4000000Y1250000D01*
X17090000Y3590000D02*
X14750000Y1250000D01*
M02*
