M48
METRIC,TZ
T1C0.400
T2C0.550
T3C0.800
T4C0.850
T5C1.016
%
G90
G05
T1
X006000Y013000
X007050Y036950
X014600Y017000
X018900Y027150
X023750Y015250
X024750Y016250
X025200Y026400
T3
X021000Y026450
X021000Y023910
X021000Y021370
X021000Y018830
X021000Y016290
X021000Y013750
X021000Y011210
X021000Y008670
X021000Y006130
X021000Y003590
X028620Y026450
X028620Y023910
X028620Y021370
X028620Y018830
X028620Y016290
X028620Y013750
X028620Y011210
X028620Y008670
X028620Y006130
X028620Y003590
T5
X023250Y040000
X023250Y037460
X023250Y034920
X025790Y040000
X025790Y037460
X025790Y034920
T2
X002125Y042125G85X001475Y042125
G05
X002125Y034375G85X001475Y034375
G05
T4
X005875Y041975G85X005325Y041975
G05
X005875Y034525G85X005325Y034525
G05
T0
M30
