G04 #@! TF.FileFunction,Copper,L2,Bot,Signal*
%FSLAX46Y46*%
G04 Gerber Fmt 4.6, Leading zero omitted, Abs format (unit mm)*
G04 Created by KiCad (PCBNEW 4.0.2+dfsg1-stable) date Die 12 Sep 2017 09:23:44 CEST*
%MOMM*%
G01*
G04 APERTURE LIST*
%ADD10C,0.100000*%
%ADD11C,0.150000*%
%ADD12O,2.300000X1.600000*%
%ADD13R,1.727200X1.727200*%
%ADD14O,1.727200X1.727200*%
%ADD15O,1.800000X1.150000*%
%ADD16O,2.000000X1.450000*%
%ADD17C,0.600000*%
%ADD18C,0.250000*%
G04 APERTURE END LIST*
D10*
D11*
X0Y0D02*
X0Y45000000D01*
X31000000Y0D02*
X0Y0D01*
X31000000Y45000000D02*
X31000000Y0D01*
X0Y45000000D02*
X31000000Y45000000D01*
D12*
X21000000Y26450000D03*
X21000000Y23910000D03*
X21000000Y21370000D03*
X21000000Y18830000D03*
X21000000Y16290000D03*
X21000000Y13750000D03*
X21000000Y11210000D03*
X21000000Y8670000D03*
X21000000Y6130000D03*
X21000000Y3590000D03*
X28620000Y3590000D03*
X28620000Y6130000D03*
X28620000Y8670000D03*
X28620000Y11210000D03*
X28620000Y13750000D03*
X28620000Y16290000D03*
X28620000Y18830000D03*
X28620000Y21370000D03*
X28620000Y23910000D03*
X28620000Y26450000D03*
D13*
X23250000Y40000000D03*
D14*
X25790000Y40000000D03*
X23250000Y37460000D03*
X25790000Y37460000D03*
X23250000Y34920000D03*
X25790000Y34920000D03*
D15*
X1800000Y34375000D03*
X1800000Y42125000D03*
D16*
X5600000Y34525000D03*
X5600000Y41975000D03*
D17*
X7050000Y36950000D03*
X14600000Y17000000D03*
X6000000Y13000000D03*
X25200000Y26400000D03*
X18900000Y27150000D03*
X24750000Y16250000D03*
X23750000Y15250000D03*
D18*
X21000000Y26450000D02*
X25150000Y26450000D01*
X25150000Y26450000D02*
X25200000Y26400000D01*
X21000000Y23910000D02*
X20540000Y23910000D01*
X20540000Y23910000D02*
X18900000Y25550000D01*
X18900000Y25550000D02*
X18900000Y27150000D01*
X23750000Y15250000D02*
X24750000Y16250000D01*
G36*
X30550000Y450000D02*
X450000Y450000D01*
X450000Y3590000D01*
X19445123Y3590000D01*
X19534565Y3140347D01*
X19789273Y2759150D01*
X20170470Y2504442D01*
X20620123Y2415000D01*
X21379877Y2415000D01*
X21829530Y2504442D01*
X22210727Y2759150D01*
X22465435Y3140347D01*
X22554877Y3590000D01*
X27065123Y3590000D01*
X27154565Y3140347D01*
X27409273Y2759150D01*
X27790470Y2504442D01*
X28240123Y2415000D01*
X28999877Y2415000D01*
X29449530Y2504442D01*
X29830727Y2759150D01*
X30085435Y3140347D01*
X30174877Y3590000D01*
X30085435Y4039653D01*
X29830727Y4420850D01*
X29449530Y4675558D01*
X28999877Y4765000D01*
X28240123Y4765000D01*
X27790470Y4675558D01*
X27409273Y4420850D01*
X27154565Y4039653D01*
X27065123Y3590000D01*
X22554877Y3590000D01*
X22465435Y4039653D01*
X22210727Y4420850D01*
X21829530Y4675558D01*
X21379877Y4765000D01*
X20620123Y4765000D01*
X20170470Y4675558D01*
X19789273Y4420850D01*
X19534565Y4039653D01*
X19445123Y3590000D01*
X450000Y3590000D01*
X450000Y6130000D01*
X19445123Y6130000D01*
X19534565Y5680347D01*
X19789273Y5299150D01*
X20170470Y5044442D01*
X20620123Y4955000D01*
X21379877Y4955000D01*
X21829530Y5044442D01*
X22210727Y5299150D01*
X22465435Y5680347D01*
X22554877Y6130000D01*
X27065123Y6130000D01*
X27154565Y5680347D01*
X27409273Y5299150D01*
X27790470Y5044442D01*
X28240123Y4955000D01*
X28999877Y4955000D01*
X29449530Y5044442D01*
X29830727Y5299150D01*
X30085435Y5680347D01*
X30174877Y6130000D01*
X30085435Y6579653D01*
X29830727Y6960850D01*
X29449530Y7215558D01*
X28999877Y7305000D01*
X28240123Y7305000D01*
X27790470Y7215558D01*
X27409273Y6960850D01*
X27154565Y6579653D01*
X27065123Y6130000D01*
X22554877Y6130000D01*
X22465435Y6579653D01*
X22210727Y6960850D01*
X21829530Y7215558D01*
X21379877Y7305000D01*
X20620123Y7305000D01*
X20170470Y7215558D01*
X19789273Y6960850D01*
X19534565Y6579653D01*
X19445123Y6130000D01*
X450000Y6130000D01*
X450000Y8670000D01*
X19445123Y8670000D01*
X19534565Y8220347D01*
X19789273Y7839150D01*
X20170470Y7584442D01*
X20620123Y7495000D01*
X21379877Y7495000D01*
X21829530Y7584442D01*
X22210727Y7839150D01*
X22465435Y8220347D01*
X22554877Y8670000D01*
X27065123Y8670000D01*
X27154565Y8220347D01*
X27409273Y7839150D01*
X27790470Y7584442D01*
X28240123Y7495000D01*
X28999877Y7495000D01*
X29449530Y7584442D01*
X29830727Y7839150D01*
X30085435Y8220347D01*
X30174877Y8670000D01*
X30085435Y9119653D01*
X29830727Y9500850D01*
X29449530Y9755558D01*
X28999877Y9845000D01*
X28240123Y9845000D01*
X27790470Y9755558D01*
X27409273Y9500850D01*
X27154565Y9119653D01*
X27065123Y8670000D01*
X22554877Y8670000D01*
X22465435Y9119653D01*
X22210727Y9500850D01*
X21829530Y9755558D01*
X21379877Y9845000D01*
X20620123Y9845000D01*
X20170470Y9755558D01*
X19789273Y9500850D01*
X19534565Y9119653D01*
X19445123Y8670000D01*
X450000Y8670000D01*
X450000Y11210000D01*
X19445123Y11210000D01*
X19534565Y10760347D01*
X19789273Y10379150D01*
X20170470Y10124442D01*
X20620123Y10035000D01*
X21379877Y10035000D01*
X21829530Y10124442D01*
X22210727Y10379150D01*
X22465435Y10760347D01*
X22554877Y11210000D01*
X27065123Y11210000D01*
X27154565Y10760347D01*
X27409273Y10379150D01*
X27790470Y10124442D01*
X28240123Y10035000D01*
X28999877Y10035000D01*
X29449530Y10124442D01*
X29830727Y10379150D01*
X30085435Y10760347D01*
X30174877Y11210000D01*
X30085435Y11659653D01*
X29830727Y12040850D01*
X29449530Y12295558D01*
X28999877Y12385000D01*
X28240123Y12385000D01*
X27790470Y12295558D01*
X27409273Y12040850D01*
X27154565Y11659653D01*
X27065123Y11210000D01*
X22554877Y11210000D01*
X22465435Y11659653D01*
X22210727Y12040850D01*
X21829530Y12295558D01*
X21379877Y12385000D01*
X20620123Y12385000D01*
X20170470Y12295558D01*
X19789273Y12040850D01*
X19534565Y11659653D01*
X19445123Y11210000D01*
X450000Y11210000D01*
X450000Y13561253D01*
X19490259Y13561253D01*
X19562528Y13304966D01*
X19815614Y12922685D01*
X20195728Y12666355D01*
X20645000Y12575000D01*
X20995000Y12575000D01*
X20995000Y13745000D01*
X21005000Y13745000D01*
X21005000Y12575000D01*
X21355000Y12575000D01*
X21804272Y12666355D01*
X22184386Y12922685D01*
X22437472Y13304966D01*
X22509741Y13561253D01*
X22431238Y13745000D01*
X21005000Y13745000D01*
X20995000Y13745000D01*
X19568762Y13745000D01*
X19490259Y13561253D01*
X450000Y13561253D01*
X450000Y13750000D01*
X27065123Y13750000D01*
X27154565Y13300347D01*
X27409273Y12919150D01*
X27790470Y12664442D01*
X28240123Y12575000D01*
X28999877Y12575000D01*
X29449530Y12664442D01*
X29830727Y12919150D01*
X30085435Y13300347D01*
X30174877Y13750000D01*
X30085435Y14199653D01*
X29830727Y14580850D01*
X29449530Y14835558D01*
X28999877Y14925000D01*
X28240123Y14925000D01*
X27790470Y14835558D01*
X27409273Y14580850D01*
X27154565Y14199653D01*
X27065123Y13750000D01*
X450000Y13750000D01*
X450000Y13938747D01*
X19490259Y13938747D01*
X19568762Y13755000D01*
X20995000Y13755000D01*
X20995000Y14925000D01*
X21005000Y14925000D01*
X21005000Y13755000D01*
X22431238Y13755000D01*
X22509741Y13938747D01*
X22437472Y14195034D01*
X22184386Y14577315D01*
X21804272Y14833645D01*
X21355000Y14925000D01*
X21005000Y14925000D01*
X20995000Y14925000D01*
X20645000Y14925000D01*
X20195728Y14833645D01*
X19815614Y14577315D01*
X19562528Y14195034D01*
X19490259Y13938747D01*
X450000Y13938747D01*
X450000Y16290000D01*
X19445123Y16290000D01*
X19534565Y15840347D01*
X19789273Y15459150D01*
X20170470Y15204442D01*
X20620123Y15115000D01*
X21379877Y15115000D01*
X21386528Y15116323D01*
X23074883Y15116323D01*
X23177429Y14868143D01*
X23367144Y14678097D01*
X23615145Y14575117D01*
X23883677Y14574883D01*
X24131857Y14677429D01*
X24321903Y14867144D01*
X24424883Y15115145D01*
X24424973Y15217866D01*
X24782078Y15574972D01*
X24883677Y15574883D01*
X25131857Y15677429D01*
X25321903Y15867144D01*
X25419114Y16101253D01*
X27110259Y16101253D01*
X27182528Y15844966D01*
X27435614Y15462685D01*
X27815728Y15206355D01*
X28265000Y15115000D01*
X28615000Y15115000D01*
X28615000Y16285000D01*
X28625000Y16285000D01*
X28625000Y15115000D01*
X28975000Y15115000D01*
X29424272Y15206355D01*
X29804386Y15462685D01*
X30057472Y15844966D01*
X30129741Y16101253D01*
X30051238Y16285000D01*
X28625000Y16285000D01*
X28615000Y16285000D01*
X27188762Y16285000D01*
X27110259Y16101253D01*
X25419114Y16101253D01*
X25424883Y16115145D01*
X25425117Y16383677D01*
X25385835Y16478747D01*
X27110259Y16478747D01*
X27188762Y16295000D01*
X28615000Y16295000D01*
X28615000Y17465000D01*
X28625000Y17465000D01*
X28625000Y16295000D01*
X30051238Y16295000D01*
X30129741Y16478747D01*
X30057472Y16735034D01*
X29804386Y17117315D01*
X29424272Y17373645D01*
X28975000Y17465000D01*
X28625000Y17465000D01*
X28615000Y17465000D01*
X28265000Y17465000D01*
X27815728Y17373645D01*
X27435614Y17117315D01*
X27182528Y16735034D01*
X27110259Y16478747D01*
X25385835Y16478747D01*
X25322571Y16631857D01*
X25132856Y16821903D01*
X24884855Y16924883D01*
X24616323Y16925117D01*
X24368143Y16822571D01*
X24178097Y16632856D01*
X24075117Y16384855D01*
X24075027Y16282134D01*
X23717922Y15925028D01*
X23616323Y15925117D01*
X23368143Y15822571D01*
X23178097Y15632856D01*
X23075117Y15384855D01*
X23074883Y15116323D01*
X21386528Y15116323D01*
X21829530Y15204442D01*
X22210727Y15459150D01*
X22465435Y15840347D01*
X22554877Y16290000D01*
X22465435Y16739653D01*
X22210727Y17120850D01*
X21829530Y17375558D01*
X21379877Y17465000D01*
X20620123Y17465000D01*
X20170470Y17375558D01*
X19789273Y17120850D01*
X19534565Y16739653D01*
X19445123Y16290000D01*
X450000Y16290000D01*
X450000Y18830000D01*
X19445123Y18830000D01*
X19534565Y18380347D01*
X19789273Y17999150D01*
X20170470Y17744442D01*
X20620123Y17655000D01*
X21379877Y17655000D01*
X21829530Y17744442D01*
X22210727Y17999150D01*
X22465435Y18380347D01*
X22554877Y18830000D01*
X27065123Y18830000D01*
X27154565Y18380347D01*
X27409273Y17999150D01*
X27790470Y17744442D01*
X28240123Y17655000D01*
X28999877Y17655000D01*
X29449530Y17744442D01*
X29830727Y17999150D01*
X30085435Y18380347D01*
X30174877Y18830000D01*
X30085435Y19279653D01*
X29830727Y19660850D01*
X29449530Y19915558D01*
X28999877Y20005000D01*
X28240123Y20005000D01*
X27790470Y19915558D01*
X27409273Y19660850D01*
X27154565Y19279653D01*
X27065123Y18830000D01*
X22554877Y18830000D01*
X22465435Y19279653D01*
X22210727Y19660850D01*
X21829530Y19915558D01*
X21379877Y20005000D01*
X20620123Y20005000D01*
X20170470Y19915558D01*
X19789273Y19660850D01*
X19534565Y19279653D01*
X19445123Y18830000D01*
X450000Y18830000D01*
X450000Y21370000D01*
X19445123Y21370000D01*
X19534565Y20920347D01*
X19789273Y20539150D01*
X20170470Y20284442D01*
X20620123Y20195000D01*
X21379877Y20195000D01*
X21829530Y20284442D01*
X22210727Y20539150D01*
X22465435Y20920347D01*
X22554877Y21370000D01*
X27065123Y21370000D01*
X27154565Y20920347D01*
X27409273Y20539150D01*
X27790470Y20284442D01*
X28240123Y20195000D01*
X28999877Y20195000D01*
X29449530Y20284442D01*
X29830727Y20539150D01*
X30085435Y20920347D01*
X30174877Y21370000D01*
X30085435Y21819653D01*
X29830727Y22200850D01*
X29449530Y22455558D01*
X28999877Y22545000D01*
X28240123Y22545000D01*
X27790470Y22455558D01*
X27409273Y22200850D01*
X27154565Y21819653D01*
X27065123Y21370000D01*
X22554877Y21370000D01*
X22465435Y21819653D01*
X22210727Y22200850D01*
X21829530Y22455558D01*
X21379877Y22545000D01*
X20620123Y22545000D01*
X20170470Y22455558D01*
X19789273Y22200850D01*
X19534565Y21819653D01*
X19445123Y21370000D01*
X450000Y21370000D01*
X450000Y27016323D01*
X18224883Y27016323D01*
X18327429Y26768143D01*
X18400000Y26695445D01*
X18400000Y25550000D01*
X18438060Y25358658D01*
X18546447Y25196447D01*
X19509459Y24233435D01*
X19445123Y23910000D01*
X19534565Y23460347D01*
X19789273Y23079150D01*
X20170470Y22824442D01*
X20620123Y22735000D01*
X21379877Y22735000D01*
X21829530Y22824442D01*
X22210727Y23079150D01*
X22465435Y23460347D01*
X22554877Y23910000D01*
X27065123Y23910000D01*
X27154565Y23460347D01*
X27409273Y23079150D01*
X27790470Y22824442D01*
X28240123Y22735000D01*
X28999877Y22735000D01*
X29449530Y22824442D01*
X29830727Y23079150D01*
X30085435Y23460347D01*
X30174877Y23910000D01*
X30085435Y24359653D01*
X29830727Y24740850D01*
X29449530Y24995558D01*
X28999877Y25085000D01*
X28240123Y25085000D01*
X27790470Y24995558D01*
X27409273Y24740850D01*
X27154565Y24359653D01*
X27065123Y23910000D01*
X22554877Y23910000D01*
X22465435Y24359653D01*
X22210727Y24740850D01*
X21829530Y24995558D01*
X21379877Y25085000D01*
X20620123Y25085000D01*
X20170470Y24995558D01*
X20165122Y24991985D01*
X19400000Y25757106D01*
X19400000Y26450000D01*
X19445123Y26450000D01*
X19534565Y26000347D01*
X19789273Y25619150D01*
X20170470Y25364442D01*
X20620123Y25275000D01*
X21379877Y25275000D01*
X21829530Y25364442D01*
X22210727Y25619150D01*
X22431794Y25950000D01*
X24695453Y25950000D01*
X24817144Y25828097D01*
X25065145Y25725117D01*
X25333677Y25724883D01*
X25581857Y25827429D01*
X25771903Y26017144D01*
X25874883Y26265145D01*
X25875044Y26450000D01*
X27065123Y26450000D01*
X27154565Y26000347D01*
X27409273Y25619150D01*
X27790470Y25364442D01*
X28240123Y25275000D01*
X28999877Y25275000D01*
X29449530Y25364442D01*
X29830727Y25619150D01*
X30085435Y26000347D01*
X30174877Y26450000D01*
X30085435Y26899653D01*
X29830727Y27280850D01*
X29449530Y27535558D01*
X28999877Y27625000D01*
X28240123Y27625000D01*
X27790470Y27535558D01*
X27409273Y27280850D01*
X27154565Y26899653D01*
X27065123Y26450000D01*
X25875044Y26450000D01*
X25875117Y26533677D01*
X25772571Y26781857D01*
X25582856Y26971903D01*
X25334855Y27074883D01*
X25066323Y27075117D01*
X24818143Y26972571D01*
X24795533Y26950000D01*
X22431794Y26950000D01*
X22210727Y27280850D01*
X21829530Y27535558D01*
X21379877Y27625000D01*
X20620123Y27625000D01*
X20170470Y27535558D01*
X19789273Y27280850D01*
X19534565Y26899653D01*
X19445123Y26450000D01*
X19400000Y26450000D01*
X19400000Y26695366D01*
X19471903Y26767144D01*
X19574883Y27015145D01*
X19575117Y27283677D01*
X19472571Y27531857D01*
X19282856Y27721903D01*
X19034855Y27824883D01*
X18766323Y27825117D01*
X18518143Y27722571D01*
X18328097Y27532856D01*
X18225117Y27284855D01*
X18224883Y27016323D01*
X450000Y27016323D01*
X450000Y34221451D01*
X537491Y34221451D01*
X595401Y34016070D01*
X799713Y33706784D01*
X1106831Y33499228D01*
X1470000Y33425000D01*
X1795000Y33425000D01*
X1795000Y34370000D01*
X1805000Y34370000D01*
X1805000Y33425000D01*
X2130000Y33425000D01*
X2493169Y33499228D01*
X2800287Y33706784D01*
X3004599Y34016070D01*
X3062509Y34221451D01*
X2993280Y34347985D01*
X4239336Y34347985D01*
X4306819Y34108668D01*
X4543647Y33750718D01*
X4899429Y33510646D01*
X5320000Y33425000D01*
X5595000Y33425000D01*
X5595000Y34520000D01*
X5605000Y34520000D01*
X5605000Y33425000D01*
X5880000Y33425000D01*
X6300571Y33510646D01*
X6656353Y33750718D01*
X6893181Y34108668D01*
X6960664Y34347985D01*
X6881238Y34520000D01*
X5605000Y34520000D01*
X5595000Y34520000D01*
X4318762Y34520000D01*
X4239336Y34347985D01*
X2993280Y34347985D01*
X2981235Y34370000D01*
X1805000Y34370000D01*
X1795000Y34370000D01*
X618765Y34370000D01*
X537491Y34221451D01*
X450000Y34221451D01*
X450000Y34528549D01*
X537491Y34528549D01*
X618765Y34380000D01*
X1795000Y34380000D01*
X1795000Y35325000D01*
X1805000Y35325000D01*
X1805000Y34380000D01*
X2981235Y34380000D01*
X3062509Y34528549D01*
X3004599Y34733930D01*
X2800287Y35043216D01*
X2493169Y35250772D01*
X2130000Y35325000D01*
X1805000Y35325000D01*
X1795000Y35325000D01*
X1470000Y35325000D01*
X1106831Y35250772D01*
X799713Y35043216D01*
X595401Y34733930D01*
X537491Y34528549D01*
X450000Y34528549D01*
X450000Y35596519D01*
X3774866Y35596519D01*
X3892604Y35311571D01*
X4110425Y35093370D01*
X4343405Y34996629D01*
X4306819Y34941332D01*
X4239336Y34702015D01*
X4318762Y34530000D01*
X5595000Y34530000D01*
X5595000Y35625000D01*
X5605000Y35625000D01*
X5605000Y34530000D01*
X6881238Y34530000D01*
X6960664Y34702015D01*
X6899197Y34920000D01*
X21987134Y34920000D01*
X22081417Y34446008D01*
X22349912Y34044178D01*
X22751742Y33775683D01*
X23225734Y33681400D01*
X23274266Y33681400D01*
X23748258Y33775683D01*
X24150088Y34044178D01*
X24418583Y34446008D01*
X24473342Y34721303D01*
X24567441Y34721303D01*
X24584464Y34635719D01*
X24785020Y34196020D01*
X25138575Y33866541D01*
X25591303Y33697441D01*
X25785000Y33775160D01*
X25785000Y34915000D01*
X25795000Y34915000D01*
X25795000Y33775160D01*
X25988697Y33697441D01*
X26441425Y33866541D01*
X26794980Y34196020D01*
X26995536Y34635719D01*
X27012559Y34721303D01*
X26934839Y34915000D01*
X25795000Y34915000D01*
X25785000Y34915000D01*
X24645161Y34915000D01*
X24567441Y34721303D01*
X24473342Y34721303D01*
X24512866Y34920000D01*
X24473343Y35118697D01*
X24567441Y35118697D01*
X24645161Y34925000D01*
X25785000Y34925000D01*
X25785000Y36064840D01*
X25795000Y36064840D01*
X25795000Y34925000D01*
X26934839Y34925000D01*
X27012559Y35118697D01*
X26995536Y35204281D01*
X26794980Y35643980D01*
X26441425Y35973459D01*
X25988697Y36142559D01*
X25795000Y36064840D01*
X25785000Y36064840D01*
X25591303Y36142559D01*
X25138575Y35973459D01*
X24785020Y35643980D01*
X24584464Y35204281D01*
X24567441Y35118697D01*
X24473343Y35118697D01*
X24418583Y35393992D01*
X24150088Y35795822D01*
X23748258Y36064317D01*
X23274266Y36158600D01*
X23225734Y36158600D01*
X22751742Y36064317D01*
X22349912Y35795822D01*
X22081417Y35393992D01*
X21987134Y34920000D01*
X6899197Y34920000D01*
X6893181Y34941332D01*
X6656353Y35299282D01*
X6300571Y35539354D01*
X5880000Y35625000D01*
X5605000Y35625000D01*
X5595000Y35625000D01*
X5324891Y35625000D01*
X5325134Y35903481D01*
X5207396Y36188429D01*
X4989575Y36406630D01*
X4704833Y36524865D01*
X4396519Y36525134D01*
X4111571Y36407396D01*
X3893370Y36189575D01*
X3775135Y35904833D01*
X3774866Y35596519D01*
X450000Y35596519D01*
X450000Y37460000D01*
X21987134Y37460000D01*
X22081417Y36986008D01*
X22349912Y36584178D01*
X22751742Y36315683D01*
X23225734Y36221400D01*
X23274266Y36221400D01*
X23748258Y36315683D01*
X24150088Y36584178D01*
X24418583Y36986008D01*
X24512866Y37460000D01*
X24527134Y37460000D01*
X24621417Y36986008D01*
X24889912Y36584178D01*
X25291742Y36315683D01*
X25765734Y36221400D01*
X25814266Y36221400D01*
X26288258Y36315683D01*
X26690088Y36584178D01*
X26958583Y36986008D01*
X27052866Y37460000D01*
X26958583Y37933992D01*
X26690088Y38335822D01*
X26288258Y38604317D01*
X25814266Y38698600D01*
X25765734Y38698600D01*
X25291742Y38604317D01*
X24889912Y38335822D01*
X24621417Y37933992D01*
X24527134Y37460000D01*
X24512866Y37460000D01*
X24418583Y37933992D01*
X24150088Y38335822D01*
X23748258Y38604317D01*
X23274266Y38698600D01*
X23225734Y38698600D01*
X22751742Y38604317D01*
X22349912Y38335822D01*
X22081417Y37933992D01*
X21987134Y37460000D01*
X450000Y37460000D01*
X450000Y40596519D01*
X3774866Y40596519D01*
X3892604Y40311571D01*
X4110425Y40093370D01*
X4395167Y39975135D01*
X4703481Y39974866D01*
X4988429Y40092604D01*
X5206630Y40310425D01*
X5324865Y40595167D01*
X5325099Y40863600D01*
X22004054Y40863600D01*
X22004054Y39136400D01*
X22030202Y38997434D01*
X22112331Y38869801D01*
X22237646Y38784177D01*
X22386400Y38754054D01*
X24113600Y38754054D01*
X24252566Y38780202D01*
X24380199Y38862331D01*
X24465823Y38987646D01*
X24495946Y39136400D01*
X24495946Y40000000D01*
X24527134Y40000000D01*
X24621417Y39526008D01*
X24889912Y39124178D01*
X25291742Y38855683D01*
X25765734Y38761400D01*
X25814266Y38761400D01*
X26288258Y38855683D01*
X26690088Y39124178D01*
X26958583Y39526008D01*
X27052866Y40000000D01*
X26958583Y40473992D01*
X26690088Y40875822D01*
X26288258Y41144317D01*
X25814266Y41238600D01*
X25765734Y41238600D01*
X25291742Y41144317D01*
X24889912Y40875822D01*
X24621417Y40473992D01*
X24527134Y40000000D01*
X24495946Y40000000D01*
X24495946Y40863600D01*
X24469798Y41002566D01*
X24387669Y41130199D01*
X24262354Y41215823D01*
X24113600Y41245946D01*
X22386400Y41245946D01*
X22247434Y41219798D01*
X22119801Y41137669D01*
X22034177Y41012354D01*
X22004054Y40863600D01*
X5325099Y40863600D01*
X5325109Y40875000D01*
X5595000Y40875000D01*
X5595000Y41970000D01*
X5605000Y41970000D01*
X5605000Y40875000D01*
X5880000Y40875000D01*
X6300571Y40960646D01*
X6656353Y41200718D01*
X6893181Y41558668D01*
X6960664Y41797985D01*
X6881238Y41970000D01*
X5605000Y41970000D01*
X5595000Y41970000D01*
X4318762Y41970000D01*
X4239336Y41797985D01*
X4306819Y41558668D01*
X4343500Y41503227D01*
X4111571Y41407396D01*
X3893370Y41189575D01*
X3775135Y40904833D01*
X3774866Y40596519D01*
X450000Y40596519D01*
X450000Y41971451D01*
X537491Y41971451D01*
X595401Y41766070D01*
X799713Y41456784D01*
X1106831Y41249228D01*
X1470000Y41175000D01*
X1795000Y41175000D01*
X1795000Y42120000D01*
X1805000Y42120000D01*
X1805000Y41175000D01*
X2130000Y41175000D01*
X2493169Y41249228D01*
X2800287Y41456784D01*
X3004599Y41766070D01*
X3062509Y41971451D01*
X2981235Y42120000D01*
X1805000Y42120000D01*
X1795000Y42120000D01*
X618765Y42120000D01*
X537491Y41971451D01*
X450000Y41971451D01*
X450000Y42278549D01*
X537491Y42278549D01*
X618765Y42130000D01*
X1795000Y42130000D01*
X1795000Y43075000D01*
X1805000Y43075000D01*
X1805000Y42130000D01*
X2981235Y42130000D01*
X2993279Y42152015D01*
X4239336Y42152015D01*
X4318762Y41980000D01*
X5595000Y41980000D01*
X5595000Y43075000D01*
X5605000Y43075000D01*
X5605000Y41980000D01*
X6881238Y41980000D01*
X6960664Y42152015D01*
X6893181Y42391332D01*
X6656353Y42749282D01*
X6300571Y42989354D01*
X5880000Y43075000D01*
X5605000Y43075000D01*
X5595000Y43075000D01*
X5320000Y43075000D01*
X4899429Y42989354D01*
X4543647Y42749282D01*
X4306819Y42391332D01*
X4239336Y42152015D01*
X2993279Y42152015D01*
X3062509Y42278549D01*
X3004599Y42483930D01*
X2800287Y42793216D01*
X2493169Y43000772D01*
X2130000Y43075000D01*
X1805000Y43075000D01*
X1795000Y43075000D01*
X1470000Y43075000D01*
X1106831Y43000772D01*
X799713Y42793216D01*
X595401Y42483930D01*
X537491Y42278549D01*
X450000Y42278549D01*
X450000Y44550000D01*
X30550000Y44550000D01*
X30550000Y450000D01*
X30550000Y450000D01*
G37*
X30550000Y450000D02*
X450000Y450000D01*
X450000Y3590000D01*
X19445123Y3590000D01*
X19534565Y3140347D01*
X19789273Y2759150D01*
X20170470Y2504442D01*
X20620123Y2415000D01*
X21379877Y2415000D01*
X21829530Y2504442D01*
X22210727Y2759150D01*
X22465435Y3140347D01*
X22554877Y3590000D01*
X27065123Y3590000D01*
X27154565Y3140347D01*
X27409273Y2759150D01*
X27790470Y2504442D01*
X28240123Y2415000D01*
X28999877Y2415000D01*
X29449530Y2504442D01*
X29830727Y2759150D01*
X30085435Y3140347D01*
X30174877Y3590000D01*
X30085435Y4039653D01*
X29830727Y4420850D01*
X29449530Y4675558D01*
X28999877Y4765000D01*
X28240123Y4765000D01*
X27790470Y4675558D01*
X27409273Y4420850D01*
X27154565Y4039653D01*
X27065123Y3590000D01*
X22554877Y3590000D01*
X22465435Y4039653D01*
X22210727Y4420850D01*
X21829530Y4675558D01*
X21379877Y4765000D01*
X20620123Y4765000D01*
X20170470Y4675558D01*
X19789273Y4420850D01*
X19534565Y4039653D01*
X19445123Y3590000D01*
X450000Y3590000D01*
X450000Y6130000D01*
X19445123Y6130000D01*
X19534565Y5680347D01*
X19789273Y5299150D01*
X20170470Y5044442D01*
X20620123Y4955000D01*
X21379877Y4955000D01*
X21829530Y5044442D01*
X22210727Y5299150D01*
X22465435Y5680347D01*
X22554877Y6130000D01*
X27065123Y6130000D01*
X27154565Y5680347D01*
X27409273Y5299150D01*
X27790470Y5044442D01*
X28240123Y4955000D01*
X28999877Y4955000D01*
X29449530Y5044442D01*
X29830727Y5299150D01*
X30085435Y5680347D01*
X30174877Y6130000D01*
X30085435Y6579653D01*
X29830727Y6960850D01*
X29449530Y7215558D01*
X28999877Y7305000D01*
X28240123Y7305000D01*
X27790470Y7215558D01*
X27409273Y6960850D01*
X27154565Y6579653D01*
X27065123Y6130000D01*
X22554877Y6130000D01*
X22465435Y6579653D01*
X22210727Y6960850D01*
X21829530Y7215558D01*
X21379877Y7305000D01*
X20620123Y7305000D01*
X20170470Y7215558D01*
X19789273Y6960850D01*
X19534565Y6579653D01*
X19445123Y6130000D01*
X450000Y6130000D01*
X450000Y8670000D01*
X19445123Y8670000D01*
X19534565Y8220347D01*
X19789273Y7839150D01*
X20170470Y7584442D01*
X20620123Y7495000D01*
X21379877Y7495000D01*
X21829530Y7584442D01*
X22210727Y7839150D01*
X22465435Y8220347D01*
X22554877Y8670000D01*
X27065123Y8670000D01*
X27154565Y8220347D01*
X27409273Y7839150D01*
X27790470Y7584442D01*
X28240123Y7495000D01*
X28999877Y7495000D01*
X29449530Y7584442D01*
X29830727Y7839150D01*
X30085435Y8220347D01*
X30174877Y8670000D01*
X30085435Y9119653D01*
X29830727Y9500850D01*
X29449530Y9755558D01*
X28999877Y9845000D01*
X28240123Y9845000D01*
X27790470Y9755558D01*
X27409273Y9500850D01*
X27154565Y9119653D01*
X27065123Y8670000D01*
X22554877Y8670000D01*
X22465435Y9119653D01*
X22210727Y9500850D01*
X21829530Y9755558D01*
X21379877Y9845000D01*
X20620123Y9845000D01*
X20170470Y9755558D01*
X19789273Y9500850D01*
X19534565Y9119653D01*
X19445123Y8670000D01*
X450000Y8670000D01*
X450000Y11210000D01*
X19445123Y11210000D01*
X19534565Y10760347D01*
X19789273Y10379150D01*
X20170470Y10124442D01*
X20620123Y10035000D01*
X21379877Y10035000D01*
X21829530Y10124442D01*
X22210727Y10379150D01*
X22465435Y10760347D01*
X22554877Y11210000D01*
X27065123Y11210000D01*
X27154565Y10760347D01*
X27409273Y10379150D01*
X27790470Y10124442D01*
X28240123Y10035000D01*
X28999877Y10035000D01*
X29449530Y10124442D01*
X29830727Y10379150D01*
X30085435Y10760347D01*
X30174877Y11210000D01*
X30085435Y11659653D01*
X29830727Y12040850D01*
X29449530Y12295558D01*
X28999877Y12385000D01*
X28240123Y12385000D01*
X27790470Y12295558D01*
X27409273Y12040850D01*
X27154565Y11659653D01*
X27065123Y11210000D01*
X22554877Y11210000D01*
X22465435Y11659653D01*
X22210727Y12040850D01*
X21829530Y12295558D01*
X21379877Y12385000D01*
X20620123Y12385000D01*
X20170470Y12295558D01*
X19789273Y12040850D01*
X19534565Y11659653D01*
X19445123Y11210000D01*
X450000Y11210000D01*
X450000Y13561253D01*
X19490259Y13561253D01*
X19562528Y13304966D01*
X19815614Y12922685D01*
X20195728Y12666355D01*
X20645000Y12575000D01*
X20995000Y12575000D01*
X20995000Y13745000D01*
X21005000Y13745000D01*
X21005000Y12575000D01*
X21355000Y12575000D01*
X21804272Y12666355D01*
X22184386Y12922685D01*
X22437472Y13304966D01*
X22509741Y13561253D01*
X22431238Y13745000D01*
X21005000Y13745000D01*
X20995000Y13745000D01*
X19568762Y13745000D01*
X19490259Y13561253D01*
X450000Y13561253D01*
X450000Y13750000D01*
X27065123Y13750000D01*
X27154565Y13300347D01*
X27409273Y12919150D01*
X27790470Y12664442D01*
X28240123Y12575000D01*
X28999877Y12575000D01*
X29449530Y12664442D01*
X29830727Y12919150D01*
X30085435Y13300347D01*
X30174877Y13750000D01*
X30085435Y14199653D01*
X29830727Y14580850D01*
X29449530Y14835558D01*
X28999877Y14925000D01*
X28240123Y14925000D01*
X27790470Y14835558D01*
X27409273Y14580850D01*
X27154565Y14199653D01*
X27065123Y13750000D01*
X450000Y13750000D01*
X450000Y13938747D01*
X19490259Y13938747D01*
X19568762Y13755000D01*
X20995000Y13755000D01*
X20995000Y14925000D01*
X21005000Y14925000D01*
X21005000Y13755000D01*
X22431238Y13755000D01*
X22509741Y13938747D01*
X22437472Y14195034D01*
X22184386Y14577315D01*
X21804272Y14833645D01*
X21355000Y14925000D01*
X21005000Y14925000D01*
X20995000Y14925000D01*
X20645000Y14925000D01*
X20195728Y14833645D01*
X19815614Y14577315D01*
X19562528Y14195034D01*
X19490259Y13938747D01*
X450000Y13938747D01*
X450000Y16290000D01*
X19445123Y16290000D01*
X19534565Y15840347D01*
X19789273Y15459150D01*
X20170470Y15204442D01*
X20620123Y15115000D01*
X21379877Y15115000D01*
X21386528Y15116323D01*
X23074883Y15116323D01*
X23177429Y14868143D01*
X23367144Y14678097D01*
X23615145Y14575117D01*
X23883677Y14574883D01*
X24131857Y14677429D01*
X24321903Y14867144D01*
X24424883Y15115145D01*
X24424973Y15217866D01*
X24782078Y15574972D01*
X24883677Y15574883D01*
X25131857Y15677429D01*
X25321903Y15867144D01*
X25419114Y16101253D01*
X27110259Y16101253D01*
X27182528Y15844966D01*
X27435614Y15462685D01*
X27815728Y15206355D01*
X28265000Y15115000D01*
X28615000Y15115000D01*
X28615000Y16285000D01*
X28625000Y16285000D01*
X28625000Y15115000D01*
X28975000Y15115000D01*
X29424272Y15206355D01*
X29804386Y15462685D01*
X30057472Y15844966D01*
X30129741Y16101253D01*
X30051238Y16285000D01*
X28625000Y16285000D01*
X28615000Y16285000D01*
X27188762Y16285000D01*
X27110259Y16101253D01*
X25419114Y16101253D01*
X25424883Y16115145D01*
X25425117Y16383677D01*
X25385835Y16478747D01*
X27110259Y16478747D01*
X27188762Y16295000D01*
X28615000Y16295000D01*
X28615000Y17465000D01*
X28625000Y17465000D01*
X28625000Y16295000D01*
X30051238Y16295000D01*
X30129741Y16478747D01*
X30057472Y16735034D01*
X29804386Y17117315D01*
X29424272Y17373645D01*
X28975000Y17465000D01*
X28625000Y17465000D01*
X28615000Y17465000D01*
X28265000Y17465000D01*
X27815728Y17373645D01*
X27435614Y17117315D01*
X27182528Y16735034D01*
X27110259Y16478747D01*
X25385835Y16478747D01*
X25322571Y16631857D01*
X25132856Y16821903D01*
X24884855Y16924883D01*
X24616323Y16925117D01*
X24368143Y16822571D01*
X24178097Y16632856D01*
X24075117Y16384855D01*
X24075027Y16282134D01*
X23717922Y15925028D01*
X23616323Y15925117D01*
X23368143Y15822571D01*
X23178097Y15632856D01*
X23075117Y15384855D01*
X23074883Y15116323D01*
X21386528Y15116323D01*
X21829530Y15204442D01*
X22210727Y15459150D01*
X22465435Y15840347D01*
X22554877Y16290000D01*
X22465435Y16739653D01*
X22210727Y17120850D01*
X21829530Y17375558D01*
X21379877Y17465000D01*
X20620123Y17465000D01*
X20170470Y17375558D01*
X19789273Y17120850D01*
X19534565Y16739653D01*
X19445123Y16290000D01*
X450000Y16290000D01*
X450000Y18830000D01*
X19445123Y18830000D01*
X19534565Y18380347D01*
X19789273Y17999150D01*
X20170470Y17744442D01*
X20620123Y17655000D01*
X21379877Y17655000D01*
X21829530Y17744442D01*
X22210727Y17999150D01*
X22465435Y18380347D01*
X22554877Y18830000D01*
X27065123Y18830000D01*
X27154565Y18380347D01*
X27409273Y17999150D01*
X27790470Y17744442D01*
X28240123Y17655000D01*
X28999877Y17655000D01*
X29449530Y17744442D01*
X29830727Y17999150D01*
X30085435Y18380347D01*
X30174877Y18830000D01*
X30085435Y19279653D01*
X29830727Y19660850D01*
X29449530Y19915558D01*
X28999877Y20005000D01*
X28240123Y20005000D01*
X27790470Y19915558D01*
X27409273Y19660850D01*
X27154565Y19279653D01*
X27065123Y18830000D01*
X22554877Y18830000D01*
X22465435Y19279653D01*
X22210727Y19660850D01*
X21829530Y19915558D01*
X21379877Y20005000D01*
X20620123Y20005000D01*
X20170470Y19915558D01*
X19789273Y19660850D01*
X19534565Y19279653D01*
X19445123Y18830000D01*
X450000Y18830000D01*
X450000Y21370000D01*
X19445123Y21370000D01*
X19534565Y20920347D01*
X19789273Y20539150D01*
X20170470Y20284442D01*
X20620123Y20195000D01*
X21379877Y20195000D01*
X21829530Y20284442D01*
X22210727Y20539150D01*
X22465435Y20920347D01*
X22554877Y21370000D01*
X27065123Y21370000D01*
X27154565Y20920347D01*
X27409273Y20539150D01*
X27790470Y20284442D01*
X28240123Y20195000D01*
X28999877Y20195000D01*
X29449530Y20284442D01*
X29830727Y20539150D01*
X30085435Y20920347D01*
X30174877Y21370000D01*
X30085435Y21819653D01*
X29830727Y22200850D01*
X29449530Y22455558D01*
X28999877Y22545000D01*
X28240123Y22545000D01*
X27790470Y22455558D01*
X27409273Y22200850D01*
X27154565Y21819653D01*
X27065123Y21370000D01*
X22554877Y21370000D01*
X22465435Y21819653D01*
X22210727Y22200850D01*
X21829530Y22455558D01*
X21379877Y22545000D01*
X20620123Y22545000D01*
X20170470Y22455558D01*
X19789273Y22200850D01*
X19534565Y21819653D01*
X19445123Y21370000D01*
X450000Y21370000D01*
X450000Y27016323D01*
X18224883Y27016323D01*
X18327429Y26768143D01*
X18400000Y26695445D01*
X18400000Y25550000D01*
X18438060Y25358658D01*
X18546447Y25196447D01*
X19509459Y24233435D01*
X19445123Y23910000D01*
X19534565Y23460347D01*
X19789273Y23079150D01*
X20170470Y22824442D01*
X20620123Y22735000D01*
X21379877Y22735000D01*
X21829530Y22824442D01*
X22210727Y23079150D01*
X22465435Y23460347D01*
X22554877Y23910000D01*
X27065123Y23910000D01*
X27154565Y23460347D01*
X27409273Y23079150D01*
X27790470Y22824442D01*
X28240123Y22735000D01*
X28999877Y22735000D01*
X29449530Y22824442D01*
X29830727Y23079150D01*
X30085435Y23460347D01*
X30174877Y23910000D01*
X30085435Y24359653D01*
X29830727Y24740850D01*
X29449530Y24995558D01*
X28999877Y25085000D01*
X28240123Y25085000D01*
X27790470Y24995558D01*
X27409273Y24740850D01*
X27154565Y24359653D01*
X27065123Y23910000D01*
X22554877Y23910000D01*
X22465435Y24359653D01*
X22210727Y24740850D01*
X21829530Y24995558D01*
X21379877Y25085000D01*
X20620123Y25085000D01*
X20170470Y24995558D01*
X20165122Y24991985D01*
X19400000Y25757106D01*
X19400000Y26450000D01*
X19445123Y26450000D01*
X19534565Y26000347D01*
X19789273Y25619150D01*
X20170470Y25364442D01*
X20620123Y25275000D01*
X21379877Y25275000D01*
X21829530Y25364442D01*
X22210727Y25619150D01*
X22431794Y25950000D01*
X24695453Y25950000D01*
X24817144Y25828097D01*
X25065145Y25725117D01*
X25333677Y25724883D01*
X25581857Y25827429D01*
X25771903Y26017144D01*
X25874883Y26265145D01*
X25875044Y26450000D01*
X27065123Y26450000D01*
X27154565Y26000347D01*
X27409273Y25619150D01*
X27790470Y25364442D01*
X28240123Y25275000D01*
X28999877Y25275000D01*
X29449530Y25364442D01*
X29830727Y25619150D01*
X30085435Y26000347D01*
X30174877Y26450000D01*
X30085435Y26899653D01*
X29830727Y27280850D01*
X29449530Y27535558D01*
X28999877Y27625000D01*
X28240123Y27625000D01*
X27790470Y27535558D01*
X27409273Y27280850D01*
X27154565Y26899653D01*
X27065123Y26450000D01*
X25875044Y26450000D01*
X25875117Y26533677D01*
X25772571Y26781857D01*
X25582856Y26971903D01*
X25334855Y27074883D01*
X25066323Y27075117D01*
X24818143Y26972571D01*
X24795533Y26950000D01*
X22431794Y26950000D01*
X22210727Y27280850D01*
X21829530Y27535558D01*
X21379877Y27625000D01*
X20620123Y27625000D01*
X20170470Y27535558D01*
X19789273Y27280850D01*
X19534565Y26899653D01*
X19445123Y26450000D01*
X19400000Y26450000D01*
X19400000Y26695366D01*
X19471903Y26767144D01*
X19574883Y27015145D01*
X19575117Y27283677D01*
X19472571Y27531857D01*
X19282856Y27721903D01*
X19034855Y27824883D01*
X18766323Y27825117D01*
X18518143Y27722571D01*
X18328097Y27532856D01*
X18225117Y27284855D01*
X18224883Y27016323D01*
X450000Y27016323D01*
X450000Y34221451D01*
X537491Y34221451D01*
X595401Y34016070D01*
X799713Y33706784D01*
X1106831Y33499228D01*
X1470000Y33425000D01*
X1795000Y33425000D01*
X1795000Y34370000D01*
X1805000Y34370000D01*
X1805000Y33425000D01*
X2130000Y33425000D01*
X2493169Y33499228D01*
X2800287Y33706784D01*
X3004599Y34016070D01*
X3062509Y34221451D01*
X2993280Y34347985D01*
X4239336Y34347985D01*
X4306819Y34108668D01*
X4543647Y33750718D01*
X4899429Y33510646D01*
X5320000Y33425000D01*
X5595000Y33425000D01*
X5595000Y34520000D01*
X5605000Y34520000D01*
X5605000Y33425000D01*
X5880000Y33425000D01*
X6300571Y33510646D01*
X6656353Y33750718D01*
X6893181Y34108668D01*
X6960664Y34347985D01*
X6881238Y34520000D01*
X5605000Y34520000D01*
X5595000Y34520000D01*
X4318762Y34520000D01*
X4239336Y34347985D01*
X2993280Y34347985D01*
X2981235Y34370000D01*
X1805000Y34370000D01*
X1795000Y34370000D01*
X618765Y34370000D01*
X537491Y34221451D01*
X450000Y34221451D01*
X450000Y34528549D01*
X537491Y34528549D01*
X618765Y34380000D01*
X1795000Y34380000D01*
X1795000Y35325000D01*
X1805000Y35325000D01*
X1805000Y34380000D01*
X2981235Y34380000D01*
X3062509Y34528549D01*
X3004599Y34733930D01*
X2800287Y35043216D01*
X2493169Y35250772D01*
X2130000Y35325000D01*
X1805000Y35325000D01*
X1795000Y35325000D01*
X1470000Y35325000D01*
X1106831Y35250772D01*
X799713Y35043216D01*
X595401Y34733930D01*
X537491Y34528549D01*
X450000Y34528549D01*
X450000Y35596519D01*
X3774866Y35596519D01*
X3892604Y35311571D01*
X4110425Y35093370D01*
X4343405Y34996629D01*
X4306819Y34941332D01*
X4239336Y34702015D01*
X4318762Y34530000D01*
X5595000Y34530000D01*
X5595000Y35625000D01*
X5605000Y35625000D01*
X5605000Y34530000D01*
X6881238Y34530000D01*
X6960664Y34702015D01*
X6899197Y34920000D01*
X21987134Y34920000D01*
X22081417Y34446008D01*
X22349912Y34044178D01*
X22751742Y33775683D01*
X23225734Y33681400D01*
X23274266Y33681400D01*
X23748258Y33775683D01*
X24150088Y34044178D01*
X24418583Y34446008D01*
X24473342Y34721303D01*
X24567441Y34721303D01*
X24584464Y34635719D01*
X24785020Y34196020D01*
X25138575Y33866541D01*
X25591303Y33697441D01*
X25785000Y33775160D01*
X25785000Y34915000D01*
X25795000Y34915000D01*
X25795000Y33775160D01*
X25988697Y33697441D01*
X26441425Y33866541D01*
X26794980Y34196020D01*
X26995536Y34635719D01*
X27012559Y34721303D01*
X26934839Y34915000D01*
X25795000Y34915000D01*
X25785000Y34915000D01*
X24645161Y34915000D01*
X24567441Y34721303D01*
X24473342Y34721303D01*
X24512866Y34920000D01*
X24473343Y35118697D01*
X24567441Y35118697D01*
X24645161Y34925000D01*
X25785000Y34925000D01*
X25785000Y36064840D01*
X25795000Y36064840D01*
X25795000Y34925000D01*
X26934839Y34925000D01*
X27012559Y35118697D01*
X26995536Y35204281D01*
X26794980Y35643980D01*
X26441425Y35973459D01*
X25988697Y36142559D01*
X25795000Y36064840D01*
X25785000Y36064840D01*
X25591303Y36142559D01*
X25138575Y35973459D01*
X24785020Y35643980D01*
X24584464Y35204281D01*
X24567441Y35118697D01*
X24473343Y35118697D01*
X24418583Y35393992D01*
X24150088Y35795822D01*
X23748258Y36064317D01*
X23274266Y36158600D01*
X23225734Y36158600D01*
X22751742Y36064317D01*
X22349912Y35795822D01*
X22081417Y35393992D01*
X21987134Y34920000D01*
X6899197Y34920000D01*
X6893181Y34941332D01*
X6656353Y35299282D01*
X6300571Y35539354D01*
X5880000Y35625000D01*
X5605000Y35625000D01*
X5595000Y35625000D01*
X5324891Y35625000D01*
X5325134Y35903481D01*
X5207396Y36188429D01*
X4989575Y36406630D01*
X4704833Y36524865D01*
X4396519Y36525134D01*
X4111571Y36407396D01*
X3893370Y36189575D01*
X3775135Y35904833D01*
X3774866Y35596519D01*
X450000Y35596519D01*
X450000Y37460000D01*
X21987134Y37460000D01*
X22081417Y36986008D01*
X22349912Y36584178D01*
X22751742Y36315683D01*
X23225734Y36221400D01*
X23274266Y36221400D01*
X23748258Y36315683D01*
X24150088Y36584178D01*
X24418583Y36986008D01*
X24512866Y37460000D01*
X24527134Y37460000D01*
X24621417Y36986008D01*
X24889912Y36584178D01*
X25291742Y36315683D01*
X25765734Y36221400D01*
X25814266Y36221400D01*
X26288258Y36315683D01*
X26690088Y36584178D01*
X26958583Y36986008D01*
X27052866Y37460000D01*
X26958583Y37933992D01*
X26690088Y38335822D01*
X26288258Y38604317D01*
X25814266Y38698600D01*
X25765734Y38698600D01*
X25291742Y38604317D01*
X24889912Y38335822D01*
X24621417Y37933992D01*
X24527134Y37460000D01*
X24512866Y37460000D01*
X24418583Y37933992D01*
X24150088Y38335822D01*
X23748258Y38604317D01*
X23274266Y38698600D01*
X23225734Y38698600D01*
X22751742Y38604317D01*
X22349912Y38335822D01*
X22081417Y37933992D01*
X21987134Y37460000D01*
X450000Y37460000D01*
X450000Y40596519D01*
X3774866Y40596519D01*
X3892604Y40311571D01*
X4110425Y40093370D01*
X4395167Y39975135D01*
X4703481Y39974866D01*
X4988429Y40092604D01*
X5206630Y40310425D01*
X5324865Y40595167D01*
X5325099Y40863600D01*
X22004054Y40863600D01*
X22004054Y39136400D01*
X22030202Y38997434D01*
X22112331Y38869801D01*
X22237646Y38784177D01*
X22386400Y38754054D01*
X24113600Y38754054D01*
X24252566Y38780202D01*
X24380199Y38862331D01*
X24465823Y38987646D01*
X24495946Y39136400D01*
X24495946Y40000000D01*
X24527134Y40000000D01*
X24621417Y39526008D01*
X24889912Y39124178D01*
X25291742Y38855683D01*
X25765734Y38761400D01*
X25814266Y38761400D01*
X26288258Y38855683D01*
X26690088Y39124178D01*
X26958583Y39526008D01*
X27052866Y40000000D01*
X26958583Y40473992D01*
X26690088Y40875822D01*
X26288258Y41144317D01*
X25814266Y41238600D01*
X25765734Y41238600D01*
X25291742Y41144317D01*
X24889912Y40875822D01*
X24621417Y40473992D01*
X24527134Y40000000D01*
X24495946Y40000000D01*
X24495946Y40863600D01*
X24469798Y41002566D01*
X24387669Y41130199D01*
X24262354Y41215823D01*
X24113600Y41245946D01*
X22386400Y41245946D01*
X22247434Y41219798D01*
X22119801Y41137669D01*
X22034177Y41012354D01*
X22004054Y40863600D01*
X5325099Y40863600D01*
X5325109Y40875000D01*
X5595000Y40875000D01*
X5595000Y41970000D01*
X5605000Y41970000D01*
X5605000Y40875000D01*
X5880000Y40875000D01*
X6300571Y40960646D01*
X6656353Y41200718D01*
X6893181Y41558668D01*
X6960664Y41797985D01*
X6881238Y41970000D01*
X5605000Y41970000D01*
X5595000Y41970000D01*
X4318762Y41970000D01*
X4239336Y41797985D01*
X4306819Y41558668D01*
X4343500Y41503227D01*
X4111571Y41407396D01*
X3893370Y41189575D01*
X3775135Y40904833D01*
X3774866Y40596519D01*
X450000Y40596519D01*
X450000Y41971451D01*
X537491Y41971451D01*
X595401Y41766070D01*
X799713Y41456784D01*
X1106831Y41249228D01*
X1470000Y41175000D01*
X1795000Y41175000D01*
X1795000Y42120000D01*
X1805000Y42120000D01*
X1805000Y41175000D01*
X2130000Y41175000D01*
X2493169Y41249228D01*
X2800287Y41456784D01*
X3004599Y41766070D01*
X3062509Y41971451D01*
X2981235Y42120000D01*
X1805000Y42120000D01*
X1795000Y42120000D01*
X618765Y42120000D01*
X537491Y41971451D01*
X450000Y41971451D01*
X450000Y42278549D01*
X537491Y42278549D01*
X618765Y42130000D01*
X1795000Y42130000D01*
X1795000Y43075000D01*
X1805000Y43075000D01*
X1805000Y42130000D01*
X2981235Y42130000D01*
X2993279Y42152015D01*
X4239336Y42152015D01*
X4318762Y41980000D01*
X5595000Y41980000D01*
X5595000Y43075000D01*
X5605000Y43075000D01*
X5605000Y41980000D01*
X6881238Y41980000D01*
X6960664Y42152015D01*
X6893181Y42391332D01*
X6656353Y42749282D01*
X6300571Y42989354D01*
X5880000Y43075000D01*
X5605000Y43075000D01*
X5595000Y43075000D01*
X5320000Y43075000D01*
X4899429Y42989354D01*
X4543647Y42749282D01*
X4306819Y42391332D01*
X4239336Y42152015D01*
X2993279Y42152015D01*
X3062509Y42278549D01*
X3004599Y42483930D01*
X2800287Y42793216D01*
X2493169Y43000772D01*
X2130000Y43075000D01*
X1805000Y43075000D01*
X1795000Y43075000D01*
X1470000Y43075000D01*
X1106831Y43000772D01*
X799713Y42793216D01*
X595401Y42483930D01*
X537491Y42278549D01*
X450000Y42278549D01*
X450000Y44550000D01*
X30550000Y44550000D01*
X30550000Y450000D01*
M02*
