G04 #@! TF.FileFunction,Drawing*
%FSLAX46Y46*%
G04 Gerber Fmt 4.6, Leading zero omitted, Abs format (unit mm)*
G04 Created by KiCad (PCBNEW 4.0.2+dfsg1-stable) date Die 12 Sep 2017 09:23:44 CEST*
%MOMM*%
G01*
G04 APERTURE LIST*
%ADD10C,0.100000*%
%ADD11C,0.300000*%
%ADD12C,0.150000*%
G04 APERTURE END LIST*
D10*
D11*
X9214287Y50421429D02*
X10142858Y50421429D01*
X9642858Y49850000D01*
X9857144Y49850000D01*
X10000001Y49778571D01*
X10071430Y49707143D01*
X10142858Y49564286D01*
X10142858Y49207143D01*
X10071430Y49064286D01*
X10000001Y48992857D01*
X9857144Y48921429D01*
X9428572Y48921429D01*
X9285715Y48992857D01*
X9214287Y49064286D01*
X11571429Y48921429D02*
X10714286Y48921429D01*
X11142858Y48921429D02*
X11142858Y50421429D01*
X11000001Y50207143D01*
X10857143Y50064286D01*
X10714286Y49992857D01*
X12214286Y49064286D02*
X12285714Y48992857D01*
X12214286Y48921429D01*
X12142857Y48992857D01*
X12214286Y49064286D01*
X12214286Y48921429D01*
X13214286Y50421429D02*
X13357143Y50421429D01*
X13500000Y50350000D01*
X13571429Y50278571D01*
X13642858Y50135714D01*
X13714286Y49850000D01*
X13714286Y49492857D01*
X13642858Y49207143D01*
X13571429Y49064286D01*
X13500000Y48992857D01*
X13357143Y48921429D01*
X13214286Y48921429D01*
X13071429Y48992857D01*
X13000000Y49064286D01*
X12928572Y49207143D01*
X12857143Y49492857D01*
X12857143Y49850000D01*
X12928572Y50135714D01*
X13000000Y50278571D01*
X13071429Y50350000D01*
X13214286Y50421429D01*
X14642857Y50421429D02*
X14785714Y50421429D01*
X14928571Y50350000D01*
X15000000Y50278571D01*
X15071429Y50135714D01*
X15142857Y49850000D01*
X15142857Y49492857D01*
X15071429Y49207143D01*
X15000000Y49064286D01*
X14928571Y48992857D01*
X14785714Y48921429D01*
X14642857Y48921429D01*
X14500000Y48992857D01*
X14428571Y49064286D01*
X14357143Y49207143D01*
X14285714Y49492857D01*
X14285714Y49850000D01*
X14357143Y50135714D01*
X14428571Y50278571D01*
X14500000Y50350000D01*
X14642857Y50421429D01*
X16071428Y50421429D02*
X16214285Y50421429D01*
X16357142Y50350000D01*
X16428571Y50278571D01*
X16500000Y50135714D01*
X16571428Y49850000D01*
X16571428Y49492857D01*
X16500000Y49207143D01*
X16428571Y49064286D01*
X16357142Y48992857D01*
X16214285Y48921429D01*
X16071428Y48921429D01*
X15928571Y48992857D01*
X15857142Y49064286D01*
X15785714Y49207143D01*
X15714285Y49492857D01*
X15714285Y49850000D01*
X15785714Y50135714D01*
X15857142Y50278571D01*
X15928571Y50350000D01*
X16071428Y50421429D01*
X18357142Y48921429D02*
X18357142Y49921429D01*
X18357142Y49778571D02*
X18428570Y49850000D01*
X18571428Y49921429D01*
X18785713Y49921429D01*
X18928570Y49850000D01*
X18999999Y49707143D01*
X18999999Y48921429D01*
X18999999Y49707143D02*
X19071428Y49850000D01*
X19214285Y49921429D01*
X19428570Y49921429D01*
X19571428Y49850000D01*
X19642856Y49707143D01*
X19642856Y48921429D01*
X20357142Y48921429D02*
X20357142Y49921429D01*
X20357142Y49778571D02*
X20428570Y49850000D01*
X20571428Y49921429D01*
X20785713Y49921429D01*
X20928570Y49850000D01*
X20999999Y49707143D01*
X20999999Y48921429D01*
X20999999Y49707143D02*
X21071428Y49850000D01*
X21214285Y49921429D01*
X21428570Y49921429D01*
X21571428Y49850000D01*
X21642856Y49707143D01*
X21642856Y48921429D01*
X0Y48250000D02*
X31000000Y48250000D01*
X0Y45000000D02*
X0Y50950000D01*
X31000000Y45000000D02*
X31000000Y50950000D01*
X31000000Y48250000D02*
X29873496Y47663579D01*
X31000000Y48250000D02*
X29873496Y48836421D01*
X0Y48250000D02*
X1126504Y47663579D01*
X0Y48250000D02*
X1126504Y48836421D01*
X38421429Y27999999D02*
X37421429Y27999999D01*
X38992857Y28357142D02*
X37921429Y28714285D01*
X37921429Y27785713D01*
X38921429Y26499999D02*
X38921429Y27214285D01*
X38207143Y27285714D01*
X38278571Y27214285D01*
X38350000Y27071428D01*
X38350000Y26714285D01*
X38278571Y26571428D01*
X38207143Y26499999D01*
X38064286Y26428571D01*
X37707143Y26428571D01*
X37564286Y26499999D01*
X37492857Y26571428D01*
X37421429Y26714285D01*
X37421429Y27071428D01*
X37492857Y27214285D01*
X37564286Y27285714D01*
X37564286Y25785714D02*
X37492857Y25714286D01*
X37421429Y25785714D01*
X37492857Y25857143D01*
X37564286Y25785714D01*
X37421429Y25785714D01*
X38921429Y24785714D02*
X38921429Y24642857D01*
X38850000Y24500000D01*
X38778571Y24428571D01*
X38635714Y24357142D01*
X38350000Y24285714D01*
X37992857Y24285714D01*
X37707143Y24357142D01*
X37564286Y24428571D01*
X37492857Y24500000D01*
X37421429Y24642857D01*
X37421429Y24785714D01*
X37492857Y24928571D01*
X37564286Y25000000D01*
X37707143Y25071428D01*
X37992857Y25142857D01*
X38350000Y25142857D01*
X38635714Y25071428D01*
X38778571Y25000000D01*
X38850000Y24928571D01*
X38921429Y24785714D01*
X38921429Y23357143D02*
X38921429Y23214286D01*
X38850000Y23071429D01*
X38778571Y23000000D01*
X38635714Y22928571D01*
X38350000Y22857143D01*
X37992857Y22857143D01*
X37707143Y22928571D01*
X37564286Y23000000D01*
X37492857Y23071429D01*
X37421429Y23214286D01*
X37421429Y23357143D01*
X37492857Y23500000D01*
X37564286Y23571429D01*
X37707143Y23642857D01*
X37992857Y23714286D01*
X38350000Y23714286D01*
X38635714Y23642857D01*
X38778571Y23571429D01*
X38850000Y23500000D01*
X38921429Y23357143D01*
X38921429Y21928572D02*
X38921429Y21785715D01*
X38850000Y21642858D01*
X38778571Y21571429D01*
X38635714Y21500000D01*
X38350000Y21428572D01*
X37992857Y21428572D01*
X37707143Y21500000D01*
X37564286Y21571429D01*
X37492857Y21642858D01*
X37421429Y21785715D01*
X37421429Y21928572D01*
X37492857Y22071429D01*
X37564286Y22142858D01*
X37707143Y22214286D01*
X37992857Y22285715D01*
X38350000Y22285715D01*
X38635714Y22214286D01*
X38778571Y22142858D01*
X38850000Y22071429D01*
X38921429Y21928572D01*
X37421429Y19642858D02*
X38421429Y19642858D01*
X38278571Y19642858D02*
X38350000Y19571430D01*
X38421429Y19428572D01*
X38421429Y19214287D01*
X38350000Y19071430D01*
X38207143Y19000001D01*
X37421429Y19000001D01*
X38207143Y19000001D02*
X38350000Y18928572D01*
X38421429Y18785715D01*
X38421429Y18571430D01*
X38350000Y18428572D01*
X38207143Y18357144D01*
X37421429Y18357144D01*
X37421429Y17642858D02*
X38421429Y17642858D01*
X38278571Y17642858D02*
X38350000Y17571430D01*
X38421429Y17428572D01*
X38421429Y17214287D01*
X38350000Y17071430D01*
X38207143Y17000001D01*
X37421429Y17000001D01*
X38207143Y17000001D02*
X38350000Y16928572D01*
X38421429Y16785715D01*
X38421429Y16571430D01*
X38350000Y16428572D01*
X38207143Y16357144D01*
X37421429Y16357144D01*
X36750000Y45000000D02*
X36750000Y0D01*
X31000000Y45000000D02*
X39450000Y45000000D01*
X31000000Y0D02*
X39450000Y0D01*
X36750000Y0D02*
X36163579Y1126504D01*
X36750000Y0D02*
X37336421Y1126504D01*
X36750000Y45000000D02*
X36163579Y43873496D01*
X36750000Y45000000D02*
X37336421Y43873496D01*
D12*
X0Y0D02*
X0Y45000000D01*
X31000000Y0D02*
X0Y0D01*
X31000000Y45000000D02*
X31000000Y0D01*
X0Y45000000D02*
X31000000Y45000000D01*
M02*
