G04 #@! TF.GenerationSoftware,KiCad,Pcbnew,7.0.11-7.0.11~ubuntu22.04.1*
G04 #@! TF.CreationDate,2025-03-19T11:11:56+01:00*
G04 #@! TF.ProjectId,dancebots-pcb,64616e63-6562-46f7-9473-2d7063622e6b,v8.3*
G04 #@! TF.SameCoordinates,Original*
G04 #@! TF.FileFunction,Legend,Bot*
G04 #@! TF.FilePolarity,Positive*
%FSLAX46Y46*%
G04 Gerber Fmt 4.6, Leading zero omitted, Abs format (unit mm)*
G04 Created by KiCad (PCBNEW 7.0.11-7.0.11~ubuntu22.04.1) date 2025-03-19 11:11:56*
%MOMM*%
%LPD*%
G01*
G04 APERTURE LIST*
%ADD10C,0.170000*%
%ADD11C,2.000000*%
%ADD12R,1.700000X1.700000*%
%ADD13C,1.700000*%
%ADD14R,1.800000X1.800000*%
%ADD15C,1.800000*%
%ADD16R,2.000000X2.000000*%
%ADD17C,2.100000*%
%ADD18O,2.000000X1.600000*%
%ADD19O,1.600000X2.000000*%
%ADD20O,1.800000X2.000000*%
%ADD21O,2.000000X1.800000*%
%ADD22O,2.032000X2.540000*%
%ADD23R,1.600000X2.400000*%
%ADD24O,1.600000X2.400000*%
%ADD25R,2.400000X1.600000*%
%ADD26O,2.400000X1.600000*%
%ADD27R,2.000000X3.000000*%
%ADD28O,2.000000X3.000000*%
G04 APERTURE END LIST*
D10*
X136102443Y-106500040D02*
X136626253Y-106500040D01*
X136626253Y-106500040D02*
X136626253Y-105400040D01*
X135735777Y-106500040D02*
X135735777Y-105766707D01*
X135735777Y-105400040D02*
X135788158Y-105452421D01*
X135788158Y-105452421D02*
X135735777Y-105504802D01*
X135735777Y-105504802D02*
X135683396Y-105452421D01*
X135683396Y-105452421D02*
X135735777Y-105400040D01*
X135735777Y-105400040D02*
X135735777Y-105504802D01*
X134740538Y-106447660D02*
X134845300Y-106500040D01*
X134845300Y-106500040D02*
X135054824Y-106500040D01*
X135054824Y-106500040D02*
X135159586Y-106447660D01*
X135159586Y-106447660D02*
X135211967Y-106395279D01*
X135211967Y-106395279D02*
X135264348Y-106290517D01*
X135264348Y-106290517D02*
X135264348Y-105976231D01*
X135264348Y-105976231D02*
X135211967Y-105871469D01*
X135211967Y-105871469D02*
X135159586Y-105819088D01*
X135159586Y-105819088D02*
X135054824Y-105766707D01*
X135054824Y-105766707D02*
X134845300Y-105766707D01*
X134845300Y-105766707D02*
X134740538Y-105819088D01*
X133850062Y-106447660D02*
X133954824Y-106500040D01*
X133954824Y-106500040D02*
X134164348Y-106500040D01*
X134164348Y-106500040D02*
X134269110Y-106447660D01*
X134269110Y-106447660D02*
X134321491Y-106342898D01*
X134321491Y-106342898D02*
X134321491Y-105923850D01*
X134321491Y-105923850D02*
X134269110Y-105819088D01*
X134269110Y-105819088D02*
X134164348Y-105766707D01*
X134164348Y-105766707D02*
X133954824Y-105766707D01*
X133954824Y-105766707D02*
X133850062Y-105819088D01*
X133850062Y-105819088D02*
X133797681Y-105923850D01*
X133797681Y-105923850D02*
X133797681Y-106028612D01*
X133797681Y-106028612D02*
X134321491Y-106133374D01*
X133326253Y-105766707D02*
X133326253Y-106500040D01*
X133326253Y-105871469D02*
X133273872Y-105819088D01*
X133273872Y-105819088D02*
X133169110Y-105766707D01*
X133169110Y-105766707D02*
X133011967Y-105766707D01*
X133011967Y-105766707D02*
X132907205Y-105819088D01*
X132907205Y-105819088D02*
X132854824Y-105923850D01*
X132854824Y-105923850D02*
X132854824Y-106500040D01*
X132383396Y-106447660D02*
X132278634Y-106500040D01*
X132278634Y-106500040D02*
X132069110Y-106500040D01*
X132069110Y-106500040D02*
X131964348Y-106447660D01*
X131964348Y-106447660D02*
X131911967Y-106342898D01*
X131911967Y-106342898D02*
X131911967Y-106290517D01*
X131911967Y-106290517D02*
X131964348Y-106185755D01*
X131964348Y-106185755D02*
X132069110Y-106133374D01*
X132069110Y-106133374D02*
X132226253Y-106133374D01*
X132226253Y-106133374D02*
X132331015Y-106080993D01*
X132331015Y-106080993D02*
X132383396Y-105976231D01*
X132383396Y-105976231D02*
X132383396Y-105923850D01*
X132383396Y-105923850D02*
X132331015Y-105819088D01*
X132331015Y-105819088D02*
X132226253Y-105766707D01*
X132226253Y-105766707D02*
X132069110Y-105766707D01*
X132069110Y-105766707D02*
X131964348Y-105819088D01*
X131021491Y-106447660D02*
X131126253Y-106500040D01*
X131126253Y-106500040D02*
X131335777Y-106500040D01*
X131335777Y-106500040D02*
X131440539Y-106447660D01*
X131440539Y-106447660D02*
X131492920Y-106342898D01*
X131492920Y-106342898D02*
X131492920Y-105923850D01*
X131492920Y-105923850D02*
X131440539Y-105819088D01*
X131440539Y-105819088D02*
X131335777Y-105766707D01*
X131335777Y-105766707D02*
X131126253Y-105766707D01*
X131126253Y-105766707D02*
X131021491Y-105819088D01*
X131021491Y-105819088D02*
X130969110Y-105923850D01*
X130969110Y-105923850D02*
X130969110Y-106028612D01*
X130969110Y-106028612D02*
X131492920Y-106133374D01*
X130026253Y-106500040D02*
X130026253Y-105400040D01*
X130026253Y-106447660D02*
X130131015Y-106500040D01*
X130131015Y-106500040D02*
X130340539Y-106500040D01*
X130340539Y-106500040D02*
X130445301Y-106447660D01*
X130445301Y-106447660D02*
X130497682Y-106395279D01*
X130497682Y-106395279D02*
X130550063Y-106290517D01*
X130550063Y-106290517D02*
X130550063Y-105976231D01*
X130550063Y-105976231D02*
X130497682Y-105871469D01*
X130497682Y-105871469D02*
X130445301Y-105819088D01*
X130445301Y-105819088D02*
X130340539Y-105766707D01*
X130340539Y-105766707D02*
X130131015Y-105766707D01*
X130131015Y-105766707D02*
X130026253Y-105819088D01*
X128192920Y-105766707D02*
X128192920Y-106500040D01*
X128664349Y-105766707D02*
X128664349Y-106342898D01*
X128664349Y-106342898D02*
X128611968Y-106447660D01*
X128611968Y-106447660D02*
X128507206Y-106500040D01*
X128507206Y-106500040D02*
X128350063Y-106500040D01*
X128350063Y-106500040D02*
X128245301Y-106447660D01*
X128245301Y-106447660D02*
X128192920Y-106395279D01*
X127669111Y-105766707D02*
X127669111Y-106500040D01*
X127669111Y-105871469D02*
X127616730Y-105819088D01*
X127616730Y-105819088D02*
X127511968Y-105766707D01*
X127511968Y-105766707D02*
X127354825Y-105766707D01*
X127354825Y-105766707D02*
X127250063Y-105819088D01*
X127250063Y-105819088D02*
X127197682Y-105923850D01*
X127197682Y-105923850D02*
X127197682Y-106500040D01*
X126202444Y-106500040D02*
X126202444Y-105400040D01*
X126202444Y-106447660D02*
X126307206Y-106500040D01*
X126307206Y-106500040D02*
X126516730Y-106500040D01*
X126516730Y-106500040D02*
X126621492Y-106447660D01*
X126621492Y-106447660D02*
X126673873Y-106395279D01*
X126673873Y-106395279D02*
X126726254Y-106290517D01*
X126726254Y-106290517D02*
X126726254Y-105976231D01*
X126726254Y-105976231D02*
X126673873Y-105871469D01*
X126673873Y-105871469D02*
X126621492Y-105819088D01*
X126621492Y-105819088D02*
X126516730Y-105766707D01*
X126516730Y-105766707D02*
X126307206Y-105766707D01*
X126307206Y-105766707D02*
X126202444Y-105819088D01*
X125259587Y-106447660D02*
X125364349Y-106500040D01*
X125364349Y-106500040D02*
X125573873Y-106500040D01*
X125573873Y-106500040D02*
X125678635Y-106447660D01*
X125678635Y-106447660D02*
X125731016Y-106342898D01*
X125731016Y-106342898D02*
X125731016Y-105923850D01*
X125731016Y-105923850D02*
X125678635Y-105819088D01*
X125678635Y-105819088D02*
X125573873Y-105766707D01*
X125573873Y-105766707D02*
X125364349Y-105766707D01*
X125364349Y-105766707D02*
X125259587Y-105819088D01*
X125259587Y-105819088D02*
X125207206Y-105923850D01*
X125207206Y-105923850D02*
X125207206Y-106028612D01*
X125207206Y-106028612D02*
X125731016Y-106133374D01*
X124735778Y-106500040D02*
X124735778Y-105766707D01*
X124735778Y-105976231D02*
X124683397Y-105871469D01*
X124683397Y-105871469D02*
X124631016Y-105819088D01*
X124631016Y-105819088D02*
X124526254Y-105766707D01*
X124526254Y-105766707D02*
X124421492Y-105766707D01*
X122588159Y-106395279D02*
X122640540Y-106447660D01*
X122640540Y-106447660D02*
X122797683Y-106500040D01*
X122797683Y-106500040D02*
X122902445Y-106500040D01*
X122902445Y-106500040D02*
X123059588Y-106447660D01*
X123059588Y-106447660D02*
X123164350Y-106342898D01*
X123164350Y-106342898D02*
X123216731Y-106238136D01*
X123216731Y-106238136D02*
X123269112Y-106028612D01*
X123269112Y-106028612D02*
X123269112Y-105871469D01*
X123269112Y-105871469D02*
X123216731Y-105661945D01*
X123216731Y-105661945D02*
X123164350Y-105557183D01*
X123164350Y-105557183D02*
X123059588Y-105452421D01*
X123059588Y-105452421D02*
X122902445Y-105400040D01*
X122902445Y-105400040D02*
X122797683Y-105400040D01*
X122797683Y-105400040D02*
X122640540Y-105452421D01*
X122640540Y-105452421D02*
X122588159Y-105504802D01*
X122116731Y-105923850D02*
X121750064Y-105923850D01*
X121592921Y-106500040D02*
X122116731Y-106500040D01*
X122116731Y-106500040D02*
X122116731Y-105400040D01*
X122116731Y-105400040D02*
X121592921Y-105400040D01*
X120492921Y-106500040D02*
X120859588Y-105976231D01*
X121121493Y-106500040D02*
X121121493Y-105400040D01*
X121121493Y-105400040D02*
X120702445Y-105400040D01*
X120702445Y-105400040D02*
X120597683Y-105452421D01*
X120597683Y-105452421D02*
X120545302Y-105504802D01*
X120545302Y-105504802D02*
X120492921Y-105609564D01*
X120492921Y-105609564D02*
X120492921Y-105766707D01*
X120492921Y-105766707D02*
X120545302Y-105871469D01*
X120545302Y-105871469D02*
X120597683Y-105923850D01*
X120597683Y-105923850D02*
X120702445Y-105976231D01*
X120702445Y-105976231D02*
X121121493Y-105976231D01*
X120021493Y-106500040D02*
X120021493Y-105400040D01*
X120021493Y-105400040D02*
X119392921Y-106500040D01*
X119392921Y-106500040D02*
X119392921Y-105400040D01*
X117821493Y-105400040D02*
X117611969Y-105400040D01*
X117611969Y-105400040D02*
X117507207Y-105452421D01*
X117507207Y-105452421D02*
X117402445Y-105557183D01*
X117402445Y-105557183D02*
X117350064Y-105766707D01*
X117350064Y-105766707D02*
X117350064Y-106133374D01*
X117350064Y-106133374D02*
X117402445Y-106342898D01*
X117402445Y-106342898D02*
X117507207Y-106447660D01*
X117507207Y-106447660D02*
X117611969Y-106500040D01*
X117611969Y-106500040D02*
X117821493Y-106500040D01*
X117821493Y-106500040D02*
X117926255Y-106447660D01*
X117926255Y-106447660D02*
X118031017Y-106342898D01*
X118031017Y-106342898D02*
X118083398Y-106133374D01*
X118083398Y-106133374D02*
X118083398Y-105766707D01*
X118083398Y-105766707D02*
X118031017Y-105557183D01*
X118031017Y-105557183D02*
X117926255Y-105452421D01*
X117926255Y-105452421D02*
X117821493Y-105400040D01*
X116878636Y-106500040D02*
X116878636Y-105400040D01*
X116878636Y-105923850D02*
X116250064Y-105923850D01*
X116250064Y-106500040D02*
X116250064Y-105400040D01*
X115202445Y-106500040D02*
X115726255Y-106500040D01*
X115726255Y-106500040D02*
X115726255Y-105400040D01*
X114102446Y-105766707D02*
X113840541Y-106500040D01*
X113840541Y-106500040D02*
X113578636Y-105766707D01*
X113159589Y-106395279D02*
X113107208Y-106447660D01*
X113107208Y-106447660D02*
X113159589Y-106500040D01*
X113159589Y-106500040D02*
X113211970Y-106447660D01*
X113211970Y-106447660D02*
X113159589Y-106395279D01*
X113159589Y-106395279D02*
X113159589Y-106500040D01*
X112059588Y-106500040D02*
X112688160Y-106500040D01*
X112373874Y-106500040D02*
X112373874Y-105400040D01*
X112373874Y-105400040D02*
X112478636Y-105557183D01*
X112478636Y-105557183D02*
X112583398Y-105661945D01*
X112583398Y-105661945D02*
X112688160Y-105714326D01*
X111588160Y-106395279D02*
X111535779Y-106447660D01*
X111535779Y-106447660D02*
X111588160Y-106500040D01*
X111588160Y-106500040D02*
X111640541Y-106447660D01*
X111640541Y-106447660D02*
X111588160Y-106395279D01*
X111588160Y-106395279D02*
X111588160Y-106500040D01*
X111116731Y-105504802D02*
X111064350Y-105452421D01*
X111064350Y-105452421D02*
X110959588Y-105400040D01*
X110959588Y-105400040D02*
X110697683Y-105400040D01*
X110697683Y-105400040D02*
X110592921Y-105452421D01*
X110592921Y-105452421D02*
X110540540Y-105504802D01*
X110540540Y-105504802D02*
X110488159Y-105609564D01*
X110488159Y-105609564D02*
X110488159Y-105714326D01*
X110488159Y-105714326D02*
X110540540Y-105871469D01*
X110540540Y-105871469D02*
X111169112Y-106500040D01*
X111169112Y-106500040D02*
X110488159Y-106500040D01*
X136626253Y-108500040D02*
X136626253Y-107400040D01*
X136626253Y-107400040D02*
X136364348Y-107400040D01*
X136364348Y-107400040D02*
X136207205Y-107452421D01*
X136207205Y-107452421D02*
X136102443Y-107557183D01*
X136102443Y-107557183D02*
X136050062Y-107661945D01*
X136050062Y-107661945D02*
X135997681Y-107871469D01*
X135997681Y-107871469D02*
X135997681Y-108028612D01*
X135997681Y-108028612D02*
X136050062Y-108238136D01*
X136050062Y-108238136D02*
X136102443Y-108342898D01*
X136102443Y-108342898D02*
X136207205Y-108447660D01*
X136207205Y-108447660D02*
X136364348Y-108500040D01*
X136364348Y-108500040D02*
X136626253Y-108500040D01*
X135107205Y-108447660D02*
X135211967Y-108500040D01*
X135211967Y-108500040D02*
X135421491Y-108500040D01*
X135421491Y-108500040D02*
X135526253Y-108447660D01*
X135526253Y-108447660D02*
X135578634Y-108342898D01*
X135578634Y-108342898D02*
X135578634Y-107923850D01*
X135578634Y-107923850D02*
X135526253Y-107819088D01*
X135526253Y-107819088D02*
X135421491Y-107766707D01*
X135421491Y-107766707D02*
X135211967Y-107766707D01*
X135211967Y-107766707D02*
X135107205Y-107819088D01*
X135107205Y-107819088D02*
X135054824Y-107923850D01*
X135054824Y-107923850D02*
X135054824Y-108028612D01*
X135054824Y-108028612D02*
X135578634Y-108133374D01*
X134635777Y-108447660D02*
X134531015Y-108500040D01*
X134531015Y-108500040D02*
X134321491Y-108500040D01*
X134321491Y-108500040D02*
X134216729Y-108447660D01*
X134216729Y-108447660D02*
X134164348Y-108342898D01*
X134164348Y-108342898D02*
X134164348Y-108290517D01*
X134164348Y-108290517D02*
X134216729Y-108185755D01*
X134216729Y-108185755D02*
X134321491Y-108133374D01*
X134321491Y-108133374D02*
X134478634Y-108133374D01*
X134478634Y-108133374D02*
X134583396Y-108080993D01*
X134583396Y-108080993D02*
X134635777Y-107976231D01*
X134635777Y-107976231D02*
X134635777Y-107923850D01*
X134635777Y-107923850D02*
X134583396Y-107819088D01*
X134583396Y-107819088D02*
X134478634Y-107766707D01*
X134478634Y-107766707D02*
X134321491Y-107766707D01*
X134321491Y-107766707D02*
X134216729Y-107819088D01*
X133692920Y-108500040D02*
X133692920Y-107766707D01*
X133692920Y-107400040D02*
X133745301Y-107452421D01*
X133745301Y-107452421D02*
X133692920Y-107504802D01*
X133692920Y-107504802D02*
X133640539Y-107452421D01*
X133640539Y-107452421D02*
X133692920Y-107400040D01*
X133692920Y-107400040D02*
X133692920Y-107504802D01*
X132697681Y-107766707D02*
X132697681Y-108657183D01*
X132697681Y-108657183D02*
X132750062Y-108761945D01*
X132750062Y-108761945D02*
X132802443Y-108814326D01*
X132802443Y-108814326D02*
X132907205Y-108866707D01*
X132907205Y-108866707D02*
X133064348Y-108866707D01*
X133064348Y-108866707D02*
X133169110Y-108814326D01*
X132697681Y-108447660D02*
X132802443Y-108500040D01*
X132802443Y-108500040D02*
X133011967Y-108500040D01*
X133011967Y-108500040D02*
X133116729Y-108447660D01*
X133116729Y-108447660D02*
X133169110Y-108395279D01*
X133169110Y-108395279D02*
X133221491Y-108290517D01*
X133221491Y-108290517D02*
X133221491Y-107976231D01*
X133221491Y-107976231D02*
X133169110Y-107871469D01*
X133169110Y-107871469D02*
X133116729Y-107819088D01*
X133116729Y-107819088D02*
X133011967Y-107766707D01*
X133011967Y-107766707D02*
X132802443Y-107766707D01*
X132802443Y-107766707D02*
X132697681Y-107819088D01*
X132173872Y-107766707D02*
X132173872Y-108500040D01*
X132173872Y-107871469D02*
X132121491Y-107819088D01*
X132121491Y-107819088D02*
X132016729Y-107766707D01*
X132016729Y-107766707D02*
X131859586Y-107766707D01*
X131859586Y-107766707D02*
X131754824Y-107819088D01*
X131754824Y-107819088D02*
X131702443Y-107923850D01*
X131702443Y-107923850D02*
X131702443Y-108500040D01*
X130759586Y-108447660D02*
X130864348Y-108500040D01*
X130864348Y-108500040D02*
X131073872Y-108500040D01*
X131073872Y-108500040D02*
X131178634Y-108447660D01*
X131178634Y-108447660D02*
X131231015Y-108342898D01*
X131231015Y-108342898D02*
X131231015Y-107923850D01*
X131231015Y-107923850D02*
X131178634Y-107819088D01*
X131178634Y-107819088D02*
X131073872Y-107766707D01*
X131073872Y-107766707D02*
X130864348Y-107766707D01*
X130864348Y-107766707D02*
X130759586Y-107819088D01*
X130759586Y-107819088D02*
X130707205Y-107923850D01*
X130707205Y-107923850D02*
X130707205Y-108028612D01*
X130707205Y-108028612D02*
X131231015Y-108133374D01*
X129764348Y-108500040D02*
X129764348Y-107400040D01*
X129764348Y-108447660D02*
X129869110Y-108500040D01*
X129869110Y-108500040D02*
X130078634Y-108500040D01*
X130078634Y-108500040D02*
X130183396Y-108447660D01*
X130183396Y-108447660D02*
X130235777Y-108395279D01*
X130235777Y-108395279D02*
X130288158Y-108290517D01*
X130288158Y-108290517D02*
X130288158Y-107976231D01*
X130288158Y-107976231D02*
X130235777Y-107871469D01*
X130235777Y-107871469D02*
X130183396Y-107819088D01*
X130183396Y-107819088D02*
X130078634Y-107766707D01*
X130078634Y-107766707D02*
X129869110Y-107766707D01*
X129869110Y-107766707D02*
X129764348Y-107819088D01*
X128402444Y-108500040D02*
X128402444Y-107766707D01*
X128402444Y-107400040D02*
X128454825Y-107452421D01*
X128454825Y-107452421D02*
X128402444Y-107504802D01*
X128402444Y-107504802D02*
X128350063Y-107452421D01*
X128350063Y-107452421D02*
X128402444Y-107400040D01*
X128402444Y-107400040D02*
X128402444Y-107504802D01*
X127878634Y-107766707D02*
X127878634Y-108500040D01*
X127878634Y-107871469D02*
X127826253Y-107819088D01*
X127826253Y-107819088D02*
X127721491Y-107766707D01*
X127721491Y-107766707D02*
X127564348Y-107766707D01*
X127564348Y-107766707D02*
X127459586Y-107819088D01*
X127459586Y-107819088D02*
X127407205Y-107923850D01*
X127407205Y-107923850D02*
X127407205Y-108500040D01*
X126097682Y-108447660D02*
X125940539Y-108500040D01*
X125940539Y-108500040D02*
X125678634Y-108500040D01*
X125678634Y-108500040D02*
X125573872Y-108447660D01*
X125573872Y-108447660D02*
X125521491Y-108395279D01*
X125521491Y-108395279D02*
X125469110Y-108290517D01*
X125469110Y-108290517D02*
X125469110Y-108185755D01*
X125469110Y-108185755D02*
X125521491Y-108080993D01*
X125521491Y-108080993D02*
X125573872Y-108028612D01*
X125573872Y-108028612D02*
X125678634Y-107976231D01*
X125678634Y-107976231D02*
X125888158Y-107923850D01*
X125888158Y-107923850D02*
X125992920Y-107871469D01*
X125992920Y-107871469D02*
X126045301Y-107819088D01*
X126045301Y-107819088D02*
X126097682Y-107714326D01*
X126097682Y-107714326D02*
X126097682Y-107609564D01*
X126097682Y-107609564D02*
X126045301Y-107504802D01*
X126045301Y-107504802D02*
X125992920Y-107452421D01*
X125992920Y-107452421D02*
X125888158Y-107400040D01*
X125888158Y-107400040D02*
X125626253Y-107400040D01*
X125626253Y-107400040D02*
X125469110Y-107452421D01*
X125102444Y-107766707D02*
X124892920Y-108500040D01*
X124892920Y-108500040D02*
X124683396Y-107976231D01*
X124683396Y-107976231D02*
X124473872Y-108500040D01*
X124473872Y-108500040D02*
X124264348Y-107766707D01*
X123845301Y-108500040D02*
X123845301Y-107766707D01*
X123845301Y-107400040D02*
X123897682Y-107452421D01*
X123897682Y-107452421D02*
X123845301Y-107504802D01*
X123845301Y-107504802D02*
X123792920Y-107452421D01*
X123792920Y-107452421D02*
X123845301Y-107400040D01*
X123845301Y-107400040D02*
X123845301Y-107504802D01*
X123478634Y-107766707D02*
X123059586Y-107766707D01*
X123321491Y-107400040D02*
X123321491Y-108342898D01*
X123321491Y-108342898D02*
X123269110Y-108447660D01*
X123269110Y-108447660D02*
X123164348Y-108500040D01*
X123164348Y-108500040D02*
X123059586Y-108500040D01*
X122797682Y-107766707D02*
X122221491Y-107766707D01*
X122221491Y-107766707D02*
X122797682Y-108500040D01*
X122797682Y-108500040D02*
X122221491Y-108500040D01*
X121383396Y-108447660D02*
X121488158Y-108500040D01*
X121488158Y-108500040D02*
X121697682Y-108500040D01*
X121697682Y-108500040D02*
X121802444Y-108447660D01*
X121802444Y-108447660D02*
X121854825Y-108342898D01*
X121854825Y-108342898D02*
X121854825Y-107923850D01*
X121854825Y-107923850D02*
X121802444Y-107819088D01*
X121802444Y-107819088D02*
X121697682Y-107766707D01*
X121697682Y-107766707D02*
X121488158Y-107766707D01*
X121488158Y-107766707D02*
X121383396Y-107819088D01*
X121383396Y-107819088D02*
X121331015Y-107923850D01*
X121331015Y-107923850D02*
X121331015Y-108028612D01*
X121331015Y-108028612D02*
X121854825Y-108133374D01*
X120859587Y-108500040D02*
X120859587Y-107766707D01*
X120859587Y-107976231D02*
X120807206Y-107871469D01*
X120807206Y-107871469D02*
X120754825Y-107819088D01*
X120754825Y-107819088D02*
X120650063Y-107766707D01*
X120650063Y-107766707D02*
X120545301Y-107766707D01*
X120021492Y-108500040D02*
X120126254Y-108447660D01*
X120126254Y-108447660D02*
X120178635Y-108342898D01*
X120178635Y-108342898D02*
X120178635Y-107400040D01*
X119131016Y-108500040D02*
X119131016Y-107923850D01*
X119131016Y-107923850D02*
X119183397Y-107819088D01*
X119183397Y-107819088D02*
X119288159Y-107766707D01*
X119288159Y-107766707D02*
X119497683Y-107766707D01*
X119497683Y-107766707D02*
X119602445Y-107819088D01*
X119131016Y-108447660D02*
X119235778Y-108500040D01*
X119235778Y-108500040D02*
X119497683Y-108500040D01*
X119497683Y-108500040D02*
X119602445Y-108447660D01*
X119602445Y-108447660D02*
X119654826Y-108342898D01*
X119654826Y-108342898D02*
X119654826Y-108238136D01*
X119654826Y-108238136D02*
X119602445Y-108133374D01*
X119602445Y-108133374D02*
X119497683Y-108080993D01*
X119497683Y-108080993D02*
X119235778Y-108080993D01*
X119235778Y-108080993D02*
X119131016Y-108028612D01*
X118607207Y-107766707D02*
X118607207Y-108500040D01*
X118607207Y-107871469D02*
X118554826Y-107819088D01*
X118554826Y-107819088D02*
X118450064Y-107766707D01*
X118450064Y-107766707D02*
X118292921Y-107766707D01*
X118292921Y-107766707D02*
X118188159Y-107819088D01*
X118188159Y-107819088D02*
X118135778Y-107923850D01*
X118135778Y-107923850D02*
X118135778Y-108500040D01*
X117140540Y-108500040D02*
X117140540Y-107400040D01*
X117140540Y-108447660D02*
X117245302Y-108500040D01*
X117245302Y-108500040D02*
X117454826Y-108500040D01*
X117454826Y-108500040D02*
X117559588Y-108447660D01*
X117559588Y-108447660D02*
X117611969Y-108395279D01*
X117611969Y-108395279D02*
X117664350Y-108290517D01*
X117664350Y-108290517D02*
X117664350Y-107976231D01*
X117664350Y-107976231D02*
X117611969Y-107871469D01*
X117611969Y-107871469D02*
X117559588Y-107819088D01*
X117559588Y-107819088D02*
X117454826Y-107766707D01*
X117454826Y-107766707D02*
X117245302Y-107766707D01*
X117245302Y-107766707D02*
X117140540Y-107819088D01*
X136726253Y-113614540D02*
X136726253Y-112514540D01*
X136726253Y-112514540D02*
X136359586Y-113300255D01*
X136359586Y-113300255D02*
X135992919Y-112514540D01*
X135992919Y-112514540D02*
X135992919Y-113614540D01*
X135469110Y-113614540D02*
X135469110Y-112514540D01*
X135469110Y-112514540D02*
X135050062Y-112514540D01*
X135050062Y-112514540D02*
X134945300Y-112566921D01*
X134945300Y-112566921D02*
X134892919Y-112619302D01*
X134892919Y-112619302D02*
X134840538Y-112724064D01*
X134840538Y-112724064D02*
X134840538Y-112881207D01*
X134840538Y-112881207D02*
X134892919Y-112985969D01*
X134892919Y-112985969D02*
X134945300Y-113038350D01*
X134945300Y-113038350D02*
X135050062Y-113090731D01*
X135050062Y-113090731D02*
X135469110Y-113090731D01*
X134473872Y-112514540D02*
X133792919Y-112514540D01*
X133792919Y-112514540D02*
X134159586Y-112933588D01*
X134159586Y-112933588D02*
X134002443Y-112933588D01*
X134002443Y-112933588D02*
X133897681Y-112985969D01*
X133897681Y-112985969D02*
X133845300Y-113038350D01*
X133845300Y-113038350D02*
X133792919Y-113143112D01*
X133792919Y-113143112D02*
X133792919Y-113405017D01*
X133792919Y-113405017D02*
X133845300Y-113509779D01*
X133845300Y-113509779D02*
X133897681Y-113562160D01*
X133897681Y-113562160D02*
X134002443Y-113614540D01*
X134002443Y-113614540D02*
X134316729Y-113614540D01*
X134316729Y-113614540D02*
X134421491Y-113562160D01*
X134421491Y-113562160D02*
X134473872Y-113509779D01*
X132483396Y-113614540D02*
X132483396Y-112514540D01*
X132483396Y-112514540D02*
X132221491Y-112514540D01*
X132221491Y-112514540D02*
X132064348Y-112566921D01*
X132064348Y-112566921D02*
X131959586Y-112671683D01*
X131959586Y-112671683D02*
X131907205Y-112776445D01*
X131907205Y-112776445D02*
X131854824Y-112985969D01*
X131854824Y-112985969D02*
X131854824Y-113143112D01*
X131854824Y-113143112D02*
X131907205Y-113352636D01*
X131907205Y-113352636D02*
X131959586Y-113457398D01*
X131959586Y-113457398D02*
X132064348Y-113562160D01*
X132064348Y-113562160D02*
X132221491Y-113614540D01*
X132221491Y-113614540D02*
X132483396Y-113614540D01*
X130911967Y-113614540D02*
X130911967Y-113038350D01*
X130911967Y-113038350D02*
X130964348Y-112933588D01*
X130964348Y-112933588D02*
X131069110Y-112881207D01*
X131069110Y-112881207D02*
X131278634Y-112881207D01*
X131278634Y-112881207D02*
X131383396Y-112933588D01*
X130911967Y-113562160D02*
X131016729Y-113614540D01*
X131016729Y-113614540D02*
X131278634Y-113614540D01*
X131278634Y-113614540D02*
X131383396Y-113562160D01*
X131383396Y-113562160D02*
X131435777Y-113457398D01*
X131435777Y-113457398D02*
X131435777Y-113352636D01*
X131435777Y-113352636D02*
X131383396Y-113247874D01*
X131383396Y-113247874D02*
X131278634Y-113195493D01*
X131278634Y-113195493D02*
X131016729Y-113195493D01*
X131016729Y-113195493D02*
X130911967Y-113143112D01*
X130388158Y-112881207D02*
X130388158Y-113614540D01*
X130388158Y-112985969D02*
X130335777Y-112933588D01*
X130335777Y-112933588D02*
X130231015Y-112881207D01*
X130231015Y-112881207D02*
X130073872Y-112881207D01*
X130073872Y-112881207D02*
X129969110Y-112933588D01*
X129969110Y-112933588D02*
X129916729Y-113038350D01*
X129916729Y-113038350D02*
X129916729Y-113614540D01*
X128921491Y-113562160D02*
X129026253Y-113614540D01*
X129026253Y-113614540D02*
X129235777Y-113614540D01*
X129235777Y-113614540D02*
X129340539Y-113562160D01*
X129340539Y-113562160D02*
X129392920Y-113509779D01*
X129392920Y-113509779D02*
X129445301Y-113405017D01*
X129445301Y-113405017D02*
X129445301Y-113090731D01*
X129445301Y-113090731D02*
X129392920Y-112985969D01*
X129392920Y-112985969D02*
X129340539Y-112933588D01*
X129340539Y-112933588D02*
X129235777Y-112881207D01*
X129235777Y-112881207D02*
X129026253Y-112881207D01*
X129026253Y-112881207D02*
X128921491Y-112933588D01*
X128031015Y-113562160D02*
X128135777Y-113614540D01*
X128135777Y-113614540D02*
X128345301Y-113614540D01*
X128345301Y-113614540D02*
X128450063Y-113562160D01*
X128450063Y-113562160D02*
X128502444Y-113457398D01*
X128502444Y-113457398D02*
X128502444Y-113038350D01*
X128502444Y-113038350D02*
X128450063Y-112933588D01*
X128450063Y-112933588D02*
X128345301Y-112881207D01*
X128345301Y-112881207D02*
X128135777Y-112881207D01*
X128135777Y-112881207D02*
X128031015Y-112933588D01*
X128031015Y-112933588D02*
X127978634Y-113038350D01*
X127978634Y-113038350D02*
X127978634Y-113143112D01*
X127978634Y-113143112D02*
X128502444Y-113247874D01*
X127140539Y-113038350D02*
X126983396Y-113090731D01*
X126983396Y-113090731D02*
X126931015Y-113143112D01*
X126931015Y-113143112D02*
X126878634Y-113247874D01*
X126878634Y-113247874D02*
X126878634Y-113405017D01*
X126878634Y-113405017D02*
X126931015Y-113509779D01*
X126931015Y-113509779D02*
X126983396Y-113562160D01*
X126983396Y-113562160D02*
X127088158Y-113614540D01*
X127088158Y-113614540D02*
X127507206Y-113614540D01*
X127507206Y-113614540D02*
X127507206Y-112514540D01*
X127507206Y-112514540D02*
X127140539Y-112514540D01*
X127140539Y-112514540D02*
X127035777Y-112566921D01*
X127035777Y-112566921D02*
X126983396Y-112619302D01*
X126983396Y-112619302D02*
X126931015Y-112724064D01*
X126931015Y-112724064D02*
X126931015Y-112828826D01*
X126931015Y-112828826D02*
X126983396Y-112933588D01*
X126983396Y-112933588D02*
X127035777Y-112985969D01*
X127035777Y-112985969D02*
X127140539Y-113038350D01*
X127140539Y-113038350D02*
X127507206Y-113038350D01*
X126250063Y-113614540D02*
X126354825Y-113562160D01*
X126354825Y-113562160D02*
X126407206Y-113509779D01*
X126407206Y-113509779D02*
X126459587Y-113405017D01*
X126459587Y-113405017D02*
X126459587Y-113090731D01*
X126459587Y-113090731D02*
X126407206Y-112985969D01*
X126407206Y-112985969D02*
X126354825Y-112933588D01*
X126354825Y-112933588D02*
X126250063Y-112881207D01*
X126250063Y-112881207D02*
X126092920Y-112881207D01*
X126092920Y-112881207D02*
X125988158Y-112933588D01*
X125988158Y-112933588D02*
X125935777Y-112985969D01*
X125935777Y-112985969D02*
X125883396Y-113090731D01*
X125883396Y-113090731D02*
X125883396Y-113405017D01*
X125883396Y-113405017D02*
X125935777Y-113509779D01*
X125935777Y-113509779D02*
X125988158Y-113562160D01*
X125988158Y-113562160D02*
X126092920Y-113614540D01*
X126092920Y-113614540D02*
X126250063Y-113614540D01*
X125569111Y-112881207D02*
X125150063Y-112881207D01*
X125411968Y-112514540D02*
X125411968Y-113457398D01*
X125411968Y-113457398D02*
X125359587Y-113562160D01*
X125359587Y-113562160D02*
X125254825Y-113614540D01*
X125254825Y-113614540D02*
X125150063Y-113614540D01*
X124102445Y-112514540D02*
X123735778Y-113614540D01*
X123735778Y-113614540D02*
X123369111Y-112514540D01*
X122845302Y-112985969D02*
X122950064Y-112933588D01*
X122950064Y-112933588D02*
X123002445Y-112881207D01*
X123002445Y-112881207D02*
X123054826Y-112776445D01*
X123054826Y-112776445D02*
X123054826Y-112724064D01*
X123054826Y-112724064D02*
X123002445Y-112619302D01*
X123002445Y-112619302D02*
X122950064Y-112566921D01*
X122950064Y-112566921D02*
X122845302Y-112514540D01*
X122845302Y-112514540D02*
X122635778Y-112514540D01*
X122635778Y-112514540D02*
X122531016Y-112566921D01*
X122531016Y-112566921D02*
X122478635Y-112619302D01*
X122478635Y-112619302D02*
X122426254Y-112724064D01*
X122426254Y-112724064D02*
X122426254Y-112776445D01*
X122426254Y-112776445D02*
X122478635Y-112881207D01*
X122478635Y-112881207D02*
X122531016Y-112933588D01*
X122531016Y-112933588D02*
X122635778Y-112985969D01*
X122635778Y-112985969D02*
X122845302Y-112985969D01*
X122845302Y-112985969D02*
X122950064Y-113038350D01*
X122950064Y-113038350D02*
X123002445Y-113090731D01*
X123002445Y-113090731D02*
X123054826Y-113195493D01*
X123054826Y-113195493D02*
X123054826Y-113405017D01*
X123054826Y-113405017D02*
X123002445Y-113509779D01*
X123002445Y-113509779D02*
X122950064Y-113562160D01*
X122950064Y-113562160D02*
X122845302Y-113614540D01*
X122845302Y-113614540D02*
X122635778Y-113614540D01*
X122635778Y-113614540D02*
X122531016Y-113562160D01*
X122531016Y-113562160D02*
X122478635Y-113509779D01*
X122478635Y-113509779D02*
X122426254Y-113405017D01*
X122426254Y-113405017D02*
X122426254Y-113195493D01*
X122426254Y-113195493D02*
X122478635Y-113090731D01*
X122478635Y-113090731D02*
X122531016Y-113038350D01*
X122531016Y-113038350D02*
X122635778Y-112985969D01*
X121954826Y-113509779D02*
X121902445Y-113562160D01*
X121902445Y-113562160D02*
X121954826Y-113614540D01*
X121954826Y-113614540D02*
X122007207Y-113562160D01*
X122007207Y-113562160D02*
X121954826Y-113509779D01*
X121954826Y-113509779D02*
X121954826Y-113614540D01*
X121535778Y-112514540D02*
X120854825Y-112514540D01*
X120854825Y-112514540D02*
X121221492Y-112933588D01*
X121221492Y-112933588D02*
X121064349Y-112933588D01*
X121064349Y-112933588D02*
X120959587Y-112985969D01*
X120959587Y-112985969D02*
X120907206Y-113038350D01*
X120907206Y-113038350D02*
X120854825Y-113143112D01*
X120854825Y-113143112D02*
X120854825Y-113405017D01*
X120854825Y-113405017D02*
X120907206Y-113509779D01*
X120907206Y-113509779D02*
X120959587Y-113562160D01*
X120959587Y-113562160D02*
X121064349Y-113614540D01*
X121064349Y-113614540D02*
X121378635Y-113614540D01*
X121378635Y-113614540D02*
X121483397Y-113562160D01*
X121483397Y-113562160D02*
X121535778Y-113509779D01*
X136726253Y-115385540D02*
X136726253Y-114652207D01*
X136726253Y-114756969D02*
X136673872Y-114704588D01*
X136673872Y-114704588D02*
X136569110Y-114652207D01*
X136569110Y-114652207D02*
X136411967Y-114652207D01*
X136411967Y-114652207D02*
X136307205Y-114704588D01*
X136307205Y-114704588D02*
X136254824Y-114809350D01*
X136254824Y-114809350D02*
X136254824Y-115385540D01*
X136254824Y-114809350D02*
X136202443Y-114704588D01*
X136202443Y-114704588D02*
X136097681Y-114652207D01*
X136097681Y-114652207D02*
X135940538Y-114652207D01*
X135940538Y-114652207D02*
X135835777Y-114704588D01*
X135835777Y-114704588D02*
X135783396Y-114809350D01*
X135783396Y-114809350D02*
X135783396Y-115385540D01*
X135259586Y-115385540D02*
X135259586Y-114652207D01*
X135259586Y-114285540D02*
X135311967Y-114337921D01*
X135311967Y-114337921D02*
X135259586Y-114390302D01*
X135259586Y-114390302D02*
X135207205Y-114337921D01*
X135207205Y-114337921D02*
X135259586Y-114285540D01*
X135259586Y-114285540D02*
X135259586Y-114390302D01*
X134735776Y-114652207D02*
X134735776Y-115385540D01*
X134735776Y-114756969D02*
X134683395Y-114704588D01*
X134683395Y-114704588D02*
X134578633Y-114652207D01*
X134578633Y-114652207D02*
X134421490Y-114652207D01*
X134421490Y-114652207D02*
X134316728Y-114704588D01*
X134316728Y-114704588D02*
X134264347Y-114809350D01*
X134264347Y-114809350D02*
X134264347Y-115385540D01*
X133897681Y-114652207D02*
X133478633Y-114652207D01*
X133740538Y-114285540D02*
X133740538Y-115228398D01*
X133740538Y-115228398D02*
X133688157Y-115333160D01*
X133688157Y-115333160D02*
X133583395Y-115385540D01*
X133583395Y-115385540D02*
X133478633Y-115385540D01*
X131383396Y-115385540D02*
X131435777Y-115385540D01*
X131435777Y-115385540D02*
X131540538Y-115333160D01*
X131540538Y-115333160D02*
X131697681Y-115176017D01*
X131697681Y-115176017D02*
X131959586Y-114861731D01*
X131959586Y-114861731D02*
X132064348Y-114704588D01*
X132064348Y-114704588D02*
X132116729Y-114547445D01*
X132116729Y-114547445D02*
X132116729Y-114442683D01*
X132116729Y-114442683D02*
X132064348Y-114337921D01*
X132064348Y-114337921D02*
X131959586Y-114285540D01*
X131959586Y-114285540D02*
X131907205Y-114285540D01*
X131907205Y-114285540D02*
X131802443Y-114337921D01*
X131802443Y-114337921D02*
X131750062Y-114442683D01*
X131750062Y-114442683D02*
X131750062Y-114495064D01*
X131750062Y-114495064D02*
X131802443Y-114599826D01*
X131802443Y-114599826D02*
X131854824Y-114652207D01*
X131854824Y-114652207D02*
X132169110Y-114861731D01*
X132169110Y-114861731D02*
X132221491Y-114914112D01*
X132221491Y-114914112D02*
X132273872Y-115018874D01*
X132273872Y-115018874D02*
X132273872Y-115176017D01*
X132273872Y-115176017D02*
X132221491Y-115280779D01*
X132221491Y-115280779D02*
X132169110Y-115333160D01*
X132169110Y-115333160D02*
X132064348Y-115385540D01*
X132064348Y-115385540D02*
X131907205Y-115385540D01*
X131907205Y-115385540D02*
X131802443Y-115333160D01*
X131802443Y-115333160D02*
X131750062Y-115280779D01*
X131750062Y-115280779D02*
X131592919Y-115071255D01*
X131592919Y-115071255D02*
X131540538Y-114914112D01*
X131540538Y-114914112D02*
X131540538Y-114809350D01*
X130073872Y-114652207D02*
X130073872Y-115752207D01*
X130073872Y-114704588D02*
X129969110Y-114652207D01*
X129969110Y-114652207D02*
X129759586Y-114652207D01*
X129759586Y-114652207D02*
X129654824Y-114704588D01*
X129654824Y-114704588D02*
X129602443Y-114756969D01*
X129602443Y-114756969D02*
X129550062Y-114861731D01*
X129550062Y-114861731D02*
X129550062Y-115176017D01*
X129550062Y-115176017D02*
X129602443Y-115280779D01*
X129602443Y-115280779D02*
X129654824Y-115333160D01*
X129654824Y-115333160D02*
X129759586Y-115385540D01*
X129759586Y-115385540D02*
X129969110Y-115385540D01*
X129969110Y-115385540D02*
X130073872Y-115333160D01*
X128659586Y-115333160D02*
X128764348Y-115385540D01*
X128764348Y-115385540D02*
X128973872Y-115385540D01*
X128973872Y-115385540D02*
X129078634Y-115333160D01*
X129078634Y-115333160D02*
X129131015Y-115228398D01*
X129131015Y-115228398D02*
X129131015Y-114809350D01*
X129131015Y-114809350D02*
X129078634Y-114704588D01*
X129078634Y-114704588D02*
X128973872Y-114652207D01*
X128973872Y-114652207D02*
X128764348Y-114652207D01*
X128764348Y-114652207D02*
X128659586Y-114704588D01*
X128659586Y-114704588D02*
X128607205Y-114809350D01*
X128607205Y-114809350D02*
X128607205Y-114914112D01*
X128607205Y-114914112D02*
X129131015Y-115018874D01*
X128135777Y-114652207D02*
X128135777Y-115752207D01*
X128135777Y-114704588D02*
X128031015Y-114652207D01*
X128031015Y-114652207D02*
X127821491Y-114652207D01*
X127821491Y-114652207D02*
X127716729Y-114704588D01*
X127716729Y-114704588D02*
X127664348Y-114756969D01*
X127664348Y-114756969D02*
X127611967Y-114861731D01*
X127611967Y-114861731D02*
X127611967Y-115176017D01*
X127611967Y-115176017D02*
X127664348Y-115280779D01*
X127664348Y-115280779D02*
X127716729Y-115333160D01*
X127716729Y-115333160D02*
X127821491Y-115385540D01*
X127821491Y-115385540D02*
X128031015Y-115385540D01*
X128031015Y-115385540D02*
X128135777Y-115333160D01*
X127140539Y-114652207D02*
X127140539Y-115752207D01*
X127140539Y-114704588D02*
X127035777Y-114652207D01*
X127035777Y-114652207D02*
X126826253Y-114652207D01*
X126826253Y-114652207D02*
X126721491Y-114704588D01*
X126721491Y-114704588D02*
X126669110Y-114756969D01*
X126669110Y-114756969D02*
X126616729Y-114861731D01*
X126616729Y-114861731D02*
X126616729Y-115176017D01*
X126616729Y-115176017D02*
X126669110Y-115280779D01*
X126669110Y-115280779D02*
X126721491Y-115333160D01*
X126721491Y-115333160D02*
X126826253Y-115385540D01*
X126826253Y-115385540D02*
X127035777Y-115385540D01*
X127035777Y-115385540D02*
X127140539Y-115333160D01*
X125726253Y-115333160D02*
X125831015Y-115385540D01*
X125831015Y-115385540D02*
X126040539Y-115385540D01*
X126040539Y-115385540D02*
X126145301Y-115333160D01*
X126145301Y-115333160D02*
X126197682Y-115228398D01*
X126197682Y-115228398D02*
X126197682Y-114809350D01*
X126197682Y-114809350D02*
X126145301Y-114704588D01*
X126145301Y-114704588D02*
X126040539Y-114652207D01*
X126040539Y-114652207D02*
X125831015Y-114652207D01*
X125831015Y-114652207D02*
X125726253Y-114704588D01*
X125726253Y-114704588D02*
X125673872Y-114809350D01*
X125673872Y-114809350D02*
X125673872Y-114914112D01*
X125673872Y-114914112D02*
X126197682Y-115018874D01*
X125202444Y-115385540D02*
X125202444Y-114652207D01*
X125202444Y-114861731D02*
X125150063Y-114756969D01*
X125150063Y-114756969D02*
X125097682Y-114704588D01*
X125097682Y-114704588D02*
X124992920Y-114652207D01*
X124992920Y-114652207D02*
X124888158Y-114652207D01*
X123735778Y-114390302D02*
X123683397Y-114337921D01*
X123683397Y-114337921D02*
X123578635Y-114285540D01*
X123578635Y-114285540D02*
X123316730Y-114285540D01*
X123316730Y-114285540D02*
X123211968Y-114337921D01*
X123211968Y-114337921D02*
X123159587Y-114390302D01*
X123159587Y-114390302D02*
X123107206Y-114495064D01*
X123107206Y-114495064D02*
X123107206Y-114599826D01*
X123107206Y-114599826D02*
X123159587Y-114756969D01*
X123159587Y-114756969D02*
X123788159Y-115385540D01*
X123788159Y-115385540D02*
X123107206Y-115385540D01*
X122426254Y-114285540D02*
X122321492Y-114285540D01*
X122321492Y-114285540D02*
X122216730Y-114337921D01*
X122216730Y-114337921D02*
X122164349Y-114390302D01*
X122164349Y-114390302D02*
X122111968Y-114495064D01*
X122111968Y-114495064D02*
X122059587Y-114704588D01*
X122059587Y-114704588D02*
X122059587Y-114966493D01*
X122059587Y-114966493D02*
X122111968Y-115176017D01*
X122111968Y-115176017D02*
X122164349Y-115280779D01*
X122164349Y-115280779D02*
X122216730Y-115333160D01*
X122216730Y-115333160D02*
X122321492Y-115385540D01*
X122321492Y-115385540D02*
X122426254Y-115385540D01*
X122426254Y-115385540D02*
X122531016Y-115333160D01*
X122531016Y-115333160D02*
X122583397Y-115280779D01*
X122583397Y-115280779D02*
X122635778Y-115176017D01*
X122635778Y-115176017D02*
X122688159Y-114966493D01*
X122688159Y-114966493D02*
X122688159Y-114704588D01*
X122688159Y-114704588D02*
X122635778Y-114495064D01*
X122635778Y-114495064D02*
X122583397Y-114390302D01*
X122583397Y-114390302D02*
X122531016Y-114337921D01*
X122531016Y-114337921D02*
X122426254Y-114285540D01*
X121640540Y-114390302D02*
X121588159Y-114337921D01*
X121588159Y-114337921D02*
X121483397Y-114285540D01*
X121483397Y-114285540D02*
X121221492Y-114285540D01*
X121221492Y-114285540D02*
X121116730Y-114337921D01*
X121116730Y-114337921D02*
X121064349Y-114390302D01*
X121064349Y-114390302D02*
X121011968Y-114495064D01*
X121011968Y-114495064D02*
X121011968Y-114599826D01*
X121011968Y-114599826D02*
X121064349Y-114756969D01*
X121064349Y-114756969D02*
X121692921Y-115385540D01*
X121692921Y-115385540D02*
X121011968Y-115385540D01*
X120016730Y-114285540D02*
X120540540Y-114285540D01*
X120540540Y-114285540D02*
X120592921Y-114809350D01*
X120592921Y-114809350D02*
X120540540Y-114756969D01*
X120540540Y-114756969D02*
X120435778Y-114704588D01*
X120435778Y-114704588D02*
X120173873Y-114704588D01*
X120173873Y-114704588D02*
X120069111Y-114756969D01*
X120069111Y-114756969D02*
X120016730Y-114809350D01*
X120016730Y-114809350D02*
X119964349Y-114914112D01*
X119964349Y-114914112D02*
X119964349Y-115176017D01*
X119964349Y-115176017D02*
X120016730Y-115280779D01*
X120016730Y-115280779D02*
X120069111Y-115333160D01*
X120069111Y-115333160D02*
X120173873Y-115385540D01*
X120173873Y-115385540D02*
X120435778Y-115385540D01*
X120435778Y-115385540D02*
X120540540Y-115333160D01*
X120540540Y-115333160D02*
X120592921Y-115280779D01*
%LPC*%
D11*
X101435000Y-102500000D03*
X106515000Y-102500000D03*
D12*
X113500000Y-100500000D03*
D13*
X113500000Y-98500000D03*
D11*
X140500000Y-91460000D03*
X140500000Y-96540000D03*
X113700000Y-125040000D03*
X113700000Y-119960000D03*
X141960000Y-118500000D03*
X147040000Y-118500000D03*
X141485000Y-132625000D03*
X146565000Y-132625000D03*
D14*
X146550000Y-136300000D03*
D15*
X146550000Y-138800000D03*
D11*
X124500000Y-134540000D03*
X124500000Y-129460000D03*
D14*
X115600000Y-93800000D03*
D15*
X113060000Y-93800000D03*
D16*
X103530000Y-92200000D03*
D17*
X106070000Y-92200000D03*
D18*
X106500000Y-98500000D03*
X106500000Y-96500000D03*
X143500000Y-96500000D03*
X143500000Y-98500000D03*
D19*
X147800000Y-142325000D03*
X145800000Y-142325000D03*
D11*
X105000000Y-148270000D03*
X105000000Y-145730000D03*
X109500000Y-148270000D03*
X109500000Y-145730000D03*
X114000000Y-148270000D03*
X114000000Y-145730000D03*
X118500000Y-148270000D03*
X118500000Y-145730000D03*
X123000000Y-148270000D03*
X123000000Y-145730000D03*
X127500000Y-148270000D03*
X127500000Y-145730000D03*
X132000000Y-148270000D03*
X132000000Y-145730000D03*
X136500000Y-148270000D03*
X136500000Y-145730000D03*
D20*
X109500000Y-101600000D03*
X109500000Y-91440000D03*
D21*
X131400000Y-137500000D03*
X141560000Y-137500000D03*
X127900000Y-124450000D03*
X117740000Y-124450000D03*
D11*
X102600000Y-141100000D03*
X105140000Y-141100000D03*
X107680000Y-141100000D03*
X110220000Y-141100000D03*
X112760000Y-141100000D03*
X115300000Y-141100000D03*
X117840000Y-141100000D03*
X120380000Y-141100000D03*
X123950000Y-141100000D03*
X126490000Y-141100000D03*
X129030000Y-141100000D03*
X131570000Y-141100000D03*
X134110000Y-141100000D03*
X136650000Y-141100000D03*
X139190000Y-141100000D03*
X141730000Y-141100000D03*
D22*
X102985000Y-107585000D03*
X105525000Y-107585000D03*
X108065000Y-107585000D03*
D23*
X137500000Y-90675000D03*
D24*
X134960000Y-90675000D03*
X132420000Y-90675000D03*
X129880000Y-90675000D03*
X127340000Y-90675000D03*
X124800000Y-90675000D03*
X122260000Y-90675000D03*
X119720000Y-90675000D03*
X119720000Y-98295000D03*
X122260000Y-98295000D03*
X124800000Y-98295000D03*
X127340000Y-98295000D03*
X129880000Y-98295000D03*
X132420000Y-98295000D03*
X134960000Y-98295000D03*
X137500000Y-98295000D03*
D25*
X102775000Y-113450000D03*
D26*
X102775000Y-115990000D03*
X102775000Y-118530000D03*
X102775000Y-121070000D03*
X102775000Y-123610000D03*
X102775000Y-126150000D03*
X102775000Y-128690000D03*
X102775000Y-131230000D03*
X102775000Y-133770000D03*
X102775000Y-136310000D03*
X110395000Y-136310000D03*
X110395000Y-133770000D03*
X110395000Y-131230000D03*
X110395000Y-128690000D03*
X110395000Y-126150000D03*
X110395000Y-123610000D03*
X110395000Y-121070000D03*
X110395000Y-118530000D03*
X110395000Y-115990000D03*
X110395000Y-113450000D03*
D25*
X140675000Y-121700000D03*
D26*
X140675000Y-124240000D03*
X140675000Y-126780000D03*
X140675000Y-129320000D03*
X148295000Y-129320000D03*
X148295000Y-126780000D03*
X148295000Y-124240000D03*
X148295000Y-121700000D03*
D23*
X121475000Y-128725000D03*
D24*
X118935000Y-128725000D03*
X116395000Y-128725000D03*
X113855000Y-128725000D03*
X113855000Y-136345000D03*
X116395000Y-136345000D03*
X118935000Y-136345000D03*
X121475000Y-136345000D03*
D27*
X117610000Y-120917000D03*
D28*
X120150000Y-120917000D03*
X122690000Y-120917000D03*
X125230000Y-120917000D03*
X127770000Y-120917000D03*
X130310000Y-120917000D03*
X132850000Y-120917000D03*
X135390000Y-120917000D03*
X135390000Y-102883000D03*
X132850000Y-102883000D03*
X130310000Y-102883000D03*
X127770000Y-102883000D03*
X125230000Y-102883000D03*
X122690000Y-102883000D03*
X120150000Y-102883000D03*
X117610000Y-102883000D03*
D20*
X134200000Y-134300000D03*
X134200000Y-124140000D03*
X137500000Y-134300000D03*
X137500000Y-124140000D03*
X127625000Y-127425000D03*
X127625000Y-137585000D03*
X130900000Y-134300000D03*
X130900000Y-124140000D03*
D16*
X142250000Y-110500000D03*
D11*
X148750000Y-110500000D03*
X142250000Y-115000000D03*
X148750000Y-115000000D03*
D16*
X142250000Y-103250000D03*
D11*
X148750000Y-103250000D03*
X142250000Y-107750000D03*
X148750000Y-107750000D03*
%LPD*%
M02*
