%TF.GenerationSoftware,KiCad,Pcbnew,7.0.11-7.0.11~ubuntu22.04.1*%
%TF.CreationDate,2025-03-19T11:20:14+01:00*%
%TF.ProjectId,dancebots-pcb,64616e63-6562-46f7-9473-2d7063622e6b,v8.3*%
%TF.SameCoordinates,Original*%
%TF.FileFunction,Drillmap*%
%TF.FilePolarity,Positive*%
%FSLAX45Y45*%
G04 Gerber Fmt 4.5, Leading zero omitted, Abs format (unit mm)*
G04 Created by KiCad (PCBNEW 7.0.11-7.0.11~ubuntu22.04.1) date 2025-03-19 11:20:14*
%MOMM*%
%LPD*%
G01*
G04 APERTURE LIST*
%ADD10C,0.100000*%
%ADD11C,0.200000*%
%ADD12C,0.114300*%
G04 APERTURE END LIST*
D10*
X15000000Y-9150000D02*
G75*
G03*
X14750000Y-8900000I-250000J0D01*
G01*
X15000000Y-14750000D02*
X15000000Y-9150000D01*
X14750000Y-15000000D02*
G75*
G03*
X15000000Y-14750000I0J250000D01*
G01*
X10250000Y-15000000D02*
X14750000Y-15000000D01*
X10000000Y-9150000D02*
X10000000Y-14750000D01*
X10000000Y-14750000D02*
G75*
G03*
X10250000Y-15000000I250000J0D01*
G01*
X10250000Y-8900000D02*
G75*
G03*
X10000000Y-9150000I0J-250000D01*
G01*
X10250000Y-8900000D02*
X14750000Y-8900000D01*
D11*
D10*
X10870000Y-11737000D02*
X10900000Y-11767000D01*
X10900000Y-11737000D02*
X10870000Y-11767000D01*
X10875000Y-12035000D02*
X10905000Y-12065000D01*
X10905000Y-12035000D02*
X10875000Y-12065000D01*
X11177016Y-11648000D02*
X11207016Y-11678000D01*
X11207016Y-11648000D02*
X11177016Y-11678000D01*
X11376000Y-10379000D02*
X11406000Y-10409000D01*
X11406000Y-10379000D02*
X11376000Y-10409000D01*
X11615350Y-9719350D02*
X11645350Y-9749350D01*
X11645350Y-9719350D02*
X11615350Y-9749350D01*
X10183500Y-10250000D02*
G75*
G03*
X10103500Y-10250000I-40000J0D01*
G01*
X10103500Y-10250000D02*
G75*
G03*
X10183500Y-10250000I40000J0D01*
G01*
X10300000Y-14110000D02*
G75*
G03*
X10220000Y-14110000I-40000J0D01*
G01*
X10220000Y-14110000D02*
G75*
G03*
X10300000Y-14110000I40000J0D01*
G01*
X10317500Y-11345000D02*
G75*
G03*
X10237500Y-11345000I-40000J0D01*
G01*
X10237500Y-11345000D02*
G75*
G03*
X10317500Y-11345000I40000J0D01*
G01*
X10317500Y-11599000D02*
G75*
G03*
X10237500Y-11599000I-40000J0D01*
G01*
X10237500Y-11599000D02*
G75*
G03*
X10317500Y-11599000I40000J0D01*
G01*
X10317500Y-11853000D02*
G75*
G03*
X10237500Y-11853000I-40000J0D01*
G01*
X10237500Y-11853000D02*
G75*
G03*
X10317500Y-11853000I40000J0D01*
G01*
X10317500Y-12107000D02*
G75*
G03*
X10237500Y-12107000I-40000J0D01*
G01*
X10237500Y-12107000D02*
G75*
G03*
X10317500Y-12107000I40000J0D01*
G01*
X10317500Y-12361000D02*
G75*
G03*
X10237500Y-12361000I-40000J0D01*
G01*
X10237500Y-12361000D02*
G75*
G03*
X10317500Y-12361000I40000J0D01*
G01*
X10317500Y-12615000D02*
G75*
G03*
X10237500Y-12615000I-40000J0D01*
G01*
X10237500Y-12615000D02*
G75*
G03*
X10317500Y-12615000I40000J0D01*
G01*
X10317500Y-12869000D02*
G75*
G03*
X10237500Y-12869000I-40000J0D01*
G01*
X10237500Y-12869000D02*
G75*
G03*
X10317500Y-12869000I40000J0D01*
G01*
X10317500Y-13123000D02*
G75*
G03*
X10237500Y-13123000I-40000J0D01*
G01*
X10237500Y-13123000D02*
G75*
G03*
X10317500Y-13123000I40000J0D01*
G01*
X10317500Y-13377000D02*
G75*
G03*
X10237500Y-13377000I-40000J0D01*
G01*
X10237500Y-13377000D02*
G75*
G03*
X10317500Y-13377000I40000J0D01*
G01*
X10317500Y-13631000D02*
G75*
G03*
X10237500Y-13631000I-40000J0D01*
G01*
X10237500Y-13631000D02*
G75*
G03*
X10317500Y-13631000I40000J0D01*
G01*
X10554000Y-14110000D02*
G75*
G03*
X10474000Y-14110000I-40000J0D01*
G01*
X10474000Y-14110000D02*
G75*
G03*
X10554000Y-14110000I40000J0D01*
G01*
X10690000Y-9650000D02*
G75*
G03*
X10610000Y-9650000I-40000J0D01*
G01*
X10610000Y-9650000D02*
G75*
G03*
X10690000Y-9650000I40000J0D01*
G01*
X10690000Y-9850000D02*
G75*
G03*
X10610000Y-9850000I-40000J0D01*
G01*
X10610000Y-9850000D02*
G75*
G03*
X10690000Y-9850000I40000J0D01*
G01*
X10691500Y-10250000D02*
G75*
G03*
X10611500Y-10250000I-40000J0D01*
G01*
X10611500Y-10250000D02*
G75*
G03*
X10691500Y-10250000I40000J0D01*
G01*
X10808000Y-14110000D02*
G75*
G03*
X10728000Y-14110000I-40000J0D01*
G01*
X10728000Y-14110000D02*
G75*
G03*
X10808000Y-14110000I40000J0D01*
G01*
X10990000Y-9144000D02*
G75*
G03*
X10910000Y-9144000I-40000J0D01*
G01*
X10910000Y-9144000D02*
G75*
G03*
X10990000Y-9144000I40000J0D01*
G01*
X10990000Y-10160000D02*
G75*
G03*
X10910000Y-10160000I-40000J0D01*
G01*
X10910000Y-10160000D02*
G75*
G03*
X10990000Y-10160000I40000J0D01*
G01*
X11062000Y-14110000D02*
G75*
G03*
X10982000Y-14110000I-40000J0D01*
G01*
X10982000Y-14110000D02*
G75*
G03*
X11062000Y-14110000I40000J0D01*
G01*
X11079500Y-11345000D02*
G75*
G03*
X10999500Y-11345000I-40000J0D01*
G01*
X10999500Y-11345000D02*
G75*
G03*
X11079500Y-11345000I40000J0D01*
G01*
X11079500Y-11599000D02*
G75*
G03*
X10999500Y-11599000I-40000J0D01*
G01*
X10999500Y-11599000D02*
G75*
G03*
X11079500Y-11599000I40000J0D01*
G01*
X11079500Y-11853000D02*
G75*
G03*
X10999500Y-11853000I-40000J0D01*
G01*
X10999500Y-11853000D02*
G75*
G03*
X11079500Y-11853000I40000J0D01*
G01*
X11079500Y-12107000D02*
G75*
G03*
X10999500Y-12107000I-40000J0D01*
G01*
X10999500Y-12107000D02*
G75*
G03*
X11079500Y-12107000I40000J0D01*
G01*
X11079500Y-12361000D02*
G75*
G03*
X10999500Y-12361000I-40000J0D01*
G01*
X10999500Y-12361000D02*
G75*
G03*
X11079500Y-12361000I40000J0D01*
G01*
X11079500Y-12615000D02*
G75*
G03*
X10999500Y-12615000I-40000J0D01*
G01*
X10999500Y-12615000D02*
G75*
G03*
X11079500Y-12615000I40000J0D01*
G01*
X11079500Y-12869000D02*
G75*
G03*
X10999500Y-12869000I-40000J0D01*
G01*
X10999500Y-12869000D02*
G75*
G03*
X11079500Y-12869000I40000J0D01*
G01*
X11079500Y-13123000D02*
G75*
G03*
X10999500Y-13123000I-40000J0D01*
G01*
X10999500Y-13123000D02*
G75*
G03*
X11079500Y-13123000I40000J0D01*
G01*
X11079500Y-13377000D02*
G75*
G03*
X10999500Y-13377000I-40000J0D01*
G01*
X10999500Y-13377000D02*
G75*
G03*
X11079500Y-13377000I40000J0D01*
G01*
X11079500Y-13631000D02*
G75*
G03*
X10999500Y-13631000I-40000J0D01*
G01*
X10999500Y-13631000D02*
G75*
G03*
X11079500Y-13631000I40000J0D01*
G01*
X11316000Y-14110000D02*
G75*
G03*
X11236000Y-14110000I-40000J0D01*
G01*
X11236000Y-14110000D02*
G75*
G03*
X11316000Y-14110000I40000J0D01*
G01*
X11390000Y-9850000D02*
G75*
G03*
X11310000Y-9850000I-40000J0D01*
G01*
X11310000Y-9850000D02*
G75*
G03*
X11390000Y-9850000I40000J0D01*
G01*
X11390000Y-10050000D02*
G75*
G03*
X11310000Y-10050000I-40000J0D01*
G01*
X11310000Y-10050000D02*
G75*
G03*
X11390000Y-10050000I40000J0D01*
G01*
X11410000Y-11996000D02*
G75*
G03*
X11330000Y-11996000I-40000J0D01*
G01*
X11330000Y-11996000D02*
G75*
G03*
X11410000Y-11996000I40000J0D01*
G01*
X11410000Y-12504000D02*
G75*
G03*
X11330000Y-12504000I-40000J0D01*
G01*
X11330000Y-12504000D02*
G75*
G03*
X11410000Y-12504000I40000J0D01*
G01*
X11425500Y-12872500D02*
G75*
G03*
X11345500Y-12872500I-40000J0D01*
G01*
X11345500Y-12872500D02*
G75*
G03*
X11425500Y-12872500I40000J0D01*
G01*
X11425500Y-13634500D02*
G75*
G03*
X11345500Y-13634500I-40000J0D01*
G01*
X11345500Y-13634500D02*
G75*
G03*
X11425500Y-13634500I40000J0D01*
G01*
X11570000Y-14110000D02*
G75*
G03*
X11490000Y-14110000I-40000J0D01*
G01*
X11490000Y-14110000D02*
G75*
G03*
X11570000Y-14110000I40000J0D01*
G01*
X11679500Y-12872500D02*
G75*
G03*
X11599500Y-12872500I-40000J0D01*
G01*
X11599500Y-12872500D02*
G75*
G03*
X11679500Y-12872500I40000J0D01*
G01*
X11679500Y-13634500D02*
G75*
G03*
X11599500Y-13634500I-40000J0D01*
G01*
X11599500Y-13634500D02*
G75*
G03*
X11679500Y-13634500I40000J0D01*
G01*
X11814000Y-12445000D02*
G75*
G03*
X11734000Y-12445000I-40000J0D01*
G01*
X11734000Y-12445000D02*
G75*
G03*
X11814000Y-12445000I40000J0D01*
G01*
X11824000Y-14110000D02*
G75*
G03*
X11744000Y-14110000I-40000J0D01*
G01*
X11744000Y-14110000D02*
G75*
G03*
X11824000Y-14110000I40000J0D01*
G01*
X11933500Y-12872500D02*
G75*
G03*
X11853500Y-12872500I-40000J0D01*
G01*
X11853500Y-12872500D02*
G75*
G03*
X11933500Y-12872500I40000J0D01*
G01*
X11933500Y-13634500D02*
G75*
G03*
X11853500Y-13634500I-40000J0D01*
G01*
X11853500Y-13634500D02*
G75*
G03*
X11933500Y-13634500I40000J0D01*
G01*
X12012000Y-9067500D02*
G75*
G03*
X11932000Y-9067500I-40000J0D01*
G01*
X11932000Y-9067500D02*
G75*
G03*
X12012000Y-9067500I40000J0D01*
G01*
X12012000Y-9829500D02*
G75*
G03*
X11932000Y-9829500I-40000J0D01*
G01*
X11932000Y-9829500D02*
G75*
G03*
X12012000Y-9829500I40000J0D01*
G01*
X12078000Y-14110000D02*
G75*
G03*
X11998000Y-14110000I-40000J0D01*
G01*
X11998000Y-14110000D02*
G75*
G03*
X12078000Y-14110000I40000J0D01*
G01*
X12187500Y-12872500D02*
G75*
G03*
X12107500Y-12872500I-40000J0D01*
G01*
X12107500Y-12872500D02*
G75*
G03*
X12187500Y-12872500I40000J0D01*
G01*
X12187500Y-13634500D02*
G75*
G03*
X12107500Y-13634500I-40000J0D01*
G01*
X12107500Y-13634500D02*
G75*
G03*
X12187500Y-13634500I40000J0D01*
G01*
X12266000Y-9067500D02*
G75*
G03*
X12186000Y-9067500I-40000J0D01*
G01*
X12186000Y-9067500D02*
G75*
G03*
X12266000Y-9067500I40000J0D01*
G01*
X12266000Y-9829500D02*
G75*
G03*
X12186000Y-9829500I-40000J0D01*
G01*
X12186000Y-9829500D02*
G75*
G03*
X12266000Y-9829500I40000J0D01*
G01*
X12435000Y-14110000D02*
G75*
G03*
X12355000Y-14110000I-40000J0D01*
G01*
X12355000Y-14110000D02*
G75*
G03*
X12435000Y-14110000I40000J0D01*
G01*
X12490000Y-12946000D02*
G75*
G03*
X12410000Y-12946000I-40000J0D01*
G01*
X12410000Y-12946000D02*
G75*
G03*
X12490000Y-12946000I40000J0D01*
G01*
X12490000Y-13454000D02*
G75*
G03*
X12410000Y-13454000I-40000J0D01*
G01*
X12410000Y-13454000D02*
G75*
G03*
X12490000Y-13454000I40000J0D01*
G01*
X12520000Y-9067500D02*
G75*
G03*
X12440000Y-9067500I-40000J0D01*
G01*
X12440000Y-9067500D02*
G75*
G03*
X12520000Y-9067500I40000J0D01*
G01*
X12520000Y-9829500D02*
G75*
G03*
X12440000Y-9829500I-40000J0D01*
G01*
X12440000Y-9829500D02*
G75*
G03*
X12520000Y-9829500I40000J0D01*
G01*
X12689000Y-14110000D02*
G75*
G03*
X12609000Y-14110000I-40000J0D01*
G01*
X12609000Y-14110000D02*
G75*
G03*
X12689000Y-14110000I40000J0D01*
G01*
X12774000Y-9067500D02*
G75*
G03*
X12694000Y-9067500I-40000J0D01*
G01*
X12694000Y-9067500D02*
G75*
G03*
X12774000Y-9067500I40000J0D01*
G01*
X12774000Y-9829500D02*
G75*
G03*
X12694000Y-9829500I-40000J0D01*
G01*
X12694000Y-9829500D02*
G75*
G03*
X12774000Y-9829500I40000J0D01*
G01*
X12802500Y-12742500D02*
G75*
G03*
X12722500Y-12742500I-40000J0D01*
G01*
X12722500Y-12742500D02*
G75*
G03*
X12802500Y-12742500I40000J0D01*
G01*
X12802500Y-13758500D02*
G75*
G03*
X12722500Y-13758500I-40000J0D01*
G01*
X12722500Y-13758500D02*
G75*
G03*
X12802500Y-13758500I40000J0D01*
G01*
X12830000Y-12445000D02*
G75*
G03*
X12750000Y-12445000I-40000J0D01*
G01*
X12750000Y-12445000D02*
G75*
G03*
X12830000Y-12445000I40000J0D01*
G01*
X12943000Y-14110000D02*
G75*
G03*
X12863000Y-14110000I-40000J0D01*
G01*
X12863000Y-14110000D02*
G75*
G03*
X12943000Y-14110000I40000J0D01*
G01*
X13028000Y-9067500D02*
G75*
G03*
X12948000Y-9067500I-40000J0D01*
G01*
X12948000Y-9067500D02*
G75*
G03*
X13028000Y-9067500I40000J0D01*
G01*
X13028000Y-9829500D02*
G75*
G03*
X12948000Y-9829500I-40000J0D01*
G01*
X12948000Y-9829500D02*
G75*
G03*
X13028000Y-9829500I40000J0D01*
G01*
X13130000Y-12414000D02*
G75*
G03*
X13050000Y-12414000I-40000J0D01*
G01*
X13050000Y-12414000D02*
G75*
G03*
X13130000Y-12414000I40000J0D01*
G01*
X13130000Y-13430000D02*
G75*
G03*
X13050000Y-13430000I-40000J0D01*
G01*
X13050000Y-13430000D02*
G75*
G03*
X13130000Y-13430000I40000J0D01*
G01*
X13180000Y-13750000D02*
G75*
G03*
X13100000Y-13750000I-40000J0D01*
G01*
X13100000Y-13750000D02*
G75*
G03*
X13180000Y-13750000I40000J0D01*
G01*
X13197000Y-14110000D02*
G75*
G03*
X13117000Y-14110000I-40000J0D01*
G01*
X13117000Y-14110000D02*
G75*
G03*
X13197000Y-14110000I40000J0D01*
G01*
X13282000Y-9067500D02*
G75*
G03*
X13202000Y-9067500I-40000J0D01*
G01*
X13202000Y-9067500D02*
G75*
G03*
X13282000Y-9067500I40000J0D01*
G01*
X13282000Y-9829500D02*
G75*
G03*
X13202000Y-9829500I-40000J0D01*
G01*
X13202000Y-9829500D02*
G75*
G03*
X13282000Y-9829500I40000J0D01*
G01*
X13451000Y-14110000D02*
G75*
G03*
X13371000Y-14110000I-40000J0D01*
G01*
X13371000Y-14110000D02*
G75*
G03*
X13451000Y-14110000I40000J0D01*
G01*
X13460000Y-12414000D02*
G75*
G03*
X13380000Y-12414000I-40000J0D01*
G01*
X13380000Y-12414000D02*
G75*
G03*
X13460000Y-12414000I40000J0D01*
G01*
X13460000Y-13430000D02*
G75*
G03*
X13380000Y-13430000I-40000J0D01*
G01*
X13380000Y-13430000D02*
G75*
G03*
X13460000Y-13430000I40000J0D01*
G01*
X13536000Y-9067500D02*
G75*
G03*
X13456000Y-9067500I-40000J0D01*
G01*
X13456000Y-9067500D02*
G75*
G03*
X13536000Y-9067500I40000J0D01*
G01*
X13536000Y-9829500D02*
G75*
G03*
X13456000Y-9829500I-40000J0D01*
G01*
X13456000Y-9829500D02*
G75*
G03*
X13536000Y-9829500I40000J0D01*
G01*
X13705000Y-14110000D02*
G75*
G03*
X13625000Y-14110000I-40000J0D01*
G01*
X13625000Y-14110000D02*
G75*
G03*
X13705000Y-14110000I40000J0D01*
G01*
X13790000Y-9067500D02*
G75*
G03*
X13710000Y-9067500I-40000J0D01*
G01*
X13710000Y-9067500D02*
G75*
G03*
X13790000Y-9067500I40000J0D01*
G01*
X13790000Y-9829500D02*
G75*
G03*
X13710000Y-9829500I-40000J0D01*
G01*
X13710000Y-9829500D02*
G75*
G03*
X13790000Y-9829500I40000J0D01*
G01*
X13790000Y-12414000D02*
G75*
G03*
X13710000Y-12414000I-40000J0D01*
G01*
X13710000Y-12414000D02*
G75*
G03*
X13790000Y-12414000I40000J0D01*
G01*
X13790000Y-13430000D02*
G75*
G03*
X13710000Y-13430000I-40000J0D01*
G01*
X13710000Y-13430000D02*
G75*
G03*
X13790000Y-13430000I40000J0D01*
G01*
X13959000Y-14110000D02*
G75*
G03*
X13879000Y-14110000I-40000J0D01*
G01*
X13879000Y-14110000D02*
G75*
G03*
X13959000Y-14110000I40000J0D01*
G01*
X14090000Y-9146000D02*
G75*
G03*
X14010000Y-9146000I-40000J0D01*
G01*
X14010000Y-9146000D02*
G75*
G03*
X14090000Y-9146000I40000J0D01*
G01*
X14090000Y-9654000D02*
G75*
G03*
X14010000Y-9654000I-40000J0D01*
G01*
X14010000Y-9654000D02*
G75*
G03*
X14090000Y-9654000I40000J0D01*
G01*
X14107500Y-12170000D02*
G75*
G03*
X14027500Y-12170000I-40000J0D01*
G01*
X14027500Y-12170000D02*
G75*
G03*
X14107500Y-12170000I40000J0D01*
G01*
X14107500Y-12424000D02*
G75*
G03*
X14027500Y-12424000I-40000J0D01*
G01*
X14027500Y-12424000D02*
G75*
G03*
X14107500Y-12424000I40000J0D01*
G01*
X14107500Y-12678000D02*
G75*
G03*
X14027500Y-12678000I-40000J0D01*
G01*
X14027500Y-12678000D02*
G75*
G03*
X14107500Y-12678000I40000J0D01*
G01*
X14107500Y-12932000D02*
G75*
G03*
X14027500Y-12932000I-40000J0D01*
G01*
X14027500Y-12932000D02*
G75*
G03*
X14107500Y-12932000I40000J0D01*
G01*
X14188500Y-13262500D02*
G75*
G03*
X14108500Y-13262500I-40000J0D01*
G01*
X14108500Y-13262500D02*
G75*
G03*
X14188500Y-13262500I40000J0D01*
G01*
X14196000Y-13750000D02*
G75*
G03*
X14116000Y-13750000I-40000J0D01*
G01*
X14116000Y-13750000D02*
G75*
G03*
X14196000Y-13750000I40000J0D01*
G01*
X14213000Y-14110000D02*
G75*
G03*
X14133000Y-14110000I-40000J0D01*
G01*
X14133000Y-14110000D02*
G75*
G03*
X14213000Y-14110000I40000J0D01*
G01*
X14236000Y-11850000D02*
G75*
G03*
X14156000Y-11850000I-40000J0D01*
G01*
X14156000Y-11850000D02*
G75*
G03*
X14236000Y-11850000I40000J0D01*
G01*
X14390000Y-9650000D02*
G75*
G03*
X14310000Y-9650000I-40000J0D01*
G01*
X14310000Y-9650000D02*
G75*
G03*
X14390000Y-9650000I40000J0D01*
G01*
X14390000Y-9850000D02*
G75*
G03*
X14310000Y-9850000I-40000J0D01*
G01*
X14310000Y-9850000D02*
G75*
G03*
X14390000Y-9850000I40000J0D01*
G01*
X14620000Y-14232500D02*
G75*
G03*
X14540000Y-14232500I-40000J0D01*
G01*
X14540000Y-14232500D02*
G75*
G03*
X14620000Y-14232500I40000J0D01*
G01*
X14695000Y-13630000D02*
G75*
G03*
X14615000Y-13630000I-40000J0D01*
G01*
X14615000Y-13630000D02*
G75*
G03*
X14695000Y-13630000I40000J0D01*
G01*
X14695000Y-13880000D02*
G75*
G03*
X14615000Y-13880000I-40000J0D01*
G01*
X14615000Y-13880000D02*
G75*
G03*
X14695000Y-13880000I40000J0D01*
G01*
X14696500Y-13262500D02*
G75*
G03*
X14616500Y-13262500I-40000J0D01*
G01*
X14616500Y-13262500D02*
G75*
G03*
X14696500Y-13262500I40000J0D01*
G01*
X14744000Y-11850000D02*
G75*
G03*
X14664000Y-11850000I-40000J0D01*
G01*
X14664000Y-11850000D02*
G75*
G03*
X14744000Y-11850000I40000J0D01*
G01*
X14820000Y-14232500D02*
G75*
G03*
X14740000Y-14232500I-40000J0D01*
G01*
X14740000Y-14232500D02*
G75*
G03*
X14820000Y-14232500I40000J0D01*
G01*
X14869500Y-12170000D02*
G75*
G03*
X14789500Y-12170000I-40000J0D01*
G01*
X14789500Y-12170000D02*
G75*
G03*
X14869500Y-12170000I40000J0D01*
G01*
X14869500Y-12424000D02*
G75*
G03*
X14789500Y-12424000I-40000J0D01*
G01*
X14789500Y-12424000D02*
G75*
G03*
X14869500Y-12424000I40000J0D01*
G01*
X14869500Y-12678000D02*
G75*
G03*
X14789500Y-12678000I-40000J0D01*
G01*
X14789500Y-12678000D02*
G75*
G03*
X14869500Y-12678000I40000J0D01*
G01*
X14869500Y-12932000D02*
G75*
G03*
X14789500Y-12932000I-40000J0D01*
G01*
X14789500Y-12932000D02*
G75*
G03*
X14869500Y-12932000I40000J0D01*
G01*
X11306000Y-9335000D02*
X11306000Y-9425000D01*
X11261000Y-9380000D02*
X11351000Y-9380000D01*
X11560000Y-9335000D02*
X11560000Y-9425000D01*
X11515000Y-9380000D02*
X11605000Y-9380000D01*
X10388356Y-9255356D02*
X10388356Y-9184644D01*
X10317644Y-9184644D01*
X10317644Y-9255356D01*
X10388356Y-9255356D01*
X10535356Y-14608356D02*
X10535356Y-14537644D01*
X10464644Y-14537644D01*
X10464644Y-14608356D01*
X10535356Y-14608356D01*
X10535356Y-14862356D02*
X10535356Y-14791644D01*
X10464644Y-14791644D01*
X10464644Y-14862356D01*
X10535356Y-14862356D01*
X10642356Y-9255356D02*
X10642356Y-9184644D01*
X10571644Y-9184644D01*
X10571644Y-9255356D01*
X10642356Y-9255356D01*
X10985356Y-14608356D02*
X10985356Y-14537644D01*
X10914644Y-14537644D01*
X10914644Y-14608356D01*
X10985356Y-14608356D01*
X10985356Y-14862356D02*
X10985356Y-14791644D01*
X10914644Y-14791644D01*
X10914644Y-14862356D01*
X10985356Y-14862356D01*
X11435356Y-14608356D02*
X11435356Y-14537644D01*
X11364644Y-14537644D01*
X11364644Y-14608356D01*
X11435356Y-14608356D01*
X11435356Y-14862356D02*
X11435356Y-14791644D01*
X11364644Y-14791644D01*
X11364644Y-14862356D01*
X11435356Y-14862356D01*
X11796356Y-10323656D02*
X11796356Y-10252944D01*
X11725644Y-10252944D01*
X11725644Y-10323656D01*
X11796356Y-10323656D01*
X11811000Y-10338300D02*
X11811000Y-10238300D01*
X11811000Y-10238300D02*
G75*
G03*
X11711000Y-10238300I-50000J0D01*
G01*
X11711000Y-10238300D02*
X11711000Y-10338300D01*
X11711000Y-10338300D02*
G75*
G03*
X11811000Y-10338300I50000J0D01*
G01*
X11796356Y-12127056D02*
X11796356Y-12056344D01*
X11725644Y-12056344D01*
X11725644Y-12127056D01*
X11796356Y-12127056D01*
X11811000Y-12141700D02*
X11811000Y-12041700D01*
X11811000Y-12041700D02*
G75*
G03*
X11711000Y-12041700I-50000J0D01*
G01*
X11711000Y-12041700D02*
X11711000Y-12141700D01*
X11711000Y-12141700D02*
G75*
G03*
X11811000Y-12141700I50000J0D01*
G01*
X11885356Y-14608356D02*
X11885356Y-14537644D01*
X11814644Y-14537644D01*
X11814644Y-14608356D01*
X11885356Y-14608356D01*
X11885356Y-14862356D02*
X11885356Y-14791644D01*
X11814644Y-14791644D01*
X11814644Y-14862356D01*
X11885356Y-14862356D01*
X12050356Y-10323656D02*
X12050356Y-10252944D01*
X11979644Y-10252944D01*
X11979644Y-10323656D01*
X12050356Y-10323656D01*
X12065000Y-10338300D02*
X12065000Y-10238300D01*
X12065000Y-10238300D02*
G75*
G03*
X11965000Y-10238300I-50000J0D01*
G01*
X11965000Y-10238300D02*
X11965000Y-10338300D01*
X11965000Y-10338300D02*
G75*
G03*
X12065000Y-10338300I50000J0D01*
G01*
X12050356Y-12127056D02*
X12050356Y-12056344D01*
X11979644Y-12056344D01*
X11979644Y-12127056D01*
X12050356Y-12127056D01*
X12065000Y-12141700D02*
X12065000Y-12041700D01*
X12065000Y-12041700D02*
G75*
G03*
X11965000Y-12041700I-50000J0D01*
G01*
X11965000Y-12041700D02*
X11965000Y-12141700D01*
X11965000Y-12141700D02*
G75*
G03*
X12065000Y-12141700I50000J0D01*
G01*
X12304356Y-10323656D02*
X12304356Y-10252944D01*
X12233644Y-10252944D01*
X12233644Y-10323656D01*
X12304356Y-10323656D01*
X12319000Y-10338300D02*
X12319000Y-10238300D01*
X12319000Y-10238300D02*
G75*
G03*
X12219000Y-10238300I-50000J0D01*
G01*
X12219000Y-10238300D02*
X12219000Y-10338300D01*
X12219000Y-10338300D02*
G75*
G03*
X12319000Y-10338300I50000J0D01*
G01*
X12304356Y-12127056D02*
X12304356Y-12056344D01*
X12233644Y-12056344D01*
X12233644Y-12127056D01*
X12304356Y-12127056D01*
X12319000Y-12141700D02*
X12319000Y-12041700D01*
X12319000Y-12041700D02*
G75*
G03*
X12219000Y-12041700I-50000J0D01*
G01*
X12219000Y-12041700D02*
X12219000Y-12141700D01*
X12219000Y-12141700D02*
G75*
G03*
X12319000Y-12141700I50000J0D01*
G01*
X12335356Y-14608356D02*
X12335356Y-14537644D01*
X12264644Y-14537644D01*
X12264644Y-14608356D01*
X12335356Y-14608356D01*
X12335356Y-14862356D02*
X12335356Y-14791644D01*
X12264644Y-14791644D01*
X12264644Y-14862356D01*
X12335356Y-14862356D01*
X12558356Y-10323656D02*
X12558356Y-10252944D01*
X12487644Y-10252944D01*
X12487644Y-10323656D01*
X12558356Y-10323656D01*
X12573000Y-10338300D02*
X12573000Y-10238300D01*
X12573000Y-10238300D02*
G75*
G03*
X12473000Y-10238300I-50000J0D01*
G01*
X12473000Y-10238300D02*
X12473000Y-10338300D01*
X12473000Y-10338300D02*
G75*
G03*
X12573000Y-10338300I50000J0D01*
G01*
X12558356Y-12127056D02*
X12558356Y-12056344D01*
X12487644Y-12056344D01*
X12487644Y-12127056D01*
X12558356Y-12127056D01*
X12573000Y-12141700D02*
X12573000Y-12041700D01*
X12573000Y-12041700D02*
G75*
G03*
X12473000Y-12041700I-50000J0D01*
G01*
X12473000Y-12041700D02*
X12473000Y-12141700D01*
X12473000Y-12141700D02*
G75*
G03*
X12573000Y-12141700I50000J0D01*
G01*
X12785356Y-14608356D02*
X12785356Y-14537644D01*
X12714644Y-14537644D01*
X12714644Y-14608356D01*
X12785356Y-14608356D01*
X12785356Y-14862356D02*
X12785356Y-14791644D01*
X12714644Y-14791644D01*
X12714644Y-14862356D01*
X12785356Y-14862356D01*
X12812356Y-10323656D02*
X12812356Y-10252944D01*
X12741644Y-10252944D01*
X12741644Y-10323656D01*
X12812356Y-10323656D01*
X12827000Y-10338300D02*
X12827000Y-10238300D01*
X12827000Y-10238300D02*
G75*
G03*
X12727000Y-10238300I-50000J0D01*
G01*
X12727000Y-10238300D02*
X12727000Y-10338300D01*
X12727000Y-10338300D02*
G75*
G03*
X12827000Y-10338300I50000J0D01*
G01*
X12812356Y-12127056D02*
X12812356Y-12056344D01*
X12741644Y-12056344D01*
X12741644Y-12127056D01*
X12812356Y-12127056D01*
X12827000Y-12141700D02*
X12827000Y-12041700D01*
X12827000Y-12041700D02*
G75*
G03*
X12727000Y-12041700I-50000J0D01*
G01*
X12727000Y-12041700D02*
X12727000Y-12141700D01*
X12727000Y-12141700D02*
G75*
G03*
X12827000Y-12141700I50000J0D01*
G01*
X13066356Y-10323656D02*
X13066356Y-10252944D01*
X12995644Y-10252944D01*
X12995644Y-10323656D01*
X13066356Y-10323656D01*
X13081000Y-10338300D02*
X13081000Y-10238300D01*
X13081000Y-10238300D02*
G75*
G03*
X12981000Y-10238300I-50000J0D01*
G01*
X12981000Y-10238300D02*
X12981000Y-10338300D01*
X12981000Y-10338300D02*
G75*
G03*
X13081000Y-10338300I50000J0D01*
G01*
X13066356Y-12127056D02*
X13066356Y-12056344D01*
X12995644Y-12056344D01*
X12995644Y-12127056D01*
X13066356Y-12127056D01*
X13081000Y-12141700D02*
X13081000Y-12041700D01*
X13081000Y-12041700D02*
G75*
G03*
X12981000Y-12041700I-50000J0D01*
G01*
X12981000Y-12041700D02*
X12981000Y-12141700D01*
X12981000Y-12141700D02*
G75*
G03*
X13081000Y-12141700I50000J0D01*
G01*
X13235356Y-14608356D02*
X13235356Y-14537644D01*
X13164644Y-14537644D01*
X13164644Y-14608356D01*
X13235356Y-14608356D01*
X13235356Y-14862356D02*
X13235356Y-14791644D01*
X13164644Y-14791644D01*
X13164644Y-14862356D01*
X13235356Y-14862356D01*
X13320356Y-10323656D02*
X13320356Y-10252944D01*
X13249644Y-10252944D01*
X13249644Y-10323656D01*
X13320356Y-10323656D01*
X13335000Y-10338300D02*
X13335000Y-10238300D01*
X13335000Y-10238300D02*
G75*
G03*
X13235000Y-10238300I-50000J0D01*
G01*
X13235000Y-10238300D02*
X13235000Y-10338300D01*
X13235000Y-10338300D02*
G75*
G03*
X13335000Y-10338300I50000J0D01*
G01*
X13320356Y-12127056D02*
X13320356Y-12056344D01*
X13249644Y-12056344D01*
X13249644Y-12127056D01*
X13320356Y-12127056D01*
X13335000Y-12141700D02*
X13335000Y-12041700D01*
X13335000Y-12041700D02*
G75*
G03*
X13235000Y-12041700I-50000J0D01*
G01*
X13235000Y-12041700D02*
X13235000Y-12141700D01*
X13235000Y-12141700D02*
G75*
G03*
X13335000Y-12141700I50000J0D01*
G01*
X13574356Y-10323656D02*
X13574356Y-10252944D01*
X13503644Y-10252944D01*
X13503644Y-10323656D01*
X13574356Y-10323656D01*
X13589000Y-10338300D02*
X13589000Y-10238300D01*
X13589000Y-10238300D02*
G75*
G03*
X13489000Y-10238300I-50000J0D01*
G01*
X13489000Y-10238300D02*
X13489000Y-10338300D01*
X13489000Y-10338300D02*
G75*
G03*
X13589000Y-10338300I50000J0D01*
G01*
X13574356Y-12127056D02*
X13574356Y-12056344D01*
X13503644Y-12056344D01*
X13503644Y-12127056D01*
X13574356Y-12127056D01*
X13589000Y-12141700D02*
X13589000Y-12041700D01*
X13589000Y-12041700D02*
G75*
G03*
X13489000Y-12041700I-50000J0D01*
G01*
X13489000Y-12041700D02*
X13489000Y-12141700D01*
X13489000Y-12141700D02*
G75*
G03*
X13589000Y-12141700I50000J0D01*
G01*
X13685356Y-14608356D02*
X13685356Y-14537644D01*
X13614644Y-14537644D01*
X13614644Y-14608356D01*
X13685356Y-14608356D01*
X13685356Y-14862356D02*
X13685356Y-14791644D01*
X13614644Y-14791644D01*
X13614644Y-14862356D01*
X13685356Y-14862356D01*
X14260356Y-10360356D02*
X14260356Y-10289644D01*
X14189644Y-10289644D01*
X14189644Y-10360356D01*
X14260356Y-10360356D01*
X14260356Y-10810356D02*
X14260356Y-10739644D01*
X14189644Y-10739644D01*
X14189644Y-10810356D01*
X14260356Y-10810356D01*
X14260356Y-11085356D02*
X14260356Y-11014644D01*
X14189644Y-11014644D01*
X14189644Y-11085356D01*
X14260356Y-11085356D01*
X14260356Y-11535356D02*
X14260356Y-11464644D01*
X14189644Y-11464644D01*
X14189644Y-11535356D01*
X14260356Y-11535356D01*
X14910356Y-10360356D02*
X14910356Y-10289644D01*
X14839644Y-10289644D01*
X14839644Y-10360356D01*
X14910356Y-10360356D01*
X14910356Y-10810356D02*
X14910356Y-10739644D01*
X14839644Y-10739644D01*
X14839644Y-10810356D01*
X14910356Y-10810356D01*
X14910356Y-11085356D02*
X14910356Y-11014644D01*
X14839644Y-11014644D01*
X14839644Y-11085356D01*
X14910356Y-11085356D01*
X14910356Y-11535356D02*
X14910356Y-11464644D01*
X14839644Y-11464644D01*
X14839644Y-11535356D01*
X14910356Y-11535356D01*
D12*
X10298500Y-10815650D02*
X10355650Y-10758500D01*
X10298500Y-10701350D01*
X10241350Y-10758500D01*
X10298500Y-10815650D01*
X10552500Y-10815650D02*
X10609650Y-10758500D01*
X10552500Y-10701350D01*
X10495350Y-10758500D01*
X10552500Y-10815650D01*
X10806500Y-10815650D02*
X10863650Y-10758500D01*
X10806500Y-10701350D01*
X10749350Y-10758500D01*
X10806500Y-10815650D01*
D11*
X10255777Y-15316484D02*
X10255777Y-15116484D01*
X10255777Y-15116484D02*
X10303396Y-15116484D01*
X10303396Y-15116484D02*
X10331967Y-15126008D01*
X10331967Y-15126008D02*
X10351015Y-15145055D01*
X10351015Y-15145055D02*
X10360539Y-15164103D01*
X10360539Y-15164103D02*
X10370063Y-15202198D01*
X10370063Y-15202198D02*
X10370063Y-15230769D01*
X10370063Y-15230769D02*
X10360539Y-15268865D01*
X10360539Y-15268865D02*
X10351015Y-15287912D01*
X10351015Y-15287912D02*
X10331967Y-15306960D01*
X10331967Y-15306960D02*
X10303396Y-15316484D01*
X10303396Y-15316484D02*
X10255777Y-15316484D01*
X10455777Y-15316484D02*
X10455777Y-15183150D01*
X10455777Y-15221246D02*
X10465301Y-15202198D01*
X10465301Y-15202198D02*
X10474824Y-15192674D01*
X10474824Y-15192674D02*
X10493872Y-15183150D01*
X10493872Y-15183150D02*
X10512920Y-15183150D01*
X10579586Y-15316484D02*
X10579586Y-15183150D01*
X10579586Y-15116484D02*
X10570063Y-15126008D01*
X10570063Y-15126008D02*
X10579586Y-15135531D01*
X10579586Y-15135531D02*
X10589110Y-15126008D01*
X10589110Y-15126008D02*
X10579586Y-15116484D01*
X10579586Y-15116484D02*
X10579586Y-15135531D01*
X10703396Y-15316484D02*
X10684348Y-15306960D01*
X10684348Y-15306960D02*
X10674824Y-15287912D01*
X10674824Y-15287912D02*
X10674824Y-15116484D01*
X10808158Y-15316484D02*
X10789110Y-15306960D01*
X10789110Y-15306960D02*
X10779586Y-15287912D01*
X10779586Y-15287912D02*
X10779586Y-15116484D01*
X11036729Y-15316484D02*
X11036729Y-15116484D01*
X11036729Y-15116484D02*
X11103396Y-15259341D01*
X11103396Y-15259341D02*
X11170063Y-15116484D01*
X11170063Y-15116484D02*
X11170063Y-15316484D01*
X11351015Y-15316484D02*
X11351015Y-15211722D01*
X11351015Y-15211722D02*
X11341491Y-15192674D01*
X11341491Y-15192674D02*
X11322443Y-15183150D01*
X11322443Y-15183150D02*
X11284348Y-15183150D01*
X11284348Y-15183150D02*
X11265301Y-15192674D01*
X11351015Y-15306960D02*
X11331967Y-15316484D01*
X11331967Y-15316484D02*
X11284348Y-15316484D01*
X11284348Y-15316484D02*
X11265301Y-15306960D01*
X11265301Y-15306960D02*
X11255777Y-15287912D01*
X11255777Y-15287912D02*
X11255777Y-15268865D01*
X11255777Y-15268865D02*
X11265301Y-15249817D01*
X11265301Y-15249817D02*
X11284348Y-15240293D01*
X11284348Y-15240293D02*
X11331967Y-15240293D01*
X11331967Y-15240293D02*
X11351015Y-15230769D01*
X11446253Y-15183150D02*
X11446253Y-15383150D01*
X11446253Y-15192674D02*
X11465301Y-15183150D01*
X11465301Y-15183150D02*
X11503396Y-15183150D01*
X11503396Y-15183150D02*
X11522443Y-15192674D01*
X11522443Y-15192674D02*
X11531967Y-15202198D01*
X11531967Y-15202198D02*
X11541491Y-15221246D01*
X11541491Y-15221246D02*
X11541491Y-15278388D01*
X11541491Y-15278388D02*
X11531967Y-15297436D01*
X11531967Y-15297436D02*
X11522443Y-15306960D01*
X11522443Y-15306960D02*
X11503396Y-15316484D01*
X11503396Y-15316484D02*
X11465301Y-15316484D01*
X11465301Y-15316484D02*
X11446253Y-15306960D01*
X11627205Y-15297436D02*
X11636729Y-15306960D01*
X11636729Y-15306960D02*
X11627205Y-15316484D01*
X11627205Y-15316484D02*
X11617682Y-15306960D01*
X11617682Y-15306960D02*
X11627205Y-15297436D01*
X11627205Y-15297436D02*
X11627205Y-15316484D01*
X11627205Y-15192674D02*
X11636729Y-15202198D01*
X11636729Y-15202198D02*
X11627205Y-15211722D01*
X11627205Y-15211722D02*
X11617682Y-15202198D01*
X11617682Y-15202198D02*
X11627205Y-15192674D01*
X11627205Y-15192674D02*
X11627205Y-15211722D01*
D10*
X9965000Y-15630000D02*
X9995000Y-15660000D01*
X9995000Y-15630000D02*
X9965000Y-15660000D01*
D11*
X10293872Y-15536484D02*
X10312920Y-15536484D01*
X10312920Y-15536484D02*
X10331967Y-15546008D01*
X10331967Y-15546008D02*
X10341491Y-15555531D01*
X10341491Y-15555531D02*
X10351015Y-15574579D01*
X10351015Y-15574579D02*
X10360539Y-15612674D01*
X10360539Y-15612674D02*
X10360539Y-15660293D01*
X10360539Y-15660293D02*
X10351015Y-15698388D01*
X10351015Y-15698388D02*
X10341491Y-15717436D01*
X10341491Y-15717436D02*
X10331967Y-15726960D01*
X10331967Y-15726960D02*
X10312920Y-15736484D01*
X10312920Y-15736484D02*
X10293872Y-15736484D01*
X10293872Y-15736484D02*
X10274824Y-15726960D01*
X10274824Y-15726960D02*
X10265301Y-15717436D01*
X10265301Y-15717436D02*
X10255777Y-15698388D01*
X10255777Y-15698388D02*
X10246253Y-15660293D01*
X10246253Y-15660293D02*
X10246253Y-15612674D01*
X10246253Y-15612674D02*
X10255777Y-15574579D01*
X10255777Y-15574579D02*
X10265301Y-15555531D01*
X10265301Y-15555531D02*
X10274824Y-15546008D01*
X10274824Y-15546008D02*
X10293872Y-15536484D01*
X10446253Y-15717436D02*
X10455777Y-15726960D01*
X10455777Y-15726960D02*
X10446253Y-15736484D01*
X10446253Y-15736484D02*
X10436729Y-15726960D01*
X10436729Y-15726960D02*
X10446253Y-15717436D01*
X10446253Y-15717436D02*
X10446253Y-15736484D01*
X10522444Y-15536484D02*
X10646253Y-15536484D01*
X10646253Y-15536484D02*
X10579586Y-15612674D01*
X10579586Y-15612674D02*
X10608158Y-15612674D01*
X10608158Y-15612674D02*
X10627205Y-15622198D01*
X10627205Y-15622198D02*
X10636729Y-15631722D01*
X10636729Y-15631722D02*
X10646253Y-15650769D01*
X10646253Y-15650769D02*
X10646253Y-15698388D01*
X10646253Y-15698388D02*
X10636729Y-15717436D01*
X10636729Y-15717436D02*
X10627205Y-15726960D01*
X10627205Y-15726960D02*
X10608158Y-15736484D01*
X10608158Y-15736484D02*
X10551015Y-15736484D01*
X10551015Y-15736484D02*
X10531967Y-15726960D01*
X10531967Y-15726960D02*
X10522444Y-15717436D01*
X10770063Y-15536484D02*
X10789110Y-15536484D01*
X10789110Y-15536484D02*
X10808158Y-15546008D01*
X10808158Y-15546008D02*
X10817682Y-15555531D01*
X10817682Y-15555531D02*
X10827205Y-15574579D01*
X10827205Y-15574579D02*
X10836729Y-15612674D01*
X10836729Y-15612674D02*
X10836729Y-15660293D01*
X10836729Y-15660293D02*
X10827205Y-15698388D01*
X10827205Y-15698388D02*
X10817682Y-15717436D01*
X10817682Y-15717436D02*
X10808158Y-15726960D01*
X10808158Y-15726960D02*
X10789110Y-15736484D01*
X10789110Y-15736484D02*
X10770063Y-15736484D01*
X10770063Y-15736484D02*
X10751015Y-15726960D01*
X10751015Y-15726960D02*
X10741491Y-15717436D01*
X10741491Y-15717436D02*
X10731967Y-15698388D01*
X10731967Y-15698388D02*
X10722444Y-15660293D01*
X10722444Y-15660293D02*
X10722444Y-15612674D01*
X10722444Y-15612674D02*
X10731967Y-15574579D01*
X10731967Y-15574579D02*
X10741491Y-15555531D01*
X10741491Y-15555531D02*
X10751015Y-15546008D01*
X10751015Y-15546008D02*
X10770063Y-15536484D01*
X10960539Y-15536484D02*
X10979586Y-15536484D01*
X10979586Y-15536484D02*
X10998634Y-15546008D01*
X10998634Y-15546008D02*
X11008158Y-15555531D01*
X11008158Y-15555531D02*
X11017682Y-15574579D01*
X11017682Y-15574579D02*
X11027205Y-15612674D01*
X11027205Y-15612674D02*
X11027205Y-15660293D01*
X11027205Y-15660293D02*
X11017682Y-15698388D01*
X11017682Y-15698388D02*
X11008158Y-15717436D01*
X11008158Y-15717436D02*
X10998634Y-15726960D01*
X10998634Y-15726960D02*
X10979586Y-15736484D01*
X10979586Y-15736484D02*
X10960539Y-15736484D01*
X10960539Y-15736484D02*
X10941491Y-15726960D01*
X10941491Y-15726960D02*
X10931967Y-15717436D01*
X10931967Y-15717436D02*
X10922444Y-15698388D01*
X10922444Y-15698388D02*
X10912920Y-15660293D01*
X10912920Y-15660293D02*
X10912920Y-15612674D01*
X10912920Y-15612674D02*
X10922444Y-15574579D01*
X10922444Y-15574579D02*
X10931967Y-15555531D01*
X10931967Y-15555531D02*
X10941491Y-15546008D01*
X10941491Y-15546008D02*
X10960539Y-15536484D01*
X11112920Y-15736484D02*
X11112920Y-15603150D01*
X11112920Y-15622198D02*
X11122444Y-15612674D01*
X11122444Y-15612674D02*
X11141491Y-15603150D01*
X11141491Y-15603150D02*
X11170063Y-15603150D01*
X11170063Y-15603150D02*
X11189110Y-15612674D01*
X11189110Y-15612674D02*
X11198634Y-15631722D01*
X11198634Y-15631722D02*
X11198634Y-15736484D01*
X11198634Y-15631722D02*
X11208158Y-15612674D01*
X11208158Y-15612674D02*
X11227205Y-15603150D01*
X11227205Y-15603150D02*
X11255777Y-15603150D01*
X11255777Y-15603150D02*
X11274824Y-15612674D01*
X11274824Y-15612674D02*
X11284348Y-15631722D01*
X11284348Y-15631722D02*
X11284348Y-15736484D01*
X11379586Y-15736484D02*
X11379586Y-15603150D01*
X11379586Y-15622198D02*
X11389110Y-15612674D01*
X11389110Y-15612674D02*
X11408158Y-15603150D01*
X11408158Y-15603150D02*
X11436729Y-15603150D01*
X11436729Y-15603150D02*
X11455777Y-15612674D01*
X11455777Y-15612674D02*
X11465301Y-15631722D01*
X11465301Y-15631722D02*
X11465301Y-15736484D01*
X11465301Y-15631722D02*
X11474824Y-15612674D01*
X11474824Y-15612674D02*
X11493872Y-15603150D01*
X11493872Y-15603150D02*
X11522443Y-15603150D01*
X11522443Y-15603150D02*
X11541491Y-15612674D01*
X11541491Y-15612674D02*
X11551015Y-15631722D01*
X11551015Y-15631722D02*
X11551015Y-15736484D01*
X11941491Y-15526960D02*
X11770063Y-15784103D01*
X12198634Y-15536484D02*
X12217682Y-15536484D01*
X12217682Y-15536484D02*
X12236729Y-15546008D01*
X12236729Y-15546008D02*
X12246253Y-15555531D01*
X12246253Y-15555531D02*
X12255777Y-15574579D01*
X12255777Y-15574579D02*
X12265301Y-15612674D01*
X12265301Y-15612674D02*
X12265301Y-15660293D01*
X12265301Y-15660293D02*
X12255777Y-15698388D01*
X12255777Y-15698388D02*
X12246253Y-15717436D01*
X12246253Y-15717436D02*
X12236729Y-15726960D01*
X12236729Y-15726960D02*
X12217682Y-15736484D01*
X12217682Y-15736484D02*
X12198634Y-15736484D01*
X12198634Y-15736484D02*
X12179586Y-15726960D01*
X12179586Y-15726960D02*
X12170063Y-15717436D01*
X12170063Y-15717436D02*
X12160539Y-15698388D01*
X12160539Y-15698388D02*
X12151015Y-15660293D01*
X12151015Y-15660293D02*
X12151015Y-15612674D01*
X12151015Y-15612674D02*
X12160539Y-15574579D01*
X12160539Y-15574579D02*
X12170063Y-15555531D01*
X12170063Y-15555531D02*
X12179586Y-15546008D01*
X12179586Y-15546008D02*
X12198634Y-15536484D01*
X12351015Y-15717436D02*
X12360539Y-15726960D01*
X12360539Y-15726960D02*
X12351015Y-15736484D01*
X12351015Y-15736484D02*
X12341491Y-15726960D01*
X12341491Y-15726960D02*
X12351015Y-15717436D01*
X12351015Y-15717436D02*
X12351015Y-15736484D01*
X12484348Y-15536484D02*
X12503396Y-15536484D01*
X12503396Y-15536484D02*
X12522444Y-15546008D01*
X12522444Y-15546008D02*
X12531967Y-15555531D01*
X12531967Y-15555531D02*
X12541491Y-15574579D01*
X12541491Y-15574579D02*
X12551015Y-15612674D01*
X12551015Y-15612674D02*
X12551015Y-15660293D01*
X12551015Y-15660293D02*
X12541491Y-15698388D01*
X12541491Y-15698388D02*
X12531967Y-15717436D01*
X12531967Y-15717436D02*
X12522444Y-15726960D01*
X12522444Y-15726960D02*
X12503396Y-15736484D01*
X12503396Y-15736484D02*
X12484348Y-15736484D01*
X12484348Y-15736484D02*
X12465301Y-15726960D01*
X12465301Y-15726960D02*
X12455777Y-15717436D01*
X12455777Y-15717436D02*
X12446253Y-15698388D01*
X12446253Y-15698388D02*
X12436729Y-15660293D01*
X12436729Y-15660293D02*
X12436729Y-15612674D01*
X12436729Y-15612674D02*
X12446253Y-15574579D01*
X12446253Y-15574579D02*
X12455777Y-15555531D01*
X12455777Y-15555531D02*
X12465301Y-15546008D01*
X12465301Y-15546008D02*
X12484348Y-15536484D01*
X12741491Y-15736484D02*
X12627206Y-15736484D01*
X12684348Y-15736484D02*
X12684348Y-15536484D01*
X12684348Y-15536484D02*
X12665301Y-15565055D01*
X12665301Y-15565055D02*
X12646253Y-15584103D01*
X12646253Y-15584103D02*
X12627206Y-15593627D01*
X12931967Y-15736484D02*
X12817682Y-15736484D01*
X12874825Y-15736484D02*
X12874825Y-15536484D01*
X12874825Y-15536484D02*
X12855777Y-15565055D01*
X12855777Y-15565055D02*
X12836729Y-15584103D01*
X12836729Y-15584103D02*
X12817682Y-15593627D01*
X13046253Y-15622198D02*
X13027206Y-15612674D01*
X13027206Y-15612674D02*
X13017682Y-15603150D01*
X13017682Y-15603150D02*
X13008158Y-15584103D01*
X13008158Y-15584103D02*
X13008158Y-15574579D01*
X13008158Y-15574579D02*
X13017682Y-15555531D01*
X13017682Y-15555531D02*
X13027206Y-15546008D01*
X13027206Y-15546008D02*
X13046253Y-15536484D01*
X13046253Y-15536484D02*
X13084348Y-15536484D01*
X13084348Y-15536484D02*
X13103396Y-15546008D01*
X13103396Y-15546008D02*
X13112920Y-15555531D01*
X13112920Y-15555531D02*
X13122444Y-15574579D01*
X13122444Y-15574579D02*
X13122444Y-15584103D01*
X13122444Y-15584103D02*
X13112920Y-15603150D01*
X13112920Y-15603150D02*
X13103396Y-15612674D01*
X13103396Y-15612674D02*
X13084348Y-15622198D01*
X13084348Y-15622198D02*
X13046253Y-15622198D01*
X13046253Y-15622198D02*
X13027206Y-15631722D01*
X13027206Y-15631722D02*
X13017682Y-15641246D01*
X13017682Y-15641246D02*
X13008158Y-15660293D01*
X13008158Y-15660293D02*
X13008158Y-15698388D01*
X13008158Y-15698388D02*
X13017682Y-15717436D01*
X13017682Y-15717436D02*
X13027206Y-15726960D01*
X13027206Y-15726960D02*
X13046253Y-15736484D01*
X13046253Y-15736484D02*
X13084348Y-15736484D01*
X13084348Y-15736484D02*
X13103396Y-15726960D01*
X13103396Y-15726960D02*
X13112920Y-15717436D01*
X13112920Y-15717436D02*
X13122444Y-15698388D01*
X13122444Y-15698388D02*
X13122444Y-15660293D01*
X13122444Y-15660293D02*
X13112920Y-15641246D01*
X13112920Y-15641246D02*
X13103396Y-15631722D01*
X13103396Y-15631722D02*
X13084348Y-15622198D01*
X13198634Y-15536484D02*
X13198634Y-15574579D01*
X13274825Y-15536484D02*
X13274825Y-15574579D01*
X13570063Y-15812674D02*
X13560539Y-15803150D01*
X13560539Y-15803150D02*
X13541491Y-15774579D01*
X13541491Y-15774579D02*
X13531968Y-15755531D01*
X13531968Y-15755531D02*
X13522444Y-15726960D01*
X13522444Y-15726960D02*
X13512920Y-15679341D01*
X13512920Y-15679341D02*
X13512920Y-15641246D01*
X13512920Y-15641246D02*
X13522444Y-15593627D01*
X13522444Y-15593627D02*
X13531968Y-15565055D01*
X13531968Y-15565055D02*
X13541491Y-15546008D01*
X13541491Y-15546008D02*
X13560539Y-15517436D01*
X13560539Y-15517436D02*
X13570063Y-15507912D01*
X13741491Y-15536484D02*
X13646253Y-15536484D01*
X13646253Y-15536484D02*
X13636729Y-15631722D01*
X13636729Y-15631722D02*
X13646253Y-15622198D01*
X13646253Y-15622198D02*
X13665301Y-15612674D01*
X13665301Y-15612674D02*
X13712920Y-15612674D01*
X13712920Y-15612674D02*
X13731968Y-15622198D01*
X13731968Y-15622198D02*
X13741491Y-15631722D01*
X13741491Y-15631722D02*
X13751015Y-15650769D01*
X13751015Y-15650769D02*
X13751015Y-15698388D01*
X13751015Y-15698388D02*
X13741491Y-15717436D01*
X13741491Y-15717436D02*
X13731968Y-15726960D01*
X13731968Y-15726960D02*
X13712920Y-15736484D01*
X13712920Y-15736484D02*
X13665301Y-15736484D01*
X13665301Y-15736484D02*
X13646253Y-15726960D01*
X13646253Y-15726960D02*
X13636729Y-15717436D01*
X13989110Y-15736484D02*
X13989110Y-15536484D01*
X14074825Y-15736484D02*
X14074825Y-15631722D01*
X14074825Y-15631722D02*
X14065301Y-15612674D01*
X14065301Y-15612674D02*
X14046253Y-15603150D01*
X14046253Y-15603150D02*
X14017682Y-15603150D01*
X14017682Y-15603150D02*
X13998634Y-15612674D01*
X13998634Y-15612674D02*
X13989110Y-15622198D01*
X14198634Y-15736484D02*
X14179587Y-15726960D01*
X14179587Y-15726960D02*
X14170063Y-15717436D01*
X14170063Y-15717436D02*
X14160539Y-15698388D01*
X14160539Y-15698388D02*
X14160539Y-15641246D01*
X14160539Y-15641246D02*
X14170063Y-15622198D01*
X14170063Y-15622198D02*
X14179587Y-15612674D01*
X14179587Y-15612674D02*
X14198634Y-15603150D01*
X14198634Y-15603150D02*
X14227206Y-15603150D01*
X14227206Y-15603150D02*
X14246253Y-15612674D01*
X14246253Y-15612674D02*
X14255777Y-15622198D01*
X14255777Y-15622198D02*
X14265301Y-15641246D01*
X14265301Y-15641246D02*
X14265301Y-15698388D01*
X14265301Y-15698388D02*
X14255777Y-15717436D01*
X14255777Y-15717436D02*
X14246253Y-15726960D01*
X14246253Y-15726960D02*
X14227206Y-15736484D01*
X14227206Y-15736484D02*
X14198634Y-15736484D01*
X14379587Y-15736484D02*
X14360539Y-15726960D01*
X14360539Y-15726960D02*
X14351015Y-15707912D01*
X14351015Y-15707912D02*
X14351015Y-15536484D01*
X14531968Y-15726960D02*
X14512920Y-15736484D01*
X14512920Y-15736484D02*
X14474825Y-15736484D01*
X14474825Y-15736484D02*
X14455777Y-15726960D01*
X14455777Y-15726960D02*
X14446253Y-15707912D01*
X14446253Y-15707912D02*
X14446253Y-15631722D01*
X14446253Y-15631722D02*
X14455777Y-15612674D01*
X14455777Y-15612674D02*
X14474825Y-15603150D01*
X14474825Y-15603150D02*
X14512920Y-15603150D01*
X14512920Y-15603150D02*
X14531968Y-15612674D01*
X14531968Y-15612674D02*
X14541491Y-15631722D01*
X14541491Y-15631722D02*
X14541491Y-15650769D01*
X14541491Y-15650769D02*
X14446253Y-15669817D01*
X14617682Y-15726960D02*
X14636730Y-15736484D01*
X14636730Y-15736484D02*
X14674825Y-15736484D01*
X14674825Y-15736484D02*
X14693872Y-15726960D01*
X14693872Y-15726960D02*
X14703396Y-15707912D01*
X14703396Y-15707912D02*
X14703396Y-15698388D01*
X14703396Y-15698388D02*
X14693872Y-15679341D01*
X14693872Y-15679341D02*
X14674825Y-15669817D01*
X14674825Y-15669817D02*
X14646253Y-15669817D01*
X14646253Y-15669817D02*
X14627206Y-15660293D01*
X14627206Y-15660293D02*
X14617682Y-15641246D01*
X14617682Y-15641246D02*
X14617682Y-15631722D01*
X14617682Y-15631722D02*
X14627206Y-15612674D01*
X14627206Y-15612674D02*
X14646253Y-15603150D01*
X14646253Y-15603150D02*
X14674825Y-15603150D01*
X14674825Y-15603150D02*
X14693872Y-15612674D01*
X14770063Y-15812674D02*
X14779587Y-15803150D01*
X14779587Y-15803150D02*
X14798634Y-15774579D01*
X14798634Y-15774579D02*
X14808158Y-15755531D01*
X14808158Y-15755531D02*
X14817682Y-15726960D01*
X14817682Y-15726960D02*
X14827206Y-15679341D01*
X14827206Y-15679341D02*
X14827206Y-15641246D01*
X14827206Y-15641246D02*
X14817682Y-15593627D01*
X14817682Y-15593627D02*
X14808158Y-15565055D01*
X14808158Y-15565055D02*
X14798634Y-15546008D01*
X14798634Y-15546008D02*
X14779587Y-15517436D01*
X14779587Y-15517436D02*
X14770063Y-15507912D01*
D10*
X9995000Y-15909000D02*
G75*
G03*
X9915000Y-15909000I-40000J0D01*
G01*
X9915000Y-15909000D02*
G75*
G03*
X9995000Y-15909000I40000J0D01*
G01*
D11*
X10293872Y-15800484D02*
X10312920Y-15800484D01*
X10312920Y-15800484D02*
X10331967Y-15810008D01*
X10331967Y-15810008D02*
X10341491Y-15819531D01*
X10341491Y-15819531D02*
X10351015Y-15838579D01*
X10351015Y-15838579D02*
X10360539Y-15876674D01*
X10360539Y-15876674D02*
X10360539Y-15924293D01*
X10360539Y-15924293D02*
X10351015Y-15962388D01*
X10351015Y-15962388D02*
X10341491Y-15981436D01*
X10341491Y-15981436D02*
X10331967Y-15990960D01*
X10331967Y-15990960D02*
X10312920Y-16000484D01*
X10312920Y-16000484D02*
X10293872Y-16000484D01*
X10293872Y-16000484D02*
X10274824Y-15990960D01*
X10274824Y-15990960D02*
X10265301Y-15981436D01*
X10265301Y-15981436D02*
X10255777Y-15962388D01*
X10255777Y-15962388D02*
X10246253Y-15924293D01*
X10246253Y-15924293D02*
X10246253Y-15876674D01*
X10246253Y-15876674D02*
X10255777Y-15838579D01*
X10255777Y-15838579D02*
X10265301Y-15819531D01*
X10265301Y-15819531D02*
X10274824Y-15810008D01*
X10274824Y-15810008D02*
X10293872Y-15800484D01*
X10446253Y-15981436D02*
X10455777Y-15990960D01*
X10455777Y-15990960D02*
X10446253Y-16000484D01*
X10446253Y-16000484D02*
X10436729Y-15990960D01*
X10436729Y-15990960D02*
X10446253Y-15981436D01*
X10446253Y-15981436D02*
X10446253Y-16000484D01*
X10570063Y-15886198D02*
X10551015Y-15876674D01*
X10551015Y-15876674D02*
X10541491Y-15867150D01*
X10541491Y-15867150D02*
X10531967Y-15848103D01*
X10531967Y-15848103D02*
X10531967Y-15838579D01*
X10531967Y-15838579D02*
X10541491Y-15819531D01*
X10541491Y-15819531D02*
X10551015Y-15810008D01*
X10551015Y-15810008D02*
X10570063Y-15800484D01*
X10570063Y-15800484D02*
X10608158Y-15800484D01*
X10608158Y-15800484D02*
X10627205Y-15810008D01*
X10627205Y-15810008D02*
X10636729Y-15819531D01*
X10636729Y-15819531D02*
X10646253Y-15838579D01*
X10646253Y-15838579D02*
X10646253Y-15848103D01*
X10646253Y-15848103D02*
X10636729Y-15867150D01*
X10636729Y-15867150D02*
X10627205Y-15876674D01*
X10627205Y-15876674D02*
X10608158Y-15886198D01*
X10608158Y-15886198D02*
X10570063Y-15886198D01*
X10570063Y-15886198D02*
X10551015Y-15895722D01*
X10551015Y-15895722D02*
X10541491Y-15905246D01*
X10541491Y-15905246D02*
X10531967Y-15924293D01*
X10531967Y-15924293D02*
X10531967Y-15962388D01*
X10531967Y-15962388D02*
X10541491Y-15981436D01*
X10541491Y-15981436D02*
X10551015Y-15990960D01*
X10551015Y-15990960D02*
X10570063Y-16000484D01*
X10570063Y-16000484D02*
X10608158Y-16000484D01*
X10608158Y-16000484D02*
X10627205Y-15990960D01*
X10627205Y-15990960D02*
X10636729Y-15981436D01*
X10636729Y-15981436D02*
X10646253Y-15962388D01*
X10646253Y-15962388D02*
X10646253Y-15924293D01*
X10646253Y-15924293D02*
X10636729Y-15905246D01*
X10636729Y-15905246D02*
X10627205Y-15895722D01*
X10627205Y-15895722D02*
X10608158Y-15886198D01*
X10770063Y-15800484D02*
X10789110Y-15800484D01*
X10789110Y-15800484D02*
X10808158Y-15810008D01*
X10808158Y-15810008D02*
X10817682Y-15819531D01*
X10817682Y-15819531D02*
X10827205Y-15838579D01*
X10827205Y-15838579D02*
X10836729Y-15876674D01*
X10836729Y-15876674D02*
X10836729Y-15924293D01*
X10836729Y-15924293D02*
X10827205Y-15962388D01*
X10827205Y-15962388D02*
X10817682Y-15981436D01*
X10817682Y-15981436D02*
X10808158Y-15990960D01*
X10808158Y-15990960D02*
X10789110Y-16000484D01*
X10789110Y-16000484D02*
X10770063Y-16000484D01*
X10770063Y-16000484D02*
X10751015Y-15990960D01*
X10751015Y-15990960D02*
X10741491Y-15981436D01*
X10741491Y-15981436D02*
X10731967Y-15962388D01*
X10731967Y-15962388D02*
X10722444Y-15924293D01*
X10722444Y-15924293D02*
X10722444Y-15876674D01*
X10722444Y-15876674D02*
X10731967Y-15838579D01*
X10731967Y-15838579D02*
X10741491Y-15819531D01*
X10741491Y-15819531D02*
X10751015Y-15810008D01*
X10751015Y-15810008D02*
X10770063Y-15800484D01*
X10960539Y-15800484D02*
X10979586Y-15800484D01*
X10979586Y-15800484D02*
X10998634Y-15810008D01*
X10998634Y-15810008D02*
X11008158Y-15819531D01*
X11008158Y-15819531D02*
X11017682Y-15838579D01*
X11017682Y-15838579D02*
X11027205Y-15876674D01*
X11027205Y-15876674D02*
X11027205Y-15924293D01*
X11027205Y-15924293D02*
X11017682Y-15962388D01*
X11017682Y-15962388D02*
X11008158Y-15981436D01*
X11008158Y-15981436D02*
X10998634Y-15990960D01*
X10998634Y-15990960D02*
X10979586Y-16000484D01*
X10979586Y-16000484D02*
X10960539Y-16000484D01*
X10960539Y-16000484D02*
X10941491Y-15990960D01*
X10941491Y-15990960D02*
X10931967Y-15981436D01*
X10931967Y-15981436D02*
X10922444Y-15962388D01*
X10922444Y-15962388D02*
X10912920Y-15924293D01*
X10912920Y-15924293D02*
X10912920Y-15876674D01*
X10912920Y-15876674D02*
X10922444Y-15838579D01*
X10922444Y-15838579D02*
X10931967Y-15819531D01*
X10931967Y-15819531D02*
X10941491Y-15810008D01*
X10941491Y-15810008D02*
X10960539Y-15800484D01*
X11112920Y-16000484D02*
X11112920Y-15867150D01*
X11112920Y-15886198D02*
X11122444Y-15876674D01*
X11122444Y-15876674D02*
X11141491Y-15867150D01*
X11141491Y-15867150D02*
X11170063Y-15867150D01*
X11170063Y-15867150D02*
X11189110Y-15876674D01*
X11189110Y-15876674D02*
X11198634Y-15895722D01*
X11198634Y-15895722D02*
X11198634Y-16000484D01*
X11198634Y-15895722D02*
X11208158Y-15876674D01*
X11208158Y-15876674D02*
X11227205Y-15867150D01*
X11227205Y-15867150D02*
X11255777Y-15867150D01*
X11255777Y-15867150D02*
X11274824Y-15876674D01*
X11274824Y-15876674D02*
X11284348Y-15895722D01*
X11284348Y-15895722D02*
X11284348Y-16000484D01*
X11379586Y-16000484D02*
X11379586Y-15867150D01*
X11379586Y-15886198D02*
X11389110Y-15876674D01*
X11389110Y-15876674D02*
X11408158Y-15867150D01*
X11408158Y-15867150D02*
X11436729Y-15867150D01*
X11436729Y-15867150D02*
X11455777Y-15876674D01*
X11455777Y-15876674D02*
X11465301Y-15895722D01*
X11465301Y-15895722D02*
X11465301Y-16000484D01*
X11465301Y-15895722D02*
X11474824Y-15876674D01*
X11474824Y-15876674D02*
X11493872Y-15867150D01*
X11493872Y-15867150D02*
X11522443Y-15867150D01*
X11522443Y-15867150D02*
X11541491Y-15876674D01*
X11541491Y-15876674D02*
X11551015Y-15895722D01*
X11551015Y-15895722D02*
X11551015Y-16000484D01*
X11941491Y-15790960D02*
X11770063Y-16048103D01*
X12198634Y-15800484D02*
X12217682Y-15800484D01*
X12217682Y-15800484D02*
X12236729Y-15810008D01*
X12236729Y-15810008D02*
X12246253Y-15819531D01*
X12246253Y-15819531D02*
X12255777Y-15838579D01*
X12255777Y-15838579D02*
X12265301Y-15876674D01*
X12265301Y-15876674D02*
X12265301Y-15924293D01*
X12265301Y-15924293D02*
X12255777Y-15962388D01*
X12255777Y-15962388D02*
X12246253Y-15981436D01*
X12246253Y-15981436D02*
X12236729Y-15990960D01*
X12236729Y-15990960D02*
X12217682Y-16000484D01*
X12217682Y-16000484D02*
X12198634Y-16000484D01*
X12198634Y-16000484D02*
X12179586Y-15990960D01*
X12179586Y-15990960D02*
X12170063Y-15981436D01*
X12170063Y-15981436D02*
X12160539Y-15962388D01*
X12160539Y-15962388D02*
X12151015Y-15924293D01*
X12151015Y-15924293D02*
X12151015Y-15876674D01*
X12151015Y-15876674D02*
X12160539Y-15838579D01*
X12160539Y-15838579D02*
X12170063Y-15819531D01*
X12170063Y-15819531D02*
X12179586Y-15810008D01*
X12179586Y-15810008D02*
X12198634Y-15800484D01*
X12351015Y-15981436D02*
X12360539Y-15990960D01*
X12360539Y-15990960D02*
X12351015Y-16000484D01*
X12351015Y-16000484D02*
X12341491Y-15990960D01*
X12341491Y-15990960D02*
X12351015Y-15981436D01*
X12351015Y-15981436D02*
X12351015Y-16000484D01*
X12484348Y-15800484D02*
X12503396Y-15800484D01*
X12503396Y-15800484D02*
X12522444Y-15810008D01*
X12522444Y-15810008D02*
X12531967Y-15819531D01*
X12531967Y-15819531D02*
X12541491Y-15838579D01*
X12541491Y-15838579D02*
X12551015Y-15876674D01*
X12551015Y-15876674D02*
X12551015Y-15924293D01*
X12551015Y-15924293D02*
X12541491Y-15962388D01*
X12541491Y-15962388D02*
X12531967Y-15981436D01*
X12531967Y-15981436D02*
X12522444Y-15990960D01*
X12522444Y-15990960D02*
X12503396Y-16000484D01*
X12503396Y-16000484D02*
X12484348Y-16000484D01*
X12484348Y-16000484D02*
X12465301Y-15990960D01*
X12465301Y-15990960D02*
X12455777Y-15981436D01*
X12455777Y-15981436D02*
X12446253Y-15962388D01*
X12446253Y-15962388D02*
X12436729Y-15924293D01*
X12436729Y-15924293D02*
X12436729Y-15876674D01*
X12436729Y-15876674D02*
X12446253Y-15838579D01*
X12446253Y-15838579D02*
X12455777Y-15819531D01*
X12455777Y-15819531D02*
X12465301Y-15810008D01*
X12465301Y-15810008D02*
X12484348Y-15800484D01*
X12617682Y-15800484D02*
X12741491Y-15800484D01*
X12741491Y-15800484D02*
X12674825Y-15876674D01*
X12674825Y-15876674D02*
X12703396Y-15876674D01*
X12703396Y-15876674D02*
X12722444Y-15886198D01*
X12722444Y-15886198D02*
X12731967Y-15895722D01*
X12731967Y-15895722D02*
X12741491Y-15914769D01*
X12741491Y-15914769D02*
X12741491Y-15962388D01*
X12741491Y-15962388D02*
X12731967Y-15981436D01*
X12731967Y-15981436D02*
X12722444Y-15990960D01*
X12722444Y-15990960D02*
X12703396Y-16000484D01*
X12703396Y-16000484D02*
X12646253Y-16000484D01*
X12646253Y-16000484D02*
X12627206Y-15990960D01*
X12627206Y-15990960D02*
X12617682Y-15981436D01*
X12931967Y-16000484D02*
X12817682Y-16000484D01*
X12874825Y-16000484D02*
X12874825Y-15800484D01*
X12874825Y-15800484D02*
X12855777Y-15829055D01*
X12855777Y-15829055D02*
X12836729Y-15848103D01*
X12836729Y-15848103D02*
X12817682Y-15857627D01*
X13112920Y-15800484D02*
X13017682Y-15800484D01*
X13017682Y-15800484D02*
X13008158Y-15895722D01*
X13008158Y-15895722D02*
X13017682Y-15886198D01*
X13017682Y-15886198D02*
X13036729Y-15876674D01*
X13036729Y-15876674D02*
X13084348Y-15876674D01*
X13084348Y-15876674D02*
X13103396Y-15886198D01*
X13103396Y-15886198D02*
X13112920Y-15895722D01*
X13112920Y-15895722D02*
X13122444Y-15914769D01*
X13122444Y-15914769D02*
X13122444Y-15962388D01*
X13122444Y-15962388D02*
X13112920Y-15981436D01*
X13112920Y-15981436D02*
X13103396Y-15990960D01*
X13103396Y-15990960D02*
X13084348Y-16000484D01*
X13084348Y-16000484D02*
X13036729Y-16000484D01*
X13036729Y-16000484D02*
X13017682Y-15990960D01*
X13017682Y-15990960D02*
X13008158Y-15981436D01*
X13198634Y-15800484D02*
X13198634Y-15838579D01*
X13274825Y-15800484D02*
X13274825Y-15838579D01*
X13570063Y-16076674D02*
X13560539Y-16067150D01*
X13560539Y-16067150D02*
X13541491Y-16038579D01*
X13541491Y-16038579D02*
X13531968Y-16019531D01*
X13531968Y-16019531D02*
X13522444Y-15990960D01*
X13522444Y-15990960D02*
X13512920Y-15943341D01*
X13512920Y-15943341D02*
X13512920Y-15905246D01*
X13512920Y-15905246D02*
X13522444Y-15857627D01*
X13522444Y-15857627D02*
X13531968Y-15829055D01*
X13531968Y-15829055D02*
X13541491Y-15810008D01*
X13541491Y-15810008D02*
X13560539Y-15781436D01*
X13560539Y-15781436D02*
X13570063Y-15771912D01*
X13751015Y-16000484D02*
X13636729Y-16000484D01*
X13693872Y-16000484D02*
X13693872Y-15800484D01*
X13693872Y-15800484D02*
X13674825Y-15829055D01*
X13674825Y-15829055D02*
X13655777Y-15848103D01*
X13655777Y-15848103D02*
X13636729Y-15857627D01*
X13874825Y-15800484D02*
X13893872Y-15800484D01*
X13893872Y-15800484D02*
X13912920Y-15810008D01*
X13912920Y-15810008D02*
X13922444Y-15819531D01*
X13922444Y-15819531D02*
X13931968Y-15838579D01*
X13931968Y-15838579D02*
X13941491Y-15876674D01*
X13941491Y-15876674D02*
X13941491Y-15924293D01*
X13941491Y-15924293D02*
X13931968Y-15962388D01*
X13931968Y-15962388D02*
X13922444Y-15981436D01*
X13922444Y-15981436D02*
X13912920Y-15990960D01*
X13912920Y-15990960D02*
X13893872Y-16000484D01*
X13893872Y-16000484D02*
X13874825Y-16000484D01*
X13874825Y-16000484D02*
X13855777Y-15990960D01*
X13855777Y-15990960D02*
X13846253Y-15981436D01*
X13846253Y-15981436D02*
X13836729Y-15962388D01*
X13836729Y-15962388D02*
X13827206Y-15924293D01*
X13827206Y-15924293D02*
X13827206Y-15876674D01*
X13827206Y-15876674D02*
X13836729Y-15838579D01*
X13836729Y-15838579D02*
X13846253Y-15819531D01*
X13846253Y-15819531D02*
X13855777Y-15810008D01*
X13855777Y-15810008D02*
X13874825Y-15800484D01*
X14112920Y-15867150D02*
X14112920Y-16000484D01*
X14065301Y-15790960D02*
X14017682Y-15933817D01*
X14017682Y-15933817D02*
X14141491Y-15933817D01*
X14370063Y-16000484D02*
X14370063Y-15800484D01*
X14455777Y-16000484D02*
X14455777Y-15895722D01*
X14455777Y-15895722D02*
X14446253Y-15876674D01*
X14446253Y-15876674D02*
X14427206Y-15867150D01*
X14427206Y-15867150D02*
X14398634Y-15867150D01*
X14398634Y-15867150D02*
X14379587Y-15876674D01*
X14379587Y-15876674D02*
X14370063Y-15886198D01*
X14579587Y-16000484D02*
X14560539Y-15990960D01*
X14560539Y-15990960D02*
X14551015Y-15981436D01*
X14551015Y-15981436D02*
X14541491Y-15962388D01*
X14541491Y-15962388D02*
X14541491Y-15905246D01*
X14541491Y-15905246D02*
X14551015Y-15886198D01*
X14551015Y-15886198D02*
X14560539Y-15876674D01*
X14560539Y-15876674D02*
X14579587Y-15867150D01*
X14579587Y-15867150D02*
X14608158Y-15867150D01*
X14608158Y-15867150D02*
X14627206Y-15876674D01*
X14627206Y-15876674D02*
X14636730Y-15886198D01*
X14636730Y-15886198D02*
X14646253Y-15905246D01*
X14646253Y-15905246D02*
X14646253Y-15962388D01*
X14646253Y-15962388D02*
X14636730Y-15981436D01*
X14636730Y-15981436D02*
X14627206Y-15990960D01*
X14627206Y-15990960D02*
X14608158Y-16000484D01*
X14608158Y-16000484D02*
X14579587Y-16000484D01*
X14760539Y-16000484D02*
X14741491Y-15990960D01*
X14741491Y-15990960D02*
X14731968Y-15971912D01*
X14731968Y-15971912D02*
X14731968Y-15800484D01*
X14912920Y-15990960D02*
X14893872Y-16000484D01*
X14893872Y-16000484D02*
X14855777Y-16000484D01*
X14855777Y-16000484D02*
X14836730Y-15990960D01*
X14836730Y-15990960D02*
X14827206Y-15971912D01*
X14827206Y-15971912D02*
X14827206Y-15895722D01*
X14827206Y-15895722D02*
X14836730Y-15876674D01*
X14836730Y-15876674D02*
X14855777Y-15867150D01*
X14855777Y-15867150D02*
X14893872Y-15867150D01*
X14893872Y-15867150D02*
X14912920Y-15876674D01*
X14912920Y-15876674D02*
X14922444Y-15895722D01*
X14922444Y-15895722D02*
X14922444Y-15914769D01*
X14922444Y-15914769D02*
X14827206Y-15933817D01*
X14998634Y-15990960D02*
X15017682Y-16000484D01*
X15017682Y-16000484D02*
X15055777Y-16000484D01*
X15055777Y-16000484D02*
X15074825Y-15990960D01*
X15074825Y-15990960D02*
X15084349Y-15971912D01*
X15084349Y-15971912D02*
X15084349Y-15962388D01*
X15084349Y-15962388D02*
X15074825Y-15943341D01*
X15074825Y-15943341D02*
X15055777Y-15933817D01*
X15055777Y-15933817D02*
X15027206Y-15933817D01*
X15027206Y-15933817D02*
X15008158Y-15924293D01*
X15008158Y-15924293D02*
X14998634Y-15905246D01*
X14998634Y-15905246D02*
X14998634Y-15895722D01*
X14998634Y-15895722D02*
X15008158Y-15876674D01*
X15008158Y-15876674D02*
X15027206Y-15867150D01*
X15027206Y-15867150D02*
X15055777Y-15867150D01*
X15055777Y-15867150D02*
X15074825Y-15876674D01*
X15151015Y-16076674D02*
X15160539Y-16067150D01*
X15160539Y-16067150D02*
X15179587Y-16038579D01*
X15179587Y-16038579D02*
X15189111Y-16019531D01*
X15189111Y-16019531D02*
X15198634Y-15990960D01*
X15198634Y-15990960D02*
X15208158Y-15943341D01*
X15208158Y-15943341D02*
X15208158Y-15905246D01*
X15208158Y-15905246D02*
X15198634Y-15857627D01*
X15198634Y-15857627D02*
X15189111Y-15829055D01*
X15189111Y-15829055D02*
X15179587Y-15810008D01*
X15179587Y-15810008D02*
X15160539Y-15781436D01*
X15160539Y-15781436D02*
X15151015Y-15771912D01*
D10*
X9950000Y-16128000D02*
X9950000Y-16218000D01*
X9905000Y-16173000D02*
X9995000Y-16173000D01*
D11*
X10293872Y-16064484D02*
X10312920Y-16064484D01*
X10312920Y-16064484D02*
X10331967Y-16074008D01*
X10331967Y-16074008D02*
X10341491Y-16083531D01*
X10341491Y-16083531D02*
X10351015Y-16102579D01*
X10351015Y-16102579D02*
X10360539Y-16140674D01*
X10360539Y-16140674D02*
X10360539Y-16188293D01*
X10360539Y-16188293D02*
X10351015Y-16226388D01*
X10351015Y-16226388D02*
X10341491Y-16245436D01*
X10341491Y-16245436D02*
X10331967Y-16254960D01*
X10331967Y-16254960D02*
X10312920Y-16264484D01*
X10312920Y-16264484D02*
X10293872Y-16264484D01*
X10293872Y-16264484D02*
X10274824Y-16254960D01*
X10274824Y-16254960D02*
X10265301Y-16245436D01*
X10265301Y-16245436D02*
X10255777Y-16226388D01*
X10255777Y-16226388D02*
X10246253Y-16188293D01*
X10246253Y-16188293D02*
X10246253Y-16140674D01*
X10246253Y-16140674D02*
X10255777Y-16102579D01*
X10255777Y-16102579D02*
X10265301Y-16083531D01*
X10265301Y-16083531D02*
X10274824Y-16074008D01*
X10274824Y-16074008D02*
X10293872Y-16064484D01*
X10446253Y-16245436D02*
X10455777Y-16254960D01*
X10455777Y-16254960D02*
X10446253Y-16264484D01*
X10446253Y-16264484D02*
X10436729Y-16254960D01*
X10436729Y-16254960D02*
X10446253Y-16245436D01*
X10446253Y-16245436D02*
X10446253Y-16264484D01*
X10551015Y-16264484D02*
X10589110Y-16264484D01*
X10589110Y-16264484D02*
X10608158Y-16254960D01*
X10608158Y-16254960D02*
X10617682Y-16245436D01*
X10617682Y-16245436D02*
X10636729Y-16216865D01*
X10636729Y-16216865D02*
X10646253Y-16178769D01*
X10646253Y-16178769D02*
X10646253Y-16102579D01*
X10646253Y-16102579D02*
X10636729Y-16083531D01*
X10636729Y-16083531D02*
X10627205Y-16074008D01*
X10627205Y-16074008D02*
X10608158Y-16064484D01*
X10608158Y-16064484D02*
X10570063Y-16064484D01*
X10570063Y-16064484D02*
X10551015Y-16074008D01*
X10551015Y-16074008D02*
X10541491Y-16083531D01*
X10541491Y-16083531D02*
X10531967Y-16102579D01*
X10531967Y-16102579D02*
X10531967Y-16150198D01*
X10531967Y-16150198D02*
X10541491Y-16169246D01*
X10541491Y-16169246D02*
X10551015Y-16178769D01*
X10551015Y-16178769D02*
X10570063Y-16188293D01*
X10570063Y-16188293D02*
X10608158Y-16188293D01*
X10608158Y-16188293D02*
X10627205Y-16178769D01*
X10627205Y-16178769D02*
X10636729Y-16169246D01*
X10636729Y-16169246D02*
X10646253Y-16150198D01*
X10770063Y-16064484D02*
X10789110Y-16064484D01*
X10789110Y-16064484D02*
X10808158Y-16074008D01*
X10808158Y-16074008D02*
X10817682Y-16083531D01*
X10817682Y-16083531D02*
X10827205Y-16102579D01*
X10827205Y-16102579D02*
X10836729Y-16140674D01*
X10836729Y-16140674D02*
X10836729Y-16188293D01*
X10836729Y-16188293D02*
X10827205Y-16226388D01*
X10827205Y-16226388D02*
X10817682Y-16245436D01*
X10817682Y-16245436D02*
X10808158Y-16254960D01*
X10808158Y-16254960D02*
X10789110Y-16264484D01*
X10789110Y-16264484D02*
X10770063Y-16264484D01*
X10770063Y-16264484D02*
X10751015Y-16254960D01*
X10751015Y-16254960D02*
X10741491Y-16245436D01*
X10741491Y-16245436D02*
X10731967Y-16226388D01*
X10731967Y-16226388D02*
X10722444Y-16188293D01*
X10722444Y-16188293D02*
X10722444Y-16140674D01*
X10722444Y-16140674D02*
X10731967Y-16102579D01*
X10731967Y-16102579D02*
X10741491Y-16083531D01*
X10741491Y-16083531D02*
X10751015Y-16074008D01*
X10751015Y-16074008D02*
X10770063Y-16064484D01*
X10960539Y-16064484D02*
X10979586Y-16064484D01*
X10979586Y-16064484D02*
X10998634Y-16074008D01*
X10998634Y-16074008D02*
X11008158Y-16083531D01*
X11008158Y-16083531D02*
X11017682Y-16102579D01*
X11017682Y-16102579D02*
X11027205Y-16140674D01*
X11027205Y-16140674D02*
X11027205Y-16188293D01*
X11027205Y-16188293D02*
X11017682Y-16226388D01*
X11017682Y-16226388D02*
X11008158Y-16245436D01*
X11008158Y-16245436D02*
X10998634Y-16254960D01*
X10998634Y-16254960D02*
X10979586Y-16264484D01*
X10979586Y-16264484D02*
X10960539Y-16264484D01*
X10960539Y-16264484D02*
X10941491Y-16254960D01*
X10941491Y-16254960D02*
X10931967Y-16245436D01*
X10931967Y-16245436D02*
X10922444Y-16226388D01*
X10922444Y-16226388D02*
X10912920Y-16188293D01*
X10912920Y-16188293D02*
X10912920Y-16140674D01*
X10912920Y-16140674D02*
X10922444Y-16102579D01*
X10922444Y-16102579D02*
X10931967Y-16083531D01*
X10931967Y-16083531D02*
X10941491Y-16074008D01*
X10941491Y-16074008D02*
X10960539Y-16064484D01*
X11112920Y-16264484D02*
X11112920Y-16131150D01*
X11112920Y-16150198D02*
X11122444Y-16140674D01*
X11122444Y-16140674D02*
X11141491Y-16131150D01*
X11141491Y-16131150D02*
X11170063Y-16131150D01*
X11170063Y-16131150D02*
X11189110Y-16140674D01*
X11189110Y-16140674D02*
X11198634Y-16159722D01*
X11198634Y-16159722D02*
X11198634Y-16264484D01*
X11198634Y-16159722D02*
X11208158Y-16140674D01*
X11208158Y-16140674D02*
X11227205Y-16131150D01*
X11227205Y-16131150D02*
X11255777Y-16131150D01*
X11255777Y-16131150D02*
X11274824Y-16140674D01*
X11274824Y-16140674D02*
X11284348Y-16159722D01*
X11284348Y-16159722D02*
X11284348Y-16264484D01*
X11379586Y-16264484D02*
X11379586Y-16131150D01*
X11379586Y-16150198D02*
X11389110Y-16140674D01*
X11389110Y-16140674D02*
X11408158Y-16131150D01*
X11408158Y-16131150D02*
X11436729Y-16131150D01*
X11436729Y-16131150D02*
X11455777Y-16140674D01*
X11455777Y-16140674D02*
X11465301Y-16159722D01*
X11465301Y-16159722D02*
X11465301Y-16264484D01*
X11465301Y-16159722D02*
X11474824Y-16140674D01*
X11474824Y-16140674D02*
X11493872Y-16131150D01*
X11493872Y-16131150D02*
X11522443Y-16131150D01*
X11522443Y-16131150D02*
X11541491Y-16140674D01*
X11541491Y-16140674D02*
X11551015Y-16159722D01*
X11551015Y-16159722D02*
X11551015Y-16264484D01*
X11941491Y-16054960D02*
X11770063Y-16312103D01*
X12198634Y-16064484D02*
X12217682Y-16064484D01*
X12217682Y-16064484D02*
X12236729Y-16074008D01*
X12236729Y-16074008D02*
X12246253Y-16083531D01*
X12246253Y-16083531D02*
X12255777Y-16102579D01*
X12255777Y-16102579D02*
X12265301Y-16140674D01*
X12265301Y-16140674D02*
X12265301Y-16188293D01*
X12265301Y-16188293D02*
X12255777Y-16226388D01*
X12255777Y-16226388D02*
X12246253Y-16245436D01*
X12246253Y-16245436D02*
X12236729Y-16254960D01*
X12236729Y-16254960D02*
X12217682Y-16264484D01*
X12217682Y-16264484D02*
X12198634Y-16264484D01*
X12198634Y-16264484D02*
X12179586Y-16254960D01*
X12179586Y-16254960D02*
X12170063Y-16245436D01*
X12170063Y-16245436D02*
X12160539Y-16226388D01*
X12160539Y-16226388D02*
X12151015Y-16188293D01*
X12151015Y-16188293D02*
X12151015Y-16140674D01*
X12151015Y-16140674D02*
X12160539Y-16102579D01*
X12160539Y-16102579D02*
X12170063Y-16083531D01*
X12170063Y-16083531D02*
X12179586Y-16074008D01*
X12179586Y-16074008D02*
X12198634Y-16064484D01*
X12351015Y-16245436D02*
X12360539Y-16254960D01*
X12360539Y-16254960D02*
X12351015Y-16264484D01*
X12351015Y-16264484D02*
X12341491Y-16254960D01*
X12341491Y-16254960D02*
X12351015Y-16245436D01*
X12351015Y-16245436D02*
X12351015Y-16264484D01*
X12484348Y-16064484D02*
X12503396Y-16064484D01*
X12503396Y-16064484D02*
X12522444Y-16074008D01*
X12522444Y-16074008D02*
X12531967Y-16083531D01*
X12531967Y-16083531D02*
X12541491Y-16102579D01*
X12541491Y-16102579D02*
X12551015Y-16140674D01*
X12551015Y-16140674D02*
X12551015Y-16188293D01*
X12551015Y-16188293D02*
X12541491Y-16226388D01*
X12541491Y-16226388D02*
X12531967Y-16245436D01*
X12531967Y-16245436D02*
X12522444Y-16254960D01*
X12522444Y-16254960D02*
X12503396Y-16264484D01*
X12503396Y-16264484D02*
X12484348Y-16264484D01*
X12484348Y-16264484D02*
X12465301Y-16254960D01*
X12465301Y-16254960D02*
X12455777Y-16245436D01*
X12455777Y-16245436D02*
X12446253Y-16226388D01*
X12446253Y-16226388D02*
X12436729Y-16188293D01*
X12436729Y-16188293D02*
X12436729Y-16140674D01*
X12436729Y-16140674D02*
X12446253Y-16102579D01*
X12446253Y-16102579D02*
X12455777Y-16083531D01*
X12455777Y-16083531D02*
X12465301Y-16074008D01*
X12465301Y-16074008D02*
X12484348Y-16064484D01*
X12617682Y-16064484D02*
X12741491Y-16064484D01*
X12741491Y-16064484D02*
X12674825Y-16140674D01*
X12674825Y-16140674D02*
X12703396Y-16140674D01*
X12703396Y-16140674D02*
X12722444Y-16150198D01*
X12722444Y-16150198D02*
X12731967Y-16159722D01*
X12731967Y-16159722D02*
X12741491Y-16178769D01*
X12741491Y-16178769D02*
X12741491Y-16226388D01*
X12741491Y-16226388D02*
X12731967Y-16245436D01*
X12731967Y-16245436D02*
X12722444Y-16254960D01*
X12722444Y-16254960D02*
X12703396Y-16264484D01*
X12703396Y-16264484D02*
X12646253Y-16264484D01*
X12646253Y-16264484D02*
X12627206Y-16254960D01*
X12627206Y-16254960D02*
X12617682Y-16245436D01*
X12922444Y-16064484D02*
X12827206Y-16064484D01*
X12827206Y-16064484D02*
X12817682Y-16159722D01*
X12817682Y-16159722D02*
X12827206Y-16150198D01*
X12827206Y-16150198D02*
X12846253Y-16140674D01*
X12846253Y-16140674D02*
X12893872Y-16140674D01*
X12893872Y-16140674D02*
X12912920Y-16150198D01*
X12912920Y-16150198D02*
X12922444Y-16159722D01*
X12922444Y-16159722D02*
X12931967Y-16178769D01*
X12931967Y-16178769D02*
X12931967Y-16226388D01*
X12931967Y-16226388D02*
X12922444Y-16245436D01*
X12922444Y-16245436D02*
X12912920Y-16254960D01*
X12912920Y-16254960D02*
X12893872Y-16264484D01*
X12893872Y-16264484D02*
X12846253Y-16264484D01*
X12846253Y-16264484D02*
X12827206Y-16254960D01*
X12827206Y-16254960D02*
X12817682Y-16245436D01*
X13103396Y-16131150D02*
X13103396Y-16264484D01*
X13055777Y-16054960D02*
X13008158Y-16197817D01*
X13008158Y-16197817D02*
X13131967Y-16197817D01*
X13198634Y-16064484D02*
X13198634Y-16102579D01*
X13274825Y-16064484D02*
X13274825Y-16102579D01*
X13570063Y-16340674D02*
X13560539Y-16331150D01*
X13560539Y-16331150D02*
X13541491Y-16302579D01*
X13541491Y-16302579D02*
X13531968Y-16283531D01*
X13531968Y-16283531D02*
X13522444Y-16254960D01*
X13522444Y-16254960D02*
X13512920Y-16207341D01*
X13512920Y-16207341D02*
X13512920Y-16169246D01*
X13512920Y-16169246D02*
X13522444Y-16121627D01*
X13522444Y-16121627D02*
X13531968Y-16093055D01*
X13531968Y-16093055D02*
X13541491Y-16074008D01*
X13541491Y-16074008D02*
X13560539Y-16045436D01*
X13560539Y-16045436D02*
X13570063Y-16035912D01*
X13636729Y-16083531D02*
X13646253Y-16074008D01*
X13646253Y-16074008D02*
X13665301Y-16064484D01*
X13665301Y-16064484D02*
X13712920Y-16064484D01*
X13712920Y-16064484D02*
X13731968Y-16074008D01*
X13731968Y-16074008D02*
X13741491Y-16083531D01*
X13741491Y-16083531D02*
X13751015Y-16102579D01*
X13751015Y-16102579D02*
X13751015Y-16121627D01*
X13751015Y-16121627D02*
X13741491Y-16150198D01*
X13741491Y-16150198D02*
X13627206Y-16264484D01*
X13627206Y-16264484D02*
X13751015Y-16264484D01*
X13989110Y-16264484D02*
X13989110Y-16064484D01*
X14074825Y-16264484D02*
X14074825Y-16159722D01*
X14074825Y-16159722D02*
X14065301Y-16140674D01*
X14065301Y-16140674D02*
X14046253Y-16131150D01*
X14046253Y-16131150D02*
X14017682Y-16131150D01*
X14017682Y-16131150D02*
X13998634Y-16140674D01*
X13998634Y-16140674D02*
X13989110Y-16150198D01*
X14198634Y-16264484D02*
X14179587Y-16254960D01*
X14179587Y-16254960D02*
X14170063Y-16245436D01*
X14170063Y-16245436D02*
X14160539Y-16226388D01*
X14160539Y-16226388D02*
X14160539Y-16169246D01*
X14160539Y-16169246D02*
X14170063Y-16150198D01*
X14170063Y-16150198D02*
X14179587Y-16140674D01*
X14179587Y-16140674D02*
X14198634Y-16131150D01*
X14198634Y-16131150D02*
X14227206Y-16131150D01*
X14227206Y-16131150D02*
X14246253Y-16140674D01*
X14246253Y-16140674D02*
X14255777Y-16150198D01*
X14255777Y-16150198D02*
X14265301Y-16169246D01*
X14265301Y-16169246D02*
X14265301Y-16226388D01*
X14265301Y-16226388D02*
X14255777Y-16245436D01*
X14255777Y-16245436D02*
X14246253Y-16254960D01*
X14246253Y-16254960D02*
X14227206Y-16264484D01*
X14227206Y-16264484D02*
X14198634Y-16264484D01*
X14379587Y-16264484D02*
X14360539Y-16254960D01*
X14360539Y-16254960D02*
X14351015Y-16235912D01*
X14351015Y-16235912D02*
X14351015Y-16064484D01*
X14531968Y-16254960D02*
X14512920Y-16264484D01*
X14512920Y-16264484D02*
X14474825Y-16264484D01*
X14474825Y-16264484D02*
X14455777Y-16254960D01*
X14455777Y-16254960D02*
X14446253Y-16235912D01*
X14446253Y-16235912D02*
X14446253Y-16159722D01*
X14446253Y-16159722D02*
X14455777Y-16140674D01*
X14455777Y-16140674D02*
X14474825Y-16131150D01*
X14474825Y-16131150D02*
X14512920Y-16131150D01*
X14512920Y-16131150D02*
X14531968Y-16140674D01*
X14531968Y-16140674D02*
X14541491Y-16159722D01*
X14541491Y-16159722D02*
X14541491Y-16178769D01*
X14541491Y-16178769D02*
X14446253Y-16197817D01*
X14617682Y-16254960D02*
X14636730Y-16264484D01*
X14636730Y-16264484D02*
X14674825Y-16264484D01*
X14674825Y-16264484D02*
X14693872Y-16254960D01*
X14693872Y-16254960D02*
X14703396Y-16235912D01*
X14703396Y-16235912D02*
X14703396Y-16226388D01*
X14703396Y-16226388D02*
X14693872Y-16207341D01*
X14693872Y-16207341D02*
X14674825Y-16197817D01*
X14674825Y-16197817D02*
X14646253Y-16197817D01*
X14646253Y-16197817D02*
X14627206Y-16188293D01*
X14627206Y-16188293D02*
X14617682Y-16169246D01*
X14617682Y-16169246D02*
X14617682Y-16159722D01*
X14617682Y-16159722D02*
X14627206Y-16140674D01*
X14627206Y-16140674D02*
X14646253Y-16131150D01*
X14646253Y-16131150D02*
X14674825Y-16131150D01*
X14674825Y-16131150D02*
X14693872Y-16140674D01*
X14770063Y-16340674D02*
X14779587Y-16331150D01*
X14779587Y-16331150D02*
X14798634Y-16302579D01*
X14798634Y-16302579D02*
X14808158Y-16283531D01*
X14808158Y-16283531D02*
X14817682Y-16254960D01*
X14817682Y-16254960D02*
X14827206Y-16207341D01*
X14827206Y-16207341D02*
X14827206Y-16169246D01*
X14827206Y-16169246D02*
X14817682Y-16121627D01*
X14817682Y-16121627D02*
X14808158Y-16093055D01*
X14808158Y-16093055D02*
X14798634Y-16074008D01*
X14798634Y-16074008D02*
X14779587Y-16045436D01*
X14779587Y-16045436D02*
X14770063Y-16035912D01*
D10*
X9980356Y-16472356D02*
X9980356Y-16401644D01*
X9909644Y-16401644D01*
X9909644Y-16472356D01*
X9980356Y-16472356D01*
D11*
X10360539Y-16528484D02*
X10246253Y-16528484D01*
X10303396Y-16528484D02*
X10303396Y-16328484D01*
X10303396Y-16328484D02*
X10284348Y-16357055D01*
X10284348Y-16357055D02*
X10265301Y-16376103D01*
X10265301Y-16376103D02*
X10246253Y-16385627D01*
X10446253Y-16509436D02*
X10455777Y-16518960D01*
X10455777Y-16518960D02*
X10446253Y-16528484D01*
X10446253Y-16528484D02*
X10436729Y-16518960D01*
X10436729Y-16518960D02*
X10446253Y-16509436D01*
X10446253Y-16509436D02*
X10446253Y-16528484D01*
X10579586Y-16328484D02*
X10598634Y-16328484D01*
X10598634Y-16328484D02*
X10617682Y-16338008D01*
X10617682Y-16338008D02*
X10627205Y-16347531D01*
X10627205Y-16347531D02*
X10636729Y-16366579D01*
X10636729Y-16366579D02*
X10646253Y-16404674D01*
X10646253Y-16404674D02*
X10646253Y-16452293D01*
X10646253Y-16452293D02*
X10636729Y-16490388D01*
X10636729Y-16490388D02*
X10627205Y-16509436D01*
X10627205Y-16509436D02*
X10617682Y-16518960D01*
X10617682Y-16518960D02*
X10598634Y-16528484D01*
X10598634Y-16528484D02*
X10579586Y-16528484D01*
X10579586Y-16528484D02*
X10560539Y-16518960D01*
X10560539Y-16518960D02*
X10551015Y-16509436D01*
X10551015Y-16509436D02*
X10541491Y-16490388D01*
X10541491Y-16490388D02*
X10531967Y-16452293D01*
X10531967Y-16452293D02*
X10531967Y-16404674D01*
X10531967Y-16404674D02*
X10541491Y-16366579D01*
X10541491Y-16366579D02*
X10551015Y-16347531D01*
X10551015Y-16347531D02*
X10560539Y-16338008D01*
X10560539Y-16338008D02*
X10579586Y-16328484D01*
X10770063Y-16328484D02*
X10789110Y-16328484D01*
X10789110Y-16328484D02*
X10808158Y-16338008D01*
X10808158Y-16338008D02*
X10817682Y-16347531D01*
X10817682Y-16347531D02*
X10827205Y-16366579D01*
X10827205Y-16366579D02*
X10836729Y-16404674D01*
X10836729Y-16404674D02*
X10836729Y-16452293D01*
X10836729Y-16452293D02*
X10827205Y-16490388D01*
X10827205Y-16490388D02*
X10817682Y-16509436D01*
X10817682Y-16509436D02*
X10808158Y-16518960D01*
X10808158Y-16518960D02*
X10789110Y-16528484D01*
X10789110Y-16528484D02*
X10770063Y-16528484D01*
X10770063Y-16528484D02*
X10751015Y-16518960D01*
X10751015Y-16518960D02*
X10741491Y-16509436D01*
X10741491Y-16509436D02*
X10731967Y-16490388D01*
X10731967Y-16490388D02*
X10722444Y-16452293D01*
X10722444Y-16452293D02*
X10722444Y-16404674D01*
X10722444Y-16404674D02*
X10731967Y-16366579D01*
X10731967Y-16366579D02*
X10741491Y-16347531D01*
X10741491Y-16347531D02*
X10751015Y-16338008D01*
X10751015Y-16338008D02*
X10770063Y-16328484D01*
X10960539Y-16328484D02*
X10979586Y-16328484D01*
X10979586Y-16328484D02*
X10998634Y-16338008D01*
X10998634Y-16338008D02*
X11008158Y-16347531D01*
X11008158Y-16347531D02*
X11017682Y-16366579D01*
X11017682Y-16366579D02*
X11027205Y-16404674D01*
X11027205Y-16404674D02*
X11027205Y-16452293D01*
X11027205Y-16452293D02*
X11017682Y-16490388D01*
X11017682Y-16490388D02*
X11008158Y-16509436D01*
X11008158Y-16509436D02*
X10998634Y-16518960D01*
X10998634Y-16518960D02*
X10979586Y-16528484D01*
X10979586Y-16528484D02*
X10960539Y-16528484D01*
X10960539Y-16528484D02*
X10941491Y-16518960D01*
X10941491Y-16518960D02*
X10931967Y-16509436D01*
X10931967Y-16509436D02*
X10922444Y-16490388D01*
X10922444Y-16490388D02*
X10912920Y-16452293D01*
X10912920Y-16452293D02*
X10912920Y-16404674D01*
X10912920Y-16404674D02*
X10922444Y-16366579D01*
X10922444Y-16366579D02*
X10931967Y-16347531D01*
X10931967Y-16347531D02*
X10941491Y-16338008D01*
X10941491Y-16338008D02*
X10960539Y-16328484D01*
X11112920Y-16528484D02*
X11112920Y-16395150D01*
X11112920Y-16414198D02*
X11122444Y-16404674D01*
X11122444Y-16404674D02*
X11141491Y-16395150D01*
X11141491Y-16395150D02*
X11170063Y-16395150D01*
X11170063Y-16395150D02*
X11189110Y-16404674D01*
X11189110Y-16404674D02*
X11198634Y-16423722D01*
X11198634Y-16423722D02*
X11198634Y-16528484D01*
X11198634Y-16423722D02*
X11208158Y-16404674D01*
X11208158Y-16404674D02*
X11227205Y-16395150D01*
X11227205Y-16395150D02*
X11255777Y-16395150D01*
X11255777Y-16395150D02*
X11274824Y-16404674D01*
X11274824Y-16404674D02*
X11284348Y-16423722D01*
X11284348Y-16423722D02*
X11284348Y-16528484D01*
X11379586Y-16528484D02*
X11379586Y-16395150D01*
X11379586Y-16414198D02*
X11389110Y-16404674D01*
X11389110Y-16404674D02*
X11408158Y-16395150D01*
X11408158Y-16395150D02*
X11436729Y-16395150D01*
X11436729Y-16395150D02*
X11455777Y-16404674D01*
X11455777Y-16404674D02*
X11465301Y-16423722D01*
X11465301Y-16423722D02*
X11465301Y-16528484D01*
X11465301Y-16423722D02*
X11474824Y-16404674D01*
X11474824Y-16404674D02*
X11493872Y-16395150D01*
X11493872Y-16395150D02*
X11522443Y-16395150D01*
X11522443Y-16395150D02*
X11541491Y-16404674D01*
X11541491Y-16404674D02*
X11551015Y-16423722D01*
X11551015Y-16423722D02*
X11551015Y-16528484D01*
X11941491Y-16318960D02*
X11770063Y-16576103D01*
X12198634Y-16328484D02*
X12217682Y-16328484D01*
X12217682Y-16328484D02*
X12236729Y-16338008D01*
X12236729Y-16338008D02*
X12246253Y-16347531D01*
X12246253Y-16347531D02*
X12255777Y-16366579D01*
X12255777Y-16366579D02*
X12265301Y-16404674D01*
X12265301Y-16404674D02*
X12265301Y-16452293D01*
X12265301Y-16452293D02*
X12255777Y-16490388D01*
X12255777Y-16490388D02*
X12246253Y-16509436D01*
X12246253Y-16509436D02*
X12236729Y-16518960D01*
X12236729Y-16518960D02*
X12217682Y-16528484D01*
X12217682Y-16528484D02*
X12198634Y-16528484D01*
X12198634Y-16528484D02*
X12179586Y-16518960D01*
X12179586Y-16518960D02*
X12170063Y-16509436D01*
X12170063Y-16509436D02*
X12160539Y-16490388D01*
X12160539Y-16490388D02*
X12151015Y-16452293D01*
X12151015Y-16452293D02*
X12151015Y-16404674D01*
X12151015Y-16404674D02*
X12160539Y-16366579D01*
X12160539Y-16366579D02*
X12170063Y-16347531D01*
X12170063Y-16347531D02*
X12179586Y-16338008D01*
X12179586Y-16338008D02*
X12198634Y-16328484D01*
X12351015Y-16509436D02*
X12360539Y-16518960D01*
X12360539Y-16518960D02*
X12351015Y-16528484D01*
X12351015Y-16528484D02*
X12341491Y-16518960D01*
X12341491Y-16518960D02*
X12351015Y-16509436D01*
X12351015Y-16509436D02*
X12351015Y-16528484D01*
X12484348Y-16328484D02*
X12503396Y-16328484D01*
X12503396Y-16328484D02*
X12522444Y-16338008D01*
X12522444Y-16338008D02*
X12531967Y-16347531D01*
X12531967Y-16347531D02*
X12541491Y-16366579D01*
X12541491Y-16366579D02*
X12551015Y-16404674D01*
X12551015Y-16404674D02*
X12551015Y-16452293D01*
X12551015Y-16452293D02*
X12541491Y-16490388D01*
X12541491Y-16490388D02*
X12531967Y-16509436D01*
X12531967Y-16509436D02*
X12522444Y-16518960D01*
X12522444Y-16518960D02*
X12503396Y-16528484D01*
X12503396Y-16528484D02*
X12484348Y-16528484D01*
X12484348Y-16528484D02*
X12465301Y-16518960D01*
X12465301Y-16518960D02*
X12455777Y-16509436D01*
X12455777Y-16509436D02*
X12446253Y-16490388D01*
X12446253Y-16490388D02*
X12436729Y-16452293D01*
X12436729Y-16452293D02*
X12436729Y-16404674D01*
X12436729Y-16404674D02*
X12446253Y-16366579D01*
X12446253Y-16366579D02*
X12455777Y-16347531D01*
X12455777Y-16347531D02*
X12465301Y-16338008D01*
X12465301Y-16338008D02*
X12484348Y-16328484D01*
X12617682Y-16328484D02*
X12741491Y-16328484D01*
X12741491Y-16328484D02*
X12674825Y-16404674D01*
X12674825Y-16404674D02*
X12703396Y-16404674D01*
X12703396Y-16404674D02*
X12722444Y-16414198D01*
X12722444Y-16414198D02*
X12731967Y-16423722D01*
X12731967Y-16423722D02*
X12741491Y-16442769D01*
X12741491Y-16442769D02*
X12741491Y-16490388D01*
X12741491Y-16490388D02*
X12731967Y-16509436D01*
X12731967Y-16509436D02*
X12722444Y-16518960D01*
X12722444Y-16518960D02*
X12703396Y-16528484D01*
X12703396Y-16528484D02*
X12646253Y-16528484D01*
X12646253Y-16528484D02*
X12627206Y-16518960D01*
X12627206Y-16518960D02*
X12617682Y-16509436D01*
X12836729Y-16528484D02*
X12874825Y-16528484D01*
X12874825Y-16528484D02*
X12893872Y-16518960D01*
X12893872Y-16518960D02*
X12903396Y-16509436D01*
X12903396Y-16509436D02*
X12922444Y-16480865D01*
X12922444Y-16480865D02*
X12931967Y-16442769D01*
X12931967Y-16442769D02*
X12931967Y-16366579D01*
X12931967Y-16366579D02*
X12922444Y-16347531D01*
X12922444Y-16347531D02*
X12912920Y-16338008D01*
X12912920Y-16338008D02*
X12893872Y-16328484D01*
X12893872Y-16328484D02*
X12855777Y-16328484D01*
X12855777Y-16328484D02*
X12836729Y-16338008D01*
X12836729Y-16338008D02*
X12827206Y-16347531D01*
X12827206Y-16347531D02*
X12817682Y-16366579D01*
X12817682Y-16366579D02*
X12817682Y-16414198D01*
X12817682Y-16414198D02*
X12827206Y-16433246D01*
X12827206Y-16433246D02*
X12836729Y-16442769D01*
X12836729Y-16442769D02*
X12855777Y-16452293D01*
X12855777Y-16452293D02*
X12893872Y-16452293D01*
X12893872Y-16452293D02*
X12912920Y-16442769D01*
X12912920Y-16442769D02*
X12922444Y-16433246D01*
X12922444Y-16433246D02*
X12931967Y-16414198D01*
X13103396Y-16395150D02*
X13103396Y-16528484D01*
X13055777Y-16318960D02*
X13008158Y-16461817D01*
X13008158Y-16461817D02*
X13131967Y-16461817D01*
X13198634Y-16328484D02*
X13198634Y-16366579D01*
X13274825Y-16328484D02*
X13274825Y-16366579D01*
X13570063Y-16604674D02*
X13560539Y-16595150D01*
X13560539Y-16595150D02*
X13541491Y-16566579D01*
X13541491Y-16566579D02*
X13531968Y-16547531D01*
X13531968Y-16547531D02*
X13522444Y-16518960D01*
X13522444Y-16518960D02*
X13512920Y-16471341D01*
X13512920Y-16471341D02*
X13512920Y-16433246D01*
X13512920Y-16433246D02*
X13522444Y-16385627D01*
X13522444Y-16385627D02*
X13531968Y-16357055D01*
X13531968Y-16357055D02*
X13541491Y-16338008D01*
X13541491Y-16338008D02*
X13560539Y-16309436D01*
X13560539Y-16309436D02*
X13570063Y-16299912D01*
X13636729Y-16347531D02*
X13646253Y-16338008D01*
X13646253Y-16338008D02*
X13665301Y-16328484D01*
X13665301Y-16328484D02*
X13712920Y-16328484D01*
X13712920Y-16328484D02*
X13731968Y-16338008D01*
X13731968Y-16338008D02*
X13741491Y-16347531D01*
X13741491Y-16347531D02*
X13751015Y-16366579D01*
X13751015Y-16366579D02*
X13751015Y-16385627D01*
X13751015Y-16385627D02*
X13741491Y-16414198D01*
X13741491Y-16414198D02*
X13627206Y-16528484D01*
X13627206Y-16528484D02*
X13751015Y-16528484D01*
X13922444Y-16328484D02*
X13884348Y-16328484D01*
X13884348Y-16328484D02*
X13865301Y-16338008D01*
X13865301Y-16338008D02*
X13855777Y-16347531D01*
X13855777Y-16347531D02*
X13836729Y-16376103D01*
X13836729Y-16376103D02*
X13827206Y-16414198D01*
X13827206Y-16414198D02*
X13827206Y-16490388D01*
X13827206Y-16490388D02*
X13836729Y-16509436D01*
X13836729Y-16509436D02*
X13846253Y-16518960D01*
X13846253Y-16518960D02*
X13865301Y-16528484D01*
X13865301Y-16528484D02*
X13903396Y-16528484D01*
X13903396Y-16528484D02*
X13922444Y-16518960D01*
X13922444Y-16518960D02*
X13931968Y-16509436D01*
X13931968Y-16509436D02*
X13941491Y-16490388D01*
X13941491Y-16490388D02*
X13941491Y-16442769D01*
X13941491Y-16442769D02*
X13931968Y-16423722D01*
X13931968Y-16423722D02*
X13922444Y-16414198D01*
X13922444Y-16414198D02*
X13903396Y-16404674D01*
X13903396Y-16404674D02*
X13865301Y-16404674D01*
X13865301Y-16404674D02*
X13846253Y-16414198D01*
X13846253Y-16414198D02*
X13836729Y-16423722D01*
X13836729Y-16423722D02*
X13827206Y-16442769D01*
X14179587Y-16528484D02*
X14179587Y-16328484D01*
X14265301Y-16528484D02*
X14265301Y-16423722D01*
X14265301Y-16423722D02*
X14255777Y-16404674D01*
X14255777Y-16404674D02*
X14236730Y-16395150D01*
X14236730Y-16395150D02*
X14208158Y-16395150D01*
X14208158Y-16395150D02*
X14189110Y-16404674D01*
X14189110Y-16404674D02*
X14179587Y-16414198D01*
X14389110Y-16528484D02*
X14370063Y-16518960D01*
X14370063Y-16518960D02*
X14360539Y-16509436D01*
X14360539Y-16509436D02*
X14351015Y-16490388D01*
X14351015Y-16490388D02*
X14351015Y-16433246D01*
X14351015Y-16433246D02*
X14360539Y-16414198D01*
X14360539Y-16414198D02*
X14370063Y-16404674D01*
X14370063Y-16404674D02*
X14389110Y-16395150D01*
X14389110Y-16395150D02*
X14417682Y-16395150D01*
X14417682Y-16395150D02*
X14436730Y-16404674D01*
X14436730Y-16404674D02*
X14446253Y-16414198D01*
X14446253Y-16414198D02*
X14455777Y-16433246D01*
X14455777Y-16433246D02*
X14455777Y-16490388D01*
X14455777Y-16490388D02*
X14446253Y-16509436D01*
X14446253Y-16509436D02*
X14436730Y-16518960D01*
X14436730Y-16518960D02*
X14417682Y-16528484D01*
X14417682Y-16528484D02*
X14389110Y-16528484D01*
X14570063Y-16528484D02*
X14551015Y-16518960D01*
X14551015Y-16518960D02*
X14541491Y-16499912D01*
X14541491Y-16499912D02*
X14541491Y-16328484D01*
X14722444Y-16518960D02*
X14703396Y-16528484D01*
X14703396Y-16528484D02*
X14665301Y-16528484D01*
X14665301Y-16528484D02*
X14646253Y-16518960D01*
X14646253Y-16518960D02*
X14636730Y-16499912D01*
X14636730Y-16499912D02*
X14636730Y-16423722D01*
X14636730Y-16423722D02*
X14646253Y-16404674D01*
X14646253Y-16404674D02*
X14665301Y-16395150D01*
X14665301Y-16395150D02*
X14703396Y-16395150D01*
X14703396Y-16395150D02*
X14722444Y-16404674D01*
X14722444Y-16404674D02*
X14731968Y-16423722D01*
X14731968Y-16423722D02*
X14731968Y-16442769D01*
X14731968Y-16442769D02*
X14636730Y-16461817D01*
X14808158Y-16518960D02*
X14827206Y-16528484D01*
X14827206Y-16528484D02*
X14865301Y-16528484D01*
X14865301Y-16528484D02*
X14884349Y-16518960D01*
X14884349Y-16518960D02*
X14893872Y-16499912D01*
X14893872Y-16499912D02*
X14893872Y-16490388D01*
X14893872Y-16490388D02*
X14884349Y-16471341D01*
X14884349Y-16471341D02*
X14865301Y-16461817D01*
X14865301Y-16461817D02*
X14836730Y-16461817D01*
X14836730Y-16461817D02*
X14817682Y-16452293D01*
X14817682Y-16452293D02*
X14808158Y-16433246D01*
X14808158Y-16433246D02*
X14808158Y-16423722D01*
X14808158Y-16423722D02*
X14817682Y-16404674D01*
X14817682Y-16404674D02*
X14836730Y-16395150D01*
X14836730Y-16395150D02*
X14865301Y-16395150D01*
X14865301Y-16395150D02*
X14884349Y-16404674D01*
X15131968Y-16452293D02*
X15284349Y-16452293D01*
X15208158Y-16528484D02*
X15208158Y-16376103D01*
X15636730Y-16528484D02*
X15522444Y-16528484D01*
X15579587Y-16528484D02*
X15579587Y-16328484D01*
X15579587Y-16328484D02*
X15560539Y-16357055D01*
X15560539Y-16357055D02*
X15541492Y-16376103D01*
X15541492Y-16376103D02*
X15522444Y-16385627D01*
X15808158Y-16328484D02*
X15770063Y-16328484D01*
X15770063Y-16328484D02*
X15751015Y-16338008D01*
X15751015Y-16338008D02*
X15741492Y-16347531D01*
X15741492Y-16347531D02*
X15722444Y-16376103D01*
X15722444Y-16376103D02*
X15712920Y-16414198D01*
X15712920Y-16414198D02*
X15712920Y-16490388D01*
X15712920Y-16490388D02*
X15722444Y-16509436D01*
X15722444Y-16509436D02*
X15731968Y-16518960D01*
X15731968Y-16518960D02*
X15751015Y-16528484D01*
X15751015Y-16528484D02*
X15789111Y-16528484D01*
X15789111Y-16528484D02*
X15808158Y-16518960D01*
X15808158Y-16518960D02*
X15817682Y-16509436D01*
X15817682Y-16509436D02*
X15827206Y-16490388D01*
X15827206Y-16490388D02*
X15827206Y-16442769D01*
X15827206Y-16442769D02*
X15817682Y-16423722D01*
X15817682Y-16423722D02*
X15808158Y-16414198D01*
X15808158Y-16414198D02*
X15789111Y-16404674D01*
X15789111Y-16404674D02*
X15751015Y-16404674D01*
X15751015Y-16404674D02*
X15731968Y-16414198D01*
X15731968Y-16414198D02*
X15722444Y-16423722D01*
X15722444Y-16423722D02*
X15712920Y-16442769D01*
X16055777Y-16518960D02*
X16074825Y-16528484D01*
X16074825Y-16528484D02*
X16112920Y-16528484D01*
X16112920Y-16528484D02*
X16131968Y-16518960D01*
X16131968Y-16518960D02*
X16141492Y-16499912D01*
X16141492Y-16499912D02*
X16141492Y-16490388D01*
X16141492Y-16490388D02*
X16131968Y-16471341D01*
X16131968Y-16471341D02*
X16112920Y-16461817D01*
X16112920Y-16461817D02*
X16084349Y-16461817D01*
X16084349Y-16461817D02*
X16065301Y-16452293D01*
X16065301Y-16452293D02*
X16055777Y-16433246D01*
X16055777Y-16433246D02*
X16055777Y-16423722D01*
X16055777Y-16423722D02*
X16065301Y-16404674D01*
X16065301Y-16404674D02*
X16084349Y-16395150D01*
X16084349Y-16395150D02*
X16112920Y-16395150D01*
X16112920Y-16395150D02*
X16131968Y-16404674D01*
X16255777Y-16528484D02*
X16236730Y-16518960D01*
X16236730Y-16518960D02*
X16227206Y-16499912D01*
X16227206Y-16499912D02*
X16227206Y-16328484D01*
X16360539Y-16528484D02*
X16341492Y-16518960D01*
X16341492Y-16518960D02*
X16331968Y-16509436D01*
X16331968Y-16509436D02*
X16322444Y-16490388D01*
X16322444Y-16490388D02*
X16322444Y-16433246D01*
X16322444Y-16433246D02*
X16331968Y-16414198D01*
X16331968Y-16414198D02*
X16341492Y-16404674D01*
X16341492Y-16404674D02*
X16360539Y-16395150D01*
X16360539Y-16395150D02*
X16389111Y-16395150D01*
X16389111Y-16395150D02*
X16408158Y-16404674D01*
X16408158Y-16404674D02*
X16417682Y-16414198D01*
X16417682Y-16414198D02*
X16427206Y-16433246D01*
X16427206Y-16433246D02*
X16427206Y-16490388D01*
X16427206Y-16490388D02*
X16417682Y-16509436D01*
X16417682Y-16509436D02*
X16408158Y-16518960D01*
X16408158Y-16518960D02*
X16389111Y-16528484D01*
X16389111Y-16528484D02*
X16360539Y-16528484D01*
X16484349Y-16395150D02*
X16560539Y-16395150D01*
X16512920Y-16328484D02*
X16512920Y-16499912D01*
X16512920Y-16499912D02*
X16522444Y-16518960D01*
X16522444Y-16518960D02*
X16541492Y-16528484D01*
X16541492Y-16528484D02*
X16560539Y-16528484D01*
X16617682Y-16518960D02*
X16636730Y-16528484D01*
X16636730Y-16528484D02*
X16674825Y-16528484D01*
X16674825Y-16528484D02*
X16693873Y-16518960D01*
X16693873Y-16518960D02*
X16703396Y-16499912D01*
X16703396Y-16499912D02*
X16703396Y-16490388D01*
X16703396Y-16490388D02*
X16693873Y-16471341D01*
X16693873Y-16471341D02*
X16674825Y-16461817D01*
X16674825Y-16461817D02*
X16646254Y-16461817D01*
X16646254Y-16461817D02*
X16627206Y-16452293D01*
X16627206Y-16452293D02*
X16617682Y-16433246D01*
X16617682Y-16433246D02*
X16617682Y-16423722D01*
X16617682Y-16423722D02*
X16627206Y-16404674D01*
X16627206Y-16404674D02*
X16646254Y-16395150D01*
X16646254Y-16395150D02*
X16674825Y-16395150D01*
X16674825Y-16395150D02*
X16693873Y-16404674D01*
X16770063Y-16604674D02*
X16779587Y-16595150D01*
X16779587Y-16595150D02*
X16798635Y-16566579D01*
X16798635Y-16566579D02*
X16808158Y-16547531D01*
X16808158Y-16547531D02*
X16817682Y-16518960D01*
X16817682Y-16518960D02*
X16827206Y-16471341D01*
X16827206Y-16471341D02*
X16827206Y-16433246D01*
X16827206Y-16433246D02*
X16817682Y-16385627D01*
X16817682Y-16385627D02*
X16808158Y-16357055D01*
X16808158Y-16357055D02*
X16798635Y-16338008D01*
X16798635Y-16338008D02*
X16779587Y-16309436D01*
X16779587Y-16309436D02*
X16770063Y-16299912D01*
D12*
X9937850Y-16758150D02*
X9995000Y-16701000D01*
X9937850Y-16643850D01*
X9880700Y-16701000D01*
X9937850Y-16758150D01*
D11*
X10360539Y-16792484D02*
X10246253Y-16792484D01*
X10303396Y-16792484D02*
X10303396Y-16592484D01*
X10303396Y-16592484D02*
X10284348Y-16621055D01*
X10284348Y-16621055D02*
X10265301Y-16640103D01*
X10265301Y-16640103D02*
X10246253Y-16649627D01*
X10446253Y-16773436D02*
X10455777Y-16782960D01*
X10455777Y-16782960D02*
X10446253Y-16792484D01*
X10446253Y-16792484D02*
X10436729Y-16782960D01*
X10436729Y-16782960D02*
X10446253Y-16773436D01*
X10446253Y-16773436D02*
X10446253Y-16792484D01*
X10646253Y-16792484D02*
X10531967Y-16792484D01*
X10589110Y-16792484D02*
X10589110Y-16592484D01*
X10589110Y-16592484D02*
X10570063Y-16621055D01*
X10570063Y-16621055D02*
X10551015Y-16640103D01*
X10551015Y-16640103D02*
X10531967Y-16649627D01*
X10817682Y-16659150D02*
X10817682Y-16792484D01*
X10770063Y-16582960D02*
X10722444Y-16725817D01*
X10722444Y-16725817D02*
X10846253Y-16725817D01*
X10903396Y-16592484D02*
X11027205Y-16592484D01*
X11027205Y-16592484D02*
X10960539Y-16668674D01*
X10960539Y-16668674D02*
X10989110Y-16668674D01*
X10989110Y-16668674D02*
X11008158Y-16678198D01*
X11008158Y-16678198D02*
X11017682Y-16687722D01*
X11017682Y-16687722D02*
X11027205Y-16706769D01*
X11027205Y-16706769D02*
X11027205Y-16754388D01*
X11027205Y-16754388D02*
X11017682Y-16773436D01*
X11017682Y-16773436D02*
X11008158Y-16782960D01*
X11008158Y-16782960D02*
X10989110Y-16792484D01*
X10989110Y-16792484D02*
X10931967Y-16792484D01*
X10931967Y-16792484D02*
X10912920Y-16782960D01*
X10912920Y-16782960D02*
X10903396Y-16773436D01*
X11112920Y-16792484D02*
X11112920Y-16659150D01*
X11112920Y-16678198D02*
X11122444Y-16668674D01*
X11122444Y-16668674D02*
X11141491Y-16659150D01*
X11141491Y-16659150D02*
X11170063Y-16659150D01*
X11170063Y-16659150D02*
X11189110Y-16668674D01*
X11189110Y-16668674D02*
X11198634Y-16687722D01*
X11198634Y-16687722D02*
X11198634Y-16792484D01*
X11198634Y-16687722D02*
X11208158Y-16668674D01*
X11208158Y-16668674D02*
X11227205Y-16659150D01*
X11227205Y-16659150D02*
X11255777Y-16659150D01*
X11255777Y-16659150D02*
X11274824Y-16668674D01*
X11274824Y-16668674D02*
X11284348Y-16687722D01*
X11284348Y-16687722D02*
X11284348Y-16792484D01*
X11379586Y-16792484D02*
X11379586Y-16659150D01*
X11379586Y-16678198D02*
X11389110Y-16668674D01*
X11389110Y-16668674D02*
X11408158Y-16659150D01*
X11408158Y-16659150D02*
X11436729Y-16659150D01*
X11436729Y-16659150D02*
X11455777Y-16668674D01*
X11455777Y-16668674D02*
X11465301Y-16687722D01*
X11465301Y-16687722D02*
X11465301Y-16792484D01*
X11465301Y-16687722D02*
X11474824Y-16668674D01*
X11474824Y-16668674D02*
X11493872Y-16659150D01*
X11493872Y-16659150D02*
X11522443Y-16659150D01*
X11522443Y-16659150D02*
X11541491Y-16668674D01*
X11541491Y-16668674D02*
X11551015Y-16687722D01*
X11551015Y-16687722D02*
X11551015Y-16792484D01*
X11941491Y-16582960D02*
X11770063Y-16840103D01*
X12198634Y-16592484D02*
X12217682Y-16592484D01*
X12217682Y-16592484D02*
X12236729Y-16602008D01*
X12236729Y-16602008D02*
X12246253Y-16611531D01*
X12246253Y-16611531D02*
X12255777Y-16630579D01*
X12255777Y-16630579D02*
X12265301Y-16668674D01*
X12265301Y-16668674D02*
X12265301Y-16716293D01*
X12265301Y-16716293D02*
X12255777Y-16754388D01*
X12255777Y-16754388D02*
X12246253Y-16773436D01*
X12246253Y-16773436D02*
X12236729Y-16782960D01*
X12236729Y-16782960D02*
X12217682Y-16792484D01*
X12217682Y-16792484D02*
X12198634Y-16792484D01*
X12198634Y-16792484D02*
X12179586Y-16782960D01*
X12179586Y-16782960D02*
X12170063Y-16773436D01*
X12170063Y-16773436D02*
X12160539Y-16754388D01*
X12160539Y-16754388D02*
X12151015Y-16716293D01*
X12151015Y-16716293D02*
X12151015Y-16668674D01*
X12151015Y-16668674D02*
X12160539Y-16630579D01*
X12160539Y-16630579D02*
X12170063Y-16611531D01*
X12170063Y-16611531D02*
X12179586Y-16602008D01*
X12179586Y-16602008D02*
X12198634Y-16592484D01*
X12351015Y-16773436D02*
X12360539Y-16782960D01*
X12360539Y-16782960D02*
X12351015Y-16792484D01*
X12351015Y-16792484D02*
X12341491Y-16782960D01*
X12341491Y-16782960D02*
X12351015Y-16773436D01*
X12351015Y-16773436D02*
X12351015Y-16792484D01*
X12484348Y-16592484D02*
X12503396Y-16592484D01*
X12503396Y-16592484D02*
X12522444Y-16602008D01*
X12522444Y-16602008D02*
X12531967Y-16611531D01*
X12531967Y-16611531D02*
X12541491Y-16630579D01*
X12541491Y-16630579D02*
X12551015Y-16668674D01*
X12551015Y-16668674D02*
X12551015Y-16716293D01*
X12551015Y-16716293D02*
X12541491Y-16754388D01*
X12541491Y-16754388D02*
X12531967Y-16773436D01*
X12531967Y-16773436D02*
X12522444Y-16782960D01*
X12522444Y-16782960D02*
X12503396Y-16792484D01*
X12503396Y-16792484D02*
X12484348Y-16792484D01*
X12484348Y-16792484D02*
X12465301Y-16782960D01*
X12465301Y-16782960D02*
X12455777Y-16773436D01*
X12455777Y-16773436D02*
X12446253Y-16754388D01*
X12446253Y-16754388D02*
X12436729Y-16716293D01*
X12436729Y-16716293D02*
X12436729Y-16668674D01*
X12436729Y-16668674D02*
X12446253Y-16630579D01*
X12446253Y-16630579D02*
X12455777Y-16611531D01*
X12455777Y-16611531D02*
X12465301Y-16602008D01*
X12465301Y-16602008D02*
X12484348Y-16592484D01*
X12722444Y-16659150D02*
X12722444Y-16792484D01*
X12674825Y-16582960D02*
X12627206Y-16725817D01*
X12627206Y-16725817D02*
X12751015Y-16725817D01*
X12922444Y-16592484D02*
X12827206Y-16592484D01*
X12827206Y-16592484D02*
X12817682Y-16687722D01*
X12817682Y-16687722D02*
X12827206Y-16678198D01*
X12827206Y-16678198D02*
X12846253Y-16668674D01*
X12846253Y-16668674D02*
X12893872Y-16668674D01*
X12893872Y-16668674D02*
X12912920Y-16678198D01*
X12912920Y-16678198D02*
X12922444Y-16687722D01*
X12922444Y-16687722D02*
X12931967Y-16706769D01*
X12931967Y-16706769D02*
X12931967Y-16754388D01*
X12931967Y-16754388D02*
X12922444Y-16773436D01*
X12922444Y-16773436D02*
X12912920Y-16782960D01*
X12912920Y-16782960D02*
X12893872Y-16792484D01*
X12893872Y-16792484D02*
X12846253Y-16792484D01*
X12846253Y-16792484D02*
X12827206Y-16782960D01*
X12827206Y-16782960D02*
X12817682Y-16773436D01*
X13055777Y-16592484D02*
X13074825Y-16592484D01*
X13074825Y-16592484D02*
X13093872Y-16602008D01*
X13093872Y-16602008D02*
X13103396Y-16611531D01*
X13103396Y-16611531D02*
X13112920Y-16630579D01*
X13112920Y-16630579D02*
X13122444Y-16668674D01*
X13122444Y-16668674D02*
X13122444Y-16716293D01*
X13122444Y-16716293D02*
X13112920Y-16754388D01*
X13112920Y-16754388D02*
X13103396Y-16773436D01*
X13103396Y-16773436D02*
X13093872Y-16782960D01*
X13093872Y-16782960D02*
X13074825Y-16792484D01*
X13074825Y-16792484D02*
X13055777Y-16792484D01*
X13055777Y-16792484D02*
X13036729Y-16782960D01*
X13036729Y-16782960D02*
X13027206Y-16773436D01*
X13027206Y-16773436D02*
X13017682Y-16754388D01*
X13017682Y-16754388D02*
X13008158Y-16716293D01*
X13008158Y-16716293D02*
X13008158Y-16668674D01*
X13008158Y-16668674D02*
X13017682Y-16630579D01*
X13017682Y-16630579D02*
X13027206Y-16611531D01*
X13027206Y-16611531D02*
X13036729Y-16602008D01*
X13036729Y-16602008D02*
X13055777Y-16592484D01*
X13198634Y-16592484D02*
X13198634Y-16630579D01*
X13274825Y-16592484D02*
X13274825Y-16630579D01*
X13570063Y-16868674D02*
X13560539Y-16859150D01*
X13560539Y-16859150D02*
X13541491Y-16830579D01*
X13541491Y-16830579D02*
X13531968Y-16811531D01*
X13531968Y-16811531D02*
X13522444Y-16782960D01*
X13522444Y-16782960D02*
X13512920Y-16735341D01*
X13512920Y-16735341D02*
X13512920Y-16697246D01*
X13512920Y-16697246D02*
X13522444Y-16649627D01*
X13522444Y-16649627D02*
X13531968Y-16621055D01*
X13531968Y-16621055D02*
X13541491Y-16602008D01*
X13541491Y-16602008D02*
X13560539Y-16573436D01*
X13560539Y-16573436D02*
X13570063Y-16563912D01*
X13627206Y-16592484D02*
X13751015Y-16592484D01*
X13751015Y-16592484D02*
X13684348Y-16668674D01*
X13684348Y-16668674D02*
X13712920Y-16668674D01*
X13712920Y-16668674D02*
X13731968Y-16678198D01*
X13731968Y-16678198D02*
X13741491Y-16687722D01*
X13741491Y-16687722D02*
X13751015Y-16706769D01*
X13751015Y-16706769D02*
X13751015Y-16754388D01*
X13751015Y-16754388D02*
X13741491Y-16773436D01*
X13741491Y-16773436D02*
X13731968Y-16782960D01*
X13731968Y-16782960D02*
X13712920Y-16792484D01*
X13712920Y-16792484D02*
X13655777Y-16792484D01*
X13655777Y-16792484D02*
X13636729Y-16782960D01*
X13636729Y-16782960D02*
X13627206Y-16773436D01*
X13989110Y-16792484D02*
X13989110Y-16592484D01*
X14074825Y-16792484D02*
X14074825Y-16687722D01*
X14074825Y-16687722D02*
X14065301Y-16668674D01*
X14065301Y-16668674D02*
X14046253Y-16659150D01*
X14046253Y-16659150D02*
X14017682Y-16659150D01*
X14017682Y-16659150D02*
X13998634Y-16668674D01*
X13998634Y-16668674D02*
X13989110Y-16678198D01*
X14198634Y-16792484D02*
X14179587Y-16782960D01*
X14179587Y-16782960D02*
X14170063Y-16773436D01*
X14170063Y-16773436D02*
X14160539Y-16754388D01*
X14160539Y-16754388D02*
X14160539Y-16697246D01*
X14160539Y-16697246D02*
X14170063Y-16678198D01*
X14170063Y-16678198D02*
X14179587Y-16668674D01*
X14179587Y-16668674D02*
X14198634Y-16659150D01*
X14198634Y-16659150D02*
X14227206Y-16659150D01*
X14227206Y-16659150D02*
X14246253Y-16668674D01*
X14246253Y-16668674D02*
X14255777Y-16678198D01*
X14255777Y-16678198D02*
X14265301Y-16697246D01*
X14265301Y-16697246D02*
X14265301Y-16754388D01*
X14265301Y-16754388D02*
X14255777Y-16773436D01*
X14255777Y-16773436D02*
X14246253Y-16782960D01*
X14246253Y-16782960D02*
X14227206Y-16792484D01*
X14227206Y-16792484D02*
X14198634Y-16792484D01*
X14379587Y-16792484D02*
X14360539Y-16782960D01*
X14360539Y-16782960D02*
X14351015Y-16763912D01*
X14351015Y-16763912D02*
X14351015Y-16592484D01*
X14531968Y-16782960D02*
X14512920Y-16792484D01*
X14512920Y-16792484D02*
X14474825Y-16792484D01*
X14474825Y-16792484D02*
X14455777Y-16782960D01*
X14455777Y-16782960D02*
X14446253Y-16763912D01*
X14446253Y-16763912D02*
X14446253Y-16687722D01*
X14446253Y-16687722D02*
X14455777Y-16668674D01*
X14455777Y-16668674D02*
X14474825Y-16659150D01*
X14474825Y-16659150D02*
X14512920Y-16659150D01*
X14512920Y-16659150D02*
X14531968Y-16668674D01*
X14531968Y-16668674D02*
X14541491Y-16687722D01*
X14541491Y-16687722D02*
X14541491Y-16706769D01*
X14541491Y-16706769D02*
X14446253Y-16725817D01*
X14617682Y-16782960D02*
X14636730Y-16792484D01*
X14636730Y-16792484D02*
X14674825Y-16792484D01*
X14674825Y-16792484D02*
X14693872Y-16782960D01*
X14693872Y-16782960D02*
X14703396Y-16763912D01*
X14703396Y-16763912D02*
X14703396Y-16754388D01*
X14703396Y-16754388D02*
X14693872Y-16735341D01*
X14693872Y-16735341D02*
X14674825Y-16725817D01*
X14674825Y-16725817D02*
X14646253Y-16725817D01*
X14646253Y-16725817D02*
X14627206Y-16716293D01*
X14627206Y-16716293D02*
X14617682Y-16697246D01*
X14617682Y-16697246D02*
X14617682Y-16687722D01*
X14617682Y-16687722D02*
X14627206Y-16668674D01*
X14627206Y-16668674D02*
X14646253Y-16659150D01*
X14646253Y-16659150D02*
X14674825Y-16659150D01*
X14674825Y-16659150D02*
X14693872Y-16668674D01*
X14770063Y-16868674D02*
X14779587Y-16859150D01*
X14779587Y-16859150D02*
X14798634Y-16830579D01*
X14798634Y-16830579D02*
X14808158Y-16811531D01*
X14808158Y-16811531D02*
X14817682Y-16782960D01*
X14817682Y-16782960D02*
X14827206Y-16735341D01*
X14827206Y-16735341D02*
X14827206Y-16697246D01*
X14827206Y-16697246D02*
X14817682Y-16649627D01*
X14817682Y-16649627D02*
X14808158Y-16621055D01*
X14808158Y-16621055D02*
X14798634Y-16602008D01*
X14798634Y-16602008D02*
X14779587Y-16573436D01*
X14779587Y-16573436D02*
X14770063Y-16563912D01*
M02*
