G04 #@! TF.GenerationSoftware,KiCad,Pcbnew,7.0.11-7.0.11~ubuntu22.04.1*
G04 #@! TF.CreationDate,2025-03-19T11:11:56+01:00*
G04 #@! TF.ProjectId,dancebots-pcb,64616e63-6562-46f7-9473-2d7063622e6b,v8.3*
G04 #@! TF.SameCoordinates,Original*
G04 #@! TF.FileFunction,Soldermask,Bot*
G04 #@! TF.FilePolarity,Negative*
%FSLAX46Y46*%
G04 Gerber Fmt 4.6, Leading zero omitted, Abs format (unit mm)*
G04 Created by KiCad (PCBNEW 7.0.11-7.0.11~ubuntu22.04.1) date 2025-03-19 11:11:56*
%MOMM*%
%LPD*%
G01*
G04 APERTURE LIST*
%ADD10C,2.000000*%
%ADD11R,1.700000X1.700000*%
%ADD12C,1.700000*%
%ADD13R,1.800000X1.800000*%
%ADD14C,1.800000*%
%ADD15R,2.000000X2.000000*%
%ADD16C,2.100000*%
%ADD17O,2.000000X1.600000*%
%ADD18O,1.600000X2.000000*%
%ADD19O,1.800000X2.000000*%
%ADD20O,2.000000X1.800000*%
%ADD21O,2.032000X2.540000*%
%ADD22R,1.600000X2.400000*%
%ADD23O,1.600000X2.400000*%
%ADD24R,2.400000X1.600000*%
%ADD25O,2.400000X1.600000*%
%ADD26R,2.000000X3.000000*%
%ADD27O,2.000000X3.000000*%
G04 APERTURE END LIST*
D10*
X101435000Y-102500000D03*
X106515000Y-102500000D03*
D11*
X113500000Y-100500000D03*
D12*
X113500000Y-98500000D03*
D10*
X140500000Y-91460000D03*
X140500000Y-96540000D03*
X113700000Y-125040000D03*
X113700000Y-119960000D03*
X141960000Y-118500000D03*
X147040000Y-118500000D03*
X141485000Y-132625000D03*
X146565000Y-132625000D03*
D13*
X146550000Y-136300000D03*
D14*
X146550000Y-138800000D03*
D10*
X124500000Y-134540000D03*
X124500000Y-129460000D03*
D13*
X115600000Y-93800000D03*
D14*
X113060000Y-93800000D03*
D15*
X103530000Y-92200000D03*
D16*
X106070000Y-92200000D03*
D17*
X106500000Y-98500000D03*
X106500000Y-96500000D03*
X143500000Y-96500000D03*
X143500000Y-98500000D03*
D18*
X147800000Y-142325000D03*
X145800000Y-142325000D03*
D10*
X105000000Y-148270000D03*
X105000000Y-145730000D03*
X109500000Y-148270000D03*
X109500000Y-145730000D03*
X114000000Y-148270000D03*
X114000000Y-145730000D03*
X118500000Y-148270000D03*
X118500000Y-145730000D03*
X123000000Y-148270000D03*
X123000000Y-145730000D03*
X127500000Y-148270000D03*
X127500000Y-145730000D03*
X132000000Y-148270000D03*
X132000000Y-145730000D03*
X136500000Y-148270000D03*
X136500000Y-145730000D03*
D19*
X109500000Y-101600000D03*
X109500000Y-91440000D03*
D20*
X131400000Y-137500000D03*
X141560000Y-137500000D03*
X127900000Y-124450000D03*
X117740000Y-124450000D03*
D10*
X102600000Y-141100000D03*
X105140000Y-141100000D03*
X107680000Y-141100000D03*
X110220000Y-141100000D03*
X112760000Y-141100000D03*
X115300000Y-141100000D03*
X117840000Y-141100000D03*
X120380000Y-141100000D03*
X123950000Y-141100000D03*
X126490000Y-141100000D03*
X129030000Y-141100000D03*
X131570000Y-141100000D03*
X134110000Y-141100000D03*
X136650000Y-141100000D03*
X139190000Y-141100000D03*
X141730000Y-141100000D03*
D21*
X102985000Y-107585000D03*
X105525000Y-107585000D03*
X108065000Y-107585000D03*
D22*
X137500000Y-90675000D03*
D23*
X134960000Y-90675000D03*
X132420000Y-90675000D03*
X129880000Y-90675000D03*
X127340000Y-90675000D03*
X124800000Y-90675000D03*
X122260000Y-90675000D03*
X119720000Y-90675000D03*
X119720000Y-98295000D03*
X122260000Y-98295000D03*
X124800000Y-98295000D03*
X127340000Y-98295000D03*
X129880000Y-98295000D03*
X132420000Y-98295000D03*
X134960000Y-98295000D03*
X137500000Y-98295000D03*
D24*
X102775000Y-113450000D03*
D25*
X102775000Y-115990000D03*
X102775000Y-118530000D03*
X102775000Y-121070000D03*
X102775000Y-123610000D03*
X102775000Y-126150000D03*
X102775000Y-128690000D03*
X102775000Y-131230000D03*
X102775000Y-133770000D03*
X102775000Y-136310000D03*
X110395000Y-136310000D03*
X110395000Y-133770000D03*
X110395000Y-131230000D03*
X110395000Y-128690000D03*
X110395000Y-126150000D03*
X110395000Y-123610000D03*
X110395000Y-121070000D03*
X110395000Y-118530000D03*
X110395000Y-115990000D03*
X110395000Y-113450000D03*
D24*
X140675000Y-121700000D03*
D25*
X140675000Y-124240000D03*
X140675000Y-126780000D03*
X140675000Y-129320000D03*
X148295000Y-129320000D03*
X148295000Y-126780000D03*
X148295000Y-124240000D03*
X148295000Y-121700000D03*
D22*
X121475000Y-128725000D03*
D23*
X118935000Y-128725000D03*
X116395000Y-128725000D03*
X113855000Y-128725000D03*
X113855000Y-136345000D03*
X116395000Y-136345000D03*
X118935000Y-136345000D03*
X121475000Y-136345000D03*
D26*
X117610000Y-120917000D03*
D27*
X120150000Y-120917000D03*
X122690000Y-120917000D03*
X125230000Y-120917000D03*
X127770000Y-120917000D03*
X130310000Y-120917000D03*
X132850000Y-120917000D03*
X135390000Y-120917000D03*
X135390000Y-102883000D03*
X132850000Y-102883000D03*
X130310000Y-102883000D03*
X127770000Y-102883000D03*
X125230000Y-102883000D03*
X122690000Y-102883000D03*
X120150000Y-102883000D03*
X117610000Y-102883000D03*
D19*
X134200000Y-134300000D03*
X134200000Y-124140000D03*
X137500000Y-134300000D03*
X137500000Y-124140000D03*
X127625000Y-127425000D03*
X127625000Y-137585000D03*
X130900000Y-134300000D03*
X130900000Y-124140000D03*
D15*
X142250000Y-110500000D03*
D10*
X148750000Y-110500000D03*
X142250000Y-115000000D03*
X148750000Y-115000000D03*
D15*
X142250000Y-103250000D03*
D10*
X148750000Y-103250000D03*
X142250000Y-107750000D03*
X148750000Y-107750000D03*
M02*
