G04 #@! TF.GenerationSoftware,KiCad,Pcbnew,7.0.11-7.0.11~ubuntu22.04.1*
G04 #@! TF.CreationDate,2025-03-19T11:11:55+01:00*
G04 #@! TF.ProjectId,dancebots-pcb,64616e63-6562-46f7-9473-2d7063622e6b,v8.3*
G04 #@! TF.SameCoordinates,Original*
G04 #@! TF.FileFunction,Copper,L1,Top*
G04 #@! TF.FilePolarity,Positive*
%FSLAX46Y46*%
G04 Gerber Fmt 4.6, Leading zero omitted, Abs format (unit mm)*
G04 Created by KiCad (PCBNEW 7.0.11-7.0.11~ubuntu22.04.1) date 2025-03-19 11:11:55*
%MOMM*%
%LPD*%
G01*
G04 APERTURE LIST*
G04 #@! TA.AperFunction,ComponentPad*
%ADD10C,2.000000*%
G04 #@! TD*
G04 #@! TA.AperFunction,ComponentPad*
%ADD11R,1.700000X1.700000*%
G04 #@! TD*
G04 #@! TA.AperFunction,ComponentPad*
%ADD12C,1.700000*%
G04 #@! TD*
G04 #@! TA.AperFunction,ComponentPad*
%ADD13R,1.800000X1.800000*%
G04 #@! TD*
G04 #@! TA.AperFunction,ComponentPad*
%ADD14C,1.800000*%
G04 #@! TD*
G04 #@! TA.AperFunction,ComponentPad*
%ADD15R,2.000000X2.000000*%
G04 #@! TD*
G04 #@! TA.AperFunction,ComponentPad*
%ADD16C,2.100000*%
G04 #@! TD*
G04 #@! TA.AperFunction,ComponentPad*
%ADD17O,2.000000X1.600000*%
G04 #@! TD*
G04 #@! TA.AperFunction,ComponentPad*
%ADD18O,1.600000X2.000000*%
G04 #@! TD*
G04 #@! TA.AperFunction,ComponentPad*
%ADD19O,1.800000X2.000000*%
G04 #@! TD*
G04 #@! TA.AperFunction,ComponentPad*
%ADD20O,2.000000X1.800000*%
G04 #@! TD*
G04 #@! TA.AperFunction,ComponentPad*
%ADD21O,2.032000X2.540000*%
G04 #@! TD*
G04 #@! TA.AperFunction,ComponentPad*
%ADD22R,1.600000X2.400000*%
G04 #@! TD*
G04 #@! TA.AperFunction,ComponentPad*
%ADD23O,1.600000X2.400000*%
G04 #@! TD*
G04 #@! TA.AperFunction,ComponentPad*
%ADD24R,2.400000X1.600000*%
G04 #@! TD*
G04 #@! TA.AperFunction,ComponentPad*
%ADD25O,2.400000X1.600000*%
G04 #@! TD*
G04 #@! TA.AperFunction,ComponentPad*
%ADD26R,2.000000X3.000000*%
G04 #@! TD*
G04 #@! TA.AperFunction,ComponentPad*
%ADD27O,2.000000X3.000000*%
G04 #@! TD*
G04 #@! TA.AperFunction,ViaPad*
%ADD28C,0.560000*%
G04 #@! TD*
G04 #@! TA.AperFunction,Conductor*
%ADD29C,1.000000*%
G04 #@! TD*
G04 #@! TA.AperFunction,Conductor*
%ADD30C,0.500000*%
G04 #@! TD*
G04 #@! TA.AperFunction,Conductor*
%ADD31C,0.127000*%
G04 #@! TD*
G04 APERTURE END LIST*
D10*
X101435000Y-102500000D03*
X106515000Y-102500000D03*
D11*
X113500000Y-100500000D03*
D12*
X113500000Y-98500000D03*
D10*
X140500000Y-91460000D03*
X140500000Y-96540000D03*
X113700000Y-125040000D03*
X113700000Y-119960000D03*
X141960000Y-118500000D03*
X147040000Y-118500000D03*
X141485000Y-132625000D03*
X146565000Y-132625000D03*
D13*
X146550000Y-136300000D03*
D14*
X146550000Y-138800000D03*
D10*
X124500000Y-134540000D03*
X124500000Y-129460000D03*
D13*
X115600000Y-93800000D03*
D14*
X113060000Y-93800000D03*
D15*
X103530000Y-92200000D03*
D16*
X106070000Y-92200000D03*
D17*
X106500000Y-98500000D03*
X106500000Y-96500000D03*
X143500000Y-96500000D03*
X143500000Y-98500000D03*
D18*
X147800000Y-142325000D03*
X145800000Y-142325000D03*
D10*
X105000000Y-148270000D03*
X105000000Y-145730000D03*
X109500000Y-148270000D03*
X109500000Y-145730000D03*
X114000000Y-148270000D03*
X114000000Y-145730000D03*
X118500000Y-148270000D03*
X118500000Y-145730000D03*
X123000000Y-148270000D03*
X123000000Y-145730000D03*
X127500000Y-148270000D03*
X127500000Y-145730000D03*
X132000000Y-148270000D03*
X132000000Y-145730000D03*
X136500000Y-148270000D03*
X136500000Y-145730000D03*
D19*
X109500000Y-101600000D03*
X109500000Y-91440000D03*
D20*
X131400000Y-137500000D03*
X141560000Y-137500000D03*
X127900000Y-124450000D03*
X117740000Y-124450000D03*
D10*
X102600000Y-141100000D03*
X105140000Y-141100000D03*
X107680000Y-141100000D03*
X110220000Y-141100000D03*
X112760000Y-141100000D03*
X115300000Y-141100000D03*
X117840000Y-141100000D03*
X120380000Y-141100000D03*
X123950000Y-141100000D03*
X126490000Y-141100000D03*
X129030000Y-141100000D03*
X131570000Y-141100000D03*
X134110000Y-141100000D03*
X136650000Y-141100000D03*
X139190000Y-141100000D03*
X141730000Y-141100000D03*
D21*
X102985000Y-107585000D03*
X105525000Y-107585000D03*
X108065000Y-107585000D03*
D22*
X137500000Y-90675000D03*
D23*
X134960000Y-90675000D03*
X132420000Y-90675000D03*
X129880000Y-90675000D03*
X127340000Y-90675000D03*
X124800000Y-90675000D03*
X122260000Y-90675000D03*
X119720000Y-90675000D03*
X119720000Y-98295000D03*
X122260000Y-98295000D03*
X124800000Y-98295000D03*
X127340000Y-98295000D03*
X129880000Y-98295000D03*
X132420000Y-98295000D03*
X134960000Y-98295000D03*
X137500000Y-98295000D03*
D24*
X102775000Y-113450000D03*
D25*
X102775000Y-115990000D03*
X102775000Y-118530000D03*
X102775000Y-121070000D03*
X102775000Y-123610000D03*
X102775000Y-126150000D03*
X102775000Y-128690000D03*
X102775000Y-131230000D03*
X102775000Y-133770000D03*
X102775000Y-136310000D03*
X110395000Y-136310000D03*
X110395000Y-133770000D03*
X110395000Y-131230000D03*
X110395000Y-128690000D03*
X110395000Y-126150000D03*
X110395000Y-123610000D03*
X110395000Y-121070000D03*
X110395000Y-118530000D03*
X110395000Y-115990000D03*
X110395000Y-113450000D03*
D24*
X140675000Y-121700000D03*
D25*
X140675000Y-124240000D03*
X140675000Y-126780000D03*
X140675000Y-129320000D03*
X148295000Y-129320000D03*
X148295000Y-126780000D03*
X148295000Y-124240000D03*
X148295000Y-121700000D03*
D22*
X121475000Y-128725000D03*
D23*
X118935000Y-128725000D03*
X116395000Y-128725000D03*
X113855000Y-128725000D03*
X113855000Y-136345000D03*
X116395000Y-136345000D03*
X118935000Y-136345000D03*
X121475000Y-136345000D03*
D26*
X117610000Y-120917000D03*
D27*
X120150000Y-120917000D03*
X122690000Y-120917000D03*
X125230000Y-120917000D03*
X127770000Y-120917000D03*
X130310000Y-120917000D03*
X132850000Y-120917000D03*
X135390000Y-120917000D03*
X135390000Y-102883000D03*
X132850000Y-102883000D03*
X130310000Y-102883000D03*
X127770000Y-102883000D03*
X125230000Y-102883000D03*
X122690000Y-102883000D03*
X120150000Y-102883000D03*
X117610000Y-102883000D03*
D19*
X134200000Y-134300000D03*
X134200000Y-124140000D03*
X137500000Y-134300000D03*
X137500000Y-124140000D03*
X127625000Y-127425000D03*
X127625000Y-137585000D03*
X130900000Y-134300000D03*
X130900000Y-124140000D03*
D15*
X142250000Y-110500000D03*
D10*
X148750000Y-110500000D03*
X142250000Y-115000000D03*
X148750000Y-115000000D03*
D15*
X142250000Y-103250000D03*
D10*
X148750000Y-103250000D03*
X142250000Y-107750000D03*
X148750000Y-107750000D03*
D28*
X116303499Y-97343500D03*
X113910000Y-103940000D03*
X108900000Y-120500000D03*
X108850000Y-117520000D03*
X111920159Y-116630000D03*
D29*
X101435000Y-102500000D02*
X102900000Y-103965000D01*
X112700000Y-89700000D02*
X113800000Y-90800000D01*
X102900000Y-103965000D02*
X102900000Y-107500000D01*
X106030000Y-89700000D02*
X112700000Y-89700000D01*
X103530000Y-92200000D02*
X103530000Y-100405000D01*
X103530000Y-92200000D02*
X106030000Y-89700000D01*
X103530000Y-100405000D02*
X101435000Y-102500000D01*
X113800000Y-90800000D02*
X119595000Y-90800000D01*
D30*
X130400000Y-94500000D02*
X118800000Y-94500000D01*
X102775000Y-123610000D02*
X106565000Y-119820000D01*
X118800000Y-94500000D02*
X116303499Y-96996501D01*
D29*
X147040000Y-118500000D02*
X145340000Y-116800000D01*
D30*
X119940000Y-134540000D02*
X115105000Y-129705000D01*
X116303499Y-96996501D02*
X116303499Y-97343500D01*
X115105000Y-126395000D02*
X115400000Y-126100000D01*
X124500000Y-134540000D02*
X119940000Y-134540000D01*
X132440000Y-96540000D02*
X130400000Y-94500000D01*
D29*
X145340000Y-116800000D02*
X126770000Y-116800000D01*
D30*
X122695000Y-136345000D02*
X121475000Y-136345000D01*
D29*
X110600000Y-100500000D02*
X113500000Y-100500000D01*
D30*
X115400000Y-121660000D02*
X113740000Y-120000000D01*
X112000000Y-125000000D02*
X110850000Y-126150000D01*
X140500000Y-96540000D02*
X132440000Y-96540000D01*
X112000000Y-124545000D02*
X112000000Y-125000000D01*
X124500000Y-134540000D02*
X122695000Y-136345000D01*
D29*
X113910000Y-116817000D02*
X113910000Y-103940000D01*
D30*
X106565000Y-119820000D02*
X113520000Y-119820000D01*
X138705000Y-98295000D02*
X137500000Y-98295000D01*
D29*
X147040000Y-118500000D02*
X146000000Y-119540000D01*
X109500000Y-101600000D02*
X109500000Y-102900000D01*
D30*
X115400000Y-126100000D02*
X115400000Y-121660000D01*
X113700000Y-122845000D02*
X112000000Y-124545000D01*
D29*
X108065000Y-104335000D02*
X108065000Y-107585000D01*
X146000000Y-124900000D02*
X147880000Y-126780000D01*
D30*
X140255000Y-96745000D02*
X138705000Y-98295000D01*
D29*
X109500000Y-102900000D02*
X108065000Y-104335000D01*
X146000000Y-119540000D02*
X146000000Y-124900000D01*
X114600000Y-117507000D02*
X113700000Y-118407000D01*
X126770000Y-116800000D02*
X113910000Y-103940000D01*
D30*
X113700000Y-120000000D02*
X113700000Y-122845000D01*
D29*
X113700000Y-118407000D02*
X113700000Y-120000000D01*
D30*
X115105000Y-129705000D02*
X115105000Y-126395000D01*
D31*
X127545000Y-137585000D02*
X124500000Y-134540000D01*
D29*
X114600000Y-117507000D02*
X113910000Y-116817000D01*
X117610000Y-120517000D02*
X114600000Y-117507000D01*
X109500000Y-101600000D02*
X110600000Y-100500000D01*
D31*
X111860000Y-93800000D02*
X109500000Y-91440000D01*
X113060000Y-93800000D02*
X111860000Y-93800000D01*
D30*
X123545000Y-96645000D02*
X118955000Y-96645000D01*
X113500000Y-96500000D02*
X106500000Y-96500000D01*
X118955000Y-96645000D02*
X116700000Y-98900000D01*
X124800000Y-97900000D02*
X123545000Y-96645000D01*
X116700000Y-98900000D02*
X115900000Y-98900000D01*
X115900000Y-98900000D02*
X113500000Y-96500000D01*
X108939945Y-95539945D02*
X108500000Y-95100000D01*
X116606997Y-98000000D02*
X116000000Y-98000000D01*
X130400000Y-95900000D02*
X118706997Y-95900000D01*
X132420000Y-97920000D02*
X130400000Y-95900000D01*
X104900000Y-96000000D02*
X104900000Y-96900000D01*
X118706997Y-95900000D02*
X116606997Y-98000000D01*
X113539945Y-95539945D02*
X108939945Y-95539945D01*
X104900000Y-96900000D02*
X106500000Y-98500000D01*
X108500000Y-95100000D02*
X105800000Y-95100000D01*
X116000000Y-98000000D02*
X113539945Y-95539945D01*
X105800000Y-95100000D02*
X104900000Y-96000000D01*
X132420000Y-91020000D02*
X135200000Y-93800000D01*
X142767767Y-93800000D02*
X144950000Y-95982233D01*
X144950000Y-97050000D02*
X143500000Y-98500000D01*
X135200000Y-93800000D02*
X142767767Y-93800000D01*
X144950000Y-95982233D02*
X144950000Y-97050000D01*
X126300000Y-92600000D02*
X124800000Y-91100000D01*
X143500000Y-96500000D02*
X141500000Y-94500000D01*
X134700000Y-94500000D02*
X132800000Y-92600000D01*
X141500000Y-94500000D02*
X134700000Y-94500000D01*
X132800000Y-92600000D02*
X126300000Y-92600000D01*
D31*
X133060000Y-122800000D02*
X134200000Y-123940000D01*
X127770000Y-121470000D02*
X129100000Y-122800000D01*
X129100000Y-122800000D02*
X133060000Y-122800000D01*
X122250000Y-124450000D02*
X125230000Y-121470000D01*
X117740000Y-124450000D02*
X122250000Y-124450000D01*
X116395000Y-125795000D02*
X117740000Y-124450000D01*
X116395000Y-128725000D02*
X116395000Y-125795000D01*
X139330000Y-144000000D02*
X138300000Y-144000000D01*
X141730000Y-141600000D02*
X139330000Y-144000000D01*
X138300000Y-144000000D02*
X136570000Y-145730000D01*
X107100000Y-136600000D02*
X107100000Y-122300000D01*
X107100000Y-122300000D02*
X108900000Y-120500000D01*
X102600000Y-141100000D02*
X107100000Y-136600000D01*
X107705000Y-122195000D02*
X108830000Y-121070000D01*
X108830000Y-121070000D02*
X110395000Y-121070000D01*
X107705000Y-141575000D02*
X107705000Y-122195000D01*
X109870000Y-131230000D02*
X108496499Y-132603501D01*
X108496499Y-136836499D02*
X112760000Y-141100000D01*
X108496499Y-132603501D02*
X108496499Y-136836499D01*
X111612005Y-139453501D02*
X116193501Y-139453501D01*
X108750000Y-136591496D02*
X111612005Y-139453501D01*
X116193501Y-139453501D02*
X117840000Y-141100000D01*
X110012500Y-133770000D02*
X108750000Y-135032500D01*
X108750000Y-135032500D02*
X108750000Y-136591496D01*
X123950000Y-141100000D02*
X122403501Y-142646499D01*
X101053501Y-130011499D02*
X102375000Y-128690000D01*
X101905003Y-142646499D02*
X101053501Y-141794997D01*
X101053501Y-141794997D02*
X101053501Y-130011499D01*
X122403501Y-142646499D02*
X101905003Y-142646499D01*
X101307002Y-134792998D02*
X102330000Y-133770000D01*
X101307002Y-141689994D02*
X101307002Y-134792998D01*
X122200000Y-141000000D02*
X122200000Y-141100000D01*
X122200000Y-141100000D02*
X120907002Y-142392998D01*
X120907002Y-142392998D02*
X102010006Y-142392998D01*
X129030000Y-141100000D02*
X127730000Y-139800000D01*
X102010006Y-142392998D02*
X101307002Y-141689994D01*
X123400000Y-139800000D02*
X122200000Y-141000000D01*
X127730000Y-139800000D02*
X123400000Y-139800000D01*
X132210000Y-139200000D02*
X113692500Y-139200000D01*
X113692500Y-139200000D02*
X110802500Y-136310000D01*
X134110000Y-141100000D02*
X132210000Y-139200000D01*
X100800000Y-128600000D02*
X101900000Y-127500000D01*
X101800000Y-142900000D02*
X100800000Y-141900000D01*
X103700000Y-127500000D02*
X104300000Y-128100000D01*
X104300000Y-128100000D02*
X104300000Y-130100000D01*
X101900000Y-127500000D02*
X103700000Y-127500000D01*
X104300000Y-130100000D02*
X103170000Y-131230000D01*
X100800000Y-141900000D02*
X100800000Y-128600000D01*
X139190000Y-141100000D02*
X137390000Y-142900000D01*
X137390000Y-142900000D02*
X101800000Y-142900000D01*
X141600000Y-90100000D02*
X138075000Y-90100000D01*
X112850000Y-103867008D02*
X113467008Y-103250000D01*
X116346500Y-101653500D02*
X117000000Y-101000000D01*
X146400000Y-94900000D02*
X141600000Y-90100000D01*
X145000000Y-101000000D02*
X146400000Y-99600000D01*
X112411245Y-117466500D02*
X112850000Y-117027744D01*
X108919430Y-116900000D02*
X109485930Y-117466500D01*
X103175000Y-115990000D02*
X104085000Y-116900000D01*
X104085000Y-116900000D02*
X108919430Y-116900000D01*
X112850000Y-117027744D02*
X112850000Y-103867008D01*
X116346500Y-102383348D02*
X116346500Y-101653500D01*
X109485930Y-117466500D02*
X112411245Y-117466500D01*
X115479848Y-103250000D02*
X116346500Y-102383348D01*
X113467008Y-103250000D02*
X115479848Y-103250000D01*
X146400000Y-99600000D02*
X146400000Y-94900000D01*
X117000000Y-101000000D02*
X145000000Y-101000000D01*
X117195003Y-99504997D02*
X116236500Y-99504997D01*
X107539244Y-111760756D02*
X101962244Y-111760756D01*
X109700000Y-104400000D02*
X109700000Y-109600000D01*
X114613500Y-101466500D02*
X114440000Y-101640000D01*
X114613500Y-101127997D02*
X114613500Y-101466500D01*
X109700000Y-109600000D02*
X107539244Y-111760756D01*
X101100000Y-112623000D02*
X101100000Y-119795000D01*
X112460000Y-101640000D02*
X109700000Y-104400000D01*
X101100000Y-119795000D02*
X102375000Y-121070000D01*
X119720000Y-98295000D02*
X118405000Y-98295000D01*
X116236500Y-99504997D02*
X114613500Y-101127997D01*
X101962244Y-111760756D02*
X101100000Y-112623000D01*
X114440000Y-101640000D02*
X112460000Y-101640000D01*
X118405000Y-98295000D02*
X117195003Y-99504997D01*
X113215000Y-102885000D02*
X114915000Y-102885000D01*
X112200000Y-117100000D02*
X112400000Y-116900000D01*
X115790503Y-102009497D02*
X115790503Y-101609497D01*
X145800000Y-95500000D02*
X143500000Y-93200000D01*
X114915000Y-102885000D02*
X115790503Y-102009497D01*
X135100000Y-100600000D02*
X135687999Y-100012001D01*
X109558504Y-117100000D02*
X112200000Y-117100000D01*
X136485000Y-93200000D02*
X134960000Y-91675000D01*
X112400000Y-116400000D02*
X112200000Y-116200000D01*
X112200000Y-116200000D02*
X112200000Y-103900000D01*
X135687999Y-100012001D02*
X144687999Y-100012001D01*
X143500000Y-93200000D02*
X136485000Y-93200000D01*
X115790503Y-101609497D02*
X116800000Y-100600000D01*
X105908504Y-113450000D02*
X109558504Y-117100000D01*
X112200000Y-103900000D02*
X113215000Y-102885000D01*
X144687999Y-100012001D02*
X145800000Y-98900000D01*
X112400000Y-116900000D02*
X112400000Y-116400000D01*
X102775000Y-113450000D02*
X105908504Y-113450000D01*
X116800000Y-100600000D02*
X135100000Y-100600000D01*
X145800000Y-98900000D02*
X145800000Y-95500000D01*
X115030000Y-101270000D02*
X116541500Y-99758500D01*
X108931500Y-113009484D02*
X110358507Y-111582477D01*
X108931500Y-114926500D02*
X108931500Y-113009484D01*
X109995000Y-115990000D02*
X108931500Y-114926500D01*
X121196500Y-99758500D02*
X122260000Y-98695000D01*
X110358507Y-111582477D02*
X110358507Y-104665980D01*
X110358507Y-104665980D02*
X112904487Y-102120000D01*
X116541500Y-99758500D02*
X121196500Y-99758500D01*
X112904487Y-102120000D02*
X114590000Y-102120000D01*
X115030000Y-101680000D02*
X115030000Y-101270000D01*
X114590000Y-102120000D02*
X115030000Y-101680000D01*
X114801498Y-102629997D02*
X113111499Y-102629997D01*
X135582995Y-99758500D02*
X135041495Y-100300000D01*
X142000000Y-97800000D02*
X140041500Y-99758500D01*
X141300000Y-95200000D02*
X142000000Y-95900000D01*
X124285000Y-93700000D02*
X131100000Y-93700000D01*
X115537002Y-101480712D02*
X115537002Y-101894493D01*
X139400000Y-95700000D02*
X139900000Y-95200000D01*
X142000000Y-95900000D02*
X142000000Y-97800000D01*
X140041500Y-99758500D02*
X135582995Y-99758500D01*
X135041495Y-100300000D02*
X116717714Y-100300000D01*
X107840000Y-118530000D02*
X108850000Y-117520000D01*
X122260000Y-91675000D02*
X124285000Y-93700000D01*
X102775000Y-118530000D02*
X107840000Y-118530000D01*
X113111499Y-102629997D02*
X111920159Y-103821337D01*
X133100000Y-95700000D02*
X139400000Y-95700000D01*
X131100000Y-93700000D02*
X133100000Y-95700000D01*
X115537002Y-101894493D02*
X114801498Y-102629997D01*
X116717714Y-100300000D02*
X115537002Y-101480712D01*
X139900000Y-95200000D02*
X141300000Y-95200000D01*
X111920159Y-103821337D02*
X111920159Y-116630000D01*
X116612711Y-100046499D02*
X133608501Y-100046499D01*
X113009491Y-102373501D02*
X114699490Y-102373501D01*
X110612008Y-113232992D02*
X110612008Y-104770984D01*
X133608501Y-100046499D02*
X134960000Y-98695000D01*
X115283501Y-101375708D02*
X116612711Y-100046499D01*
X114699490Y-102373501D02*
X115283501Y-101789490D01*
X110612008Y-104770984D02*
X113009491Y-102373501D01*
X115283501Y-101789490D02*
X115283501Y-101375708D01*
X121475000Y-129175000D02*
X129025000Y-136725000D01*
X117700000Y-135700000D02*
X110690000Y-128690000D01*
X129025000Y-138275000D02*
X128400000Y-138900000D01*
X129025000Y-136725000D02*
X129025000Y-138275000D01*
X126000000Y-138300000D02*
X118600000Y-138300000D01*
X118600000Y-138300000D02*
X117700000Y-137400000D01*
X117700000Y-137400000D02*
X117700000Y-135700000D01*
X128400000Y-138900000D02*
X126600000Y-138900000D01*
X126600000Y-138900000D02*
X126000000Y-138300000D01*
X127625000Y-127425000D02*
X126800000Y-126600000D01*
X120700000Y-126600000D02*
X118935000Y-128365000D01*
X129450000Y-124450000D02*
X127900000Y-124450000D01*
X129760000Y-124140000D02*
X129450000Y-124450000D01*
X130900000Y-124140000D02*
X129760000Y-124140000D01*
X127900000Y-125825000D02*
X127900000Y-124450000D01*
X127625000Y-127425000D02*
X127625000Y-126100000D01*
X126800000Y-126600000D02*
X120700000Y-126600000D01*
X127625000Y-126100000D02*
X127900000Y-125825000D01*
X137835000Y-124475000D02*
X140140000Y-126780000D01*
X137500000Y-124140000D02*
X140140000Y-126780000D01*
X140140000Y-126780000D02*
X140675000Y-126780000D01*
X137000000Y-130100000D02*
X140320000Y-126780000D01*
X137835000Y-124335000D02*
X137835000Y-124475000D01*
X140320000Y-126780000D02*
X140675000Y-126780000D01*
X137000000Y-131300000D02*
X137000000Y-130100000D01*
X134200000Y-134100000D02*
X137000000Y-131300000D01*
X139584000Y-103250000D02*
X148750000Y-103250000D01*
X135390000Y-102883000D02*
X139217000Y-102883000D01*
X139217000Y-102883000D02*
X139584000Y-103250000D01*
X137400000Y-110500000D02*
X130310000Y-103410000D01*
X148750000Y-110500000D02*
X137400000Y-110500000D01*
D29*
X141560000Y-137500000D02*
X141560000Y-132700000D01*
X146565000Y-132625000D02*
X146565000Y-136285000D01*
X148295000Y-130895000D02*
X146565000Y-132625000D01*
X148295000Y-129320000D02*
X148295000Y-130895000D01*
X146550000Y-138800000D02*
X147800000Y-140050000D01*
X147800000Y-140050000D02*
X147800000Y-142325000D01*
M02*
