M48
; DRILL file {KiCad 7.0.11-7.0.11~ubuntu22.04.1} date Wed 19 Mar 2025 11:18:55 AM CET
; FORMAT={-:-/ absolute / metric / decimal}
; #@! TF.CreationDate,2025-03-19T11:18:55+01:00
; #@! TF.GenerationSoftware,Kicad,Pcbnew,7.0.11-7.0.11~ubuntu22.04.1
; #@! TF.FileFunction,Plated,1,2,PTH
FMAT,2
METRIC
; #@! TA.AperFunction,Plated,PTH,ViaDrill
T1C0.300
; #@! TA.AperFunction,Plated,PTH,ComponentDrill
T2C0.800
; #@! TA.AperFunction,Plated,PTH,ComponentDrill
T3C0.900
; #@! TA.AperFunction,Plated,PTH,ComponentDrill
T4C1.000
; #@! TA.AperFunction,Plated,PTH,ComponentDrill
T5C1.143
%
G90
G05
T1
X108.85Y-117.52
X108.9Y-120.5
X111.92Y-116.63
X113.91Y-103.94
X116.303Y-97.343
T2
X101.435Y-102.5
X102.6Y-141.1
X102.775Y-113.45
X102.775Y-115.99
X102.775Y-118.53
X102.775Y-121.07
X102.775Y-123.61
X102.775Y-126.15
X102.775Y-128.69
X102.775Y-131.23
X102.775Y-133.77
X102.775Y-136.31
X105.14Y-141.1
X106.5Y-96.5
X106.5Y-98.5
X106.515Y-102.5
X107.68Y-141.1
X109.5Y-91.44
X109.5Y-101.6
X110.22Y-141.1
X110.395Y-113.45
X110.395Y-115.99
X110.395Y-118.53
X110.395Y-121.07
X110.395Y-123.61
X110.395Y-126.15
X110.395Y-128.69
X110.395Y-131.23
X110.395Y-133.77
X110.395Y-136.31
X112.76Y-141.1
X113.5Y-98.5
X113.5Y-100.5
X113.7Y-119.96
X113.7Y-125.04
X113.855Y-128.725
X113.855Y-136.345
X115.3Y-141.1
X116.395Y-128.725
X116.395Y-136.345
X117.74Y-124.45
X117.84Y-141.1
X118.935Y-128.725
X118.935Y-136.345
X119.72Y-90.675
X119.72Y-98.295
X120.38Y-141.1
X121.475Y-128.725
X121.475Y-136.345
X122.26Y-90.675
X122.26Y-98.295
X123.95Y-141.1
X124.5Y-129.46
X124.5Y-134.54
X124.8Y-90.675
X124.8Y-98.295
X126.49Y-141.1
X127.34Y-90.675
X127.34Y-98.295
X127.625Y-127.425
X127.625Y-137.585
X127.9Y-124.45
X129.03Y-141.1
X129.88Y-90.675
X129.88Y-98.295
X130.9Y-124.14
X130.9Y-134.3
X131.4Y-137.5
X131.57Y-141.1
X132.42Y-90.675
X132.42Y-98.295
X134.11Y-141.1
X134.2Y-124.14
X134.2Y-134.3
X134.96Y-90.675
X134.96Y-98.295
X136.65Y-141.1
X137.5Y-90.675
X137.5Y-98.295
X137.5Y-124.14
X137.5Y-134.3
X139.19Y-141.1
X140.5Y-91.46
X140.5Y-96.54
X140.675Y-121.7
X140.675Y-124.24
X140.675Y-126.78
X140.675Y-129.32
X141.485Y-132.625
X141.56Y-137.5
X141.73Y-141.1
X141.96Y-118.5
X143.5Y-96.5
X143.5Y-98.5
X145.8Y-142.325
X146.55Y-136.3
X146.55Y-138.8
X146.565Y-132.625
X147.04Y-118.5
X147.8Y-142.325
X148.295Y-121.7
X148.295Y-124.24
X148.295Y-126.78
X148.295Y-129.32
T3
X113.06Y-93.8
X115.6Y-93.8
T4
X103.53Y-92.2
X105.0Y-145.73
X105.0Y-148.27
X106.07Y-92.2
X109.5Y-145.73
X109.5Y-148.27
X114.0Y-145.73
X114.0Y-148.27
X118.5Y-145.73
X118.5Y-148.27
X123.0Y-145.73
X123.0Y-148.27
X127.5Y-145.73
X127.5Y-148.27
X132.0Y-145.73
X132.0Y-148.27
X136.5Y-145.73
X136.5Y-148.27
X142.25Y-103.25
X142.25Y-107.75
X142.25Y-110.5
X142.25Y-115.0
X148.75Y-103.25
X148.75Y-107.75
X148.75Y-110.5
X148.75Y-115.0
T5
X102.985Y-107.585
X105.525Y-107.585
X108.065Y-107.585
T4
X117.61Y-103.383G85X117.61Y-102.383
G05
X117.61Y-121.417G85X117.61Y-120.417
G05
X120.15Y-103.383G85X120.15Y-102.383
G05
X120.15Y-121.417G85X120.15Y-120.417
G05
X122.69Y-103.383G85X122.69Y-102.383
G05
X122.69Y-121.417G85X122.69Y-120.417
G05
X125.23Y-103.383G85X125.23Y-102.383
G05
X125.23Y-121.417G85X125.23Y-120.417
G05
X127.77Y-103.383G85X127.77Y-102.383
G05
X127.77Y-121.417G85X127.77Y-120.417
G05
X130.31Y-103.383G85X130.31Y-102.383
G05
X130.31Y-121.417G85X130.31Y-120.417
G05
X132.85Y-103.383G85X132.85Y-102.383
G05
X132.85Y-121.417G85X132.85Y-120.417
G05
X135.39Y-103.383G85X135.39Y-102.383
G05
X135.39Y-121.417G85X135.39Y-120.417
G05
M30
