G04 #@! TF.FileFunction,Copper,L2,Bot,Signal*
%FSLAX46Y46*%
G04 Gerber Fmt 4.6, Leading zero omitted, Abs format (unit mm)*
G04 Created by KiCad (PCBNEW 4.0.2+dfsg1-stable) date Mon 02 Okt 2017 19:03:43 CEST*
%MOMM*%
G01*
G04 APERTURE LIST*
%ADD10C,0.100000*%
%ADD11R,2.000000X2.000000*%
%ADD12C,2.100000*%
%ADD13C,2.000000*%
%ADD14C,1.700000*%
%ADD15R,1.700000X1.700000*%
%ADD16R,1.800000X1.800000*%
%ADD17C,1.800000*%
%ADD18O,2.540000X2.032000*%
%ADD19R,1.600000X2.400000*%
%ADD20O,1.600000X2.400000*%
%ADD21C,2.200000*%
%ADD22O,1.800000X2.000000*%
%ADD23O,2.000000X1.800000*%
%ADD24O,2.000000X1.600000*%
%ADD25O,1.600000X2.000000*%
%ADD26C,0.600000*%
%ADD27C,0.250000*%
%ADD28C,0.500000*%
G04 APERTURE END LIST*
D10*
X0Y2500000D02*
G75*
G03X2500000Y0I2500000J0D01*
G01*
X47500000Y0D02*
G75*
G03X50000000Y2500000I0J2500000D01*
G01*
X50000000Y2500000D02*
X50000000Y47500000D01*
X2500000Y0D02*
X47500000Y0D01*
X0Y47500000D02*
X0Y2500000D01*
X50000000Y47500000D02*
G75*
G03X47500000Y50000000I-2500000J0D01*
G01*
X2500000Y50000000D02*
G75*
G03X0Y47500000I0J-2500000D01*
G01*
X2500000Y50000000D02*
X47500000Y50000000D01*
D11*
X3330000Y47800000D03*
D12*
X5870000Y47800000D03*
D13*
X1460000Y34500000D03*
X6540000Y34500000D03*
D14*
X11500000Y33500000D03*
D15*
X9500000Y33500000D03*
D13*
X1460000Y31500000D03*
X6540000Y31500000D03*
X47790000Y24750000D03*
X42710000Y24750000D03*
X39540000Y32000000D03*
X34460000Y32000000D03*
X39540000Y27600000D03*
X34460000Y27600000D03*
D16*
X43950000Y30800000D03*
D17*
X46450000Y30800000D03*
D13*
X21750000Y39210000D03*
X21750000Y44290000D03*
X30800000Y31740000D03*
X30800000Y26660000D03*
D16*
X16500000Y40250000D03*
D17*
X16500000Y37710000D03*
D13*
X5000000Y1730000D03*
X5000000Y4270000D03*
X9500000Y1730000D03*
X9500000Y4270000D03*
X14000000Y1730000D03*
X14000000Y4270000D03*
X18500000Y1730000D03*
X18500000Y4270000D03*
X23000000Y1730000D03*
X23000000Y4270000D03*
X27500000Y1730000D03*
X27500000Y4270000D03*
X32000000Y1730000D03*
X32000000Y4270000D03*
X36500000Y1730000D03*
X36500000Y4270000D03*
D18*
X9750000Y41750000D03*
X9750000Y39210000D03*
X9750000Y44290000D03*
D19*
X2500000Y13500000D03*
D20*
X20280000Y21120000D03*
X5040000Y13500000D03*
X17740000Y21120000D03*
X7580000Y13500000D03*
X15200000Y21120000D03*
X10120000Y13500000D03*
X12660000Y21120000D03*
X12660000Y13500000D03*
X10120000Y21120000D03*
X15200000Y13500000D03*
X7580000Y21120000D03*
X17740000Y13500000D03*
X5040000Y21120000D03*
X20280000Y13500000D03*
X2500000Y21120000D03*
D19*
X24750000Y13500000D03*
D20*
X47610000Y21120000D03*
X27290000Y13500000D03*
X45070000Y21120000D03*
X29830000Y13500000D03*
X42530000Y21120000D03*
X32370000Y13500000D03*
X39990000Y21120000D03*
X34910000Y13500000D03*
X37450000Y21120000D03*
X37450000Y13500000D03*
X34910000Y21120000D03*
X39990000Y13500000D03*
X32370000Y21120000D03*
X42530000Y13500000D03*
X29830000Y21120000D03*
X45070000Y13500000D03*
X27290000Y21120000D03*
X47610000Y13500000D03*
X24750000Y21120000D03*
D19*
X26400000Y33000000D03*
D20*
X18780000Y25380000D03*
X23860000Y33000000D03*
X21320000Y25380000D03*
X21320000Y33000000D03*
X23860000Y25380000D03*
X18780000Y33000000D03*
X26400000Y25380000D03*
D19*
X33000000Y44250000D03*
D20*
X25380000Y36630000D03*
X30460000Y44250000D03*
X27920000Y36630000D03*
X27920000Y44250000D03*
X30460000Y36630000D03*
X25380000Y44250000D03*
X33000000Y36630000D03*
D21*
X15750000Y46900000D03*
D13*
X17550000Y48500000D03*
X13950000Y48500000D03*
X23500000Y9000000D03*
X26040000Y9000000D03*
X28580000Y9000000D03*
X31120000Y9000000D03*
X33660000Y9000000D03*
X36200000Y9000000D03*
X38740000Y9000000D03*
X41280000Y9000000D03*
X2000000Y9000000D03*
X4540000Y9000000D03*
X7080000Y9000000D03*
X9620000Y9000000D03*
X12160000Y9000000D03*
X14700000Y9000000D03*
X17240000Y9000000D03*
X19780000Y9000000D03*
D22*
X37000000Y35400000D03*
X37000000Y45560000D03*
X40600000Y35400000D03*
X40600000Y45560000D03*
D23*
X4700000Y27200000D03*
X14860000Y27200000D03*
D24*
X6500000Y42500000D03*
X6500000Y40500000D03*
X43500000Y40500000D03*
X43500000Y42500000D03*
D25*
X43000000Y6500000D03*
X45000000Y6500000D03*
D26*
X33800000Y6600000D03*
X38600000Y6600000D03*
X9750000Y46500000D03*
X1800000Y45300000D03*
X32820000Y24890000D03*
X32600000Y31400000D03*
X19000000Y27600000D03*
X43600000Y27200000D03*
X39200000Y23500000D03*
X30800000Y34300000D03*
X11760000Y26920000D03*
X45680000Y35870000D03*
X20380000Y35800000D03*
X45200000Y10670000D03*
X37800000Y38800000D03*
X35000000Y39000000D03*
X40400000Y38800000D03*
X12600000Y17000000D03*
X17600000Y17000000D03*
X33300000Y16600000D03*
X28600000Y16900000D03*
X24400000Y27800000D03*
X3400000Y37500000D03*
X40100000Y15700000D03*
X46500000Y16600000D03*
X23700000Y19000000D03*
X22200000Y17700000D03*
X5200000Y24800000D03*
X2200000Y26900000D03*
X5300000Y17500000D03*
X37150000Y31900000D03*
X21300000Y29750000D03*
X21300000Y28000000D03*
X37400000Y16600000D03*
X37450000Y19050000D03*
X18700000Y39200000D03*
X27650000Y27100000D03*
X35400000Y30200000D03*
X39300000Y30200000D03*
X35400000Y29400000D03*
X38700000Y29400000D03*
X48200000Y29200000D03*
X8700000Y36400000D03*
X11000000Y36400000D03*
X15200000Y23500000D03*
X7600000Y23600000D03*
X6100000Y29500000D03*
X4500000Y31000000D03*
X39300000Y33800000D03*
X37200000Y33800000D03*
X20300000Y18600000D03*
X17500000Y18300000D03*
X39700000Y42500000D03*
X36300000Y42500000D03*
X30525000Y40050000D03*
X29150000Y38200000D03*
X16500000Y23700000D03*
X16750000Y44750000D03*
X18500000Y44750000D03*
X25700000Y18350000D03*
X21950000Y14350000D03*
X22700000Y13350000D03*
X30750000Y17800000D03*
X23400000Y14100000D03*
X31300000Y17050000D03*
X39000000Y11500000D03*
X42400000Y11500000D03*
X6800000Y16000000D03*
X8600000Y16000000D03*
X19500000Y16000000D03*
X21200000Y16000000D03*
X22250000Y19050000D03*
X6700000Y15100000D03*
X8500000Y15100000D03*
X19200000Y15200000D03*
X21100000Y15200000D03*
X17750000Y23450000D03*
X27250000Y23700000D03*
X21200000Y17000000D03*
X19300000Y22700000D03*
D27*
X39970000Y5230000D02*
X38600000Y6600000D01*
X41740000Y5230000D02*
X39970000Y5230000D01*
X38600000Y6600000D02*
X33800000Y6600000D01*
X38700000Y6500000D02*
X38600000Y6600000D01*
D28*
X6900000Y46700000D02*
X7650000Y45950000D01*
X7650000Y45950000D02*
X9750000Y46500000D01*
X5870000Y47800000D02*
X6900000Y46700000D01*
D27*
X5870000Y47800000D02*
X5870000Y47270000D01*
X5870000Y47270000D02*
X3900000Y45300000D01*
X3900000Y45300000D02*
X1800000Y45300000D01*
X32820000Y24890000D02*
X32820000Y31180000D01*
X34915000Y23005000D02*
X32820000Y24890000D01*
X34910000Y21120000D02*
X34915000Y23005000D01*
X32820000Y31180000D02*
X32600000Y31400000D01*
X18780000Y33000000D02*
X18780000Y27820000D01*
X18780000Y27820000D02*
X19000000Y27600000D01*
X43600000Y27200000D02*
X42100000Y27200000D01*
X46535665Y25974335D02*
X43600000Y27200000D01*
X39200000Y24300000D02*
X39200000Y23500000D01*
X42100000Y27200000D02*
X39200000Y24300000D01*
X23860000Y33000000D02*
X23860000Y34760000D01*
X30300000Y34800000D02*
X30800000Y34300000D01*
X23900000Y34800000D02*
X30300000Y34800000D01*
X23860000Y34760000D02*
X23900000Y34800000D01*
X15750000Y46900000D02*
X17570000Y46900000D01*
X17570000Y46900000D02*
X17820000Y46650000D01*
X9750000Y41750000D02*
X9360000Y41750000D01*
X9360000Y41750000D02*
X8180000Y40570000D01*
X8200000Y40570000D02*
X8210000Y40560000D01*
X8180000Y40570000D02*
X8200000Y40570000D01*
X9750000Y41750000D02*
X9310000Y41750000D01*
X9310000Y41750000D02*
X8100000Y42960000D01*
X11500000Y33500000D02*
X12730000Y32270000D01*
X11760000Y29620000D02*
X11760000Y26920000D01*
X12730000Y30590000D02*
X11760000Y29620000D01*
X12730000Y32270000D02*
X12730000Y30590000D01*
X43000000Y6500000D02*
X43000000Y6490000D01*
X47790000Y24750000D02*
X47760000Y24750000D01*
X47760000Y24750000D02*
X46535665Y25974335D01*
X40600000Y35400000D02*
X40600000Y35410000D01*
X40600000Y35410000D02*
X42210000Y35420000D01*
X42210000Y35420000D02*
X45730000Y35420000D01*
X45730000Y35420000D02*
X45680000Y35870000D01*
X18780000Y33000000D02*
X18785000Y34905000D01*
X18785000Y34905000D02*
X20380000Y35800000D01*
X46570000Y25960000D02*
X46535665Y25974335D01*
X43000000Y6500000D02*
X43000000Y8470000D01*
X43000000Y8470000D02*
X45200000Y10670000D01*
X40400000Y38800000D02*
X37800000Y38800000D01*
X37500000Y39000000D02*
X37800000Y38800000D01*
X30450000Y42360000D02*
X30460000Y44250000D01*
X34490000Y38320000D02*
X35000000Y39000000D01*
X30450000Y42360000D02*
X34490000Y38320000D01*
X35000000Y39000000D02*
X37500000Y39000000D01*
X33300000Y19100000D02*
X33300000Y16600000D01*
X28300000Y19100000D02*
X28300000Y17200000D01*
X28300000Y17200000D02*
X28600000Y16900000D01*
X23860000Y33000000D02*
X23860000Y28340000D01*
X23860000Y28340000D02*
X24400000Y27800000D01*
X6540000Y34500000D02*
X6390000Y34650000D01*
X6390000Y34650000D02*
X3950000Y37090000D01*
X3950000Y37090000D02*
X3400000Y37500000D01*
X40100000Y15700000D02*
X45600000Y15700000D01*
X34910000Y16690000D02*
X35900000Y15700000D01*
X35900000Y15700000D02*
X40100000Y15700000D01*
X34910000Y21120000D02*
X34910000Y16690000D01*
X45600000Y15700000D02*
X46500000Y16600000D01*
X23700000Y19000000D02*
X23500000Y19000000D01*
X23800000Y19100000D02*
X23700000Y19000000D01*
X33900000Y18200000D02*
X33300000Y19100000D01*
X33300000Y19100000D02*
X28300000Y19100000D01*
X28300000Y19100000D02*
X23800000Y19100000D01*
X34910000Y19210000D02*
X33900000Y18200000D01*
X23500000Y19000000D02*
X22200000Y17700000D01*
X34910000Y21120000D02*
X34910000Y19210000D01*
X5200000Y24800000D02*
X4300000Y24800000D01*
X10120000Y24080000D02*
X9400000Y24800000D01*
X9400000Y24800000D02*
X5200000Y24800000D01*
X10120000Y21120000D02*
X10120000Y24080000D01*
X4300000Y24800000D02*
X2200000Y26900000D01*
X12600000Y17000000D02*
X5800000Y17000000D01*
X12660000Y17060000D02*
X12600000Y17000000D01*
X12660000Y21120000D02*
X12660000Y17060000D01*
X5800000Y17000000D02*
X5300000Y17500000D01*
D28*
X34460000Y32000000D02*
X34560000Y31900000D01*
X34560000Y31900000D02*
X37150000Y31900000D01*
X21300000Y28000000D02*
X21300000Y29750000D01*
X37400000Y16600000D02*
X37450000Y16650000D01*
X37450000Y16650000D02*
X37450000Y19050000D01*
X18710000Y39210000D02*
X21750000Y39210000D01*
X18700000Y39200000D02*
X18710000Y39210000D01*
X33000000Y36630000D02*
X33000000Y33460000D01*
X33000000Y33460000D02*
X34460000Y32000000D01*
D27*
X34460000Y27600000D02*
X34460000Y29760000D01*
X34900000Y30200000D02*
X35400000Y30200000D01*
X34460000Y29760000D02*
X34900000Y30200000D01*
X18780000Y25380000D02*
X18780000Y25580000D01*
X18780000Y25580000D02*
X20300000Y27100000D01*
X20300000Y27100000D02*
X27650000Y27100000D01*
X35400000Y30200000D02*
X39300000Y30200000D01*
X38700000Y29400000D02*
X35400000Y29400000D01*
D28*
X48200000Y29200000D02*
X46600000Y30800000D01*
X46600000Y30800000D02*
X46450000Y30800000D01*
X11000000Y36400000D02*
X8700000Y36400000D01*
X15200000Y21120000D02*
X15200000Y23500000D01*
X7580000Y23580000D02*
X7580000Y21120000D01*
X7600000Y23600000D02*
X7580000Y23580000D01*
X6000000Y29500000D02*
X6100000Y29500000D01*
X4500000Y31000000D02*
X6000000Y29500000D01*
X39300000Y33800000D02*
X37200000Y33800000D01*
X20300000Y18600000D02*
X20000000Y18300000D01*
X20000000Y18300000D02*
X17500000Y18300000D01*
X39700000Y42500000D02*
X36300000Y42500000D01*
X30525000Y40050000D02*
X29150000Y38675000D01*
X29150000Y38675000D02*
X29150000Y38200000D01*
X16500000Y23700000D02*
X16450000Y23650000D01*
X16450000Y23650000D02*
X16475000Y17325000D01*
X16475000Y17325000D02*
X15200000Y16050000D01*
X15200000Y13500000D02*
X15200000Y16050000D01*
X16750000Y44750000D02*
X18500000Y44750000D01*
D27*
X25450000Y18350000D02*
X25700000Y18350000D01*
X21950000Y14850000D02*
X25450000Y18350000D01*
X21950000Y14350000D02*
X21950000Y14850000D01*
X22700000Y13350000D02*
X22700000Y14800000D01*
X22700000Y14800000D02*
X23850000Y15950000D01*
X23850000Y15950000D02*
X28900000Y15950000D01*
X28900000Y15950000D02*
X30750000Y17800000D01*
X23400000Y14650000D02*
X23400000Y14100000D01*
X24150000Y15400000D02*
X23400000Y14650000D01*
X29650000Y15400000D02*
X24150000Y15400000D01*
X31300000Y17050000D02*
X29650000Y15400000D01*
X42400000Y11500000D02*
X39000000Y11500000D01*
X8600000Y16000000D02*
X6800000Y16000000D01*
X21200000Y16000000D02*
X19500000Y16000000D01*
X20280000Y21120000D02*
X20280000Y21020000D01*
X20280000Y21020000D02*
X22250000Y19050000D01*
X6700000Y15100000D02*
X8500000Y15100000D01*
X19200000Y15200000D02*
X21100000Y15200000D01*
X17740000Y21120000D02*
X17750000Y21130000D01*
X17750000Y21130000D02*
X17750000Y23450000D01*
X27250000Y23700000D02*
X27290000Y23660000D01*
X27290000Y23660000D02*
X27290000Y21120000D01*
X17740000Y13500000D02*
X17740000Y15840000D01*
X18900000Y17000000D02*
X21200000Y17000000D01*
X17740000Y15840000D02*
X18900000Y17000000D01*
X24750000Y21120000D02*
X22480000Y21120000D01*
X20900000Y22700000D02*
X19300000Y22700000D01*
X22480000Y21120000D02*
X20900000Y22700000D01*
X39990000Y21120000D02*
X39990000Y22110000D01*
G36*
X12742649Y49308251D02*
X12525248Y48784693D01*
X12524754Y48217794D01*
X12741240Y47693857D01*
X13141749Y47292649D01*
X13665307Y47075248D01*
X14128753Y47074844D01*
X14117660Y46616151D01*
X14350539Y46013088D01*
X14395050Y45946473D01*
X14653715Y45839070D01*
X15714645Y46900000D01*
X15700503Y46914142D01*
X15735858Y46949497D01*
X15750000Y46935355D01*
X15764143Y46949497D01*
X15799498Y46914142D01*
X15785355Y46900000D01*
X16846285Y45839070D01*
X17104950Y45946473D01*
X17366710Y46537573D01*
X17379711Y47075148D01*
X17832206Y47074754D01*
X18356143Y47291240D01*
X18757351Y47691749D01*
X18974752Y48215307D01*
X18975246Y48782206D01*
X18758760Y49306143D01*
X18540284Y49525000D01*
X47453217Y49525000D01*
X48271373Y49362259D01*
X48925311Y48925311D01*
X49362259Y48271373D01*
X49525000Y47453217D01*
X49525000Y2546783D01*
X49362259Y1728627D01*
X48925311Y1074689D01*
X48271373Y637741D01*
X47453217Y475000D01*
X37400285Y475000D01*
X37488823Y705822D01*
X36500000Y1694645D01*
X35511177Y705822D01*
X35599715Y475000D01*
X32900285Y475000D01*
X32988823Y705822D01*
X32000000Y1694645D01*
X31011177Y705822D01*
X31099715Y475000D01*
X28400285Y475000D01*
X28488823Y705822D01*
X27500000Y1694645D01*
X26511177Y705822D01*
X26599715Y475000D01*
X23900285Y475000D01*
X23988823Y705822D01*
X23000000Y1694645D01*
X22011177Y705822D01*
X22099715Y475000D01*
X19400285Y475000D01*
X19488823Y705822D01*
X18500000Y1694645D01*
X17511177Y705822D01*
X17599715Y475000D01*
X14900285Y475000D01*
X14988823Y705822D01*
X14000000Y1694645D01*
X13011177Y705822D01*
X13099715Y475000D01*
X10400285Y475000D01*
X10488823Y705822D01*
X9500000Y1694645D01*
X8511177Y705822D01*
X8599715Y475000D01*
X5900285Y475000D01*
X5988823Y705822D01*
X5000000Y1694645D01*
X4011177Y705822D01*
X4099715Y475000D01*
X2546783Y475000D01*
X1728627Y637741D01*
X1074689Y1074689D01*
X815827Y1462103D01*
X3468376Y1462103D01*
X3687484Y896368D01*
X3727546Y836410D01*
X3975822Y741177D01*
X4964645Y1730000D01*
X5035355Y1730000D01*
X6024178Y741177D01*
X6272454Y836410D01*
X6517556Y1391378D01*
X6519196Y1462103D01*
X7968376Y1462103D01*
X8187484Y896368D01*
X8227546Y836410D01*
X8475822Y741177D01*
X9464645Y1730000D01*
X9535355Y1730000D01*
X10524178Y741177D01*
X10772454Y836410D01*
X11017556Y1391378D01*
X11019196Y1462103D01*
X12468376Y1462103D01*
X12687484Y896368D01*
X12727546Y836410D01*
X12975822Y741177D01*
X13964645Y1730000D01*
X14035355Y1730000D01*
X15024178Y741177D01*
X15272454Y836410D01*
X15517556Y1391378D01*
X15519196Y1462103D01*
X16968376Y1462103D01*
X17187484Y896368D01*
X17227546Y836410D01*
X17475822Y741177D01*
X18464645Y1730000D01*
X18535355Y1730000D01*
X19524178Y741177D01*
X19772454Y836410D01*
X20017556Y1391378D01*
X20019196Y1462103D01*
X21468376Y1462103D01*
X21687484Y896368D01*
X21727546Y836410D01*
X21975822Y741177D01*
X22964645Y1730000D01*
X23035355Y1730000D01*
X24024178Y741177D01*
X24272454Y836410D01*
X24517556Y1391378D01*
X24519196Y1462103D01*
X25968376Y1462103D01*
X26187484Y896368D01*
X26227546Y836410D01*
X26475822Y741177D01*
X27464645Y1730000D01*
X27535355Y1730000D01*
X28524178Y741177D01*
X28772454Y836410D01*
X29017556Y1391378D01*
X29019196Y1462103D01*
X30468376Y1462103D01*
X30687484Y896368D01*
X30727546Y836410D01*
X30975822Y741177D01*
X31964645Y1730000D01*
X32035355Y1730000D01*
X33024178Y741177D01*
X33272454Y836410D01*
X33517556Y1391378D01*
X33519196Y1462103D01*
X34968376Y1462103D01*
X35187484Y896368D01*
X35227546Y836410D01*
X35475822Y741177D01*
X36464645Y1730000D01*
X36535355Y1730000D01*
X37524178Y741177D01*
X37772454Y836410D01*
X38017556Y1391378D01*
X38031624Y1997897D01*
X37812516Y2563632D01*
X37772454Y2623590D01*
X37524178Y2718823D01*
X36535355Y1730000D01*
X36464645Y1730000D01*
X35475822Y2718823D01*
X35227546Y2623590D01*
X34982444Y2068622D01*
X34968376Y1462103D01*
X33519196Y1462103D01*
X33531624Y1997897D01*
X33312516Y2563632D01*
X33272454Y2623590D01*
X33024178Y2718823D01*
X32035355Y1730000D01*
X31964645Y1730000D01*
X30975822Y2718823D01*
X30727546Y2623590D01*
X30482444Y2068622D01*
X30468376Y1462103D01*
X29019196Y1462103D01*
X29031624Y1997897D01*
X28812516Y2563632D01*
X28772454Y2623590D01*
X28524178Y2718823D01*
X27535355Y1730000D01*
X27464645Y1730000D01*
X26475822Y2718823D01*
X26227546Y2623590D01*
X25982444Y2068622D01*
X25968376Y1462103D01*
X24519196Y1462103D01*
X24531624Y1997897D01*
X24312516Y2563632D01*
X24272454Y2623590D01*
X24024178Y2718823D01*
X23035355Y1730000D01*
X22964645Y1730000D01*
X21975822Y2718823D01*
X21727546Y2623590D01*
X21482444Y2068622D01*
X21468376Y1462103D01*
X20019196Y1462103D01*
X20031624Y1997897D01*
X19812516Y2563632D01*
X19772454Y2623590D01*
X19524178Y2718823D01*
X18535355Y1730000D01*
X18464645Y1730000D01*
X17475822Y2718823D01*
X17227546Y2623590D01*
X16982444Y2068622D01*
X16968376Y1462103D01*
X15519196Y1462103D01*
X15531624Y1997897D01*
X15312516Y2563632D01*
X15272454Y2623590D01*
X15024178Y2718823D01*
X14035355Y1730000D01*
X13964645Y1730000D01*
X12975822Y2718823D01*
X12727546Y2623590D01*
X12482444Y2068622D01*
X12468376Y1462103D01*
X11019196Y1462103D01*
X11031624Y1997897D01*
X10812516Y2563632D01*
X10772454Y2623590D01*
X10524178Y2718823D01*
X9535355Y1730000D01*
X9464645Y1730000D01*
X8475822Y2718823D01*
X8227546Y2623590D01*
X7982444Y2068622D01*
X7968376Y1462103D01*
X6519196Y1462103D01*
X6531624Y1997897D01*
X6312516Y2563632D01*
X6272454Y2623590D01*
X6024178Y2718823D01*
X5035355Y1730000D01*
X4964645Y1730000D01*
X3975822Y2718823D01*
X3727546Y2623590D01*
X3482444Y2068622D01*
X3468376Y1462103D01*
X815827Y1462103D01*
X637741Y1728627D01*
X475000Y2546783D01*
X475000Y3987794D01*
X3574754Y3987794D01*
X3791240Y3463857D01*
X4191749Y3062649D01*
X4204587Y3057318D01*
X4166368Y3042516D01*
X4106410Y3002454D01*
X4011177Y2754178D01*
X5000000Y1765355D01*
X5988823Y2754178D01*
X5893590Y3002454D01*
X5782554Y3051493D01*
X5806143Y3061240D01*
X6207351Y3461749D01*
X6424752Y3985307D01*
X6424754Y3987794D01*
X8074754Y3987794D01*
X8291240Y3463857D01*
X8691749Y3062649D01*
X8704587Y3057318D01*
X8666368Y3042516D01*
X8606410Y3002454D01*
X8511177Y2754178D01*
X9500000Y1765355D01*
X10488823Y2754178D01*
X10393590Y3002454D01*
X10282554Y3051493D01*
X10306143Y3061240D01*
X10707351Y3461749D01*
X10924752Y3985307D01*
X10924754Y3987794D01*
X12574754Y3987794D01*
X12791240Y3463857D01*
X13191749Y3062649D01*
X13204587Y3057318D01*
X13166368Y3042516D01*
X13106410Y3002454D01*
X13011177Y2754178D01*
X14000000Y1765355D01*
X14988823Y2754178D01*
X14893590Y3002454D01*
X14782554Y3051493D01*
X14806143Y3061240D01*
X15207351Y3461749D01*
X15424752Y3985307D01*
X15424754Y3987794D01*
X17074754Y3987794D01*
X17291240Y3463857D01*
X17691749Y3062649D01*
X17704587Y3057318D01*
X17666368Y3042516D01*
X17606410Y3002454D01*
X17511177Y2754178D01*
X18500000Y1765355D01*
X19488823Y2754178D01*
X19393590Y3002454D01*
X19282554Y3051493D01*
X19306143Y3061240D01*
X19707351Y3461749D01*
X19924752Y3985307D01*
X19924754Y3987794D01*
X21574754Y3987794D01*
X21791240Y3463857D01*
X22191749Y3062649D01*
X22204587Y3057318D01*
X22166368Y3042516D01*
X22106410Y3002454D01*
X22011177Y2754178D01*
X23000000Y1765355D01*
X23988823Y2754178D01*
X23893590Y3002454D01*
X23782554Y3051493D01*
X23806143Y3061240D01*
X24207351Y3461749D01*
X24424752Y3985307D01*
X24424754Y3987794D01*
X26074754Y3987794D01*
X26291240Y3463857D01*
X26691749Y3062649D01*
X26704587Y3057318D01*
X26666368Y3042516D01*
X26606410Y3002454D01*
X26511177Y2754178D01*
X27500000Y1765355D01*
X28488823Y2754178D01*
X28393590Y3002454D01*
X28282554Y3051493D01*
X28306143Y3061240D01*
X28707351Y3461749D01*
X28924752Y3985307D01*
X28924754Y3987794D01*
X30574754Y3987794D01*
X30791240Y3463857D01*
X31191749Y3062649D01*
X31204587Y3057318D01*
X31166368Y3042516D01*
X31106410Y3002454D01*
X31011177Y2754178D01*
X32000000Y1765355D01*
X32988823Y2754178D01*
X32893590Y3002454D01*
X32782554Y3051493D01*
X32806143Y3061240D01*
X33207351Y3461749D01*
X33424752Y3985307D01*
X33424754Y3987794D01*
X35074754Y3987794D01*
X35291240Y3463857D01*
X35691749Y3062649D01*
X35704587Y3057318D01*
X35666368Y3042516D01*
X35606410Y3002454D01*
X35511177Y2754178D01*
X36500000Y1765355D01*
X37488823Y2754178D01*
X37393590Y3002454D01*
X37282554Y3051493D01*
X37306143Y3061240D01*
X37707351Y3461749D01*
X37924752Y3985307D01*
X37925246Y4552206D01*
X37708760Y5076143D01*
X37308251Y5477351D01*
X36784693Y5694752D01*
X36217794Y5695246D01*
X35693857Y5478760D01*
X35292649Y5078251D01*
X35075248Y4554693D01*
X35074754Y3987794D01*
X33424754Y3987794D01*
X33425246Y4552206D01*
X33208760Y5076143D01*
X32808251Y5477351D01*
X32284693Y5694752D01*
X31717794Y5695246D01*
X31193857Y5478760D01*
X30792649Y5078251D01*
X30575248Y4554693D01*
X30574754Y3987794D01*
X28924754Y3987794D01*
X28925246Y4552206D01*
X28708760Y5076143D01*
X28308251Y5477351D01*
X27784693Y5694752D01*
X27217794Y5695246D01*
X26693857Y5478760D01*
X26292649Y5078251D01*
X26075248Y4554693D01*
X26074754Y3987794D01*
X24424754Y3987794D01*
X24425246Y4552206D01*
X24208760Y5076143D01*
X23808251Y5477351D01*
X23284693Y5694752D01*
X22717794Y5695246D01*
X22193857Y5478760D01*
X21792649Y5078251D01*
X21575248Y4554693D01*
X21574754Y3987794D01*
X19924754Y3987794D01*
X19925246Y4552206D01*
X19708760Y5076143D01*
X19308251Y5477351D01*
X18784693Y5694752D01*
X18217794Y5695246D01*
X17693857Y5478760D01*
X17292649Y5078251D01*
X17075248Y4554693D01*
X17074754Y3987794D01*
X15424754Y3987794D01*
X15425246Y4552206D01*
X15208760Y5076143D01*
X14808251Y5477351D01*
X14284693Y5694752D01*
X13717794Y5695246D01*
X13193857Y5478760D01*
X12792649Y5078251D01*
X12575248Y4554693D01*
X12574754Y3987794D01*
X10924754Y3987794D01*
X10925246Y4552206D01*
X10708760Y5076143D01*
X10308251Y5477351D01*
X9784693Y5694752D01*
X9217794Y5695246D01*
X8693857Y5478760D01*
X8292649Y5078251D01*
X8075248Y4554693D01*
X8074754Y3987794D01*
X6424754Y3987794D01*
X6425246Y4552206D01*
X6208760Y5076143D01*
X5808251Y5477351D01*
X5284693Y5694752D01*
X4717794Y5695246D01*
X4193857Y5478760D01*
X3792649Y5078251D01*
X3575248Y4554693D01*
X3574754Y3987794D01*
X475000Y3987794D01*
X475000Y6475000D01*
X41675000Y6475000D01*
X41675000Y6275000D01*
X41785427Y5769847D01*
X42080762Y5345406D01*
X42516042Y5066293D01*
X42768069Y4995457D01*
X42975000Y5106512D01*
X42975000Y6475000D01*
X41675000Y6475000D01*
X475000Y6475000D01*
X475000Y6725000D01*
X41675000Y6725000D01*
X41675000Y6525000D01*
X42975000Y6525000D01*
X42975000Y7893488D01*
X43025000Y7893488D01*
X43025000Y6525000D01*
X43045000Y6525000D01*
X43045000Y6475000D01*
X43025000Y6475000D01*
X43025000Y5106512D01*
X43231931Y4995457D01*
X43483958Y5066293D01*
X43919238Y5345406D01*
X44049302Y5532328D01*
X44133794Y5405877D01*
X44531213Y5140331D01*
X45000000Y5047083D01*
X45468787Y5140331D01*
X45866206Y5405877D01*
X46131752Y5803296D01*
X46225000Y6272083D01*
X46225000Y6727917D01*
X46131752Y7196704D01*
X45866206Y7594123D01*
X45468787Y7859669D01*
X45000000Y7952917D01*
X44531213Y7859669D01*
X44133794Y7594123D01*
X44049302Y7467672D01*
X43919238Y7654594D01*
X43483958Y7933707D01*
X43231931Y8004543D01*
X43025000Y7893488D01*
X42975000Y7893488D01*
X42768069Y8004543D01*
X42516042Y7933707D01*
X42080762Y7654594D01*
X41785427Y7230153D01*
X41675000Y6725000D01*
X475000Y6725000D01*
X475000Y8717794D01*
X574754Y8717794D01*
X791240Y8193857D01*
X1191749Y7792649D01*
X1715307Y7575248D01*
X2282206Y7574754D01*
X2806143Y7791240D01*
X3207351Y8191749D01*
X3269885Y8342347D01*
X3331240Y8193857D01*
X3731749Y7792649D01*
X4255307Y7575248D01*
X4822206Y7574754D01*
X5346143Y7791240D01*
X5747351Y8191749D01*
X5809885Y8342347D01*
X5871240Y8193857D01*
X6271749Y7792649D01*
X6795307Y7575248D01*
X7362206Y7574754D01*
X7886143Y7791240D01*
X8287351Y8191749D01*
X8349885Y8342347D01*
X8411240Y8193857D01*
X8811749Y7792649D01*
X9335307Y7575248D01*
X9902206Y7574754D01*
X10426143Y7791240D01*
X10827351Y8191749D01*
X10889885Y8342347D01*
X10951240Y8193857D01*
X11351749Y7792649D01*
X11875307Y7575248D01*
X12442206Y7574754D01*
X12966143Y7791240D01*
X13367351Y8191749D01*
X13429885Y8342347D01*
X13491240Y8193857D01*
X13891749Y7792649D01*
X14415307Y7575248D01*
X14982206Y7574754D01*
X15506143Y7791240D01*
X15907351Y8191749D01*
X15969885Y8342347D01*
X16031240Y8193857D01*
X16431749Y7792649D01*
X16955307Y7575248D01*
X17522206Y7574754D01*
X18046143Y7791240D01*
X18447351Y8191749D01*
X18509885Y8342347D01*
X18571240Y8193857D01*
X18971749Y7792649D01*
X19495307Y7575248D01*
X20062206Y7574754D01*
X20586143Y7791240D01*
X20987351Y8191749D01*
X21204752Y8715307D01*
X21204754Y8717794D01*
X22074754Y8717794D01*
X22291240Y8193857D01*
X22691749Y7792649D01*
X23215307Y7575248D01*
X23782206Y7574754D01*
X24306143Y7791240D01*
X24707351Y8191749D01*
X24769885Y8342347D01*
X24831240Y8193857D01*
X25231749Y7792649D01*
X25755307Y7575248D01*
X26322206Y7574754D01*
X26846143Y7791240D01*
X27247351Y8191749D01*
X27309885Y8342347D01*
X27371240Y8193857D01*
X27771749Y7792649D01*
X28295307Y7575248D01*
X28862206Y7574754D01*
X29386143Y7791240D01*
X29787351Y8191749D01*
X29849885Y8342347D01*
X29911240Y8193857D01*
X30311749Y7792649D01*
X30835307Y7575248D01*
X31402206Y7574754D01*
X31926143Y7791240D01*
X32327351Y8191749D01*
X32389885Y8342347D01*
X32451240Y8193857D01*
X32851749Y7792649D01*
X33375307Y7575248D01*
X33942206Y7574754D01*
X34466143Y7791240D01*
X34867351Y8191749D01*
X34929885Y8342347D01*
X34991240Y8193857D01*
X35391749Y7792649D01*
X35915307Y7575248D01*
X36482206Y7574754D01*
X37006143Y7791240D01*
X37407351Y8191749D01*
X37469885Y8342347D01*
X37531240Y8193857D01*
X37931749Y7792649D01*
X38455307Y7575248D01*
X39022206Y7574754D01*
X39546143Y7791240D01*
X39947351Y8191749D01*
X40009885Y8342347D01*
X40071240Y8193857D01*
X40471749Y7792649D01*
X40995307Y7575248D01*
X41562206Y7574754D01*
X42086143Y7791240D01*
X42487351Y8191749D01*
X42704752Y8715307D01*
X42705246Y9282206D01*
X42488760Y9806143D01*
X42088251Y10207351D01*
X41564693Y10424752D01*
X40997794Y10425246D01*
X40473857Y10208760D01*
X40072649Y9808251D01*
X40010115Y9657653D01*
X39948760Y9806143D01*
X39548251Y10207351D01*
X39024693Y10424752D01*
X38457794Y10425246D01*
X37933857Y10208760D01*
X37532649Y9808251D01*
X37470115Y9657653D01*
X37408760Y9806143D01*
X37008251Y10207351D01*
X36484693Y10424752D01*
X35917794Y10425246D01*
X35393857Y10208760D01*
X34992649Y9808251D01*
X34930115Y9657653D01*
X34868760Y9806143D01*
X34468251Y10207351D01*
X33944693Y10424752D01*
X33377794Y10425246D01*
X32853857Y10208760D01*
X32452649Y9808251D01*
X32390115Y9657653D01*
X32328760Y9806143D01*
X31928251Y10207351D01*
X31404693Y10424752D01*
X30837794Y10425246D01*
X30313857Y10208760D01*
X29912649Y9808251D01*
X29850115Y9657653D01*
X29788760Y9806143D01*
X29388251Y10207351D01*
X28864693Y10424752D01*
X28297794Y10425246D01*
X27773857Y10208760D01*
X27372649Y9808251D01*
X27310115Y9657653D01*
X27248760Y9806143D01*
X26848251Y10207351D01*
X26324693Y10424752D01*
X25757794Y10425246D01*
X25233857Y10208760D01*
X24832649Y9808251D01*
X24770115Y9657653D01*
X24708760Y9806143D01*
X24308251Y10207351D01*
X23784693Y10424752D01*
X23217794Y10425246D01*
X22693857Y10208760D01*
X22292649Y9808251D01*
X22075248Y9284693D01*
X22074754Y8717794D01*
X21204754Y8717794D01*
X21205246Y9282206D01*
X20988760Y9806143D01*
X20588251Y10207351D01*
X20064693Y10424752D01*
X19497794Y10425246D01*
X18973857Y10208760D01*
X18572649Y9808251D01*
X18510115Y9657653D01*
X18448760Y9806143D01*
X18048251Y10207351D01*
X17524693Y10424752D01*
X16957794Y10425246D01*
X16433857Y10208760D01*
X16032649Y9808251D01*
X15970115Y9657653D01*
X15908760Y9806143D01*
X15508251Y10207351D01*
X14984693Y10424752D01*
X14417794Y10425246D01*
X13893857Y10208760D01*
X13492649Y9808251D01*
X13430115Y9657653D01*
X13368760Y9806143D01*
X12968251Y10207351D01*
X12444693Y10424752D01*
X11877794Y10425246D01*
X11353857Y10208760D01*
X10952649Y9808251D01*
X10890115Y9657653D01*
X10828760Y9806143D01*
X10428251Y10207351D01*
X9904693Y10424752D01*
X9337794Y10425246D01*
X8813857Y10208760D01*
X8412649Y9808251D01*
X8350115Y9657653D01*
X8288760Y9806143D01*
X7888251Y10207351D01*
X7364693Y10424752D01*
X6797794Y10425246D01*
X6273857Y10208760D01*
X5872649Y9808251D01*
X5810115Y9657653D01*
X5748760Y9806143D01*
X5348251Y10207351D01*
X4824693Y10424752D01*
X4257794Y10425246D01*
X3733857Y10208760D01*
X3332649Y9808251D01*
X3270115Y9657653D01*
X3208760Y9806143D01*
X2808251Y10207351D01*
X2284693Y10424752D01*
X1717794Y10425246D01*
X1193857Y10208760D01*
X792649Y9808251D01*
X575248Y9284693D01*
X574754Y8717794D01*
X475000Y8717794D01*
X475000Y14700000D01*
X1266674Y14700000D01*
X1266674Y12300000D01*
X1296309Y12142504D01*
X1389389Y11997854D01*
X1531412Y11900814D01*
X1700000Y11866674D01*
X3300000Y11866674D01*
X3457496Y11896309D01*
X3602146Y11989389D01*
X3699186Y12131412D01*
X3733326Y12300000D01*
X3733326Y13931836D01*
X3815000Y13931836D01*
X3815000Y13068164D01*
X3908248Y12599377D01*
X4173794Y12201958D01*
X4571213Y11936412D01*
X5040000Y11843164D01*
X5508787Y11936412D01*
X5906206Y12201958D01*
X6171752Y12599377D01*
X6265000Y13068164D01*
X6265000Y13931836D01*
X6171752Y14400623D01*
X5906206Y14798042D01*
X5669175Y14956421D01*
X5974874Y14956421D01*
X6085016Y14689857D01*
X6288784Y14485733D01*
X6458131Y14415414D01*
X6448248Y14400623D01*
X6355000Y13931836D01*
X6355000Y13068164D01*
X6448248Y12599377D01*
X6713794Y12201958D01*
X7111213Y11936412D01*
X7580000Y11843164D01*
X8048787Y11936412D01*
X8446206Y12201958D01*
X8711752Y12599377D01*
X8800948Y13047792D01*
X8905427Y12569847D01*
X9200762Y12145406D01*
X9636042Y11866293D01*
X9888069Y11795457D01*
X10095000Y11906512D01*
X10095000Y13475000D01*
X10145000Y13475000D01*
X10145000Y11906512D01*
X10351931Y11795457D01*
X10603958Y11866293D01*
X11039238Y12145406D01*
X11334573Y12569847D01*
X11390000Y12823400D01*
X11445427Y12569847D01*
X11740762Y12145406D01*
X12176042Y11866293D01*
X12428069Y11795457D01*
X12635000Y11906512D01*
X12635000Y13475000D01*
X10145000Y13475000D01*
X10095000Y13475000D01*
X10075000Y13475000D01*
X10075000Y13525000D01*
X10095000Y13525000D01*
X10095000Y15093488D01*
X10145000Y15093488D01*
X10145000Y13525000D01*
X12635000Y13525000D01*
X12635000Y15093488D01*
X12428069Y15204543D01*
X12176042Y15133707D01*
X11740762Y14854594D01*
X11445427Y14430153D01*
X11390000Y14176600D01*
X11334573Y14430153D01*
X11039238Y14854594D01*
X10603958Y15133707D01*
X10351931Y15204543D01*
X10145000Y15093488D01*
X10095000Y15093488D01*
X9888069Y15204543D01*
X9636042Y15133707D01*
X9200762Y14854594D01*
X9157005Y14791708D01*
X9224874Y14955156D01*
X9225126Y15243579D01*
X9120972Y15495651D01*
X9214267Y15588784D01*
X9324874Y15855156D01*
X9325126Y16143579D01*
X9214984Y16410143D01*
X9011216Y16614267D01*
X8744844Y16724874D01*
X8456421Y16725126D01*
X8189857Y16614984D01*
X8124759Y16550000D01*
X7275371Y16550000D01*
X7211216Y16614267D01*
X6944844Y16724874D01*
X6656421Y16725126D01*
X6389857Y16614984D01*
X6185733Y16411216D01*
X6075126Y16144844D01*
X6074874Y15856421D01*
X6179028Y15604349D01*
X6085733Y15511216D01*
X5975126Y15244844D01*
X5974874Y14956421D01*
X5669175Y14956421D01*
X5508787Y15063588D01*
X5040000Y15156836D01*
X4571213Y15063588D01*
X4173794Y14798042D01*
X3908248Y14400623D01*
X3815000Y13931836D01*
X3733326Y13931836D01*
X3733326Y14700000D01*
X3703691Y14857496D01*
X3610611Y15002146D01*
X3468588Y15099186D01*
X3300000Y15133326D01*
X1700000Y15133326D01*
X1542504Y15103691D01*
X1397854Y15010611D01*
X1300814Y14868588D01*
X1266674Y14700000D01*
X475000Y14700000D01*
X475000Y21551836D01*
X1275000Y21551836D01*
X1275000Y20688164D01*
X1368248Y20219377D01*
X1633794Y19821958D01*
X2031213Y19556412D01*
X2500000Y19463164D01*
X2968787Y19556412D01*
X3366206Y19821958D01*
X3631752Y20219377D01*
X3725000Y20688164D01*
X3725000Y21551836D01*
X3815000Y21551836D01*
X3815000Y20688164D01*
X3908248Y20219377D01*
X4173794Y19821958D01*
X4571213Y19556412D01*
X5040000Y19463164D01*
X5508787Y19556412D01*
X5906206Y19821958D01*
X6171752Y20219377D01*
X6265000Y20688164D01*
X6265000Y21551836D01*
X6355000Y21551836D01*
X6355000Y20688164D01*
X6448248Y20219377D01*
X6713794Y19821958D01*
X7111213Y19556412D01*
X7580000Y19463164D01*
X8048787Y19556412D01*
X8446206Y19821958D01*
X8711752Y20219377D01*
X8800948Y20667792D01*
X8905427Y20189847D01*
X9200762Y19765406D01*
X9636042Y19486293D01*
X9888069Y19415457D01*
X10095000Y19526512D01*
X10095000Y21095000D01*
X10145000Y21095000D01*
X10145000Y19526512D01*
X10351931Y19415457D01*
X10603958Y19486293D01*
X11039238Y19765406D01*
X11334573Y20189847D01*
X11390000Y20443400D01*
X11445427Y20189847D01*
X11740762Y19765406D01*
X12176042Y19486293D01*
X12428069Y19415457D01*
X12635000Y19526512D01*
X12635000Y21095000D01*
X10145000Y21095000D01*
X10095000Y21095000D01*
X10075000Y21095000D01*
X10075000Y21145000D01*
X10095000Y21145000D01*
X10095000Y22713488D01*
X10145000Y22713488D01*
X10145000Y21145000D01*
X12635000Y21145000D01*
X12635000Y22713488D01*
X12685000Y22713488D01*
X12685000Y21145000D01*
X12705000Y21145000D01*
X12705000Y21095000D01*
X12685000Y21095000D01*
X12685000Y19526512D01*
X12891931Y19415457D01*
X13143958Y19486293D01*
X13579238Y19765406D01*
X13874573Y20189847D01*
X13979052Y20667792D01*
X14068248Y20219377D01*
X14333794Y19821958D01*
X14731213Y19556412D01*
X15200000Y19463164D01*
X15668787Y19556412D01*
X15790852Y19637973D01*
X15798894Y17603488D01*
X14722703Y16527297D01*
X14576381Y16308312D01*
X14543614Y16143579D01*
X14525000Y16050000D01*
X14525000Y14925801D01*
X14333794Y14798042D01*
X14068248Y14400623D01*
X13979052Y13952208D01*
X13874573Y14430153D01*
X13579238Y14854594D01*
X13143958Y15133707D01*
X12891931Y15204543D01*
X12685000Y15093488D01*
X12685000Y13525000D01*
X12705000Y13525000D01*
X12705000Y13475000D01*
X12685000Y13475000D01*
X12685000Y11906512D01*
X12891931Y11795457D01*
X13143958Y11866293D01*
X13579238Y12145406D01*
X13874573Y12569847D01*
X13979052Y13047792D01*
X14068248Y12599377D01*
X14333794Y12201958D01*
X14731213Y11936412D01*
X15200000Y11843164D01*
X15668787Y11936412D01*
X16066206Y12201958D01*
X16331752Y12599377D01*
X16425000Y13068164D01*
X16425000Y13931836D01*
X16515000Y13931836D01*
X16515000Y13068164D01*
X16608248Y12599377D01*
X16873794Y12201958D01*
X17271213Y11936412D01*
X17740000Y11843164D01*
X18208787Y11936412D01*
X18606206Y12201958D01*
X18871752Y12599377D01*
X18965000Y13068164D01*
X18965000Y13931836D01*
X18871752Y14400623D01*
X18665641Y14709092D01*
X18788784Y14585733D01*
X19055156Y14475126D01*
X19197946Y14475001D01*
X19148248Y14400623D01*
X19055000Y13931836D01*
X19055000Y13068164D01*
X19148248Y12599377D01*
X19413794Y12201958D01*
X19811213Y11936412D01*
X20280000Y11843164D01*
X20748787Y11936412D01*
X21146206Y12201958D01*
X21411752Y12599377D01*
X21505000Y13068164D01*
X21505000Y13769576D01*
X21538784Y13735733D01*
X21805156Y13625126D01*
X22029142Y13624930D01*
X21975126Y13494844D01*
X21974874Y13206421D01*
X22085016Y12939857D01*
X22288784Y12735733D01*
X22555156Y12625126D01*
X22843579Y12624874D01*
X23110143Y12735016D01*
X23314267Y12938784D01*
X23424874Y13205156D01*
X23425022Y13374978D01*
X23516674Y13374898D01*
X23516674Y12300000D01*
X23546309Y12142504D01*
X23639389Y11997854D01*
X23781412Y11900814D01*
X23950000Y11866674D01*
X25550000Y11866674D01*
X25707496Y11896309D01*
X25852146Y11989389D01*
X25949186Y12131412D01*
X25983326Y12300000D01*
X25983326Y14700000D01*
X25955101Y14850000D01*
X26501555Y14850000D01*
X26423794Y14798042D01*
X26158248Y14400623D01*
X26065000Y13931836D01*
X26065000Y13068164D01*
X26158248Y12599377D01*
X26423794Y12201958D01*
X26821213Y11936412D01*
X27290000Y11843164D01*
X27758787Y11936412D01*
X28156206Y12201958D01*
X28421752Y12599377D01*
X28515000Y13068164D01*
X28515000Y13931836D01*
X28421752Y14400623D01*
X28156206Y14798042D01*
X28078445Y14850000D01*
X29041555Y14850000D01*
X28963794Y14798042D01*
X28698248Y14400623D01*
X28605000Y13931836D01*
X28605000Y13068164D01*
X28698248Y12599377D01*
X28963794Y12201958D01*
X29361213Y11936412D01*
X29830000Y11843164D01*
X30298787Y11936412D01*
X30696206Y12201958D01*
X30961752Y12599377D01*
X31055000Y13068164D01*
X31055000Y13931836D01*
X31145000Y13931836D01*
X31145000Y13068164D01*
X31238248Y12599377D01*
X31503794Y12201958D01*
X31901213Y11936412D01*
X32370000Y11843164D01*
X32838787Y11936412D01*
X33236206Y12201958D01*
X33501752Y12599377D01*
X33595000Y13068164D01*
X33595000Y13931836D01*
X33685000Y13931836D01*
X33685000Y13068164D01*
X33778248Y12599377D01*
X34043794Y12201958D01*
X34441213Y11936412D01*
X34910000Y11843164D01*
X35378787Y11936412D01*
X35776206Y12201958D01*
X36041752Y12599377D01*
X36130948Y13047792D01*
X36235427Y12569847D01*
X36530762Y12145406D01*
X36966042Y11866293D01*
X37218069Y11795457D01*
X37425000Y11906512D01*
X37425000Y13475000D01*
X37405000Y13475000D01*
X37405000Y13525000D01*
X37425000Y13525000D01*
X37425000Y15093488D01*
X37475000Y15093488D01*
X37475000Y13525000D01*
X37495000Y13525000D01*
X37495000Y13475000D01*
X37475000Y13475000D01*
X37475000Y11906512D01*
X37681931Y11795457D01*
X37933958Y11866293D01*
X38369238Y12145406D01*
X38664573Y12569847D01*
X38769052Y13047792D01*
X38858248Y12599377D01*
X39108461Y12224906D01*
X38856421Y12225126D01*
X38589857Y12114984D01*
X38385733Y11911216D01*
X38275126Y11644844D01*
X38274874Y11356421D01*
X38385016Y11089857D01*
X38588784Y10885733D01*
X38855156Y10775126D01*
X39143579Y10774874D01*
X39410143Y10885016D01*
X39475241Y10950000D01*
X41924629Y10950000D01*
X41988784Y10885733D01*
X42255156Y10775126D01*
X42543579Y10774874D01*
X42810143Y10885016D01*
X43014267Y11088784D01*
X43124874Y11355156D01*
X43125126Y11643579D01*
X43014984Y11910143D01*
X42990422Y11934748D01*
X42998787Y11936412D01*
X43396206Y12201958D01*
X43661752Y12599377D01*
X43755000Y13068164D01*
X43755000Y13931836D01*
X43845000Y13931836D01*
X43845000Y13068164D01*
X43938248Y12599377D01*
X44203794Y12201958D01*
X44601213Y11936412D01*
X45070000Y11843164D01*
X45538787Y11936412D01*
X45936206Y12201958D01*
X46201752Y12599377D01*
X46295000Y13068164D01*
X46295000Y13931836D01*
X46385000Y13931836D01*
X46385000Y13068164D01*
X46478248Y12599377D01*
X46743794Y12201958D01*
X47141213Y11936412D01*
X47610000Y11843164D01*
X48078787Y11936412D01*
X48476206Y12201958D01*
X48741752Y12599377D01*
X48835000Y13068164D01*
X48835000Y13931836D01*
X48741752Y14400623D01*
X48476206Y14798042D01*
X48078787Y15063588D01*
X47610000Y15156836D01*
X47141213Y15063588D01*
X46743794Y14798042D01*
X46478248Y14400623D01*
X46385000Y13931836D01*
X46295000Y13931836D01*
X46201752Y14400623D01*
X45936206Y14798042D01*
X45538787Y15063588D01*
X45070000Y15156836D01*
X44601213Y15063588D01*
X44203794Y14798042D01*
X43938248Y14400623D01*
X43845000Y13931836D01*
X43755000Y13931836D01*
X43661752Y14400623D01*
X43396206Y14798042D01*
X42998787Y15063588D01*
X42530000Y15156836D01*
X42061213Y15063588D01*
X41663794Y14798042D01*
X41398248Y14400623D01*
X41305000Y13931836D01*
X41305000Y13068164D01*
X41398248Y12599377D01*
X41663794Y12201958D01*
X41891216Y12050000D01*
X40628784Y12050000D01*
X40856206Y12201958D01*
X41121752Y12599377D01*
X41215000Y13068164D01*
X41215000Y13931836D01*
X41121752Y14400623D01*
X40856206Y14798042D01*
X40458787Y15063588D01*
X39990000Y15156836D01*
X39521213Y15063588D01*
X39123794Y14798042D01*
X38858248Y14400623D01*
X38769052Y13952208D01*
X38664573Y14430153D01*
X38369238Y14854594D01*
X37933958Y15133707D01*
X37681931Y15204543D01*
X37475000Y15093488D01*
X37425000Y15093488D01*
X37218069Y15204543D01*
X36966042Y15133707D01*
X36530762Y14854594D01*
X36235427Y14430153D01*
X36130948Y13952208D01*
X36041752Y14400623D01*
X35776206Y14798042D01*
X35378787Y15063588D01*
X34910000Y15156836D01*
X34441213Y15063588D01*
X34043794Y14798042D01*
X33778248Y14400623D01*
X33685000Y13931836D01*
X33595000Y13931836D01*
X33501752Y14400623D01*
X33236206Y14798042D01*
X32838787Y15063588D01*
X32370000Y15156836D01*
X31901213Y15063588D01*
X31503794Y14798042D01*
X31238248Y14400623D01*
X31145000Y13931836D01*
X31055000Y13931836D01*
X30961752Y14400623D01*
X30696206Y14798042D01*
X30298787Y15063588D01*
X30125813Y15097995D01*
X31352771Y16324953D01*
X31443579Y16324874D01*
X31710143Y16435016D01*
X31914267Y16638784D01*
X32024874Y16905156D01*
X32025126Y17193579D01*
X31914984Y17460143D01*
X31711216Y17664267D01*
X31474968Y17762366D01*
X31475126Y17943579D01*
X31364984Y18210143D01*
X31161216Y18414267D01*
X30894844Y18524874D01*
X30606421Y18525126D01*
X30339857Y18414984D01*
X30135733Y18211216D01*
X30025126Y17944844D01*
X30025046Y17852864D01*
X28672182Y16500000D01*
X24377817Y16500000D01*
X25518263Y17640445D01*
X25555156Y17625126D01*
X25843579Y17624874D01*
X26110143Y17735016D01*
X26314267Y17938784D01*
X26424874Y18205156D01*
X26425126Y18493579D01*
X26314984Y18760143D01*
X26111216Y18964267D01*
X25844844Y19074874D01*
X25556421Y19075126D01*
X25289857Y18964984D01*
X25085733Y18761216D01*
X25082376Y18753131D01*
X25061091Y18738909D01*
X25061089Y18738906D01*
X21778531Y15456349D01*
X21750225Y15524854D01*
X21814267Y15588784D01*
X21924874Y15855156D01*
X21925126Y16143579D01*
X21814984Y16410143D01*
X21725306Y16499978D01*
X21814267Y16588784D01*
X21924874Y16855156D01*
X21925126Y17143579D01*
X21814984Y17410143D01*
X21611216Y17614267D01*
X21344844Y17724874D01*
X21056421Y17725126D01*
X20789857Y17614984D01*
X20724759Y17550000D01*
X18900005Y17550000D01*
X18900000Y17550001D01*
X18689524Y17508134D01*
X18511091Y17388909D01*
X17351091Y16228909D01*
X17231866Y16050476D01*
X17190000Y15840000D01*
X17190000Y15009323D01*
X16873794Y14798042D01*
X16608248Y14400623D01*
X16515000Y13931836D01*
X16425000Y13931836D01*
X16331752Y14400623D01*
X16066206Y14798042D01*
X15875000Y14925801D01*
X15875000Y15770406D01*
X16952297Y16847703D01*
X16953053Y16848835D01*
X16954180Y16849594D01*
X17026176Y16958271D01*
X17098618Y17066688D01*
X17098883Y17068021D01*
X17099635Y17069156D01*
X17124587Y17197240D01*
X17150000Y17325000D01*
X17149735Y17326333D01*
X17149995Y17327668D01*
X17148678Y17660863D01*
X17355156Y17575126D01*
X17643579Y17574874D01*
X17764893Y17625000D01*
X20000000Y17625000D01*
X20258312Y17676381D01*
X20477297Y17822703D01*
X20589945Y17935351D01*
X20710143Y17985016D01*
X20914267Y18188784D01*
X21024874Y18455156D01*
X21025126Y18743579D01*
X20914984Y19010143D01*
X20711216Y19214267D01*
X20444844Y19324874D01*
X20156421Y19325126D01*
X19889857Y19214984D01*
X19685733Y19011216D01*
X19670695Y18975000D01*
X17764954Y18975000D01*
X17644844Y19024874D01*
X17356421Y19025126D01*
X17143633Y18937204D01*
X17140841Y19643523D01*
X17271213Y19556412D01*
X17740000Y19463164D01*
X18208787Y19556412D01*
X18606206Y19821958D01*
X18871752Y20219377D01*
X18965000Y20688164D01*
X18965000Y21551836D01*
X18871752Y22020623D01*
X18705703Y22269134D01*
X18888784Y22085733D01*
X19140416Y21981247D01*
X19055000Y21551836D01*
X19055000Y20688164D01*
X19148248Y20219377D01*
X19413794Y19821958D01*
X19811213Y19556412D01*
X20280000Y19463164D01*
X20748787Y19556412D01*
X20878859Y19643323D01*
X21524953Y18997229D01*
X21524874Y18906421D01*
X21635016Y18639857D01*
X21838784Y18435733D01*
X22105156Y18325126D01*
X22393579Y18324874D01*
X22660143Y18435016D01*
X22864267Y18638784D01*
X22974874Y18905156D01*
X22975126Y19193579D01*
X22864984Y19460143D01*
X22661216Y19664267D01*
X22394844Y19774874D01*
X22302864Y19774954D01*
X21485863Y20591955D01*
X21505000Y20688164D01*
X21505000Y21317183D01*
X22091089Y20731094D01*
X22091091Y20731091D01*
X22269524Y20611866D01*
X22480000Y20570000D01*
X23548504Y20570000D01*
X23618248Y20219377D01*
X23883794Y19821958D01*
X24281213Y19556412D01*
X24750000Y19463164D01*
X25218787Y19556412D01*
X25616206Y19821958D01*
X25881752Y20219377D01*
X25975000Y20688164D01*
X25975000Y21551836D01*
X25881752Y22020623D01*
X25616206Y22418042D01*
X25218787Y22683588D01*
X24750000Y22776836D01*
X24281213Y22683588D01*
X23883794Y22418042D01*
X23618248Y22020623D01*
X23548504Y21670000D01*
X22707817Y21670000D01*
X21288909Y23088909D01*
X21110476Y23208134D01*
X20900000Y23250000D01*
X19775371Y23250000D01*
X19711216Y23314267D01*
X19444844Y23424874D01*
X19156421Y23425126D01*
X18889857Y23314984D01*
X18685733Y23111216D01*
X18575126Y22844844D01*
X18574874Y22556421D01*
X18673932Y22316683D01*
X18606206Y22418042D01*
X18300000Y22622642D01*
X18300000Y22974629D01*
X18364267Y23038784D01*
X18474874Y23305156D01*
X18475126Y23593579D01*
X18389487Y23800842D01*
X18780000Y23723164D01*
X19248787Y23816412D01*
X19646206Y24081958D01*
X19911752Y24479377D01*
X20005000Y24948164D01*
X20005000Y25811836D01*
X19969272Y25991454D01*
X20170819Y26193002D01*
X20095000Y25811836D01*
X20095000Y24948164D01*
X20188248Y24479377D01*
X20453794Y24081958D01*
X20851213Y23816412D01*
X21320000Y23723164D01*
X21788787Y23816412D01*
X22186206Y24081958D01*
X22451752Y24479377D01*
X22545000Y24948164D01*
X22545000Y25811836D01*
X22451752Y26280623D01*
X22271761Y26550000D01*
X22908239Y26550000D01*
X22728248Y26280623D01*
X22635000Y25811836D01*
X22635000Y24948164D01*
X22728248Y24479377D01*
X22993794Y24081958D01*
X23391213Y23816412D01*
X23860000Y23723164D01*
X24328787Y23816412D01*
X24726206Y24081958D01*
X24991752Y24479377D01*
X25085000Y24948164D01*
X25085000Y25811836D01*
X24991752Y26280623D01*
X24811761Y26550000D01*
X25448239Y26550000D01*
X25268248Y26280623D01*
X25175000Y25811836D01*
X25175000Y24948164D01*
X25268248Y24479377D01*
X25533794Y24081958D01*
X25931213Y23816412D01*
X26400000Y23723164D01*
X26525041Y23748036D01*
X26524874Y23556421D01*
X26635016Y23289857D01*
X26740000Y23184690D01*
X26740000Y22629323D01*
X26423794Y22418042D01*
X26158248Y22020623D01*
X26065000Y21551836D01*
X26065000Y20688164D01*
X26158248Y20219377D01*
X26423794Y19821958D01*
X26821213Y19556412D01*
X27290000Y19463164D01*
X27758787Y19556412D01*
X28156206Y19821958D01*
X28421752Y20219377D01*
X28515000Y20688164D01*
X28515000Y21551836D01*
X28605000Y21551836D01*
X28605000Y20688164D01*
X28698248Y20219377D01*
X28963794Y19821958D01*
X29361213Y19556412D01*
X29830000Y19463164D01*
X30298787Y19556412D01*
X30696206Y19821958D01*
X30961752Y20219377D01*
X31055000Y20688164D01*
X31055000Y21551836D01*
X31145000Y21551836D01*
X31145000Y20688164D01*
X31238248Y20219377D01*
X31503794Y19821958D01*
X31901213Y19556412D01*
X32370000Y19463164D01*
X32838787Y19556412D01*
X33236206Y19821958D01*
X33501752Y20219377D01*
X33590948Y20667792D01*
X33695427Y20189847D01*
X33990762Y19765406D01*
X34426042Y19486293D01*
X34678069Y19415457D01*
X34885000Y19526512D01*
X34885000Y21095000D01*
X34865000Y21095000D01*
X34865000Y21145000D01*
X34885000Y21145000D01*
X34885000Y22713488D01*
X34935000Y22713488D01*
X34935000Y21145000D01*
X34955000Y21145000D01*
X34955000Y21095000D01*
X34935000Y21095000D01*
X34935000Y19526512D01*
X35141931Y19415457D01*
X35393958Y19486293D01*
X35829238Y19765406D01*
X36124573Y20189847D01*
X36229052Y20667792D01*
X36318248Y20219377D01*
X36583794Y19821958D01*
X36951191Y19576472D01*
X36835733Y19461216D01*
X36725126Y19194844D01*
X36724874Y18906421D01*
X36775000Y18785107D01*
X36775000Y16985368D01*
X36675126Y16744844D01*
X36674874Y16456421D01*
X36785016Y16189857D01*
X36988784Y15985733D01*
X37255156Y15875126D01*
X37543579Y15874874D01*
X37810143Y15985016D01*
X38014267Y16188784D01*
X38124874Y16455156D01*
X38125126Y16743579D01*
X38125000Y16743884D01*
X38125000Y18785046D01*
X38174874Y18905156D01*
X38175126Y19193579D01*
X38064984Y19460143D01*
X37948838Y19576492D01*
X38316206Y19821958D01*
X38581752Y20219377D01*
X38675000Y20688164D01*
X38675000Y21551836D01*
X38765000Y21551836D01*
X38765000Y20688164D01*
X38858248Y20219377D01*
X39123794Y19821958D01*
X39521213Y19556412D01*
X39990000Y19463164D01*
X40458787Y19556412D01*
X40856206Y19821958D01*
X41121752Y20219377D01*
X41215000Y20688164D01*
X41215000Y21551836D01*
X41305000Y21551836D01*
X41305000Y20688164D01*
X41398248Y20219377D01*
X41663794Y19821958D01*
X42061213Y19556412D01*
X42530000Y19463164D01*
X42998787Y19556412D01*
X43396206Y19821958D01*
X43661752Y20219377D01*
X43755000Y20688164D01*
X43755000Y21551836D01*
X43845000Y21551836D01*
X43845000Y20688164D01*
X43938248Y20219377D01*
X44203794Y19821958D01*
X44601213Y19556412D01*
X45070000Y19463164D01*
X45538787Y19556412D01*
X45936206Y19821958D01*
X46201752Y20219377D01*
X46295000Y20688164D01*
X46295000Y21551836D01*
X46385000Y21551836D01*
X46385000Y20688164D01*
X46478248Y20219377D01*
X46743794Y19821958D01*
X47141213Y19556412D01*
X47610000Y19463164D01*
X48078787Y19556412D01*
X48476206Y19821958D01*
X48741752Y20219377D01*
X48835000Y20688164D01*
X48835000Y21551836D01*
X48741752Y22020623D01*
X48476206Y22418042D01*
X48078787Y22683588D01*
X47610000Y22776836D01*
X47141213Y22683588D01*
X46743794Y22418042D01*
X46478248Y22020623D01*
X46385000Y21551836D01*
X46295000Y21551836D01*
X46201752Y22020623D01*
X45936206Y22418042D01*
X45538787Y22683588D01*
X45070000Y22776836D01*
X44601213Y22683588D01*
X44203794Y22418042D01*
X43938248Y22020623D01*
X43845000Y21551836D01*
X43755000Y21551836D01*
X43661752Y22020623D01*
X43396206Y22418042D01*
X42998787Y22683588D01*
X42530000Y22776836D01*
X42061213Y22683588D01*
X41663794Y22418042D01*
X41398248Y22020623D01*
X41305000Y21551836D01*
X41215000Y21551836D01*
X41121752Y22020623D01*
X40856206Y22418042D01*
X40458787Y22683588D01*
X39990000Y22776836D01*
X39521213Y22683588D01*
X39123794Y22418042D01*
X38858248Y22020623D01*
X38765000Y21551836D01*
X38675000Y21551836D01*
X38581752Y22020623D01*
X38316206Y22418042D01*
X37918787Y22683588D01*
X37450000Y22776836D01*
X36981213Y22683588D01*
X36583794Y22418042D01*
X36318248Y22020623D01*
X36229052Y21572208D01*
X36124573Y22050153D01*
X35829238Y22474594D01*
X35393958Y22753707D01*
X35141931Y22824543D01*
X34935000Y22713488D01*
X34885000Y22713488D01*
X34678069Y22824543D01*
X34426042Y22753707D01*
X33990762Y22474594D01*
X33695427Y22050153D01*
X33590948Y21572208D01*
X33501752Y22020623D01*
X33236206Y22418042D01*
X32838787Y22683588D01*
X32370000Y22776836D01*
X31901213Y22683588D01*
X31503794Y22418042D01*
X31238248Y22020623D01*
X31145000Y21551836D01*
X31055000Y21551836D01*
X30961752Y22020623D01*
X30696206Y22418042D01*
X30298787Y22683588D01*
X29830000Y22776836D01*
X29361213Y22683588D01*
X28963794Y22418042D01*
X28698248Y22020623D01*
X28605000Y21551836D01*
X28515000Y21551836D01*
X28421752Y22020623D01*
X28156206Y22418042D01*
X27840000Y22629323D01*
X27840000Y23264559D01*
X27864267Y23288784D01*
X27974874Y23555156D01*
X27975126Y23843579D01*
X27864984Y24110143D01*
X27661216Y24314267D01*
X27473509Y24392210D01*
X27524012Y24467794D01*
X41284754Y24467794D01*
X41501240Y23943857D01*
X41901749Y23542649D01*
X42425307Y23325248D01*
X42992206Y23324754D01*
X43516143Y23541240D01*
X43701047Y23725822D01*
X46801177Y23725822D01*
X46896410Y23477546D01*
X47451378Y23232444D01*
X48057897Y23218376D01*
X48623632Y23437484D01*
X48683590Y23477546D01*
X48778823Y23725822D01*
X47790000Y24714645D01*
X46801177Y23725822D01*
X43701047Y23725822D01*
X43917351Y23941749D01*
X44134752Y24465307D01*
X44134766Y24482103D01*
X46258376Y24482103D01*
X46477484Y23916368D01*
X46517546Y23856410D01*
X46765822Y23761177D01*
X47754645Y24750000D01*
X47825355Y24750000D01*
X48814178Y23761177D01*
X49062454Y23856410D01*
X49307556Y24411378D01*
X49321624Y25017897D01*
X49102516Y25583632D01*
X49062454Y25643590D01*
X48814178Y25738823D01*
X47825355Y24750000D01*
X47754645Y24750000D01*
X46765822Y25738823D01*
X46517546Y25643590D01*
X46272444Y25088622D01*
X46258376Y24482103D01*
X44134766Y24482103D01*
X44135246Y25032206D01*
X43918760Y25556143D01*
X43701105Y25774178D01*
X46801177Y25774178D01*
X47790000Y24785355D01*
X48778823Y25774178D01*
X48683590Y26022454D01*
X48128622Y26267556D01*
X47522103Y26281624D01*
X46956368Y26062516D01*
X46896410Y26022454D01*
X46801177Y25774178D01*
X43701105Y25774178D01*
X43518251Y25957351D01*
X42994693Y26174752D01*
X42427794Y26175246D01*
X41903857Y25958760D01*
X41502649Y25558251D01*
X41285248Y25034693D01*
X41284754Y24467794D01*
X27524012Y24467794D01*
X27531752Y24479377D01*
X27625000Y24948164D01*
X27625000Y25811836D01*
X27531752Y26280623D01*
X27454573Y26396130D01*
X27505156Y26375126D01*
X27793579Y26374874D01*
X27800645Y26377794D01*
X29374754Y26377794D01*
X29591240Y25853857D01*
X29991749Y25452649D01*
X30515307Y25235248D01*
X31082206Y25234754D01*
X31606143Y25451240D01*
X32007351Y25851749D01*
X32224752Y26375307D01*
X32225246Y26942206D01*
X32008760Y27466143D01*
X31608251Y27867351D01*
X31084693Y28084752D01*
X30517794Y28085246D01*
X29993857Y27868760D01*
X29592649Y27468251D01*
X29375248Y26944693D01*
X29374754Y26377794D01*
X27800645Y26377794D01*
X28060143Y26485016D01*
X28264267Y26688784D01*
X28374874Y26955156D01*
X28375126Y27243579D01*
X28264984Y27510143D01*
X28061216Y27714267D01*
X27794844Y27824874D01*
X27506421Y27825126D01*
X27239857Y27714984D01*
X27174759Y27650000D01*
X21939686Y27650000D01*
X22024874Y27855156D01*
X22025126Y28143579D01*
X21975000Y28264893D01*
X21975000Y29485046D01*
X22024874Y29605156D01*
X22025126Y29893579D01*
X21914984Y30160143D01*
X21711216Y30364267D01*
X21444844Y30474874D01*
X21156421Y30475126D01*
X20889857Y30364984D01*
X20685733Y30161216D01*
X20575126Y29894844D01*
X20574874Y29606421D01*
X20625000Y29485107D01*
X20625000Y28264954D01*
X20575126Y28144844D01*
X20574874Y27856421D01*
X20660165Y27650000D01*
X20300005Y27650000D01*
X20300000Y27650001D01*
X20089524Y27608134D01*
X19911091Y27488909D01*
X19911089Y27488906D01*
X19318914Y26896731D01*
X19248787Y26943588D01*
X18780000Y27036836D01*
X18311213Y26943588D01*
X17913794Y26678042D01*
X17648248Y26280623D01*
X17555000Y25811836D01*
X17555000Y24948164D01*
X17648248Y24479377D01*
X17851685Y24174912D01*
X17606421Y24175126D01*
X17339857Y24064984D01*
X17193862Y23919244D01*
X17114984Y24110143D01*
X16911216Y24314267D01*
X16644844Y24424874D01*
X16356421Y24425126D01*
X16089857Y24314984D01*
X15885733Y24111216D01*
X15805984Y23919159D01*
X15611216Y24114267D01*
X15344844Y24224874D01*
X15056421Y24225126D01*
X14789857Y24114984D01*
X14585733Y23911216D01*
X14475126Y23644844D01*
X14474874Y23356421D01*
X14525000Y23235107D01*
X14525000Y22545801D01*
X14333794Y22418042D01*
X14068248Y22020623D01*
X13979052Y21572208D01*
X13874573Y22050153D01*
X13579238Y22474594D01*
X13143958Y22753707D01*
X12891931Y22824543D01*
X12685000Y22713488D01*
X12635000Y22713488D01*
X12428069Y22824543D01*
X12176042Y22753707D01*
X11740762Y22474594D01*
X11445427Y22050153D01*
X11390000Y21796600D01*
X11334573Y22050153D01*
X11039238Y22474594D01*
X10603958Y22753707D01*
X10351931Y22824543D01*
X10145000Y22713488D01*
X10095000Y22713488D01*
X9888069Y22824543D01*
X9636042Y22753707D01*
X9200762Y22474594D01*
X8905427Y22050153D01*
X8800948Y21572208D01*
X8711752Y22020623D01*
X8446206Y22418042D01*
X8255000Y22545801D01*
X8255000Y23286880D01*
X8324874Y23455156D01*
X8325126Y23743579D01*
X8214984Y24010143D01*
X8011216Y24214267D01*
X7744844Y24324874D01*
X7456421Y24325126D01*
X7189857Y24214984D01*
X6985733Y24011216D01*
X6875126Y23744844D01*
X6874874Y23456421D01*
X6905000Y23383511D01*
X6905000Y22545801D01*
X6713794Y22418042D01*
X6448248Y22020623D01*
X6355000Y21551836D01*
X6265000Y21551836D01*
X6171752Y22020623D01*
X5906206Y22418042D01*
X5508787Y22683588D01*
X5040000Y22776836D01*
X4571213Y22683588D01*
X4173794Y22418042D01*
X3908248Y22020623D01*
X3815000Y21551836D01*
X3725000Y21551836D01*
X3631752Y22020623D01*
X3366206Y22418042D01*
X2968787Y22683588D01*
X2500000Y22776836D01*
X2031213Y22683588D01*
X1633794Y22418042D01*
X1368248Y22020623D01*
X1275000Y21551836D01*
X475000Y21551836D01*
X475000Y27200000D01*
X3247083Y27200000D01*
X3347943Y26692944D01*
X3635167Y26263084D01*
X4065027Y25975860D01*
X4572083Y25875000D01*
X4827917Y25875000D01*
X5334973Y25975860D01*
X5764833Y26263084D01*
X6052057Y26692944D01*
X6152917Y27200000D01*
X13407083Y27200000D01*
X13507943Y26692944D01*
X13795167Y26263084D01*
X14225027Y25975860D01*
X14732083Y25875000D01*
X14987917Y25875000D01*
X15494973Y25975860D01*
X15924833Y26263084D01*
X16212057Y26692944D01*
X16312917Y27200000D01*
X16212057Y27707056D01*
X15924833Y28136916D01*
X15494973Y28424140D01*
X14987917Y28525000D01*
X14732083Y28525000D01*
X14225027Y28424140D01*
X13795167Y28136916D01*
X13507943Y27707056D01*
X13407083Y27200000D01*
X6152917Y27200000D01*
X6052057Y27707056D01*
X5764833Y28136916D01*
X5334973Y28424140D01*
X4827917Y28525000D01*
X4572083Y28525000D01*
X4065027Y28424140D01*
X3635167Y28136916D01*
X3347943Y27707056D01*
X3247083Y27200000D01*
X475000Y27200000D01*
X475000Y30465855D01*
X566410Y30227546D01*
X1121378Y29982444D01*
X1727897Y29968376D01*
X2293632Y30187484D01*
X2353590Y30227546D01*
X2448823Y30475822D01*
X1460000Y31464645D01*
X1445858Y31450502D01*
X1410503Y31485857D01*
X1424645Y31500000D01*
X1495355Y31500000D01*
X2484178Y30511177D01*
X2732454Y30606410D01*
X2842871Y30856421D01*
X3774874Y30856421D01*
X3885016Y30589857D01*
X4088784Y30385733D01*
X4210010Y30335396D01*
X5522703Y29022703D01*
X5610845Y28963809D01*
X5688784Y28885733D01*
X5955156Y28775126D01*
X6243579Y28774874D01*
X6510143Y28885016D01*
X6714267Y29088784D01*
X6824874Y29355156D01*
X6825126Y29643579D01*
X6714984Y29910143D01*
X6550424Y30074991D01*
X6822206Y30074754D01*
X7346143Y30291240D01*
X7747351Y30691749D01*
X7964752Y31215307D01*
X7965246Y31782206D01*
X7748760Y32306143D01*
X7348251Y32707351D01*
X6824693Y32924752D01*
X6257794Y32925246D01*
X5733857Y32708760D01*
X5332649Y32308251D01*
X5115248Y31784693D01*
X5114922Y31410205D01*
X4911216Y31614267D01*
X4644844Y31724874D01*
X4356421Y31725126D01*
X4089857Y31614984D01*
X3885733Y31411216D01*
X3775126Y31144844D01*
X3774874Y30856421D01*
X2842871Y30856421D01*
X2977556Y31161378D01*
X2991624Y31767897D01*
X2772516Y32333632D01*
X2732454Y32393590D01*
X2484178Y32488823D01*
X1495355Y31500000D01*
X1424645Y31500000D01*
X1410503Y31514142D01*
X1445858Y31549497D01*
X1460000Y31535355D01*
X2448823Y32524178D01*
X2353590Y32772454D01*
X1798622Y33017556D01*
X1192103Y33031624D01*
X626368Y32812516D01*
X566410Y32772454D01*
X475000Y32534145D01*
X475000Y33469706D01*
X651749Y33292649D01*
X1175307Y33075248D01*
X1742206Y33074754D01*
X2266143Y33291240D01*
X2451047Y33475822D01*
X5551177Y33475822D01*
X5646410Y33227546D01*
X6201378Y32982444D01*
X6807897Y32968376D01*
X7373632Y33187484D01*
X7433590Y33227546D01*
X7528823Y33475822D01*
X6540000Y34464645D01*
X5551177Y33475822D01*
X2451047Y33475822D01*
X2667351Y33691749D01*
X2884752Y34215307D01*
X2884766Y34232103D01*
X5008376Y34232103D01*
X5227484Y33666368D01*
X5267546Y33606410D01*
X5515822Y33511177D01*
X6504645Y34500000D01*
X6575355Y34500000D01*
X7564178Y33511177D01*
X7812454Y33606410D01*
X8057556Y34161378D01*
X8061931Y34350000D01*
X8216674Y34350000D01*
X8216674Y32650000D01*
X8246309Y32492504D01*
X8339389Y32347854D01*
X8481412Y32250814D01*
X8650000Y32216674D01*
X10350000Y32216674D01*
X10507496Y32246309D01*
X10652146Y32339389D01*
X10684562Y32386831D01*
X10696318Y32351294D01*
X11197085Y32131178D01*
X11743969Y32119453D01*
X12253710Y32317903D01*
X12303682Y32351294D01*
X12380660Y32583984D01*
X11500000Y33464645D01*
X11485858Y33450502D01*
X11450502Y33485858D01*
X11464645Y33500000D01*
X11535355Y33500000D01*
X12416016Y32619340D01*
X12648706Y32696318D01*
X12771202Y32975000D01*
X17455000Y32975000D01*
X17455000Y32575000D01*
X17565427Y32069847D01*
X17860762Y31645406D01*
X18296042Y31366293D01*
X18548069Y31295457D01*
X18755000Y31406512D01*
X18755000Y32975000D01*
X17455000Y32975000D01*
X12771202Y32975000D01*
X12868822Y33197085D01*
X12873708Y33425000D01*
X17455000Y33425000D01*
X17455000Y33025000D01*
X18755000Y33025000D01*
X18755000Y34593488D01*
X18805000Y34593488D01*
X18805000Y33025000D01*
X18825000Y33025000D01*
X18825000Y32975000D01*
X18805000Y32975000D01*
X18805000Y31406512D01*
X19011931Y31295457D01*
X19263958Y31366293D01*
X19699238Y31645406D01*
X19994573Y32069847D01*
X20099052Y32547792D01*
X20188248Y32099377D01*
X20453794Y31701958D01*
X20851213Y31436412D01*
X21320000Y31343164D01*
X21788787Y31436412D01*
X22186206Y31701958D01*
X22451752Y32099377D01*
X22540948Y32547792D01*
X22645427Y32069847D01*
X22940762Y31645406D01*
X23376042Y31366293D01*
X23628069Y31295457D01*
X23835000Y31406512D01*
X23835000Y32975000D01*
X23815000Y32975000D01*
X23815000Y33025000D01*
X23835000Y33025000D01*
X23835000Y34593488D01*
X23885000Y34593488D01*
X23885000Y33025000D01*
X23905000Y33025000D01*
X23905000Y32975000D01*
X23885000Y32975000D01*
X23885000Y31406512D01*
X24091931Y31295457D01*
X24343958Y31366293D01*
X24779238Y31645406D01*
X25074573Y32069847D01*
X25166674Y32491167D01*
X25166674Y31800000D01*
X25196309Y31642504D01*
X25289389Y31497854D01*
X25431412Y31400814D01*
X25600000Y31366674D01*
X27200000Y31366674D01*
X27357496Y31396309D01*
X27453046Y31457794D01*
X29374754Y31457794D01*
X29591240Y30933857D01*
X29991749Y30532649D01*
X30515307Y30315248D01*
X31082206Y30314754D01*
X31606143Y30531240D01*
X32007351Y30931749D01*
X32224752Y31455307D01*
X32225246Y32022206D01*
X32008760Y32546143D01*
X31608251Y32947351D01*
X31084693Y33164752D01*
X30517794Y33165246D01*
X29993857Y32948760D01*
X29592649Y32548251D01*
X29375248Y32024693D01*
X29374754Y31457794D01*
X27453046Y31457794D01*
X27502146Y31489389D01*
X27599186Y31631412D01*
X27633326Y31800000D01*
X27633326Y34200000D01*
X27603691Y34357496D01*
X27510611Y34502146D01*
X27368588Y34599186D01*
X27200000Y34633326D01*
X25600000Y34633326D01*
X25442504Y34603691D01*
X25297854Y34510611D01*
X25200814Y34368588D01*
X25166674Y34200000D01*
X25166674Y33508833D01*
X25074573Y33930153D01*
X24779238Y34354594D01*
X24343958Y34633707D01*
X24091931Y34704543D01*
X23885000Y34593488D01*
X23835000Y34593488D01*
X23628069Y34704543D01*
X23376042Y34633707D01*
X22940762Y34354594D01*
X22645427Y33930153D01*
X22540948Y33452208D01*
X22451752Y33900623D01*
X22186206Y34298042D01*
X21788787Y34563588D01*
X21320000Y34656836D01*
X20851213Y34563588D01*
X20453794Y34298042D01*
X20188248Y33900623D01*
X20099052Y33452208D01*
X19994573Y33930153D01*
X19699238Y34354594D01*
X19263958Y34633707D01*
X19011931Y34704543D01*
X18805000Y34593488D01*
X18755000Y34593488D01*
X18548069Y34704543D01*
X18296042Y34633707D01*
X17860762Y34354594D01*
X17565427Y33930153D01*
X17455000Y33425000D01*
X12873708Y33425000D01*
X12880547Y33743969D01*
X12682097Y34253710D01*
X12648706Y34303682D01*
X12416016Y34380660D01*
X11535355Y33500000D01*
X11464645Y33500000D01*
X11450502Y33514142D01*
X11485858Y33549498D01*
X11500000Y33535355D01*
X12380660Y34416016D01*
X12303682Y34648706D01*
X11802915Y34868822D01*
X11256031Y34880547D01*
X10746290Y34682097D01*
X10696318Y34648706D01*
X10684946Y34614329D01*
X10660611Y34652146D01*
X10518588Y34749186D01*
X10350000Y34783326D01*
X8650000Y34783326D01*
X8492504Y34753691D01*
X8347854Y34660611D01*
X8250814Y34518588D01*
X8216674Y34350000D01*
X8061931Y34350000D01*
X8071624Y34767897D01*
X7852516Y35333632D01*
X7812454Y35393590D01*
X7564178Y35488823D01*
X6575355Y34500000D01*
X6504645Y34500000D01*
X5515822Y35488823D01*
X5267546Y35393590D01*
X5022444Y34838622D01*
X5008376Y34232103D01*
X2884766Y34232103D01*
X2885246Y34782206D01*
X2668760Y35306143D01*
X2451105Y35524178D01*
X5551177Y35524178D01*
X6540000Y34535355D01*
X7528823Y35524178D01*
X7433590Y35772454D01*
X6878622Y36017556D01*
X6272103Y36031624D01*
X5706368Y35812516D01*
X5646410Y35772454D01*
X5551177Y35524178D01*
X2451105Y35524178D01*
X2268251Y35707351D01*
X1744693Y35924752D01*
X1177794Y35925246D01*
X653857Y35708760D01*
X475000Y35530215D01*
X475000Y36256421D01*
X7974874Y36256421D01*
X8085016Y35989857D01*
X8288784Y35785733D01*
X8555156Y35675126D01*
X8843579Y35674874D01*
X8964893Y35725000D01*
X10735046Y35725000D01*
X10855156Y35675126D01*
X11143579Y35674874D01*
X11410143Y35785016D01*
X11614267Y35988784D01*
X11724874Y36255156D01*
X11725126Y36543579D01*
X11614984Y36810143D01*
X11411216Y37014267D01*
X11144844Y37124874D01*
X10856421Y37125126D01*
X10735107Y37075000D01*
X8964954Y37075000D01*
X8844844Y37124874D01*
X8556421Y37125126D01*
X8289857Y37014984D01*
X8085733Y36811216D01*
X7975126Y36544844D01*
X7974874Y36256421D01*
X475000Y36256421D01*
X475000Y42500000D01*
X5047083Y42500000D01*
X5140331Y42031213D01*
X5405877Y41633794D01*
X5606115Y41500000D01*
X5405877Y41366206D01*
X5140331Y40968787D01*
X5047083Y40500000D01*
X5140331Y40031213D01*
X5405877Y39633794D01*
X5803296Y39368248D01*
X6272083Y39275000D01*
X6727917Y39275000D01*
X7196704Y39368248D01*
X7594123Y39633794D01*
X7859669Y40031213D01*
X7952917Y40500000D01*
X7859669Y40968787D01*
X7594123Y41366206D01*
X7417421Y41484274D01*
X7978084Y41484274D01*
X8062735Y41183382D01*
X8388671Y40678026D01*
X8745971Y40430810D01*
X8443852Y40228941D01*
X8131483Y39761447D01*
X8021793Y39210000D01*
X8131483Y38658553D01*
X8443852Y38191059D01*
X8911346Y37878690D01*
X9462793Y37769000D01*
X10037207Y37769000D01*
X10588654Y37878690D01*
X11056148Y38191059D01*
X11368517Y38658553D01*
X11478207Y39210000D01*
X11368517Y39761447D01*
X11146480Y40093750D01*
X15075000Y40093750D01*
X15075000Y39245571D01*
X15154926Y39052611D01*
X15302611Y38904926D01*
X15495571Y38825000D01*
X15741477Y38825000D01*
X15377375Y38461532D01*
X15175231Y37974715D01*
X15174771Y37447598D01*
X15376065Y36960428D01*
X15748468Y36587375D01*
X16235285Y36385231D01*
X16762402Y36384771D01*
X17249572Y36586065D01*
X17622625Y36958468D01*
X17665547Y37061836D01*
X24155000Y37061836D01*
X24155000Y36198164D01*
X24248248Y35729377D01*
X24513794Y35331958D01*
X24911213Y35066412D01*
X25380000Y34973164D01*
X25848787Y35066412D01*
X26246206Y35331958D01*
X26511752Y35729377D01*
X26605000Y36198164D01*
X26605000Y37061836D01*
X26695000Y37061836D01*
X26695000Y36198164D01*
X26788248Y35729377D01*
X27053794Y35331958D01*
X27451213Y35066412D01*
X27920000Y34973164D01*
X28388787Y35066412D01*
X28786206Y35331958D01*
X29051752Y35729377D01*
X29145000Y36198164D01*
X29145000Y37061836D01*
X29062801Y37475076D01*
X29293579Y37474874D01*
X29319270Y37485489D01*
X29235000Y37061836D01*
X29235000Y36198164D01*
X29328248Y35729377D01*
X29593794Y35331958D01*
X29991213Y35066412D01*
X30460000Y34973164D01*
X30928787Y35066412D01*
X31326206Y35331958D01*
X31591752Y35729377D01*
X31685000Y36198164D01*
X31685000Y37061836D01*
X31775000Y37061836D01*
X31775000Y36198164D01*
X31868248Y35729377D01*
X32133794Y35331958D01*
X32325000Y35204199D01*
X32325000Y33460000D01*
X32376381Y33201688D01*
X32522703Y32982703D01*
X33089664Y32415742D01*
X33035248Y32284693D01*
X33034754Y31717794D01*
X33251240Y31193857D01*
X33651749Y30792649D01*
X34175307Y30575248D01*
X34497150Y30574968D01*
X34071091Y30148909D01*
X33951866Y29970476D01*
X33910000Y29760000D01*
X33910000Y28914596D01*
X33653857Y28808760D01*
X33252649Y28408251D01*
X33035248Y27884693D01*
X33034754Y27317794D01*
X33251240Y26793857D01*
X33651749Y26392649D01*
X34175307Y26175248D01*
X34742206Y26174754D01*
X35266143Y26391240D01*
X35667351Y26791749D01*
X35884752Y27315307D01*
X35885246Y27882206D01*
X35668760Y28406143D01*
X35400372Y28674999D01*
X35543579Y28674874D01*
X35810143Y28785016D01*
X35875241Y28850000D01*
X38224629Y28850000D01*
X38288784Y28785733D01*
X38555156Y28675126D01*
X38599951Y28675087D01*
X38332649Y28408251D01*
X38115248Y27884693D01*
X38114754Y27317794D01*
X38331240Y26793857D01*
X38731749Y26392649D01*
X39255307Y26175248D01*
X39822206Y26174754D01*
X40346143Y26391240D01*
X40747351Y26791749D01*
X40964752Y27315307D01*
X40965246Y27882206D01*
X40748760Y28406143D01*
X40348251Y28807351D01*
X39824693Y29024752D01*
X39329381Y29025184D01*
X39424874Y29255156D01*
X39425066Y29474890D01*
X39443579Y29474874D01*
X39710143Y29585016D01*
X39914267Y29788784D01*
X40024874Y30055156D01*
X40025126Y30343579D01*
X39950707Y30523686D01*
X40373632Y30687484D01*
X40433590Y30727546D01*
X40528823Y30975822D01*
X39540000Y31964645D01*
X38551177Y30975822D01*
X38637797Y30750000D01*
X35875371Y30750000D01*
X35811216Y30814267D01*
X35544844Y30924874D01*
X35400137Y30925000D01*
X35667351Y31191749D01*
X35681158Y31225000D01*
X36885046Y31225000D01*
X37005156Y31175126D01*
X37293579Y31174874D01*
X37560143Y31285016D01*
X37764267Y31488784D01*
X37865301Y31732103D01*
X38008376Y31732103D01*
X38227484Y31166368D01*
X38267546Y31106410D01*
X38515822Y31011177D01*
X39504645Y32000000D01*
X39575355Y32000000D01*
X40564178Y31011177D01*
X40812454Y31106410D01*
X41057556Y31661378D01*
X41058451Y31700000D01*
X42616674Y31700000D01*
X42616674Y29900000D01*
X42646309Y29742504D01*
X42739389Y29597854D01*
X42881412Y29500814D01*
X43050000Y29466674D01*
X44850000Y29466674D01*
X45007496Y29496309D01*
X45152146Y29589389D01*
X45249186Y29731412D01*
X45283326Y29900000D01*
X45283326Y30153865D01*
X45326065Y30050428D01*
X45698468Y29677375D01*
X46185285Y29475231D01*
X46712402Y29474771D01*
X46895132Y29550274D01*
X47535351Y28910055D01*
X47585016Y28789857D01*
X47788784Y28585733D01*
X48055156Y28475126D01*
X48343579Y28474874D01*
X48610143Y28585016D01*
X48814267Y28788784D01*
X48924874Y29055156D01*
X48925126Y29343579D01*
X48814984Y29610143D01*
X48611216Y29814267D01*
X48489990Y29864604D01*
X47774808Y30579786D01*
X47775229Y31062402D01*
X47573935Y31549572D01*
X47201532Y31922625D01*
X46714715Y32124769D01*
X46187598Y32125229D01*
X45700428Y31923935D01*
X45327375Y31551532D01*
X45283326Y31445450D01*
X45283326Y31700000D01*
X45253691Y31857496D01*
X45160611Y32002146D01*
X45018588Y32099186D01*
X44850000Y32133326D01*
X43050000Y32133326D01*
X42892504Y32103691D01*
X42747854Y32010611D01*
X42650814Y31868588D01*
X42616674Y31700000D01*
X41058451Y31700000D01*
X41071624Y32267897D01*
X40852516Y32833632D01*
X40812454Y32893590D01*
X40564178Y32988823D01*
X39575355Y32000000D01*
X39504645Y32000000D01*
X38515822Y32988823D01*
X38267546Y32893590D01*
X38022444Y32338622D01*
X38008376Y31732103D01*
X37865301Y31732103D01*
X37874874Y31755156D01*
X37875126Y32043579D01*
X37764984Y32310143D01*
X37561216Y32514267D01*
X37294844Y32624874D01*
X37006421Y32625126D01*
X36885107Y32575000D01*
X35764266Y32575000D01*
X35668760Y32806143D01*
X35268251Y33207351D01*
X34744693Y33424752D01*
X34177794Y33425246D01*
X34044446Y33370148D01*
X33675000Y33739594D01*
X33675000Y35204199D01*
X33866206Y35331958D01*
X33997141Y35527917D01*
X35675000Y35527917D01*
X35675000Y35272083D01*
X35775860Y34765027D01*
X36063084Y34335167D01*
X36492944Y34047943D01*
X36516030Y34043351D01*
X36475126Y33944844D01*
X36474874Y33656421D01*
X36585016Y33389857D01*
X36788784Y33185733D01*
X37055156Y33075126D01*
X37343579Y33074874D01*
X37464893Y33125000D01*
X38589850Y33125000D01*
X38551177Y33024178D01*
X39540000Y32035355D01*
X40528823Y33024178D01*
X40433590Y33272454D01*
X39953927Y33484297D01*
X40024874Y33655156D01*
X40025126Y33943579D01*
X39989009Y34030989D01*
X40077774Y33973905D01*
X40352423Y33896671D01*
X40575000Y34006492D01*
X40575000Y35375000D01*
X40625000Y35375000D01*
X40625000Y34006492D01*
X40847577Y33896671D01*
X41122226Y33973905D01*
X41589949Y34274695D01*
X41906961Y34731579D01*
X42025000Y35275000D01*
X42025000Y35375000D01*
X40625000Y35375000D01*
X40575000Y35375000D01*
X39175000Y35375000D01*
X39175000Y35275000D01*
X39293039Y34731579D01*
X39436458Y34524881D01*
X39156421Y34525126D01*
X39035107Y34475000D01*
X38030350Y34475000D01*
X38224140Y34765027D01*
X38325000Y35272083D01*
X38325000Y35525000D01*
X39175000Y35525000D01*
X39175000Y35425000D01*
X40575000Y35425000D01*
X40575000Y36793508D01*
X40625000Y36793508D01*
X40625000Y35425000D01*
X42025000Y35425000D01*
X42025000Y35525000D01*
X41906961Y36068421D01*
X41589949Y36525305D01*
X41122226Y36826095D01*
X40847577Y36903329D01*
X40625000Y36793508D01*
X40575000Y36793508D01*
X40352423Y36903329D01*
X40077774Y36826095D01*
X39610051Y36525305D01*
X39293039Y36068421D01*
X39175000Y35525000D01*
X38325000Y35525000D01*
X38325000Y35527917D01*
X38224140Y36034973D01*
X37936916Y36464833D01*
X37507056Y36752057D01*
X37000000Y36852917D01*
X36492944Y36752057D01*
X36063084Y36464833D01*
X35775860Y36034973D01*
X35675000Y35527917D01*
X33997141Y35527917D01*
X34131752Y35729377D01*
X34225000Y36198164D01*
X34225000Y37061836D01*
X34131752Y37530623D01*
X33866206Y37928042D01*
X33468787Y38193588D01*
X33000000Y38286836D01*
X32531213Y38193588D01*
X32133794Y37928042D01*
X31868248Y37530623D01*
X31775000Y37061836D01*
X31685000Y37061836D01*
X31591752Y37530623D01*
X31326206Y37928042D01*
X30928787Y38193588D01*
X30460000Y38286836D01*
X29991213Y38193588D01*
X29874927Y38115888D01*
X29875126Y38343579D01*
X29845317Y38415723D01*
X30814945Y39385351D01*
X30935143Y39435016D01*
X31139267Y39638784D01*
X31249874Y39905156D01*
X31250126Y40193579D01*
X31139984Y40460143D01*
X30936216Y40664267D01*
X30669844Y40774874D01*
X30381421Y40775126D01*
X30114857Y40664984D01*
X29910733Y40461216D01*
X29860396Y40339990D01*
X28672703Y39152297D01*
X28526381Y38933312D01*
X28524789Y38925307D01*
X28475000Y38675000D01*
X28475000Y38464954D01*
X28425126Y38344844D01*
X28424973Y38169410D01*
X28388787Y38193588D01*
X27920000Y38286836D01*
X27451213Y38193588D01*
X27053794Y37928042D01*
X26788248Y37530623D01*
X26695000Y37061836D01*
X26605000Y37061836D01*
X26511752Y37530623D01*
X26246206Y37928042D01*
X25848787Y38193588D01*
X25380000Y38286836D01*
X24911213Y38193588D01*
X24513794Y37928042D01*
X24248248Y37530623D01*
X24155000Y37061836D01*
X17665547Y37061836D01*
X17824769Y37445285D01*
X17825229Y37972402D01*
X17623935Y38459572D01*
X17259144Y38825000D01*
X17504429Y38825000D01*
X17697389Y38904926D01*
X17845074Y39052611D01*
X17846652Y39056421D01*
X17974874Y39056421D01*
X18085016Y38789857D01*
X18288784Y38585733D01*
X18555156Y38475126D01*
X18843579Y38474874D01*
X18989095Y38535000D01*
X20487053Y38535000D01*
X20541240Y38403857D01*
X20941749Y38002649D01*
X21465307Y37785248D01*
X22032206Y37784754D01*
X22556143Y38001240D01*
X22957351Y38401749D01*
X23174752Y38925307D01*
X23175246Y39492206D01*
X22958760Y40016143D01*
X22558251Y40417351D01*
X22034693Y40634752D01*
X21467794Y40635246D01*
X20943857Y40418760D01*
X20542649Y40018251D01*
X20487318Y39885000D01*
X18940872Y39885000D01*
X18844844Y39924874D01*
X18556421Y39925126D01*
X18289857Y39814984D01*
X18085733Y39611216D01*
X17975126Y39344844D01*
X17974874Y39056421D01*
X17846652Y39056421D01*
X17925000Y39245571D01*
X17925000Y40093750D01*
X17793750Y40225000D01*
X16525000Y40225000D01*
X16525000Y40205000D01*
X16475000Y40205000D01*
X16475000Y40225000D01*
X15206250Y40225000D01*
X15075000Y40093750D01*
X11146480Y40093750D01*
X11056148Y40228941D01*
X10754029Y40430810D01*
X11111329Y40678026D01*
X11437265Y41183382D01*
X11457252Y41254429D01*
X15075000Y41254429D01*
X15075000Y40406250D01*
X15206250Y40275000D01*
X16475000Y40275000D01*
X16475000Y41543750D01*
X16525000Y41543750D01*
X16525000Y40275000D01*
X17793750Y40275000D01*
X17925000Y40406250D01*
X17925000Y41254429D01*
X17845074Y41447389D01*
X17697389Y41595074D01*
X17504429Y41675000D01*
X16656250Y41675000D01*
X16525000Y41543750D01*
X16475000Y41543750D01*
X16343750Y41675000D01*
X15495571Y41675000D01*
X15302611Y41595074D01*
X15154926Y41447389D01*
X15075000Y41254429D01*
X11457252Y41254429D01*
X11521916Y41484274D01*
X11413528Y41725000D01*
X9775000Y41725000D01*
X9775000Y41705000D01*
X9725000Y41705000D01*
X9725000Y41725000D01*
X8086472Y41725000D01*
X7978084Y41484274D01*
X7417421Y41484274D01*
X7393885Y41500000D01*
X7594123Y41633794D01*
X7849320Y42015726D01*
X7978084Y42015726D01*
X8086472Y41775000D01*
X9725000Y41775000D01*
X9725000Y41795000D01*
X9775000Y41795000D01*
X9775000Y41775000D01*
X11413528Y41775000D01*
X11521916Y42015726D01*
X11437265Y42316618D01*
X11411594Y42356421D01*
X35574874Y42356421D01*
X35685016Y42089857D01*
X35888784Y41885733D01*
X36155156Y41775126D01*
X36443579Y41774874D01*
X36564893Y41825000D01*
X39435046Y41825000D01*
X39555156Y41775126D01*
X39843579Y41774874D01*
X40110143Y41885016D01*
X40314267Y42088784D01*
X40424874Y42355156D01*
X40425000Y42500000D01*
X42047083Y42500000D01*
X42140331Y42031213D01*
X42405877Y41633794D01*
X42606115Y41500000D01*
X42405877Y41366206D01*
X42140331Y40968787D01*
X42047083Y40500000D01*
X42140331Y40031213D01*
X42405877Y39633794D01*
X42803296Y39368248D01*
X43272083Y39275000D01*
X43727917Y39275000D01*
X44196704Y39368248D01*
X44594123Y39633794D01*
X44859669Y40031213D01*
X44952917Y40500000D01*
X44859669Y40968787D01*
X44594123Y41366206D01*
X44393885Y41500000D01*
X44594123Y41633794D01*
X44859669Y42031213D01*
X44952917Y42500000D01*
X44859669Y42968787D01*
X44594123Y43366206D01*
X44196704Y43631752D01*
X43727917Y43725000D01*
X43272083Y43725000D01*
X42803296Y43631752D01*
X42405877Y43366206D01*
X42140331Y42968787D01*
X42047083Y42500000D01*
X40425000Y42500000D01*
X40425126Y42643579D01*
X40314984Y42910143D01*
X40111216Y43114267D01*
X39844844Y43224874D01*
X39556421Y43225126D01*
X39435107Y43175000D01*
X36564954Y43175000D01*
X36444844Y43224874D01*
X36156421Y43225126D01*
X35889857Y43114984D01*
X35685733Y42911216D01*
X35575126Y42644844D01*
X35574874Y42356421D01*
X11411594Y42356421D01*
X11111329Y42821974D01*
X10754029Y43069190D01*
X11048310Y43265822D01*
X20761177Y43265822D01*
X20856410Y43017546D01*
X21411378Y42772444D01*
X22017897Y42758376D01*
X22583632Y42977484D01*
X22643590Y43017546D01*
X22738823Y43265822D01*
X21750000Y44254645D01*
X20761177Y43265822D01*
X11048310Y43265822D01*
X11056148Y43271059D01*
X11368517Y43738553D01*
X11424918Y44022103D01*
X20218376Y44022103D01*
X20437484Y43456368D01*
X20477546Y43396410D01*
X20725822Y43301177D01*
X21714645Y44290000D01*
X21785355Y44290000D01*
X22774178Y43301177D01*
X23022454Y43396410D01*
X23267556Y43951378D01*
X23273902Y44225000D01*
X24055000Y44225000D01*
X24055000Y43825000D01*
X24165427Y43319847D01*
X24460762Y42895406D01*
X24896042Y42616293D01*
X25148069Y42545457D01*
X25355000Y42656512D01*
X25355000Y44225000D01*
X24055000Y44225000D01*
X23273902Y44225000D01*
X23281624Y44557897D01*
X23236271Y44675000D01*
X24055000Y44675000D01*
X24055000Y44275000D01*
X25355000Y44275000D01*
X25355000Y45843488D01*
X25405000Y45843488D01*
X25405000Y44275000D01*
X25425000Y44275000D01*
X25425000Y44225000D01*
X25405000Y44225000D01*
X25405000Y42656512D01*
X25611931Y42545457D01*
X25863958Y42616293D01*
X26299238Y42895406D01*
X26594573Y43319847D01*
X26699052Y43797792D01*
X26788248Y43349377D01*
X27053794Y42951958D01*
X27451213Y42686412D01*
X27920000Y42593164D01*
X28388787Y42686412D01*
X28786206Y42951958D01*
X29051752Y43349377D01*
X29140948Y43797792D01*
X29245427Y43319847D01*
X29540762Y42895406D01*
X29976042Y42616293D01*
X30228069Y42545457D01*
X30435000Y42656512D01*
X30435000Y44225000D01*
X30415000Y44225000D01*
X30415000Y44275000D01*
X30435000Y44275000D01*
X30435000Y45843488D01*
X30485000Y45843488D01*
X30485000Y44275000D01*
X30505000Y44275000D01*
X30505000Y44225000D01*
X30485000Y44225000D01*
X30485000Y42656512D01*
X30691931Y42545457D01*
X30943958Y42616293D01*
X31379238Y42895406D01*
X31674573Y43319847D01*
X31766674Y43741167D01*
X31766674Y43050000D01*
X31796309Y42892504D01*
X31889389Y42747854D01*
X32031412Y42650814D01*
X32200000Y42616674D01*
X33800000Y42616674D01*
X33957496Y42646309D01*
X34102146Y42739389D01*
X34199186Y42881412D01*
X34233326Y43050000D01*
X34233326Y45450000D01*
X34203691Y45607496D01*
X34151942Y45687917D01*
X35675000Y45687917D01*
X35675000Y45432083D01*
X35775860Y44925027D01*
X36063084Y44495167D01*
X36492944Y44207943D01*
X37000000Y44107083D01*
X37507056Y44207943D01*
X37936916Y44495167D01*
X38224140Y44925027D01*
X38325000Y45432083D01*
X38325000Y45687917D01*
X39275000Y45687917D01*
X39275000Y45432083D01*
X39375860Y44925027D01*
X39663084Y44495167D01*
X40092944Y44207943D01*
X40600000Y44107083D01*
X41107056Y44207943D01*
X41536916Y44495167D01*
X41824140Y44925027D01*
X41925000Y45432083D01*
X41925000Y45687917D01*
X41824140Y46194973D01*
X41536916Y46624833D01*
X41107056Y46912057D01*
X40600000Y47012917D01*
X40092944Y46912057D01*
X39663084Y46624833D01*
X39375860Y46194973D01*
X39275000Y45687917D01*
X38325000Y45687917D01*
X38224140Y46194973D01*
X37936916Y46624833D01*
X37507056Y46912057D01*
X37000000Y47012917D01*
X36492944Y46912057D01*
X36063084Y46624833D01*
X35775860Y46194973D01*
X35675000Y45687917D01*
X34151942Y45687917D01*
X34110611Y45752146D01*
X33968588Y45849186D01*
X33800000Y45883326D01*
X32200000Y45883326D01*
X32042504Y45853691D01*
X31897854Y45760611D01*
X31800814Y45618588D01*
X31766674Y45450000D01*
X31766674Y44758833D01*
X31674573Y45180153D01*
X31379238Y45604594D01*
X30943958Y45883707D01*
X30691931Y45954543D01*
X30485000Y45843488D01*
X30435000Y45843488D01*
X30228069Y45954543D01*
X29976042Y45883707D01*
X29540762Y45604594D01*
X29245427Y45180153D01*
X29140948Y44702208D01*
X29051752Y45150623D01*
X28786206Y45548042D01*
X28388787Y45813588D01*
X27920000Y45906836D01*
X27451213Y45813588D01*
X27053794Y45548042D01*
X26788248Y45150623D01*
X26699052Y44702208D01*
X26594573Y45180153D01*
X26299238Y45604594D01*
X25863958Y45883707D01*
X25611931Y45954543D01*
X25405000Y45843488D01*
X25355000Y45843488D01*
X25148069Y45954543D01*
X24896042Y45883707D01*
X24460762Y45604594D01*
X24165427Y45180153D01*
X24055000Y44675000D01*
X23236271Y44675000D01*
X23062516Y45123632D01*
X23022454Y45183590D01*
X22774178Y45278823D01*
X21785355Y44290000D01*
X21714645Y44290000D01*
X20725822Y45278823D01*
X20477546Y45183590D01*
X20232444Y44628622D01*
X20218376Y44022103D01*
X11424918Y44022103D01*
X11478207Y44290000D01*
X11415267Y44606421D01*
X16024874Y44606421D01*
X16135016Y44339857D01*
X16338784Y44135733D01*
X16605156Y44025126D01*
X16893579Y44024874D01*
X17014893Y44075000D01*
X18235046Y44075000D01*
X18355156Y44025126D01*
X18643579Y44024874D01*
X18910143Y44135016D01*
X19114267Y44338784D01*
X19224874Y44605156D01*
X19225126Y44893579D01*
X19114984Y45160143D01*
X18961218Y45314178D01*
X20761177Y45314178D01*
X21750000Y44325355D01*
X22738823Y45314178D01*
X22643590Y45562454D01*
X22088622Y45807556D01*
X21482103Y45821624D01*
X20916368Y45602516D01*
X20856410Y45562454D01*
X20761177Y45314178D01*
X18961218Y45314178D01*
X18911216Y45364267D01*
X18644844Y45474874D01*
X18356421Y45475126D01*
X18235107Y45425000D01*
X17014954Y45425000D01*
X16894844Y45474874D01*
X16606421Y45475126D01*
X16339857Y45364984D01*
X16135733Y45161216D01*
X16025126Y44894844D01*
X16024874Y44606421D01*
X11415267Y44606421D01*
X11368517Y44841447D01*
X11056148Y45308941D01*
X10588654Y45621310D01*
X10037207Y45731000D01*
X9462793Y45731000D01*
X8911346Y45621310D01*
X8443852Y45308941D01*
X8131483Y44841447D01*
X8021793Y44290000D01*
X8131483Y43738553D01*
X8443852Y43271059D01*
X8745971Y43069190D01*
X8388671Y42821974D01*
X8062735Y42316618D01*
X7978084Y42015726D01*
X7849320Y42015726D01*
X7859669Y42031213D01*
X7952917Y42500000D01*
X7859669Y42968787D01*
X7594123Y43366206D01*
X7196704Y43631752D01*
X6727917Y43725000D01*
X6272083Y43725000D01*
X5803296Y43631752D01*
X5405877Y43366206D01*
X5140331Y42968787D01*
X5047083Y42500000D01*
X475000Y42500000D01*
X475000Y45803715D01*
X14689070Y45803715D01*
X14796473Y45545050D01*
X15387573Y45283290D01*
X16033849Y45267660D01*
X16636912Y45500539D01*
X16703527Y45545050D01*
X16810930Y45803715D01*
X15750000Y46864645D01*
X14689070Y45803715D01*
X475000Y45803715D01*
X475000Y47453217D01*
X637741Y48271373D01*
X990958Y48800000D01*
X1896674Y48800000D01*
X1896674Y46800000D01*
X1926309Y46642504D01*
X2019389Y46497854D01*
X2161412Y46400814D01*
X2330000Y46366674D01*
X4330000Y46366674D01*
X4487496Y46396309D01*
X4632146Y46489389D01*
X4729186Y46631412D01*
X4736232Y46666208D01*
X4753899Y46648541D01*
X4845125Y46739767D01*
X4946441Y46486298D01*
X5519475Y46232867D01*
X6145873Y46218018D01*
X6730272Y46444011D01*
X6793559Y46486298D01*
X6894876Y46739768D01*
X5870000Y47764645D01*
X5855858Y47750502D01*
X5820502Y47785858D01*
X5834645Y47800000D01*
X5905355Y47800000D01*
X6930232Y46775124D01*
X7183702Y46876441D01*
X7437133Y47449475D01*
X7451982Y48075873D01*
X7225989Y48660272D01*
X7183702Y48723559D01*
X6930232Y48824876D01*
X5905355Y47800000D01*
X5834645Y47800000D01*
X5820502Y47814142D01*
X5855858Y47849498D01*
X5870000Y47835355D01*
X6894876Y48860232D01*
X6793559Y49113702D01*
X6220525Y49367133D01*
X5594127Y49381982D01*
X5009728Y49155989D01*
X4946441Y49113702D01*
X4845125Y48860233D01*
X4753899Y48951459D01*
X4737847Y48935407D01*
X4733691Y48957496D01*
X4640611Y49102146D01*
X4498588Y49199186D01*
X4330000Y49233326D01*
X2330000Y49233326D01*
X2172504Y49203691D01*
X2027854Y49110611D01*
X1930814Y48968588D01*
X1896674Y48800000D01*
X990958Y48800000D01*
X1074689Y48925311D01*
X1728627Y49362259D01*
X2546783Y49525000D01*
X12959776Y49525000D01*
X12742649Y49308251D01*
X12742649Y49308251D01*
G37*
X12742649Y49308251D02*
X12525248Y48784693D01*
X12524754Y48217794D01*
X12741240Y47693857D01*
X13141749Y47292649D01*
X13665307Y47075248D01*
X14128753Y47074844D01*
X14117660Y46616151D01*
X14350539Y46013088D01*
X14395050Y45946473D01*
X14653715Y45839070D01*
X15714645Y46900000D01*
X15700503Y46914142D01*
X15735858Y46949497D01*
X15750000Y46935355D01*
X15764143Y46949497D01*
X15799498Y46914142D01*
X15785355Y46900000D01*
X16846285Y45839070D01*
X17104950Y45946473D01*
X17366710Y46537573D01*
X17379711Y47075148D01*
X17832206Y47074754D01*
X18356143Y47291240D01*
X18757351Y47691749D01*
X18974752Y48215307D01*
X18975246Y48782206D01*
X18758760Y49306143D01*
X18540284Y49525000D01*
X47453217Y49525000D01*
X48271373Y49362259D01*
X48925311Y48925311D01*
X49362259Y48271373D01*
X49525000Y47453217D01*
X49525000Y2546783D01*
X49362259Y1728627D01*
X48925311Y1074689D01*
X48271373Y637741D01*
X47453217Y475000D01*
X37400285Y475000D01*
X37488823Y705822D01*
X36500000Y1694645D01*
X35511177Y705822D01*
X35599715Y475000D01*
X32900285Y475000D01*
X32988823Y705822D01*
X32000000Y1694645D01*
X31011177Y705822D01*
X31099715Y475000D01*
X28400285Y475000D01*
X28488823Y705822D01*
X27500000Y1694645D01*
X26511177Y705822D01*
X26599715Y475000D01*
X23900285Y475000D01*
X23988823Y705822D01*
X23000000Y1694645D01*
X22011177Y705822D01*
X22099715Y475000D01*
X19400285Y475000D01*
X19488823Y705822D01*
X18500000Y1694645D01*
X17511177Y705822D01*
X17599715Y475000D01*
X14900285Y475000D01*
X14988823Y705822D01*
X14000000Y1694645D01*
X13011177Y705822D01*
X13099715Y475000D01*
X10400285Y475000D01*
X10488823Y705822D01*
X9500000Y1694645D01*
X8511177Y705822D01*
X8599715Y475000D01*
X5900285Y475000D01*
X5988823Y705822D01*
X5000000Y1694645D01*
X4011177Y705822D01*
X4099715Y475000D01*
X2546783Y475000D01*
X1728627Y637741D01*
X1074689Y1074689D01*
X815827Y1462103D01*
X3468376Y1462103D01*
X3687484Y896368D01*
X3727546Y836410D01*
X3975822Y741177D01*
X4964645Y1730000D01*
X5035355Y1730000D01*
X6024178Y741177D01*
X6272454Y836410D01*
X6517556Y1391378D01*
X6519196Y1462103D01*
X7968376Y1462103D01*
X8187484Y896368D01*
X8227546Y836410D01*
X8475822Y741177D01*
X9464645Y1730000D01*
X9535355Y1730000D01*
X10524178Y741177D01*
X10772454Y836410D01*
X11017556Y1391378D01*
X11019196Y1462103D01*
X12468376Y1462103D01*
X12687484Y896368D01*
X12727546Y836410D01*
X12975822Y741177D01*
X13964645Y1730000D01*
X14035355Y1730000D01*
X15024178Y741177D01*
X15272454Y836410D01*
X15517556Y1391378D01*
X15519196Y1462103D01*
X16968376Y1462103D01*
X17187484Y896368D01*
X17227546Y836410D01*
X17475822Y741177D01*
X18464645Y1730000D01*
X18535355Y1730000D01*
X19524178Y741177D01*
X19772454Y836410D01*
X20017556Y1391378D01*
X20019196Y1462103D01*
X21468376Y1462103D01*
X21687484Y896368D01*
X21727546Y836410D01*
X21975822Y741177D01*
X22964645Y1730000D01*
X23035355Y1730000D01*
X24024178Y741177D01*
X24272454Y836410D01*
X24517556Y1391378D01*
X24519196Y1462103D01*
X25968376Y1462103D01*
X26187484Y896368D01*
X26227546Y836410D01*
X26475822Y741177D01*
X27464645Y1730000D01*
X27535355Y1730000D01*
X28524178Y741177D01*
X28772454Y836410D01*
X29017556Y1391378D01*
X29019196Y1462103D01*
X30468376Y1462103D01*
X30687484Y896368D01*
X30727546Y836410D01*
X30975822Y741177D01*
X31964645Y1730000D01*
X32035355Y1730000D01*
X33024178Y741177D01*
X33272454Y836410D01*
X33517556Y1391378D01*
X33519196Y1462103D01*
X34968376Y1462103D01*
X35187484Y896368D01*
X35227546Y836410D01*
X35475822Y741177D01*
X36464645Y1730000D01*
X36535355Y1730000D01*
X37524178Y741177D01*
X37772454Y836410D01*
X38017556Y1391378D01*
X38031624Y1997897D01*
X37812516Y2563632D01*
X37772454Y2623590D01*
X37524178Y2718823D01*
X36535355Y1730000D01*
X36464645Y1730000D01*
X35475822Y2718823D01*
X35227546Y2623590D01*
X34982444Y2068622D01*
X34968376Y1462103D01*
X33519196Y1462103D01*
X33531624Y1997897D01*
X33312516Y2563632D01*
X33272454Y2623590D01*
X33024178Y2718823D01*
X32035355Y1730000D01*
X31964645Y1730000D01*
X30975822Y2718823D01*
X30727546Y2623590D01*
X30482444Y2068622D01*
X30468376Y1462103D01*
X29019196Y1462103D01*
X29031624Y1997897D01*
X28812516Y2563632D01*
X28772454Y2623590D01*
X28524178Y2718823D01*
X27535355Y1730000D01*
X27464645Y1730000D01*
X26475822Y2718823D01*
X26227546Y2623590D01*
X25982444Y2068622D01*
X25968376Y1462103D01*
X24519196Y1462103D01*
X24531624Y1997897D01*
X24312516Y2563632D01*
X24272454Y2623590D01*
X24024178Y2718823D01*
X23035355Y1730000D01*
X22964645Y1730000D01*
X21975822Y2718823D01*
X21727546Y2623590D01*
X21482444Y2068622D01*
X21468376Y1462103D01*
X20019196Y1462103D01*
X20031624Y1997897D01*
X19812516Y2563632D01*
X19772454Y2623590D01*
X19524178Y2718823D01*
X18535355Y1730000D01*
X18464645Y1730000D01*
X17475822Y2718823D01*
X17227546Y2623590D01*
X16982444Y2068622D01*
X16968376Y1462103D01*
X15519196Y1462103D01*
X15531624Y1997897D01*
X15312516Y2563632D01*
X15272454Y2623590D01*
X15024178Y2718823D01*
X14035355Y1730000D01*
X13964645Y1730000D01*
X12975822Y2718823D01*
X12727546Y2623590D01*
X12482444Y2068622D01*
X12468376Y1462103D01*
X11019196Y1462103D01*
X11031624Y1997897D01*
X10812516Y2563632D01*
X10772454Y2623590D01*
X10524178Y2718823D01*
X9535355Y1730000D01*
X9464645Y1730000D01*
X8475822Y2718823D01*
X8227546Y2623590D01*
X7982444Y2068622D01*
X7968376Y1462103D01*
X6519196Y1462103D01*
X6531624Y1997897D01*
X6312516Y2563632D01*
X6272454Y2623590D01*
X6024178Y2718823D01*
X5035355Y1730000D01*
X4964645Y1730000D01*
X3975822Y2718823D01*
X3727546Y2623590D01*
X3482444Y2068622D01*
X3468376Y1462103D01*
X815827Y1462103D01*
X637741Y1728627D01*
X475000Y2546783D01*
X475000Y3987794D01*
X3574754Y3987794D01*
X3791240Y3463857D01*
X4191749Y3062649D01*
X4204587Y3057318D01*
X4166368Y3042516D01*
X4106410Y3002454D01*
X4011177Y2754178D01*
X5000000Y1765355D01*
X5988823Y2754178D01*
X5893590Y3002454D01*
X5782554Y3051493D01*
X5806143Y3061240D01*
X6207351Y3461749D01*
X6424752Y3985307D01*
X6424754Y3987794D01*
X8074754Y3987794D01*
X8291240Y3463857D01*
X8691749Y3062649D01*
X8704587Y3057318D01*
X8666368Y3042516D01*
X8606410Y3002454D01*
X8511177Y2754178D01*
X9500000Y1765355D01*
X10488823Y2754178D01*
X10393590Y3002454D01*
X10282554Y3051493D01*
X10306143Y3061240D01*
X10707351Y3461749D01*
X10924752Y3985307D01*
X10924754Y3987794D01*
X12574754Y3987794D01*
X12791240Y3463857D01*
X13191749Y3062649D01*
X13204587Y3057318D01*
X13166368Y3042516D01*
X13106410Y3002454D01*
X13011177Y2754178D01*
X14000000Y1765355D01*
X14988823Y2754178D01*
X14893590Y3002454D01*
X14782554Y3051493D01*
X14806143Y3061240D01*
X15207351Y3461749D01*
X15424752Y3985307D01*
X15424754Y3987794D01*
X17074754Y3987794D01*
X17291240Y3463857D01*
X17691749Y3062649D01*
X17704587Y3057318D01*
X17666368Y3042516D01*
X17606410Y3002454D01*
X17511177Y2754178D01*
X18500000Y1765355D01*
X19488823Y2754178D01*
X19393590Y3002454D01*
X19282554Y3051493D01*
X19306143Y3061240D01*
X19707351Y3461749D01*
X19924752Y3985307D01*
X19924754Y3987794D01*
X21574754Y3987794D01*
X21791240Y3463857D01*
X22191749Y3062649D01*
X22204587Y3057318D01*
X22166368Y3042516D01*
X22106410Y3002454D01*
X22011177Y2754178D01*
X23000000Y1765355D01*
X23988823Y2754178D01*
X23893590Y3002454D01*
X23782554Y3051493D01*
X23806143Y3061240D01*
X24207351Y3461749D01*
X24424752Y3985307D01*
X24424754Y3987794D01*
X26074754Y3987794D01*
X26291240Y3463857D01*
X26691749Y3062649D01*
X26704587Y3057318D01*
X26666368Y3042516D01*
X26606410Y3002454D01*
X26511177Y2754178D01*
X27500000Y1765355D01*
X28488823Y2754178D01*
X28393590Y3002454D01*
X28282554Y3051493D01*
X28306143Y3061240D01*
X28707351Y3461749D01*
X28924752Y3985307D01*
X28924754Y3987794D01*
X30574754Y3987794D01*
X30791240Y3463857D01*
X31191749Y3062649D01*
X31204587Y3057318D01*
X31166368Y3042516D01*
X31106410Y3002454D01*
X31011177Y2754178D01*
X32000000Y1765355D01*
X32988823Y2754178D01*
X32893590Y3002454D01*
X32782554Y3051493D01*
X32806143Y3061240D01*
X33207351Y3461749D01*
X33424752Y3985307D01*
X33424754Y3987794D01*
X35074754Y3987794D01*
X35291240Y3463857D01*
X35691749Y3062649D01*
X35704587Y3057318D01*
X35666368Y3042516D01*
X35606410Y3002454D01*
X35511177Y2754178D01*
X36500000Y1765355D01*
X37488823Y2754178D01*
X37393590Y3002454D01*
X37282554Y3051493D01*
X37306143Y3061240D01*
X37707351Y3461749D01*
X37924752Y3985307D01*
X37925246Y4552206D01*
X37708760Y5076143D01*
X37308251Y5477351D01*
X36784693Y5694752D01*
X36217794Y5695246D01*
X35693857Y5478760D01*
X35292649Y5078251D01*
X35075248Y4554693D01*
X35074754Y3987794D01*
X33424754Y3987794D01*
X33425246Y4552206D01*
X33208760Y5076143D01*
X32808251Y5477351D01*
X32284693Y5694752D01*
X31717794Y5695246D01*
X31193857Y5478760D01*
X30792649Y5078251D01*
X30575248Y4554693D01*
X30574754Y3987794D01*
X28924754Y3987794D01*
X28925246Y4552206D01*
X28708760Y5076143D01*
X28308251Y5477351D01*
X27784693Y5694752D01*
X27217794Y5695246D01*
X26693857Y5478760D01*
X26292649Y5078251D01*
X26075248Y4554693D01*
X26074754Y3987794D01*
X24424754Y3987794D01*
X24425246Y4552206D01*
X24208760Y5076143D01*
X23808251Y5477351D01*
X23284693Y5694752D01*
X22717794Y5695246D01*
X22193857Y5478760D01*
X21792649Y5078251D01*
X21575248Y4554693D01*
X21574754Y3987794D01*
X19924754Y3987794D01*
X19925246Y4552206D01*
X19708760Y5076143D01*
X19308251Y5477351D01*
X18784693Y5694752D01*
X18217794Y5695246D01*
X17693857Y5478760D01*
X17292649Y5078251D01*
X17075248Y4554693D01*
X17074754Y3987794D01*
X15424754Y3987794D01*
X15425246Y4552206D01*
X15208760Y5076143D01*
X14808251Y5477351D01*
X14284693Y5694752D01*
X13717794Y5695246D01*
X13193857Y5478760D01*
X12792649Y5078251D01*
X12575248Y4554693D01*
X12574754Y3987794D01*
X10924754Y3987794D01*
X10925246Y4552206D01*
X10708760Y5076143D01*
X10308251Y5477351D01*
X9784693Y5694752D01*
X9217794Y5695246D01*
X8693857Y5478760D01*
X8292649Y5078251D01*
X8075248Y4554693D01*
X8074754Y3987794D01*
X6424754Y3987794D01*
X6425246Y4552206D01*
X6208760Y5076143D01*
X5808251Y5477351D01*
X5284693Y5694752D01*
X4717794Y5695246D01*
X4193857Y5478760D01*
X3792649Y5078251D01*
X3575248Y4554693D01*
X3574754Y3987794D01*
X475000Y3987794D01*
X475000Y6475000D01*
X41675000Y6475000D01*
X41675000Y6275000D01*
X41785427Y5769847D01*
X42080762Y5345406D01*
X42516042Y5066293D01*
X42768069Y4995457D01*
X42975000Y5106512D01*
X42975000Y6475000D01*
X41675000Y6475000D01*
X475000Y6475000D01*
X475000Y6725000D01*
X41675000Y6725000D01*
X41675000Y6525000D01*
X42975000Y6525000D01*
X42975000Y7893488D01*
X43025000Y7893488D01*
X43025000Y6525000D01*
X43045000Y6525000D01*
X43045000Y6475000D01*
X43025000Y6475000D01*
X43025000Y5106512D01*
X43231931Y4995457D01*
X43483958Y5066293D01*
X43919238Y5345406D01*
X44049302Y5532328D01*
X44133794Y5405877D01*
X44531213Y5140331D01*
X45000000Y5047083D01*
X45468787Y5140331D01*
X45866206Y5405877D01*
X46131752Y5803296D01*
X46225000Y6272083D01*
X46225000Y6727917D01*
X46131752Y7196704D01*
X45866206Y7594123D01*
X45468787Y7859669D01*
X45000000Y7952917D01*
X44531213Y7859669D01*
X44133794Y7594123D01*
X44049302Y7467672D01*
X43919238Y7654594D01*
X43483958Y7933707D01*
X43231931Y8004543D01*
X43025000Y7893488D01*
X42975000Y7893488D01*
X42768069Y8004543D01*
X42516042Y7933707D01*
X42080762Y7654594D01*
X41785427Y7230153D01*
X41675000Y6725000D01*
X475000Y6725000D01*
X475000Y8717794D01*
X574754Y8717794D01*
X791240Y8193857D01*
X1191749Y7792649D01*
X1715307Y7575248D01*
X2282206Y7574754D01*
X2806143Y7791240D01*
X3207351Y8191749D01*
X3269885Y8342347D01*
X3331240Y8193857D01*
X3731749Y7792649D01*
X4255307Y7575248D01*
X4822206Y7574754D01*
X5346143Y7791240D01*
X5747351Y8191749D01*
X5809885Y8342347D01*
X5871240Y8193857D01*
X6271749Y7792649D01*
X6795307Y7575248D01*
X7362206Y7574754D01*
X7886143Y7791240D01*
X8287351Y8191749D01*
X8349885Y8342347D01*
X8411240Y8193857D01*
X8811749Y7792649D01*
X9335307Y7575248D01*
X9902206Y7574754D01*
X10426143Y7791240D01*
X10827351Y8191749D01*
X10889885Y8342347D01*
X10951240Y8193857D01*
X11351749Y7792649D01*
X11875307Y7575248D01*
X12442206Y7574754D01*
X12966143Y7791240D01*
X13367351Y8191749D01*
X13429885Y8342347D01*
X13491240Y8193857D01*
X13891749Y7792649D01*
X14415307Y7575248D01*
X14982206Y7574754D01*
X15506143Y7791240D01*
X15907351Y8191749D01*
X15969885Y8342347D01*
X16031240Y8193857D01*
X16431749Y7792649D01*
X16955307Y7575248D01*
X17522206Y7574754D01*
X18046143Y7791240D01*
X18447351Y8191749D01*
X18509885Y8342347D01*
X18571240Y8193857D01*
X18971749Y7792649D01*
X19495307Y7575248D01*
X20062206Y7574754D01*
X20586143Y7791240D01*
X20987351Y8191749D01*
X21204752Y8715307D01*
X21204754Y8717794D01*
X22074754Y8717794D01*
X22291240Y8193857D01*
X22691749Y7792649D01*
X23215307Y7575248D01*
X23782206Y7574754D01*
X24306143Y7791240D01*
X24707351Y8191749D01*
X24769885Y8342347D01*
X24831240Y8193857D01*
X25231749Y7792649D01*
X25755307Y7575248D01*
X26322206Y7574754D01*
X26846143Y7791240D01*
X27247351Y8191749D01*
X27309885Y8342347D01*
X27371240Y8193857D01*
X27771749Y7792649D01*
X28295307Y7575248D01*
X28862206Y7574754D01*
X29386143Y7791240D01*
X29787351Y8191749D01*
X29849885Y8342347D01*
X29911240Y8193857D01*
X30311749Y7792649D01*
X30835307Y7575248D01*
X31402206Y7574754D01*
X31926143Y7791240D01*
X32327351Y8191749D01*
X32389885Y8342347D01*
X32451240Y8193857D01*
X32851749Y7792649D01*
X33375307Y7575248D01*
X33942206Y7574754D01*
X34466143Y7791240D01*
X34867351Y8191749D01*
X34929885Y8342347D01*
X34991240Y8193857D01*
X35391749Y7792649D01*
X35915307Y7575248D01*
X36482206Y7574754D01*
X37006143Y7791240D01*
X37407351Y8191749D01*
X37469885Y8342347D01*
X37531240Y8193857D01*
X37931749Y7792649D01*
X38455307Y7575248D01*
X39022206Y7574754D01*
X39546143Y7791240D01*
X39947351Y8191749D01*
X40009885Y8342347D01*
X40071240Y8193857D01*
X40471749Y7792649D01*
X40995307Y7575248D01*
X41562206Y7574754D01*
X42086143Y7791240D01*
X42487351Y8191749D01*
X42704752Y8715307D01*
X42705246Y9282206D01*
X42488760Y9806143D01*
X42088251Y10207351D01*
X41564693Y10424752D01*
X40997794Y10425246D01*
X40473857Y10208760D01*
X40072649Y9808251D01*
X40010115Y9657653D01*
X39948760Y9806143D01*
X39548251Y10207351D01*
X39024693Y10424752D01*
X38457794Y10425246D01*
X37933857Y10208760D01*
X37532649Y9808251D01*
X37470115Y9657653D01*
X37408760Y9806143D01*
X37008251Y10207351D01*
X36484693Y10424752D01*
X35917794Y10425246D01*
X35393857Y10208760D01*
X34992649Y9808251D01*
X34930115Y9657653D01*
X34868760Y9806143D01*
X34468251Y10207351D01*
X33944693Y10424752D01*
X33377794Y10425246D01*
X32853857Y10208760D01*
X32452649Y9808251D01*
X32390115Y9657653D01*
X32328760Y9806143D01*
X31928251Y10207351D01*
X31404693Y10424752D01*
X30837794Y10425246D01*
X30313857Y10208760D01*
X29912649Y9808251D01*
X29850115Y9657653D01*
X29788760Y9806143D01*
X29388251Y10207351D01*
X28864693Y10424752D01*
X28297794Y10425246D01*
X27773857Y10208760D01*
X27372649Y9808251D01*
X27310115Y9657653D01*
X27248760Y9806143D01*
X26848251Y10207351D01*
X26324693Y10424752D01*
X25757794Y10425246D01*
X25233857Y10208760D01*
X24832649Y9808251D01*
X24770115Y9657653D01*
X24708760Y9806143D01*
X24308251Y10207351D01*
X23784693Y10424752D01*
X23217794Y10425246D01*
X22693857Y10208760D01*
X22292649Y9808251D01*
X22075248Y9284693D01*
X22074754Y8717794D01*
X21204754Y8717794D01*
X21205246Y9282206D01*
X20988760Y9806143D01*
X20588251Y10207351D01*
X20064693Y10424752D01*
X19497794Y10425246D01*
X18973857Y10208760D01*
X18572649Y9808251D01*
X18510115Y9657653D01*
X18448760Y9806143D01*
X18048251Y10207351D01*
X17524693Y10424752D01*
X16957794Y10425246D01*
X16433857Y10208760D01*
X16032649Y9808251D01*
X15970115Y9657653D01*
X15908760Y9806143D01*
X15508251Y10207351D01*
X14984693Y10424752D01*
X14417794Y10425246D01*
X13893857Y10208760D01*
X13492649Y9808251D01*
X13430115Y9657653D01*
X13368760Y9806143D01*
X12968251Y10207351D01*
X12444693Y10424752D01*
X11877794Y10425246D01*
X11353857Y10208760D01*
X10952649Y9808251D01*
X10890115Y9657653D01*
X10828760Y9806143D01*
X10428251Y10207351D01*
X9904693Y10424752D01*
X9337794Y10425246D01*
X8813857Y10208760D01*
X8412649Y9808251D01*
X8350115Y9657653D01*
X8288760Y9806143D01*
X7888251Y10207351D01*
X7364693Y10424752D01*
X6797794Y10425246D01*
X6273857Y10208760D01*
X5872649Y9808251D01*
X5810115Y9657653D01*
X5748760Y9806143D01*
X5348251Y10207351D01*
X4824693Y10424752D01*
X4257794Y10425246D01*
X3733857Y10208760D01*
X3332649Y9808251D01*
X3270115Y9657653D01*
X3208760Y9806143D01*
X2808251Y10207351D01*
X2284693Y10424752D01*
X1717794Y10425246D01*
X1193857Y10208760D01*
X792649Y9808251D01*
X575248Y9284693D01*
X574754Y8717794D01*
X475000Y8717794D01*
X475000Y14700000D01*
X1266674Y14700000D01*
X1266674Y12300000D01*
X1296309Y12142504D01*
X1389389Y11997854D01*
X1531412Y11900814D01*
X1700000Y11866674D01*
X3300000Y11866674D01*
X3457496Y11896309D01*
X3602146Y11989389D01*
X3699186Y12131412D01*
X3733326Y12300000D01*
X3733326Y13931836D01*
X3815000Y13931836D01*
X3815000Y13068164D01*
X3908248Y12599377D01*
X4173794Y12201958D01*
X4571213Y11936412D01*
X5040000Y11843164D01*
X5508787Y11936412D01*
X5906206Y12201958D01*
X6171752Y12599377D01*
X6265000Y13068164D01*
X6265000Y13931836D01*
X6171752Y14400623D01*
X5906206Y14798042D01*
X5669175Y14956421D01*
X5974874Y14956421D01*
X6085016Y14689857D01*
X6288784Y14485733D01*
X6458131Y14415414D01*
X6448248Y14400623D01*
X6355000Y13931836D01*
X6355000Y13068164D01*
X6448248Y12599377D01*
X6713794Y12201958D01*
X7111213Y11936412D01*
X7580000Y11843164D01*
X8048787Y11936412D01*
X8446206Y12201958D01*
X8711752Y12599377D01*
X8800948Y13047792D01*
X8905427Y12569847D01*
X9200762Y12145406D01*
X9636042Y11866293D01*
X9888069Y11795457D01*
X10095000Y11906512D01*
X10095000Y13475000D01*
X10145000Y13475000D01*
X10145000Y11906512D01*
X10351931Y11795457D01*
X10603958Y11866293D01*
X11039238Y12145406D01*
X11334573Y12569847D01*
X11390000Y12823400D01*
X11445427Y12569847D01*
X11740762Y12145406D01*
X12176042Y11866293D01*
X12428069Y11795457D01*
X12635000Y11906512D01*
X12635000Y13475000D01*
X10145000Y13475000D01*
X10095000Y13475000D01*
X10075000Y13475000D01*
X10075000Y13525000D01*
X10095000Y13525000D01*
X10095000Y15093488D01*
X10145000Y15093488D01*
X10145000Y13525000D01*
X12635000Y13525000D01*
X12635000Y15093488D01*
X12428069Y15204543D01*
X12176042Y15133707D01*
X11740762Y14854594D01*
X11445427Y14430153D01*
X11390000Y14176600D01*
X11334573Y14430153D01*
X11039238Y14854594D01*
X10603958Y15133707D01*
X10351931Y15204543D01*
X10145000Y15093488D01*
X10095000Y15093488D01*
X9888069Y15204543D01*
X9636042Y15133707D01*
X9200762Y14854594D01*
X9157005Y14791708D01*
X9224874Y14955156D01*
X9225126Y15243579D01*
X9120972Y15495651D01*
X9214267Y15588784D01*
X9324874Y15855156D01*
X9325126Y16143579D01*
X9214984Y16410143D01*
X9011216Y16614267D01*
X8744844Y16724874D01*
X8456421Y16725126D01*
X8189857Y16614984D01*
X8124759Y16550000D01*
X7275371Y16550000D01*
X7211216Y16614267D01*
X6944844Y16724874D01*
X6656421Y16725126D01*
X6389857Y16614984D01*
X6185733Y16411216D01*
X6075126Y16144844D01*
X6074874Y15856421D01*
X6179028Y15604349D01*
X6085733Y15511216D01*
X5975126Y15244844D01*
X5974874Y14956421D01*
X5669175Y14956421D01*
X5508787Y15063588D01*
X5040000Y15156836D01*
X4571213Y15063588D01*
X4173794Y14798042D01*
X3908248Y14400623D01*
X3815000Y13931836D01*
X3733326Y13931836D01*
X3733326Y14700000D01*
X3703691Y14857496D01*
X3610611Y15002146D01*
X3468588Y15099186D01*
X3300000Y15133326D01*
X1700000Y15133326D01*
X1542504Y15103691D01*
X1397854Y15010611D01*
X1300814Y14868588D01*
X1266674Y14700000D01*
X475000Y14700000D01*
X475000Y21551836D01*
X1275000Y21551836D01*
X1275000Y20688164D01*
X1368248Y20219377D01*
X1633794Y19821958D01*
X2031213Y19556412D01*
X2500000Y19463164D01*
X2968787Y19556412D01*
X3366206Y19821958D01*
X3631752Y20219377D01*
X3725000Y20688164D01*
X3725000Y21551836D01*
X3815000Y21551836D01*
X3815000Y20688164D01*
X3908248Y20219377D01*
X4173794Y19821958D01*
X4571213Y19556412D01*
X5040000Y19463164D01*
X5508787Y19556412D01*
X5906206Y19821958D01*
X6171752Y20219377D01*
X6265000Y20688164D01*
X6265000Y21551836D01*
X6355000Y21551836D01*
X6355000Y20688164D01*
X6448248Y20219377D01*
X6713794Y19821958D01*
X7111213Y19556412D01*
X7580000Y19463164D01*
X8048787Y19556412D01*
X8446206Y19821958D01*
X8711752Y20219377D01*
X8800948Y20667792D01*
X8905427Y20189847D01*
X9200762Y19765406D01*
X9636042Y19486293D01*
X9888069Y19415457D01*
X10095000Y19526512D01*
X10095000Y21095000D01*
X10145000Y21095000D01*
X10145000Y19526512D01*
X10351931Y19415457D01*
X10603958Y19486293D01*
X11039238Y19765406D01*
X11334573Y20189847D01*
X11390000Y20443400D01*
X11445427Y20189847D01*
X11740762Y19765406D01*
X12176042Y19486293D01*
X12428069Y19415457D01*
X12635000Y19526512D01*
X12635000Y21095000D01*
X10145000Y21095000D01*
X10095000Y21095000D01*
X10075000Y21095000D01*
X10075000Y21145000D01*
X10095000Y21145000D01*
X10095000Y22713488D01*
X10145000Y22713488D01*
X10145000Y21145000D01*
X12635000Y21145000D01*
X12635000Y22713488D01*
X12685000Y22713488D01*
X12685000Y21145000D01*
X12705000Y21145000D01*
X12705000Y21095000D01*
X12685000Y21095000D01*
X12685000Y19526512D01*
X12891931Y19415457D01*
X13143958Y19486293D01*
X13579238Y19765406D01*
X13874573Y20189847D01*
X13979052Y20667792D01*
X14068248Y20219377D01*
X14333794Y19821958D01*
X14731213Y19556412D01*
X15200000Y19463164D01*
X15668787Y19556412D01*
X15790852Y19637973D01*
X15798894Y17603488D01*
X14722703Y16527297D01*
X14576381Y16308312D01*
X14543614Y16143579D01*
X14525000Y16050000D01*
X14525000Y14925801D01*
X14333794Y14798042D01*
X14068248Y14400623D01*
X13979052Y13952208D01*
X13874573Y14430153D01*
X13579238Y14854594D01*
X13143958Y15133707D01*
X12891931Y15204543D01*
X12685000Y15093488D01*
X12685000Y13525000D01*
X12705000Y13525000D01*
X12705000Y13475000D01*
X12685000Y13475000D01*
X12685000Y11906512D01*
X12891931Y11795457D01*
X13143958Y11866293D01*
X13579238Y12145406D01*
X13874573Y12569847D01*
X13979052Y13047792D01*
X14068248Y12599377D01*
X14333794Y12201958D01*
X14731213Y11936412D01*
X15200000Y11843164D01*
X15668787Y11936412D01*
X16066206Y12201958D01*
X16331752Y12599377D01*
X16425000Y13068164D01*
X16425000Y13931836D01*
X16515000Y13931836D01*
X16515000Y13068164D01*
X16608248Y12599377D01*
X16873794Y12201958D01*
X17271213Y11936412D01*
X17740000Y11843164D01*
X18208787Y11936412D01*
X18606206Y12201958D01*
X18871752Y12599377D01*
X18965000Y13068164D01*
X18965000Y13931836D01*
X18871752Y14400623D01*
X18665641Y14709092D01*
X18788784Y14585733D01*
X19055156Y14475126D01*
X19197946Y14475001D01*
X19148248Y14400623D01*
X19055000Y13931836D01*
X19055000Y13068164D01*
X19148248Y12599377D01*
X19413794Y12201958D01*
X19811213Y11936412D01*
X20280000Y11843164D01*
X20748787Y11936412D01*
X21146206Y12201958D01*
X21411752Y12599377D01*
X21505000Y13068164D01*
X21505000Y13769576D01*
X21538784Y13735733D01*
X21805156Y13625126D01*
X22029142Y13624930D01*
X21975126Y13494844D01*
X21974874Y13206421D01*
X22085016Y12939857D01*
X22288784Y12735733D01*
X22555156Y12625126D01*
X22843579Y12624874D01*
X23110143Y12735016D01*
X23314267Y12938784D01*
X23424874Y13205156D01*
X23425022Y13374978D01*
X23516674Y13374898D01*
X23516674Y12300000D01*
X23546309Y12142504D01*
X23639389Y11997854D01*
X23781412Y11900814D01*
X23950000Y11866674D01*
X25550000Y11866674D01*
X25707496Y11896309D01*
X25852146Y11989389D01*
X25949186Y12131412D01*
X25983326Y12300000D01*
X25983326Y14700000D01*
X25955101Y14850000D01*
X26501555Y14850000D01*
X26423794Y14798042D01*
X26158248Y14400623D01*
X26065000Y13931836D01*
X26065000Y13068164D01*
X26158248Y12599377D01*
X26423794Y12201958D01*
X26821213Y11936412D01*
X27290000Y11843164D01*
X27758787Y11936412D01*
X28156206Y12201958D01*
X28421752Y12599377D01*
X28515000Y13068164D01*
X28515000Y13931836D01*
X28421752Y14400623D01*
X28156206Y14798042D01*
X28078445Y14850000D01*
X29041555Y14850000D01*
X28963794Y14798042D01*
X28698248Y14400623D01*
X28605000Y13931836D01*
X28605000Y13068164D01*
X28698248Y12599377D01*
X28963794Y12201958D01*
X29361213Y11936412D01*
X29830000Y11843164D01*
X30298787Y11936412D01*
X30696206Y12201958D01*
X30961752Y12599377D01*
X31055000Y13068164D01*
X31055000Y13931836D01*
X31145000Y13931836D01*
X31145000Y13068164D01*
X31238248Y12599377D01*
X31503794Y12201958D01*
X31901213Y11936412D01*
X32370000Y11843164D01*
X32838787Y11936412D01*
X33236206Y12201958D01*
X33501752Y12599377D01*
X33595000Y13068164D01*
X33595000Y13931836D01*
X33685000Y13931836D01*
X33685000Y13068164D01*
X33778248Y12599377D01*
X34043794Y12201958D01*
X34441213Y11936412D01*
X34910000Y11843164D01*
X35378787Y11936412D01*
X35776206Y12201958D01*
X36041752Y12599377D01*
X36130948Y13047792D01*
X36235427Y12569847D01*
X36530762Y12145406D01*
X36966042Y11866293D01*
X37218069Y11795457D01*
X37425000Y11906512D01*
X37425000Y13475000D01*
X37405000Y13475000D01*
X37405000Y13525000D01*
X37425000Y13525000D01*
X37425000Y15093488D01*
X37475000Y15093488D01*
X37475000Y13525000D01*
X37495000Y13525000D01*
X37495000Y13475000D01*
X37475000Y13475000D01*
X37475000Y11906512D01*
X37681931Y11795457D01*
X37933958Y11866293D01*
X38369238Y12145406D01*
X38664573Y12569847D01*
X38769052Y13047792D01*
X38858248Y12599377D01*
X39108461Y12224906D01*
X38856421Y12225126D01*
X38589857Y12114984D01*
X38385733Y11911216D01*
X38275126Y11644844D01*
X38274874Y11356421D01*
X38385016Y11089857D01*
X38588784Y10885733D01*
X38855156Y10775126D01*
X39143579Y10774874D01*
X39410143Y10885016D01*
X39475241Y10950000D01*
X41924629Y10950000D01*
X41988784Y10885733D01*
X42255156Y10775126D01*
X42543579Y10774874D01*
X42810143Y10885016D01*
X43014267Y11088784D01*
X43124874Y11355156D01*
X43125126Y11643579D01*
X43014984Y11910143D01*
X42990422Y11934748D01*
X42998787Y11936412D01*
X43396206Y12201958D01*
X43661752Y12599377D01*
X43755000Y13068164D01*
X43755000Y13931836D01*
X43845000Y13931836D01*
X43845000Y13068164D01*
X43938248Y12599377D01*
X44203794Y12201958D01*
X44601213Y11936412D01*
X45070000Y11843164D01*
X45538787Y11936412D01*
X45936206Y12201958D01*
X46201752Y12599377D01*
X46295000Y13068164D01*
X46295000Y13931836D01*
X46385000Y13931836D01*
X46385000Y13068164D01*
X46478248Y12599377D01*
X46743794Y12201958D01*
X47141213Y11936412D01*
X47610000Y11843164D01*
X48078787Y11936412D01*
X48476206Y12201958D01*
X48741752Y12599377D01*
X48835000Y13068164D01*
X48835000Y13931836D01*
X48741752Y14400623D01*
X48476206Y14798042D01*
X48078787Y15063588D01*
X47610000Y15156836D01*
X47141213Y15063588D01*
X46743794Y14798042D01*
X46478248Y14400623D01*
X46385000Y13931836D01*
X46295000Y13931836D01*
X46201752Y14400623D01*
X45936206Y14798042D01*
X45538787Y15063588D01*
X45070000Y15156836D01*
X44601213Y15063588D01*
X44203794Y14798042D01*
X43938248Y14400623D01*
X43845000Y13931836D01*
X43755000Y13931836D01*
X43661752Y14400623D01*
X43396206Y14798042D01*
X42998787Y15063588D01*
X42530000Y15156836D01*
X42061213Y15063588D01*
X41663794Y14798042D01*
X41398248Y14400623D01*
X41305000Y13931836D01*
X41305000Y13068164D01*
X41398248Y12599377D01*
X41663794Y12201958D01*
X41891216Y12050000D01*
X40628784Y12050000D01*
X40856206Y12201958D01*
X41121752Y12599377D01*
X41215000Y13068164D01*
X41215000Y13931836D01*
X41121752Y14400623D01*
X40856206Y14798042D01*
X40458787Y15063588D01*
X39990000Y15156836D01*
X39521213Y15063588D01*
X39123794Y14798042D01*
X38858248Y14400623D01*
X38769052Y13952208D01*
X38664573Y14430153D01*
X38369238Y14854594D01*
X37933958Y15133707D01*
X37681931Y15204543D01*
X37475000Y15093488D01*
X37425000Y15093488D01*
X37218069Y15204543D01*
X36966042Y15133707D01*
X36530762Y14854594D01*
X36235427Y14430153D01*
X36130948Y13952208D01*
X36041752Y14400623D01*
X35776206Y14798042D01*
X35378787Y15063588D01*
X34910000Y15156836D01*
X34441213Y15063588D01*
X34043794Y14798042D01*
X33778248Y14400623D01*
X33685000Y13931836D01*
X33595000Y13931836D01*
X33501752Y14400623D01*
X33236206Y14798042D01*
X32838787Y15063588D01*
X32370000Y15156836D01*
X31901213Y15063588D01*
X31503794Y14798042D01*
X31238248Y14400623D01*
X31145000Y13931836D01*
X31055000Y13931836D01*
X30961752Y14400623D01*
X30696206Y14798042D01*
X30298787Y15063588D01*
X30125813Y15097995D01*
X31352771Y16324953D01*
X31443579Y16324874D01*
X31710143Y16435016D01*
X31914267Y16638784D01*
X32024874Y16905156D01*
X32025126Y17193579D01*
X31914984Y17460143D01*
X31711216Y17664267D01*
X31474968Y17762366D01*
X31475126Y17943579D01*
X31364984Y18210143D01*
X31161216Y18414267D01*
X30894844Y18524874D01*
X30606421Y18525126D01*
X30339857Y18414984D01*
X30135733Y18211216D01*
X30025126Y17944844D01*
X30025046Y17852864D01*
X28672182Y16500000D01*
X24377817Y16500000D01*
X25518263Y17640445D01*
X25555156Y17625126D01*
X25843579Y17624874D01*
X26110143Y17735016D01*
X26314267Y17938784D01*
X26424874Y18205156D01*
X26425126Y18493579D01*
X26314984Y18760143D01*
X26111216Y18964267D01*
X25844844Y19074874D01*
X25556421Y19075126D01*
X25289857Y18964984D01*
X25085733Y18761216D01*
X25082376Y18753131D01*
X25061091Y18738909D01*
X25061089Y18738906D01*
X21778531Y15456349D01*
X21750225Y15524854D01*
X21814267Y15588784D01*
X21924874Y15855156D01*
X21925126Y16143579D01*
X21814984Y16410143D01*
X21725306Y16499978D01*
X21814267Y16588784D01*
X21924874Y16855156D01*
X21925126Y17143579D01*
X21814984Y17410143D01*
X21611216Y17614267D01*
X21344844Y17724874D01*
X21056421Y17725126D01*
X20789857Y17614984D01*
X20724759Y17550000D01*
X18900005Y17550000D01*
X18900000Y17550001D01*
X18689524Y17508134D01*
X18511091Y17388909D01*
X17351091Y16228909D01*
X17231866Y16050476D01*
X17190000Y15840000D01*
X17190000Y15009323D01*
X16873794Y14798042D01*
X16608248Y14400623D01*
X16515000Y13931836D01*
X16425000Y13931836D01*
X16331752Y14400623D01*
X16066206Y14798042D01*
X15875000Y14925801D01*
X15875000Y15770406D01*
X16952297Y16847703D01*
X16953053Y16848835D01*
X16954180Y16849594D01*
X17026176Y16958271D01*
X17098618Y17066688D01*
X17098883Y17068021D01*
X17099635Y17069156D01*
X17124587Y17197240D01*
X17150000Y17325000D01*
X17149735Y17326333D01*
X17149995Y17327668D01*
X17148678Y17660863D01*
X17355156Y17575126D01*
X17643579Y17574874D01*
X17764893Y17625000D01*
X20000000Y17625000D01*
X20258312Y17676381D01*
X20477297Y17822703D01*
X20589945Y17935351D01*
X20710143Y17985016D01*
X20914267Y18188784D01*
X21024874Y18455156D01*
X21025126Y18743579D01*
X20914984Y19010143D01*
X20711216Y19214267D01*
X20444844Y19324874D01*
X20156421Y19325126D01*
X19889857Y19214984D01*
X19685733Y19011216D01*
X19670695Y18975000D01*
X17764954Y18975000D01*
X17644844Y19024874D01*
X17356421Y19025126D01*
X17143633Y18937204D01*
X17140841Y19643523D01*
X17271213Y19556412D01*
X17740000Y19463164D01*
X18208787Y19556412D01*
X18606206Y19821958D01*
X18871752Y20219377D01*
X18965000Y20688164D01*
X18965000Y21551836D01*
X18871752Y22020623D01*
X18705703Y22269134D01*
X18888784Y22085733D01*
X19140416Y21981247D01*
X19055000Y21551836D01*
X19055000Y20688164D01*
X19148248Y20219377D01*
X19413794Y19821958D01*
X19811213Y19556412D01*
X20280000Y19463164D01*
X20748787Y19556412D01*
X20878859Y19643323D01*
X21524953Y18997229D01*
X21524874Y18906421D01*
X21635016Y18639857D01*
X21838784Y18435733D01*
X22105156Y18325126D01*
X22393579Y18324874D01*
X22660143Y18435016D01*
X22864267Y18638784D01*
X22974874Y18905156D01*
X22975126Y19193579D01*
X22864984Y19460143D01*
X22661216Y19664267D01*
X22394844Y19774874D01*
X22302864Y19774954D01*
X21485863Y20591955D01*
X21505000Y20688164D01*
X21505000Y21317183D01*
X22091089Y20731094D01*
X22091091Y20731091D01*
X22269524Y20611866D01*
X22480000Y20570000D01*
X23548504Y20570000D01*
X23618248Y20219377D01*
X23883794Y19821958D01*
X24281213Y19556412D01*
X24750000Y19463164D01*
X25218787Y19556412D01*
X25616206Y19821958D01*
X25881752Y20219377D01*
X25975000Y20688164D01*
X25975000Y21551836D01*
X25881752Y22020623D01*
X25616206Y22418042D01*
X25218787Y22683588D01*
X24750000Y22776836D01*
X24281213Y22683588D01*
X23883794Y22418042D01*
X23618248Y22020623D01*
X23548504Y21670000D01*
X22707817Y21670000D01*
X21288909Y23088909D01*
X21110476Y23208134D01*
X20900000Y23250000D01*
X19775371Y23250000D01*
X19711216Y23314267D01*
X19444844Y23424874D01*
X19156421Y23425126D01*
X18889857Y23314984D01*
X18685733Y23111216D01*
X18575126Y22844844D01*
X18574874Y22556421D01*
X18673932Y22316683D01*
X18606206Y22418042D01*
X18300000Y22622642D01*
X18300000Y22974629D01*
X18364267Y23038784D01*
X18474874Y23305156D01*
X18475126Y23593579D01*
X18389487Y23800842D01*
X18780000Y23723164D01*
X19248787Y23816412D01*
X19646206Y24081958D01*
X19911752Y24479377D01*
X20005000Y24948164D01*
X20005000Y25811836D01*
X19969272Y25991454D01*
X20170819Y26193002D01*
X20095000Y25811836D01*
X20095000Y24948164D01*
X20188248Y24479377D01*
X20453794Y24081958D01*
X20851213Y23816412D01*
X21320000Y23723164D01*
X21788787Y23816412D01*
X22186206Y24081958D01*
X22451752Y24479377D01*
X22545000Y24948164D01*
X22545000Y25811836D01*
X22451752Y26280623D01*
X22271761Y26550000D01*
X22908239Y26550000D01*
X22728248Y26280623D01*
X22635000Y25811836D01*
X22635000Y24948164D01*
X22728248Y24479377D01*
X22993794Y24081958D01*
X23391213Y23816412D01*
X23860000Y23723164D01*
X24328787Y23816412D01*
X24726206Y24081958D01*
X24991752Y24479377D01*
X25085000Y24948164D01*
X25085000Y25811836D01*
X24991752Y26280623D01*
X24811761Y26550000D01*
X25448239Y26550000D01*
X25268248Y26280623D01*
X25175000Y25811836D01*
X25175000Y24948164D01*
X25268248Y24479377D01*
X25533794Y24081958D01*
X25931213Y23816412D01*
X26400000Y23723164D01*
X26525041Y23748036D01*
X26524874Y23556421D01*
X26635016Y23289857D01*
X26740000Y23184690D01*
X26740000Y22629323D01*
X26423794Y22418042D01*
X26158248Y22020623D01*
X26065000Y21551836D01*
X26065000Y20688164D01*
X26158248Y20219377D01*
X26423794Y19821958D01*
X26821213Y19556412D01*
X27290000Y19463164D01*
X27758787Y19556412D01*
X28156206Y19821958D01*
X28421752Y20219377D01*
X28515000Y20688164D01*
X28515000Y21551836D01*
X28605000Y21551836D01*
X28605000Y20688164D01*
X28698248Y20219377D01*
X28963794Y19821958D01*
X29361213Y19556412D01*
X29830000Y19463164D01*
X30298787Y19556412D01*
X30696206Y19821958D01*
X30961752Y20219377D01*
X31055000Y20688164D01*
X31055000Y21551836D01*
X31145000Y21551836D01*
X31145000Y20688164D01*
X31238248Y20219377D01*
X31503794Y19821958D01*
X31901213Y19556412D01*
X32370000Y19463164D01*
X32838787Y19556412D01*
X33236206Y19821958D01*
X33501752Y20219377D01*
X33590948Y20667792D01*
X33695427Y20189847D01*
X33990762Y19765406D01*
X34426042Y19486293D01*
X34678069Y19415457D01*
X34885000Y19526512D01*
X34885000Y21095000D01*
X34865000Y21095000D01*
X34865000Y21145000D01*
X34885000Y21145000D01*
X34885000Y22713488D01*
X34935000Y22713488D01*
X34935000Y21145000D01*
X34955000Y21145000D01*
X34955000Y21095000D01*
X34935000Y21095000D01*
X34935000Y19526512D01*
X35141931Y19415457D01*
X35393958Y19486293D01*
X35829238Y19765406D01*
X36124573Y20189847D01*
X36229052Y20667792D01*
X36318248Y20219377D01*
X36583794Y19821958D01*
X36951191Y19576472D01*
X36835733Y19461216D01*
X36725126Y19194844D01*
X36724874Y18906421D01*
X36775000Y18785107D01*
X36775000Y16985368D01*
X36675126Y16744844D01*
X36674874Y16456421D01*
X36785016Y16189857D01*
X36988784Y15985733D01*
X37255156Y15875126D01*
X37543579Y15874874D01*
X37810143Y15985016D01*
X38014267Y16188784D01*
X38124874Y16455156D01*
X38125126Y16743579D01*
X38125000Y16743884D01*
X38125000Y18785046D01*
X38174874Y18905156D01*
X38175126Y19193579D01*
X38064984Y19460143D01*
X37948838Y19576492D01*
X38316206Y19821958D01*
X38581752Y20219377D01*
X38675000Y20688164D01*
X38675000Y21551836D01*
X38765000Y21551836D01*
X38765000Y20688164D01*
X38858248Y20219377D01*
X39123794Y19821958D01*
X39521213Y19556412D01*
X39990000Y19463164D01*
X40458787Y19556412D01*
X40856206Y19821958D01*
X41121752Y20219377D01*
X41215000Y20688164D01*
X41215000Y21551836D01*
X41305000Y21551836D01*
X41305000Y20688164D01*
X41398248Y20219377D01*
X41663794Y19821958D01*
X42061213Y19556412D01*
X42530000Y19463164D01*
X42998787Y19556412D01*
X43396206Y19821958D01*
X43661752Y20219377D01*
X43755000Y20688164D01*
X43755000Y21551836D01*
X43845000Y21551836D01*
X43845000Y20688164D01*
X43938248Y20219377D01*
X44203794Y19821958D01*
X44601213Y19556412D01*
X45070000Y19463164D01*
X45538787Y19556412D01*
X45936206Y19821958D01*
X46201752Y20219377D01*
X46295000Y20688164D01*
X46295000Y21551836D01*
X46385000Y21551836D01*
X46385000Y20688164D01*
X46478248Y20219377D01*
X46743794Y19821958D01*
X47141213Y19556412D01*
X47610000Y19463164D01*
X48078787Y19556412D01*
X48476206Y19821958D01*
X48741752Y20219377D01*
X48835000Y20688164D01*
X48835000Y21551836D01*
X48741752Y22020623D01*
X48476206Y22418042D01*
X48078787Y22683588D01*
X47610000Y22776836D01*
X47141213Y22683588D01*
X46743794Y22418042D01*
X46478248Y22020623D01*
X46385000Y21551836D01*
X46295000Y21551836D01*
X46201752Y22020623D01*
X45936206Y22418042D01*
X45538787Y22683588D01*
X45070000Y22776836D01*
X44601213Y22683588D01*
X44203794Y22418042D01*
X43938248Y22020623D01*
X43845000Y21551836D01*
X43755000Y21551836D01*
X43661752Y22020623D01*
X43396206Y22418042D01*
X42998787Y22683588D01*
X42530000Y22776836D01*
X42061213Y22683588D01*
X41663794Y22418042D01*
X41398248Y22020623D01*
X41305000Y21551836D01*
X41215000Y21551836D01*
X41121752Y22020623D01*
X40856206Y22418042D01*
X40458787Y22683588D01*
X39990000Y22776836D01*
X39521213Y22683588D01*
X39123794Y22418042D01*
X38858248Y22020623D01*
X38765000Y21551836D01*
X38675000Y21551836D01*
X38581752Y22020623D01*
X38316206Y22418042D01*
X37918787Y22683588D01*
X37450000Y22776836D01*
X36981213Y22683588D01*
X36583794Y22418042D01*
X36318248Y22020623D01*
X36229052Y21572208D01*
X36124573Y22050153D01*
X35829238Y22474594D01*
X35393958Y22753707D01*
X35141931Y22824543D01*
X34935000Y22713488D01*
X34885000Y22713488D01*
X34678069Y22824543D01*
X34426042Y22753707D01*
X33990762Y22474594D01*
X33695427Y22050153D01*
X33590948Y21572208D01*
X33501752Y22020623D01*
X33236206Y22418042D01*
X32838787Y22683588D01*
X32370000Y22776836D01*
X31901213Y22683588D01*
X31503794Y22418042D01*
X31238248Y22020623D01*
X31145000Y21551836D01*
X31055000Y21551836D01*
X30961752Y22020623D01*
X30696206Y22418042D01*
X30298787Y22683588D01*
X29830000Y22776836D01*
X29361213Y22683588D01*
X28963794Y22418042D01*
X28698248Y22020623D01*
X28605000Y21551836D01*
X28515000Y21551836D01*
X28421752Y22020623D01*
X28156206Y22418042D01*
X27840000Y22629323D01*
X27840000Y23264559D01*
X27864267Y23288784D01*
X27974874Y23555156D01*
X27975126Y23843579D01*
X27864984Y24110143D01*
X27661216Y24314267D01*
X27473509Y24392210D01*
X27524012Y24467794D01*
X41284754Y24467794D01*
X41501240Y23943857D01*
X41901749Y23542649D01*
X42425307Y23325248D01*
X42992206Y23324754D01*
X43516143Y23541240D01*
X43701047Y23725822D01*
X46801177Y23725822D01*
X46896410Y23477546D01*
X47451378Y23232444D01*
X48057897Y23218376D01*
X48623632Y23437484D01*
X48683590Y23477546D01*
X48778823Y23725822D01*
X47790000Y24714645D01*
X46801177Y23725822D01*
X43701047Y23725822D01*
X43917351Y23941749D01*
X44134752Y24465307D01*
X44134766Y24482103D01*
X46258376Y24482103D01*
X46477484Y23916368D01*
X46517546Y23856410D01*
X46765822Y23761177D01*
X47754645Y24750000D01*
X47825355Y24750000D01*
X48814178Y23761177D01*
X49062454Y23856410D01*
X49307556Y24411378D01*
X49321624Y25017897D01*
X49102516Y25583632D01*
X49062454Y25643590D01*
X48814178Y25738823D01*
X47825355Y24750000D01*
X47754645Y24750000D01*
X46765822Y25738823D01*
X46517546Y25643590D01*
X46272444Y25088622D01*
X46258376Y24482103D01*
X44134766Y24482103D01*
X44135246Y25032206D01*
X43918760Y25556143D01*
X43701105Y25774178D01*
X46801177Y25774178D01*
X47790000Y24785355D01*
X48778823Y25774178D01*
X48683590Y26022454D01*
X48128622Y26267556D01*
X47522103Y26281624D01*
X46956368Y26062516D01*
X46896410Y26022454D01*
X46801177Y25774178D01*
X43701105Y25774178D01*
X43518251Y25957351D01*
X42994693Y26174752D01*
X42427794Y26175246D01*
X41903857Y25958760D01*
X41502649Y25558251D01*
X41285248Y25034693D01*
X41284754Y24467794D01*
X27524012Y24467794D01*
X27531752Y24479377D01*
X27625000Y24948164D01*
X27625000Y25811836D01*
X27531752Y26280623D01*
X27454573Y26396130D01*
X27505156Y26375126D01*
X27793579Y26374874D01*
X27800645Y26377794D01*
X29374754Y26377794D01*
X29591240Y25853857D01*
X29991749Y25452649D01*
X30515307Y25235248D01*
X31082206Y25234754D01*
X31606143Y25451240D01*
X32007351Y25851749D01*
X32224752Y26375307D01*
X32225246Y26942206D01*
X32008760Y27466143D01*
X31608251Y27867351D01*
X31084693Y28084752D01*
X30517794Y28085246D01*
X29993857Y27868760D01*
X29592649Y27468251D01*
X29375248Y26944693D01*
X29374754Y26377794D01*
X27800645Y26377794D01*
X28060143Y26485016D01*
X28264267Y26688784D01*
X28374874Y26955156D01*
X28375126Y27243579D01*
X28264984Y27510143D01*
X28061216Y27714267D01*
X27794844Y27824874D01*
X27506421Y27825126D01*
X27239857Y27714984D01*
X27174759Y27650000D01*
X21939686Y27650000D01*
X22024874Y27855156D01*
X22025126Y28143579D01*
X21975000Y28264893D01*
X21975000Y29485046D01*
X22024874Y29605156D01*
X22025126Y29893579D01*
X21914984Y30160143D01*
X21711216Y30364267D01*
X21444844Y30474874D01*
X21156421Y30475126D01*
X20889857Y30364984D01*
X20685733Y30161216D01*
X20575126Y29894844D01*
X20574874Y29606421D01*
X20625000Y29485107D01*
X20625000Y28264954D01*
X20575126Y28144844D01*
X20574874Y27856421D01*
X20660165Y27650000D01*
X20300005Y27650000D01*
X20300000Y27650001D01*
X20089524Y27608134D01*
X19911091Y27488909D01*
X19911089Y27488906D01*
X19318914Y26896731D01*
X19248787Y26943588D01*
X18780000Y27036836D01*
X18311213Y26943588D01*
X17913794Y26678042D01*
X17648248Y26280623D01*
X17555000Y25811836D01*
X17555000Y24948164D01*
X17648248Y24479377D01*
X17851685Y24174912D01*
X17606421Y24175126D01*
X17339857Y24064984D01*
X17193862Y23919244D01*
X17114984Y24110143D01*
X16911216Y24314267D01*
X16644844Y24424874D01*
X16356421Y24425126D01*
X16089857Y24314984D01*
X15885733Y24111216D01*
X15805984Y23919159D01*
X15611216Y24114267D01*
X15344844Y24224874D01*
X15056421Y24225126D01*
X14789857Y24114984D01*
X14585733Y23911216D01*
X14475126Y23644844D01*
X14474874Y23356421D01*
X14525000Y23235107D01*
X14525000Y22545801D01*
X14333794Y22418042D01*
X14068248Y22020623D01*
X13979052Y21572208D01*
X13874573Y22050153D01*
X13579238Y22474594D01*
X13143958Y22753707D01*
X12891931Y22824543D01*
X12685000Y22713488D01*
X12635000Y22713488D01*
X12428069Y22824543D01*
X12176042Y22753707D01*
X11740762Y22474594D01*
X11445427Y22050153D01*
X11390000Y21796600D01*
X11334573Y22050153D01*
X11039238Y22474594D01*
X10603958Y22753707D01*
X10351931Y22824543D01*
X10145000Y22713488D01*
X10095000Y22713488D01*
X9888069Y22824543D01*
X9636042Y22753707D01*
X9200762Y22474594D01*
X8905427Y22050153D01*
X8800948Y21572208D01*
X8711752Y22020623D01*
X8446206Y22418042D01*
X8255000Y22545801D01*
X8255000Y23286880D01*
X8324874Y23455156D01*
X8325126Y23743579D01*
X8214984Y24010143D01*
X8011216Y24214267D01*
X7744844Y24324874D01*
X7456421Y24325126D01*
X7189857Y24214984D01*
X6985733Y24011216D01*
X6875126Y23744844D01*
X6874874Y23456421D01*
X6905000Y23383511D01*
X6905000Y22545801D01*
X6713794Y22418042D01*
X6448248Y22020623D01*
X6355000Y21551836D01*
X6265000Y21551836D01*
X6171752Y22020623D01*
X5906206Y22418042D01*
X5508787Y22683588D01*
X5040000Y22776836D01*
X4571213Y22683588D01*
X4173794Y22418042D01*
X3908248Y22020623D01*
X3815000Y21551836D01*
X3725000Y21551836D01*
X3631752Y22020623D01*
X3366206Y22418042D01*
X2968787Y22683588D01*
X2500000Y22776836D01*
X2031213Y22683588D01*
X1633794Y22418042D01*
X1368248Y22020623D01*
X1275000Y21551836D01*
X475000Y21551836D01*
X475000Y27200000D01*
X3247083Y27200000D01*
X3347943Y26692944D01*
X3635167Y26263084D01*
X4065027Y25975860D01*
X4572083Y25875000D01*
X4827917Y25875000D01*
X5334973Y25975860D01*
X5764833Y26263084D01*
X6052057Y26692944D01*
X6152917Y27200000D01*
X13407083Y27200000D01*
X13507943Y26692944D01*
X13795167Y26263084D01*
X14225027Y25975860D01*
X14732083Y25875000D01*
X14987917Y25875000D01*
X15494973Y25975860D01*
X15924833Y26263084D01*
X16212057Y26692944D01*
X16312917Y27200000D01*
X16212057Y27707056D01*
X15924833Y28136916D01*
X15494973Y28424140D01*
X14987917Y28525000D01*
X14732083Y28525000D01*
X14225027Y28424140D01*
X13795167Y28136916D01*
X13507943Y27707056D01*
X13407083Y27200000D01*
X6152917Y27200000D01*
X6052057Y27707056D01*
X5764833Y28136916D01*
X5334973Y28424140D01*
X4827917Y28525000D01*
X4572083Y28525000D01*
X4065027Y28424140D01*
X3635167Y28136916D01*
X3347943Y27707056D01*
X3247083Y27200000D01*
X475000Y27200000D01*
X475000Y30465855D01*
X566410Y30227546D01*
X1121378Y29982444D01*
X1727897Y29968376D01*
X2293632Y30187484D01*
X2353590Y30227546D01*
X2448823Y30475822D01*
X1460000Y31464645D01*
X1445858Y31450502D01*
X1410503Y31485857D01*
X1424645Y31500000D01*
X1495355Y31500000D01*
X2484178Y30511177D01*
X2732454Y30606410D01*
X2842871Y30856421D01*
X3774874Y30856421D01*
X3885016Y30589857D01*
X4088784Y30385733D01*
X4210010Y30335396D01*
X5522703Y29022703D01*
X5610845Y28963809D01*
X5688784Y28885733D01*
X5955156Y28775126D01*
X6243579Y28774874D01*
X6510143Y28885016D01*
X6714267Y29088784D01*
X6824874Y29355156D01*
X6825126Y29643579D01*
X6714984Y29910143D01*
X6550424Y30074991D01*
X6822206Y30074754D01*
X7346143Y30291240D01*
X7747351Y30691749D01*
X7964752Y31215307D01*
X7965246Y31782206D01*
X7748760Y32306143D01*
X7348251Y32707351D01*
X6824693Y32924752D01*
X6257794Y32925246D01*
X5733857Y32708760D01*
X5332649Y32308251D01*
X5115248Y31784693D01*
X5114922Y31410205D01*
X4911216Y31614267D01*
X4644844Y31724874D01*
X4356421Y31725126D01*
X4089857Y31614984D01*
X3885733Y31411216D01*
X3775126Y31144844D01*
X3774874Y30856421D01*
X2842871Y30856421D01*
X2977556Y31161378D01*
X2991624Y31767897D01*
X2772516Y32333632D01*
X2732454Y32393590D01*
X2484178Y32488823D01*
X1495355Y31500000D01*
X1424645Y31500000D01*
X1410503Y31514142D01*
X1445858Y31549497D01*
X1460000Y31535355D01*
X2448823Y32524178D01*
X2353590Y32772454D01*
X1798622Y33017556D01*
X1192103Y33031624D01*
X626368Y32812516D01*
X566410Y32772454D01*
X475000Y32534145D01*
X475000Y33469706D01*
X651749Y33292649D01*
X1175307Y33075248D01*
X1742206Y33074754D01*
X2266143Y33291240D01*
X2451047Y33475822D01*
X5551177Y33475822D01*
X5646410Y33227546D01*
X6201378Y32982444D01*
X6807897Y32968376D01*
X7373632Y33187484D01*
X7433590Y33227546D01*
X7528823Y33475822D01*
X6540000Y34464645D01*
X5551177Y33475822D01*
X2451047Y33475822D01*
X2667351Y33691749D01*
X2884752Y34215307D01*
X2884766Y34232103D01*
X5008376Y34232103D01*
X5227484Y33666368D01*
X5267546Y33606410D01*
X5515822Y33511177D01*
X6504645Y34500000D01*
X6575355Y34500000D01*
X7564178Y33511177D01*
X7812454Y33606410D01*
X8057556Y34161378D01*
X8061931Y34350000D01*
X8216674Y34350000D01*
X8216674Y32650000D01*
X8246309Y32492504D01*
X8339389Y32347854D01*
X8481412Y32250814D01*
X8650000Y32216674D01*
X10350000Y32216674D01*
X10507496Y32246309D01*
X10652146Y32339389D01*
X10684562Y32386831D01*
X10696318Y32351294D01*
X11197085Y32131178D01*
X11743969Y32119453D01*
X12253710Y32317903D01*
X12303682Y32351294D01*
X12380660Y32583984D01*
X11500000Y33464645D01*
X11485858Y33450502D01*
X11450502Y33485858D01*
X11464645Y33500000D01*
X11535355Y33500000D01*
X12416016Y32619340D01*
X12648706Y32696318D01*
X12771202Y32975000D01*
X17455000Y32975000D01*
X17455000Y32575000D01*
X17565427Y32069847D01*
X17860762Y31645406D01*
X18296042Y31366293D01*
X18548069Y31295457D01*
X18755000Y31406512D01*
X18755000Y32975000D01*
X17455000Y32975000D01*
X12771202Y32975000D01*
X12868822Y33197085D01*
X12873708Y33425000D01*
X17455000Y33425000D01*
X17455000Y33025000D01*
X18755000Y33025000D01*
X18755000Y34593488D01*
X18805000Y34593488D01*
X18805000Y33025000D01*
X18825000Y33025000D01*
X18825000Y32975000D01*
X18805000Y32975000D01*
X18805000Y31406512D01*
X19011931Y31295457D01*
X19263958Y31366293D01*
X19699238Y31645406D01*
X19994573Y32069847D01*
X20099052Y32547792D01*
X20188248Y32099377D01*
X20453794Y31701958D01*
X20851213Y31436412D01*
X21320000Y31343164D01*
X21788787Y31436412D01*
X22186206Y31701958D01*
X22451752Y32099377D01*
X22540948Y32547792D01*
X22645427Y32069847D01*
X22940762Y31645406D01*
X23376042Y31366293D01*
X23628069Y31295457D01*
X23835000Y31406512D01*
X23835000Y32975000D01*
X23815000Y32975000D01*
X23815000Y33025000D01*
X23835000Y33025000D01*
X23835000Y34593488D01*
X23885000Y34593488D01*
X23885000Y33025000D01*
X23905000Y33025000D01*
X23905000Y32975000D01*
X23885000Y32975000D01*
X23885000Y31406512D01*
X24091931Y31295457D01*
X24343958Y31366293D01*
X24779238Y31645406D01*
X25074573Y32069847D01*
X25166674Y32491167D01*
X25166674Y31800000D01*
X25196309Y31642504D01*
X25289389Y31497854D01*
X25431412Y31400814D01*
X25600000Y31366674D01*
X27200000Y31366674D01*
X27357496Y31396309D01*
X27453046Y31457794D01*
X29374754Y31457794D01*
X29591240Y30933857D01*
X29991749Y30532649D01*
X30515307Y30315248D01*
X31082206Y30314754D01*
X31606143Y30531240D01*
X32007351Y30931749D01*
X32224752Y31455307D01*
X32225246Y32022206D01*
X32008760Y32546143D01*
X31608251Y32947351D01*
X31084693Y33164752D01*
X30517794Y33165246D01*
X29993857Y32948760D01*
X29592649Y32548251D01*
X29375248Y32024693D01*
X29374754Y31457794D01*
X27453046Y31457794D01*
X27502146Y31489389D01*
X27599186Y31631412D01*
X27633326Y31800000D01*
X27633326Y34200000D01*
X27603691Y34357496D01*
X27510611Y34502146D01*
X27368588Y34599186D01*
X27200000Y34633326D01*
X25600000Y34633326D01*
X25442504Y34603691D01*
X25297854Y34510611D01*
X25200814Y34368588D01*
X25166674Y34200000D01*
X25166674Y33508833D01*
X25074573Y33930153D01*
X24779238Y34354594D01*
X24343958Y34633707D01*
X24091931Y34704543D01*
X23885000Y34593488D01*
X23835000Y34593488D01*
X23628069Y34704543D01*
X23376042Y34633707D01*
X22940762Y34354594D01*
X22645427Y33930153D01*
X22540948Y33452208D01*
X22451752Y33900623D01*
X22186206Y34298042D01*
X21788787Y34563588D01*
X21320000Y34656836D01*
X20851213Y34563588D01*
X20453794Y34298042D01*
X20188248Y33900623D01*
X20099052Y33452208D01*
X19994573Y33930153D01*
X19699238Y34354594D01*
X19263958Y34633707D01*
X19011931Y34704543D01*
X18805000Y34593488D01*
X18755000Y34593488D01*
X18548069Y34704543D01*
X18296042Y34633707D01*
X17860762Y34354594D01*
X17565427Y33930153D01*
X17455000Y33425000D01*
X12873708Y33425000D01*
X12880547Y33743969D01*
X12682097Y34253710D01*
X12648706Y34303682D01*
X12416016Y34380660D01*
X11535355Y33500000D01*
X11464645Y33500000D01*
X11450502Y33514142D01*
X11485858Y33549498D01*
X11500000Y33535355D01*
X12380660Y34416016D01*
X12303682Y34648706D01*
X11802915Y34868822D01*
X11256031Y34880547D01*
X10746290Y34682097D01*
X10696318Y34648706D01*
X10684946Y34614329D01*
X10660611Y34652146D01*
X10518588Y34749186D01*
X10350000Y34783326D01*
X8650000Y34783326D01*
X8492504Y34753691D01*
X8347854Y34660611D01*
X8250814Y34518588D01*
X8216674Y34350000D01*
X8061931Y34350000D01*
X8071624Y34767897D01*
X7852516Y35333632D01*
X7812454Y35393590D01*
X7564178Y35488823D01*
X6575355Y34500000D01*
X6504645Y34500000D01*
X5515822Y35488823D01*
X5267546Y35393590D01*
X5022444Y34838622D01*
X5008376Y34232103D01*
X2884766Y34232103D01*
X2885246Y34782206D01*
X2668760Y35306143D01*
X2451105Y35524178D01*
X5551177Y35524178D01*
X6540000Y34535355D01*
X7528823Y35524178D01*
X7433590Y35772454D01*
X6878622Y36017556D01*
X6272103Y36031624D01*
X5706368Y35812516D01*
X5646410Y35772454D01*
X5551177Y35524178D01*
X2451105Y35524178D01*
X2268251Y35707351D01*
X1744693Y35924752D01*
X1177794Y35925246D01*
X653857Y35708760D01*
X475000Y35530215D01*
X475000Y36256421D01*
X7974874Y36256421D01*
X8085016Y35989857D01*
X8288784Y35785733D01*
X8555156Y35675126D01*
X8843579Y35674874D01*
X8964893Y35725000D01*
X10735046Y35725000D01*
X10855156Y35675126D01*
X11143579Y35674874D01*
X11410143Y35785016D01*
X11614267Y35988784D01*
X11724874Y36255156D01*
X11725126Y36543579D01*
X11614984Y36810143D01*
X11411216Y37014267D01*
X11144844Y37124874D01*
X10856421Y37125126D01*
X10735107Y37075000D01*
X8964954Y37075000D01*
X8844844Y37124874D01*
X8556421Y37125126D01*
X8289857Y37014984D01*
X8085733Y36811216D01*
X7975126Y36544844D01*
X7974874Y36256421D01*
X475000Y36256421D01*
X475000Y42500000D01*
X5047083Y42500000D01*
X5140331Y42031213D01*
X5405877Y41633794D01*
X5606115Y41500000D01*
X5405877Y41366206D01*
X5140331Y40968787D01*
X5047083Y40500000D01*
X5140331Y40031213D01*
X5405877Y39633794D01*
X5803296Y39368248D01*
X6272083Y39275000D01*
X6727917Y39275000D01*
X7196704Y39368248D01*
X7594123Y39633794D01*
X7859669Y40031213D01*
X7952917Y40500000D01*
X7859669Y40968787D01*
X7594123Y41366206D01*
X7417421Y41484274D01*
X7978084Y41484274D01*
X8062735Y41183382D01*
X8388671Y40678026D01*
X8745971Y40430810D01*
X8443852Y40228941D01*
X8131483Y39761447D01*
X8021793Y39210000D01*
X8131483Y38658553D01*
X8443852Y38191059D01*
X8911346Y37878690D01*
X9462793Y37769000D01*
X10037207Y37769000D01*
X10588654Y37878690D01*
X11056148Y38191059D01*
X11368517Y38658553D01*
X11478207Y39210000D01*
X11368517Y39761447D01*
X11146480Y40093750D01*
X15075000Y40093750D01*
X15075000Y39245571D01*
X15154926Y39052611D01*
X15302611Y38904926D01*
X15495571Y38825000D01*
X15741477Y38825000D01*
X15377375Y38461532D01*
X15175231Y37974715D01*
X15174771Y37447598D01*
X15376065Y36960428D01*
X15748468Y36587375D01*
X16235285Y36385231D01*
X16762402Y36384771D01*
X17249572Y36586065D01*
X17622625Y36958468D01*
X17665547Y37061836D01*
X24155000Y37061836D01*
X24155000Y36198164D01*
X24248248Y35729377D01*
X24513794Y35331958D01*
X24911213Y35066412D01*
X25380000Y34973164D01*
X25848787Y35066412D01*
X26246206Y35331958D01*
X26511752Y35729377D01*
X26605000Y36198164D01*
X26605000Y37061836D01*
X26695000Y37061836D01*
X26695000Y36198164D01*
X26788248Y35729377D01*
X27053794Y35331958D01*
X27451213Y35066412D01*
X27920000Y34973164D01*
X28388787Y35066412D01*
X28786206Y35331958D01*
X29051752Y35729377D01*
X29145000Y36198164D01*
X29145000Y37061836D01*
X29062801Y37475076D01*
X29293579Y37474874D01*
X29319270Y37485489D01*
X29235000Y37061836D01*
X29235000Y36198164D01*
X29328248Y35729377D01*
X29593794Y35331958D01*
X29991213Y35066412D01*
X30460000Y34973164D01*
X30928787Y35066412D01*
X31326206Y35331958D01*
X31591752Y35729377D01*
X31685000Y36198164D01*
X31685000Y37061836D01*
X31775000Y37061836D01*
X31775000Y36198164D01*
X31868248Y35729377D01*
X32133794Y35331958D01*
X32325000Y35204199D01*
X32325000Y33460000D01*
X32376381Y33201688D01*
X32522703Y32982703D01*
X33089664Y32415742D01*
X33035248Y32284693D01*
X33034754Y31717794D01*
X33251240Y31193857D01*
X33651749Y30792649D01*
X34175307Y30575248D01*
X34497150Y30574968D01*
X34071091Y30148909D01*
X33951866Y29970476D01*
X33910000Y29760000D01*
X33910000Y28914596D01*
X33653857Y28808760D01*
X33252649Y28408251D01*
X33035248Y27884693D01*
X33034754Y27317794D01*
X33251240Y26793857D01*
X33651749Y26392649D01*
X34175307Y26175248D01*
X34742206Y26174754D01*
X35266143Y26391240D01*
X35667351Y26791749D01*
X35884752Y27315307D01*
X35885246Y27882206D01*
X35668760Y28406143D01*
X35400372Y28674999D01*
X35543579Y28674874D01*
X35810143Y28785016D01*
X35875241Y28850000D01*
X38224629Y28850000D01*
X38288784Y28785733D01*
X38555156Y28675126D01*
X38599951Y28675087D01*
X38332649Y28408251D01*
X38115248Y27884693D01*
X38114754Y27317794D01*
X38331240Y26793857D01*
X38731749Y26392649D01*
X39255307Y26175248D01*
X39822206Y26174754D01*
X40346143Y26391240D01*
X40747351Y26791749D01*
X40964752Y27315307D01*
X40965246Y27882206D01*
X40748760Y28406143D01*
X40348251Y28807351D01*
X39824693Y29024752D01*
X39329381Y29025184D01*
X39424874Y29255156D01*
X39425066Y29474890D01*
X39443579Y29474874D01*
X39710143Y29585016D01*
X39914267Y29788784D01*
X40024874Y30055156D01*
X40025126Y30343579D01*
X39950707Y30523686D01*
X40373632Y30687484D01*
X40433590Y30727546D01*
X40528823Y30975822D01*
X39540000Y31964645D01*
X38551177Y30975822D01*
X38637797Y30750000D01*
X35875371Y30750000D01*
X35811216Y30814267D01*
X35544844Y30924874D01*
X35400137Y30925000D01*
X35667351Y31191749D01*
X35681158Y31225000D01*
X36885046Y31225000D01*
X37005156Y31175126D01*
X37293579Y31174874D01*
X37560143Y31285016D01*
X37764267Y31488784D01*
X37865301Y31732103D01*
X38008376Y31732103D01*
X38227484Y31166368D01*
X38267546Y31106410D01*
X38515822Y31011177D01*
X39504645Y32000000D01*
X39575355Y32000000D01*
X40564178Y31011177D01*
X40812454Y31106410D01*
X41057556Y31661378D01*
X41058451Y31700000D01*
X42616674Y31700000D01*
X42616674Y29900000D01*
X42646309Y29742504D01*
X42739389Y29597854D01*
X42881412Y29500814D01*
X43050000Y29466674D01*
X44850000Y29466674D01*
X45007496Y29496309D01*
X45152146Y29589389D01*
X45249186Y29731412D01*
X45283326Y29900000D01*
X45283326Y30153865D01*
X45326065Y30050428D01*
X45698468Y29677375D01*
X46185285Y29475231D01*
X46712402Y29474771D01*
X46895132Y29550274D01*
X47535351Y28910055D01*
X47585016Y28789857D01*
X47788784Y28585733D01*
X48055156Y28475126D01*
X48343579Y28474874D01*
X48610143Y28585016D01*
X48814267Y28788784D01*
X48924874Y29055156D01*
X48925126Y29343579D01*
X48814984Y29610143D01*
X48611216Y29814267D01*
X48489990Y29864604D01*
X47774808Y30579786D01*
X47775229Y31062402D01*
X47573935Y31549572D01*
X47201532Y31922625D01*
X46714715Y32124769D01*
X46187598Y32125229D01*
X45700428Y31923935D01*
X45327375Y31551532D01*
X45283326Y31445450D01*
X45283326Y31700000D01*
X45253691Y31857496D01*
X45160611Y32002146D01*
X45018588Y32099186D01*
X44850000Y32133326D01*
X43050000Y32133326D01*
X42892504Y32103691D01*
X42747854Y32010611D01*
X42650814Y31868588D01*
X42616674Y31700000D01*
X41058451Y31700000D01*
X41071624Y32267897D01*
X40852516Y32833632D01*
X40812454Y32893590D01*
X40564178Y32988823D01*
X39575355Y32000000D01*
X39504645Y32000000D01*
X38515822Y32988823D01*
X38267546Y32893590D01*
X38022444Y32338622D01*
X38008376Y31732103D01*
X37865301Y31732103D01*
X37874874Y31755156D01*
X37875126Y32043579D01*
X37764984Y32310143D01*
X37561216Y32514267D01*
X37294844Y32624874D01*
X37006421Y32625126D01*
X36885107Y32575000D01*
X35764266Y32575000D01*
X35668760Y32806143D01*
X35268251Y33207351D01*
X34744693Y33424752D01*
X34177794Y33425246D01*
X34044446Y33370148D01*
X33675000Y33739594D01*
X33675000Y35204199D01*
X33866206Y35331958D01*
X33997141Y35527917D01*
X35675000Y35527917D01*
X35675000Y35272083D01*
X35775860Y34765027D01*
X36063084Y34335167D01*
X36492944Y34047943D01*
X36516030Y34043351D01*
X36475126Y33944844D01*
X36474874Y33656421D01*
X36585016Y33389857D01*
X36788784Y33185733D01*
X37055156Y33075126D01*
X37343579Y33074874D01*
X37464893Y33125000D01*
X38589850Y33125000D01*
X38551177Y33024178D01*
X39540000Y32035355D01*
X40528823Y33024178D01*
X40433590Y33272454D01*
X39953927Y33484297D01*
X40024874Y33655156D01*
X40025126Y33943579D01*
X39989009Y34030989D01*
X40077774Y33973905D01*
X40352423Y33896671D01*
X40575000Y34006492D01*
X40575000Y35375000D01*
X40625000Y35375000D01*
X40625000Y34006492D01*
X40847577Y33896671D01*
X41122226Y33973905D01*
X41589949Y34274695D01*
X41906961Y34731579D01*
X42025000Y35275000D01*
X42025000Y35375000D01*
X40625000Y35375000D01*
X40575000Y35375000D01*
X39175000Y35375000D01*
X39175000Y35275000D01*
X39293039Y34731579D01*
X39436458Y34524881D01*
X39156421Y34525126D01*
X39035107Y34475000D01*
X38030350Y34475000D01*
X38224140Y34765027D01*
X38325000Y35272083D01*
X38325000Y35525000D01*
X39175000Y35525000D01*
X39175000Y35425000D01*
X40575000Y35425000D01*
X40575000Y36793508D01*
X40625000Y36793508D01*
X40625000Y35425000D01*
X42025000Y35425000D01*
X42025000Y35525000D01*
X41906961Y36068421D01*
X41589949Y36525305D01*
X41122226Y36826095D01*
X40847577Y36903329D01*
X40625000Y36793508D01*
X40575000Y36793508D01*
X40352423Y36903329D01*
X40077774Y36826095D01*
X39610051Y36525305D01*
X39293039Y36068421D01*
X39175000Y35525000D01*
X38325000Y35525000D01*
X38325000Y35527917D01*
X38224140Y36034973D01*
X37936916Y36464833D01*
X37507056Y36752057D01*
X37000000Y36852917D01*
X36492944Y36752057D01*
X36063084Y36464833D01*
X35775860Y36034973D01*
X35675000Y35527917D01*
X33997141Y35527917D01*
X34131752Y35729377D01*
X34225000Y36198164D01*
X34225000Y37061836D01*
X34131752Y37530623D01*
X33866206Y37928042D01*
X33468787Y38193588D01*
X33000000Y38286836D01*
X32531213Y38193588D01*
X32133794Y37928042D01*
X31868248Y37530623D01*
X31775000Y37061836D01*
X31685000Y37061836D01*
X31591752Y37530623D01*
X31326206Y37928042D01*
X30928787Y38193588D01*
X30460000Y38286836D01*
X29991213Y38193588D01*
X29874927Y38115888D01*
X29875126Y38343579D01*
X29845317Y38415723D01*
X30814945Y39385351D01*
X30935143Y39435016D01*
X31139267Y39638784D01*
X31249874Y39905156D01*
X31250126Y40193579D01*
X31139984Y40460143D01*
X30936216Y40664267D01*
X30669844Y40774874D01*
X30381421Y40775126D01*
X30114857Y40664984D01*
X29910733Y40461216D01*
X29860396Y40339990D01*
X28672703Y39152297D01*
X28526381Y38933312D01*
X28524789Y38925307D01*
X28475000Y38675000D01*
X28475000Y38464954D01*
X28425126Y38344844D01*
X28424973Y38169410D01*
X28388787Y38193588D01*
X27920000Y38286836D01*
X27451213Y38193588D01*
X27053794Y37928042D01*
X26788248Y37530623D01*
X26695000Y37061836D01*
X26605000Y37061836D01*
X26511752Y37530623D01*
X26246206Y37928042D01*
X25848787Y38193588D01*
X25380000Y38286836D01*
X24911213Y38193588D01*
X24513794Y37928042D01*
X24248248Y37530623D01*
X24155000Y37061836D01*
X17665547Y37061836D01*
X17824769Y37445285D01*
X17825229Y37972402D01*
X17623935Y38459572D01*
X17259144Y38825000D01*
X17504429Y38825000D01*
X17697389Y38904926D01*
X17845074Y39052611D01*
X17846652Y39056421D01*
X17974874Y39056421D01*
X18085016Y38789857D01*
X18288784Y38585733D01*
X18555156Y38475126D01*
X18843579Y38474874D01*
X18989095Y38535000D01*
X20487053Y38535000D01*
X20541240Y38403857D01*
X20941749Y38002649D01*
X21465307Y37785248D01*
X22032206Y37784754D01*
X22556143Y38001240D01*
X22957351Y38401749D01*
X23174752Y38925307D01*
X23175246Y39492206D01*
X22958760Y40016143D01*
X22558251Y40417351D01*
X22034693Y40634752D01*
X21467794Y40635246D01*
X20943857Y40418760D01*
X20542649Y40018251D01*
X20487318Y39885000D01*
X18940872Y39885000D01*
X18844844Y39924874D01*
X18556421Y39925126D01*
X18289857Y39814984D01*
X18085733Y39611216D01*
X17975126Y39344844D01*
X17974874Y39056421D01*
X17846652Y39056421D01*
X17925000Y39245571D01*
X17925000Y40093750D01*
X17793750Y40225000D01*
X16525000Y40225000D01*
X16525000Y40205000D01*
X16475000Y40205000D01*
X16475000Y40225000D01*
X15206250Y40225000D01*
X15075000Y40093750D01*
X11146480Y40093750D01*
X11056148Y40228941D01*
X10754029Y40430810D01*
X11111329Y40678026D01*
X11437265Y41183382D01*
X11457252Y41254429D01*
X15075000Y41254429D01*
X15075000Y40406250D01*
X15206250Y40275000D01*
X16475000Y40275000D01*
X16475000Y41543750D01*
X16525000Y41543750D01*
X16525000Y40275000D01*
X17793750Y40275000D01*
X17925000Y40406250D01*
X17925000Y41254429D01*
X17845074Y41447389D01*
X17697389Y41595074D01*
X17504429Y41675000D01*
X16656250Y41675000D01*
X16525000Y41543750D01*
X16475000Y41543750D01*
X16343750Y41675000D01*
X15495571Y41675000D01*
X15302611Y41595074D01*
X15154926Y41447389D01*
X15075000Y41254429D01*
X11457252Y41254429D01*
X11521916Y41484274D01*
X11413528Y41725000D01*
X9775000Y41725000D01*
X9775000Y41705000D01*
X9725000Y41705000D01*
X9725000Y41725000D01*
X8086472Y41725000D01*
X7978084Y41484274D01*
X7417421Y41484274D01*
X7393885Y41500000D01*
X7594123Y41633794D01*
X7849320Y42015726D01*
X7978084Y42015726D01*
X8086472Y41775000D01*
X9725000Y41775000D01*
X9725000Y41795000D01*
X9775000Y41795000D01*
X9775000Y41775000D01*
X11413528Y41775000D01*
X11521916Y42015726D01*
X11437265Y42316618D01*
X11411594Y42356421D01*
X35574874Y42356421D01*
X35685016Y42089857D01*
X35888784Y41885733D01*
X36155156Y41775126D01*
X36443579Y41774874D01*
X36564893Y41825000D01*
X39435046Y41825000D01*
X39555156Y41775126D01*
X39843579Y41774874D01*
X40110143Y41885016D01*
X40314267Y42088784D01*
X40424874Y42355156D01*
X40425000Y42500000D01*
X42047083Y42500000D01*
X42140331Y42031213D01*
X42405877Y41633794D01*
X42606115Y41500000D01*
X42405877Y41366206D01*
X42140331Y40968787D01*
X42047083Y40500000D01*
X42140331Y40031213D01*
X42405877Y39633794D01*
X42803296Y39368248D01*
X43272083Y39275000D01*
X43727917Y39275000D01*
X44196704Y39368248D01*
X44594123Y39633794D01*
X44859669Y40031213D01*
X44952917Y40500000D01*
X44859669Y40968787D01*
X44594123Y41366206D01*
X44393885Y41500000D01*
X44594123Y41633794D01*
X44859669Y42031213D01*
X44952917Y42500000D01*
X44859669Y42968787D01*
X44594123Y43366206D01*
X44196704Y43631752D01*
X43727917Y43725000D01*
X43272083Y43725000D01*
X42803296Y43631752D01*
X42405877Y43366206D01*
X42140331Y42968787D01*
X42047083Y42500000D01*
X40425000Y42500000D01*
X40425126Y42643579D01*
X40314984Y42910143D01*
X40111216Y43114267D01*
X39844844Y43224874D01*
X39556421Y43225126D01*
X39435107Y43175000D01*
X36564954Y43175000D01*
X36444844Y43224874D01*
X36156421Y43225126D01*
X35889857Y43114984D01*
X35685733Y42911216D01*
X35575126Y42644844D01*
X35574874Y42356421D01*
X11411594Y42356421D01*
X11111329Y42821974D01*
X10754029Y43069190D01*
X11048310Y43265822D01*
X20761177Y43265822D01*
X20856410Y43017546D01*
X21411378Y42772444D01*
X22017897Y42758376D01*
X22583632Y42977484D01*
X22643590Y43017546D01*
X22738823Y43265822D01*
X21750000Y44254645D01*
X20761177Y43265822D01*
X11048310Y43265822D01*
X11056148Y43271059D01*
X11368517Y43738553D01*
X11424918Y44022103D01*
X20218376Y44022103D01*
X20437484Y43456368D01*
X20477546Y43396410D01*
X20725822Y43301177D01*
X21714645Y44290000D01*
X21785355Y44290000D01*
X22774178Y43301177D01*
X23022454Y43396410D01*
X23267556Y43951378D01*
X23273902Y44225000D01*
X24055000Y44225000D01*
X24055000Y43825000D01*
X24165427Y43319847D01*
X24460762Y42895406D01*
X24896042Y42616293D01*
X25148069Y42545457D01*
X25355000Y42656512D01*
X25355000Y44225000D01*
X24055000Y44225000D01*
X23273902Y44225000D01*
X23281624Y44557897D01*
X23236271Y44675000D01*
X24055000Y44675000D01*
X24055000Y44275000D01*
X25355000Y44275000D01*
X25355000Y45843488D01*
X25405000Y45843488D01*
X25405000Y44275000D01*
X25425000Y44275000D01*
X25425000Y44225000D01*
X25405000Y44225000D01*
X25405000Y42656512D01*
X25611931Y42545457D01*
X25863958Y42616293D01*
X26299238Y42895406D01*
X26594573Y43319847D01*
X26699052Y43797792D01*
X26788248Y43349377D01*
X27053794Y42951958D01*
X27451213Y42686412D01*
X27920000Y42593164D01*
X28388787Y42686412D01*
X28786206Y42951958D01*
X29051752Y43349377D01*
X29140948Y43797792D01*
X29245427Y43319847D01*
X29540762Y42895406D01*
X29976042Y42616293D01*
X30228069Y42545457D01*
X30435000Y42656512D01*
X30435000Y44225000D01*
X30415000Y44225000D01*
X30415000Y44275000D01*
X30435000Y44275000D01*
X30435000Y45843488D01*
X30485000Y45843488D01*
X30485000Y44275000D01*
X30505000Y44275000D01*
X30505000Y44225000D01*
X30485000Y44225000D01*
X30485000Y42656512D01*
X30691931Y42545457D01*
X30943958Y42616293D01*
X31379238Y42895406D01*
X31674573Y43319847D01*
X31766674Y43741167D01*
X31766674Y43050000D01*
X31796309Y42892504D01*
X31889389Y42747854D01*
X32031412Y42650814D01*
X32200000Y42616674D01*
X33800000Y42616674D01*
X33957496Y42646309D01*
X34102146Y42739389D01*
X34199186Y42881412D01*
X34233326Y43050000D01*
X34233326Y45450000D01*
X34203691Y45607496D01*
X34151942Y45687917D01*
X35675000Y45687917D01*
X35675000Y45432083D01*
X35775860Y44925027D01*
X36063084Y44495167D01*
X36492944Y44207943D01*
X37000000Y44107083D01*
X37507056Y44207943D01*
X37936916Y44495167D01*
X38224140Y44925027D01*
X38325000Y45432083D01*
X38325000Y45687917D01*
X39275000Y45687917D01*
X39275000Y45432083D01*
X39375860Y44925027D01*
X39663084Y44495167D01*
X40092944Y44207943D01*
X40600000Y44107083D01*
X41107056Y44207943D01*
X41536916Y44495167D01*
X41824140Y44925027D01*
X41925000Y45432083D01*
X41925000Y45687917D01*
X41824140Y46194973D01*
X41536916Y46624833D01*
X41107056Y46912057D01*
X40600000Y47012917D01*
X40092944Y46912057D01*
X39663084Y46624833D01*
X39375860Y46194973D01*
X39275000Y45687917D01*
X38325000Y45687917D01*
X38224140Y46194973D01*
X37936916Y46624833D01*
X37507056Y46912057D01*
X37000000Y47012917D01*
X36492944Y46912057D01*
X36063084Y46624833D01*
X35775860Y46194973D01*
X35675000Y45687917D01*
X34151942Y45687917D01*
X34110611Y45752146D01*
X33968588Y45849186D01*
X33800000Y45883326D01*
X32200000Y45883326D01*
X32042504Y45853691D01*
X31897854Y45760611D01*
X31800814Y45618588D01*
X31766674Y45450000D01*
X31766674Y44758833D01*
X31674573Y45180153D01*
X31379238Y45604594D01*
X30943958Y45883707D01*
X30691931Y45954543D01*
X30485000Y45843488D01*
X30435000Y45843488D01*
X30228069Y45954543D01*
X29976042Y45883707D01*
X29540762Y45604594D01*
X29245427Y45180153D01*
X29140948Y44702208D01*
X29051752Y45150623D01*
X28786206Y45548042D01*
X28388787Y45813588D01*
X27920000Y45906836D01*
X27451213Y45813588D01*
X27053794Y45548042D01*
X26788248Y45150623D01*
X26699052Y44702208D01*
X26594573Y45180153D01*
X26299238Y45604594D01*
X25863958Y45883707D01*
X25611931Y45954543D01*
X25405000Y45843488D01*
X25355000Y45843488D01*
X25148069Y45954543D01*
X24896042Y45883707D01*
X24460762Y45604594D01*
X24165427Y45180153D01*
X24055000Y44675000D01*
X23236271Y44675000D01*
X23062516Y45123632D01*
X23022454Y45183590D01*
X22774178Y45278823D01*
X21785355Y44290000D01*
X21714645Y44290000D01*
X20725822Y45278823D01*
X20477546Y45183590D01*
X20232444Y44628622D01*
X20218376Y44022103D01*
X11424918Y44022103D01*
X11478207Y44290000D01*
X11415267Y44606421D01*
X16024874Y44606421D01*
X16135016Y44339857D01*
X16338784Y44135733D01*
X16605156Y44025126D01*
X16893579Y44024874D01*
X17014893Y44075000D01*
X18235046Y44075000D01*
X18355156Y44025126D01*
X18643579Y44024874D01*
X18910143Y44135016D01*
X19114267Y44338784D01*
X19224874Y44605156D01*
X19225126Y44893579D01*
X19114984Y45160143D01*
X18961218Y45314178D01*
X20761177Y45314178D01*
X21750000Y44325355D01*
X22738823Y45314178D01*
X22643590Y45562454D01*
X22088622Y45807556D01*
X21482103Y45821624D01*
X20916368Y45602516D01*
X20856410Y45562454D01*
X20761177Y45314178D01*
X18961218Y45314178D01*
X18911216Y45364267D01*
X18644844Y45474874D01*
X18356421Y45475126D01*
X18235107Y45425000D01*
X17014954Y45425000D01*
X16894844Y45474874D01*
X16606421Y45475126D01*
X16339857Y45364984D01*
X16135733Y45161216D01*
X16025126Y44894844D01*
X16024874Y44606421D01*
X11415267Y44606421D01*
X11368517Y44841447D01*
X11056148Y45308941D01*
X10588654Y45621310D01*
X10037207Y45731000D01*
X9462793Y45731000D01*
X8911346Y45621310D01*
X8443852Y45308941D01*
X8131483Y44841447D01*
X8021793Y44290000D01*
X8131483Y43738553D01*
X8443852Y43271059D01*
X8745971Y43069190D01*
X8388671Y42821974D01*
X8062735Y42316618D01*
X7978084Y42015726D01*
X7849320Y42015726D01*
X7859669Y42031213D01*
X7952917Y42500000D01*
X7859669Y42968787D01*
X7594123Y43366206D01*
X7196704Y43631752D01*
X6727917Y43725000D01*
X6272083Y43725000D01*
X5803296Y43631752D01*
X5405877Y43366206D01*
X5140331Y42968787D01*
X5047083Y42500000D01*
X475000Y42500000D01*
X475000Y45803715D01*
X14689070Y45803715D01*
X14796473Y45545050D01*
X15387573Y45283290D01*
X16033849Y45267660D01*
X16636912Y45500539D01*
X16703527Y45545050D01*
X16810930Y45803715D01*
X15750000Y46864645D01*
X14689070Y45803715D01*
X475000Y45803715D01*
X475000Y47453217D01*
X637741Y48271373D01*
X990958Y48800000D01*
X1896674Y48800000D01*
X1896674Y46800000D01*
X1926309Y46642504D01*
X2019389Y46497854D01*
X2161412Y46400814D01*
X2330000Y46366674D01*
X4330000Y46366674D01*
X4487496Y46396309D01*
X4632146Y46489389D01*
X4729186Y46631412D01*
X4736232Y46666208D01*
X4753899Y46648541D01*
X4845125Y46739767D01*
X4946441Y46486298D01*
X5519475Y46232867D01*
X6145873Y46218018D01*
X6730272Y46444011D01*
X6793559Y46486298D01*
X6894876Y46739768D01*
X5870000Y47764645D01*
X5855858Y47750502D01*
X5820502Y47785858D01*
X5834645Y47800000D01*
X5905355Y47800000D01*
X6930232Y46775124D01*
X7183702Y46876441D01*
X7437133Y47449475D01*
X7451982Y48075873D01*
X7225989Y48660272D01*
X7183702Y48723559D01*
X6930232Y48824876D01*
X5905355Y47800000D01*
X5834645Y47800000D01*
X5820502Y47814142D01*
X5855858Y47849498D01*
X5870000Y47835355D01*
X6894876Y48860232D01*
X6793559Y49113702D01*
X6220525Y49367133D01*
X5594127Y49381982D01*
X5009728Y49155989D01*
X4946441Y49113702D01*
X4845125Y48860233D01*
X4753899Y48951459D01*
X4737847Y48935407D01*
X4733691Y48957496D01*
X4640611Y49102146D01*
X4498588Y49199186D01*
X4330000Y49233326D01*
X2330000Y49233326D01*
X2172504Y49203691D01*
X2027854Y49110611D01*
X1930814Y48968588D01*
X1896674Y48800000D01*
X990958Y48800000D01*
X1074689Y48925311D01*
X1728627Y49362259D01*
X2546783Y49525000D01*
X12959776Y49525000D01*
X12742649Y49308251D01*
M02*
