G04 #@! TF.FileFunction,Drawing*
%FSLAX46Y46*%
G04 Gerber Fmt 4.6, Leading zero omitted, Abs format (unit mm)*
G04 Created by KiCad (PCBNEW 4.0.2+dfsg1-stable) date Mon 02 Okt 2017 19:03:43 CEST*
%MOMM*%
G01*
G04 APERTURE LIST*
%ADD10C,0.100000*%
%ADD11C,0.300000*%
%ADD12C,0.200000*%
G04 APERTURE END LIST*
D10*
D11*
X56750001Y54321429D02*
X56250001Y55035714D01*
X55892858Y54321429D02*
X55892858Y55821429D01*
X56464286Y55821429D01*
X56607144Y55750000D01*
X56678572Y55678571D01*
X56750001Y55535714D01*
X56750001Y55321429D01*
X56678572Y55178571D01*
X56607144Y55107143D01*
X56464286Y55035714D01*
X55892858Y55035714D01*
X57392858Y55107143D02*
X58535715Y55107143D01*
X58535715Y54678571D02*
X57392858Y54678571D01*
X59178572Y55678571D02*
X59250001Y55750000D01*
X59392858Y55821429D01*
X59750001Y55821429D01*
X59892858Y55750000D01*
X59964287Y55678571D01*
X60035715Y55535714D01*
X60035715Y55392857D01*
X59964287Y55178571D01*
X59107144Y54321429D01*
X60035715Y54321429D01*
X60678572Y54464286D02*
X60750000Y54392857D01*
X60678572Y54321429D01*
X60607143Y54392857D01*
X60678572Y54464286D01*
X60678572Y54321429D01*
X62107144Y55821429D02*
X61392858Y55821429D01*
X61321429Y55107143D01*
X61392858Y55178571D01*
X61535715Y55250000D01*
X61892858Y55250000D01*
X62035715Y55178571D01*
X62107144Y55107143D01*
X62178572Y54964286D01*
X62178572Y54607143D01*
X62107144Y54464286D01*
X62035715Y54392857D01*
X61892858Y54321429D01*
X61535715Y54321429D01*
X61392858Y54392857D01*
X61321429Y54464286D01*
X62821429Y54321429D02*
X62821429Y55321429D01*
X62821429Y55178571D02*
X62892857Y55250000D01*
X63035715Y55321429D01*
X63250000Y55321429D01*
X63392857Y55250000D01*
X63464286Y55107143D01*
X63464286Y54321429D01*
X63464286Y55107143D02*
X63535715Y55250000D01*
X63678572Y55321429D01*
X63892857Y55321429D01*
X64035715Y55250000D01*
X64107143Y55107143D01*
X64107143Y54321429D01*
X64821429Y54321429D02*
X64821429Y55321429D01*
X64821429Y55178571D02*
X64892857Y55250000D01*
X65035715Y55321429D01*
X65250000Y55321429D01*
X65392857Y55250000D01*
X65464286Y55107143D01*
X65464286Y54321429D01*
X65464286Y55107143D02*
X65535715Y55250000D01*
X65678572Y55321429D01*
X65892857Y55321429D01*
X66035715Y55250000D01*
X66107143Y55107143D01*
X66107143Y54321429D01*
D12*
X50000000Y50000000D02*
X55000000Y55000000D01*
D11*
X19571430Y-3028571D02*
X18857144Y-3028571D01*
X18785715Y-3742857D01*
X18857144Y-3671429D01*
X19000001Y-3600000D01*
X19357144Y-3600000D01*
X19500001Y-3671429D01*
X19571430Y-3742857D01*
X19642858Y-3885714D01*
X19642858Y-4242857D01*
X19571430Y-4385714D01*
X19500001Y-4457143D01*
X19357144Y-4528571D01*
X19000001Y-4528571D01*
X18857144Y-4457143D01*
X18785715Y-4385714D01*
X20571429Y-3028571D02*
X20714286Y-3028571D01*
X20857143Y-3100000D01*
X20928572Y-3171429D01*
X21000001Y-3314286D01*
X21071429Y-3600000D01*
X21071429Y-3957143D01*
X21000001Y-4242857D01*
X20928572Y-4385714D01*
X20857143Y-4457143D01*
X20714286Y-4528571D01*
X20571429Y-4528571D01*
X20428572Y-4457143D01*
X20357143Y-4385714D01*
X20285715Y-4242857D01*
X20214286Y-3957143D01*
X20214286Y-3600000D01*
X20285715Y-3314286D01*
X20357143Y-3171429D01*
X20428572Y-3100000D01*
X20571429Y-3028571D01*
X21714286Y-4385714D02*
X21785714Y-4457143D01*
X21714286Y-4528571D01*
X21642857Y-4457143D01*
X21714286Y-4385714D01*
X21714286Y-4528571D01*
X22714286Y-3028571D02*
X22857143Y-3028571D01*
X23000000Y-3100000D01*
X23071429Y-3171429D01*
X23142858Y-3314286D01*
X23214286Y-3600000D01*
X23214286Y-3957143D01*
X23142858Y-4242857D01*
X23071429Y-4385714D01*
X23000000Y-4457143D01*
X22857143Y-4528571D01*
X22714286Y-4528571D01*
X22571429Y-4457143D01*
X22500000Y-4385714D01*
X22428572Y-4242857D01*
X22357143Y-3957143D01*
X22357143Y-3600000D01*
X22428572Y-3314286D01*
X22500000Y-3171429D01*
X22571429Y-3100000D01*
X22714286Y-3028571D01*
X24142857Y-3028571D02*
X24285714Y-3028571D01*
X24428571Y-3100000D01*
X24500000Y-3171429D01*
X24571429Y-3314286D01*
X24642857Y-3600000D01*
X24642857Y-3957143D01*
X24571429Y-4242857D01*
X24500000Y-4385714D01*
X24428571Y-4457143D01*
X24285714Y-4528571D01*
X24142857Y-4528571D01*
X24000000Y-4457143D01*
X23928571Y-4385714D01*
X23857143Y-4242857D01*
X23785714Y-3957143D01*
X23785714Y-3600000D01*
X23857143Y-3314286D01*
X23928571Y-3171429D01*
X24000000Y-3100000D01*
X24142857Y-3028571D01*
X25571428Y-3028571D02*
X25714285Y-3028571D01*
X25857142Y-3100000D01*
X25928571Y-3171429D01*
X26000000Y-3314286D01*
X26071428Y-3600000D01*
X26071428Y-3957143D01*
X26000000Y-4242857D01*
X25928571Y-4385714D01*
X25857142Y-4457143D01*
X25714285Y-4528571D01*
X25571428Y-4528571D01*
X25428571Y-4457143D01*
X25357142Y-4385714D01*
X25285714Y-4242857D01*
X25214285Y-3957143D01*
X25214285Y-3600000D01*
X25285714Y-3314286D01*
X25357142Y-3171429D01*
X25428571Y-3100000D01*
X25571428Y-3028571D01*
X27857142Y-4528571D02*
X27857142Y-3528571D01*
X27857142Y-3671429D02*
X27928570Y-3600000D01*
X28071428Y-3528571D01*
X28285713Y-3528571D01*
X28428570Y-3600000D01*
X28499999Y-3742857D01*
X28499999Y-4528571D01*
X28499999Y-3742857D02*
X28571428Y-3600000D01*
X28714285Y-3528571D01*
X28928570Y-3528571D01*
X29071428Y-3600000D01*
X29142856Y-3742857D01*
X29142856Y-4528571D01*
X29857142Y-4528571D02*
X29857142Y-3528571D01*
X29857142Y-3671429D02*
X29928570Y-3600000D01*
X30071428Y-3528571D01*
X30285713Y-3528571D01*
X30428570Y-3600000D01*
X30499999Y-3742857D01*
X30499999Y-4528571D01*
X30499999Y-3742857D02*
X30571428Y-3600000D01*
X30714285Y-3528571D01*
X30928570Y-3528571D01*
X31071428Y-3600000D01*
X31142856Y-3742857D01*
X31142856Y-4528571D01*
X0Y-2500000D02*
X50000000Y-2500000D01*
X0Y0D02*
X0Y-5200000D01*
X50000000Y0D02*
X50000000Y-5200000D01*
X50000000Y-2500000D02*
X48873496Y-3086421D01*
X50000000Y-2500000D02*
X48873496Y-1913579D01*
X0Y-2500000D02*
X1126504Y-3086421D01*
X0Y-2500000D02*
X1126504Y-1913579D01*
X55528571Y19571430D02*
X55528571Y18857144D01*
X56242857Y18785715D01*
X56171429Y18857144D01*
X56100000Y19000001D01*
X56100000Y19357144D01*
X56171429Y19500001D01*
X56242857Y19571430D01*
X56385714Y19642858D01*
X56742857Y19642858D01*
X56885714Y19571430D01*
X56957143Y19500001D01*
X57028571Y19357144D01*
X57028571Y19000001D01*
X56957143Y18857144D01*
X56885714Y18785715D01*
X55528571Y20571429D02*
X55528571Y20714286D01*
X55600000Y20857143D01*
X55671429Y20928572D01*
X55814286Y21000001D01*
X56100000Y21071429D01*
X56457143Y21071429D01*
X56742857Y21000001D01*
X56885714Y20928572D01*
X56957143Y20857143D01*
X57028571Y20714286D01*
X57028571Y20571429D01*
X56957143Y20428572D01*
X56885714Y20357143D01*
X56742857Y20285715D01*
X56457143Y20214286D01*
X56100000Y20214286D01*
X55814286Y20285715D01*
X55671429Y20357143D01*
X55600000Y20428572D01*
X55528571Y20571429D01*
X56885714Y21714286D02*
X56957143Y21785714D01*
X57028571Y21714286D01*
X56957143Y21642857D01*
X56885714Y21714286D01*
X57028571Y21714286D01*
X55528571Y22714286D02*
X55528571Y22857143D01*
X55600000Y23000000D01*
X55671429Y23071429D01*
X55814286Y23142858D01*
X56100000Y23214286D01*
X56457143Y23214286D01*
X56742857Y23142858D01*
X56885714Y23071429D01*
X56957143Y23000000D01*
X57028571Y22857143D01*
X57028571Y22714286D01*
X56957143Y22571429D01*
X56885714Y22500000D01*
X56742857Y22428572D01*
X56457143Y22357143D01*
X56100000Y22357143D01*
X55814286Y22428572D01*
X55671429Y22500000D01*
X55600000Y22571429D01*
X55528571Y22714286D01*
X55528571Y24142857D02*
X55528571Y24285714D01*
X55600000Y24428571D01*
X55671429Y24500000D01*
X55814286Y24571429D01*
X56100000Y24642857D01*
X56457143Y24642857D01*
X56742857Y24571429D01*
X56885714Y24500000D01*
X56957143Y24428571D01*
X57028571Y24285714D01*
X57028571Y24142857D01*
X56957143Y24000000D01*
X56885714Y23928571D01*
X56742857Y23857143D01*
X56457143Y23785714D01*
X56100000Y23785714D01*
X55814286Y23857143D01*
X55671429Y23928571D01*
X55600000Y24000000D01*
X55528571Y24142857D01*
X55528571Y25571428D02*
X55528571Y25714285D01*
X55600000Y25857142D01*
X55671429Y25928571D01*
X55814286Y26000000D01*
X56100000Y26071428D01*
X56457143Y26071428D01*
X56742857Y26000000D01*
X56885714Y25928571D01*
X56957143Y25857142D01*
X57028571Y25714285D01*
X57028571Y25571428D01*
X56957143Y25428571D01*
X56885714Y25357142D01*
X56742857Y25285714D01*
X56457143Y25214285D01*
X56100000Y25214285D01*
X55814286Y25285714D01*
X55671429Y25357142D01*
X55600000Y25428571D01*
X55528571Y25571428D01*
X57028571Y27857142D02*
X56028571Y27857142D01*
X56171429Y27857142D02*
X56100000Y27928570D01*
X56028571Y28071428D01*
X56028571Y28285713D01*
X56100000Y28428570D01*
X56242857Y28499999D01*
X57028571Y28499999D01*
X56242857Y28499999D02*
X56100000Y28571428D01*
X56028571Y28714285D01*
X56028571Y28928570D01*
X56100000Y29071428D01*
X56242857Y29142856D01*
X57028571Y29142856D01*
X57028571Y29857142D02*
X56028571Y29857142D01*
X56171429Y29857142D02*
X56100000Y29928570D01*
X56028571Y30071428D01*
X56028571Y30285713D01*
X56100000Y30428570D01*
X56242857Y30499999D01*
X57028571Y30499999D01*
X56242857Y30499999D02*
X56100000Y30571428D01*
X56028571Y30714285D01*
X56028571Y30928570D01*
X56100000Y31071428D01*
X56242857Y31142856D01*
X57028571Y31142856D01*
X55000000Y0D02*
X55000000Y50000000D01*
X50000000Y0D02*
X57700000Y0D01*
X50000000Y50000000D02*
X57700000Y50000000D01*
X55000000Y50000000D02*
X55586421Y48873496D01*
X55000000Y50000000D02*
X54413579Y48873496D01*
X55000000Y0D02*
X55586421Y1126504D01*
X55000000Y0D02*
X54413579Y1126504D01*
D10*
X0Y2500000D02*
G75*
G03X2500000Y0I2500000J0D01*
G01*
X47500000Y0D02*
G75*
G03X50000000Y2500000I0J2500000D01*
G01*
X50000000Y2500000D02*
X50000000Y47500000D01*
X2500000Y0D02*
X47500000Y0D01*
X0Y47500000D02*
X0Y2500000D01*
X50000000Y47500000D02*
G75*
G03X47500000Y50000000I-2500000J0D01*
G01*
X2500000Y50000000D02*
G75*
G03X0Y47500000I0J-2500000D01*
G01*
X2500000Y50000000D02*
X47500000Y50000000D01*
M02*
