M48
METRIC,TZ
T1C0.400
T2C0.800
T3C0.900
T4C1.000
T5C1.143
T6C1.200
%
G90
G05
T1
X001800Y045300
X002200Y026900
X003400Y037500
X004500Y031000
X005200Y024800
X005300Y017500
X006100Y029500
X006700Y015100
X006800Y016000
X007600Y023600
X008500Y015100
X008600Y016000
X008700Y036400
X009750Y046500
X011000Y036400
X011760Y026920
X012600Y017000
X015200Y023500
X016500Y023700
X016750Y044750
X017500Y018300
X017600Y017000
X017750Y023450
X018500Y044750
X018700Y039200
X019000Y027600
X019200Y015200
X019300Y022700
X019500Y016000
X020300Y018600
X020380Y035800
X021100Y015200
X021200Y017000
X021200Y016000
X021300Y029750
X021300Y028000
X021950Y014350
X022200Y017700
X022250Y019050
X022700Y013350
X023400Y014100
X023700Y019000
X024400Y027800
X025700Y018350
X027250Y023700
X027650Y027100
X028600Y016900
X029150Y038200
X030525Y040050
X030750Y017800
X030800Y034300
X031300Y017050
X032600Y031400
X032820Y024890
X033300Y016600
X033800Y006600
X035000Y039000
X035400Y030200
X035400Y029400
X036300Y042500
X037150Y031900
X037200Y033800
X037400Y016600
X037450Y019050
X037800Y038800
X038600Y006600
X038700Y029400
X039000Y011500
X039200Y023500
X039300Y033800
X039300Y030200
X039700Y042500
X040100Y015700
X040400Y038800
X042400Y011500
X043600Y027200
X045200Y010670
X045680Y035870
X046500Y016600
X048200Y029200
T2
X002000Y009000
X002500Y021120
X002500Y013500
X004540Y009000
X004700Y027200
X005040Y021120
X005040Y013500
X006500Y042500
X006500Y040500
X007080Y009000
X007580Y021120
X007580Y013500
X009500Y033500
X009620Y009000
X010120Y021120
X010120Y013500
X011500Y033500
X012160Y009000
X012660Y021120
X012660Y013500
X014700Y009000
X014860Y027200
X015200Y021120
X015200Y013500
X017240Y009000
X017740Y021120
X017740Y013500
X018780Y033000
X018780Y025380
X019780Y009000
X020280Y021120
X020280Y013500
X021320Y033000
X021320Y025380
X023500Y009000
X023860Y033000
X023860Y025380
X024750Y021120
X024750Y013500
X025380Y044250
X025380Y036630
X026040Y009000
X026400Y033000
X026400Y025380
X027290Y021120
X027290Y013500
X027920Y044250
X027920Y036630
X028580Y009000
X029830Y021120
X029830Y013500
X030460Y044250
X030460Y036630
X031120Y009000
X032370Y021120
X032370Y013500
X033000Y044250
X033000Y036630
X033660Y009000
X034910Y021120
X034910Y013500
X036200Y009000
X037000Y045560
X037000Y035400
X037450Y021120
X037450Y013500
X038740Y009000
X039990Y021120
X039990Y013500
X040600Y045560
X040600Y035400
X041280Y009000
X042530Y021120
X042530Y013500
X043000Y006500
X043500Y042500
X043500Y040500
X043950Y030800
X045000Y006500
X045070Y021120
X045070Y013500
X046450Y030800
X047610Y021120
X047610Y013500
T3
X016500Y040250
X016500Y037710
T4
X001460Y034500
X001460Y031500
X003330Y047800
X005000Y004270
X005000Y001730
X005870Y047800
X006540Y034500
X006540Y031500
X009500Y004270
X009500Y001730
X013950Y048500
X014000Y004270
X014000Y001730
X017550Y048500
X018500Y004270
X018500Y001730
X021750Y044290
X021750Y039210
X023000Y004270
X023000Y001730
X027500Y004270
X027500Y001730
X030800Y031740
X030800Y026660
X032000Y004270
X032000Y001730
X034460Y032000
X034460Y027600
X036500Y004270
X036500Y001730
X039540Y032000
X039540Y027600
X042710Y024750
X047790Y024750
T5
X009750Y044290
X009750Y041750
X009750Y039210
T6
X015750Y046900
T0
M30
