G04 #@! TF.FileFunction,Legend,Top*
%FSLAX46Y46*%
G04 Gerber Fmt 4.6, Leading zero omitted, Abs format (unit mm)*
G04 Created by KiCad (PCBNEW 4.0.2+dfsg1-stable) date Mon 02 Okt 2017 19:03:43 CEST*
%MOMM*%
G01*
G04 APERTURE LIST*
%ADD10C,0.100000*%
%ADD11C,0.400000*%
%ADD12C,0.300000*%
%ADD13C,0.200000*%
%ADD14C,0.170000*%
%ADD15C,0.250000*%
%ADD16C,0.120000*%
%ADD17C,0.150000*%
G04 APERTURE END LIST*
D10*
D11*
X23750000Y48250000D02*
X23250000Y47750000D01*
X26250000Y48250000D02*
X26750000Y47750000D01*
X25000000Y48750000D02*
X23750000Y47500000D01*
X25000000Y48750000D02*
X26250000Y47500000D01*
X25000000Y49500000D02*
X26250000Y48250000D01*
X25000000Y49500000D02*
X23750000Y48250000D01*
D12*
X38628572Y1692857D02*
X39771429Y1692857D01*
X38628572Y4392857D02*
X39771429Y4392857D01*
X39200000Y3821429D02*
X39200000Y4964286D01*
D13*
X14442857Y38214286D02*
X15357143Y38214286D01*
X14900000Y37757143D02*
X14900000Y38671429D01*
D14*
X14900000Y41857143D02*
X14900000Y43057143D01*
X15357143Y43057143D01*
X15471429Y43000000D01*
X15528572Y42942857D01*
X15585715Y42828571D01*
X15585715Y42657143D01*
X15528572Y42542857D01*
X15471429Y42485714D01*
X15357143Y42428571D01*
X14900000Y42428571D01*
X15985715Y43057143D02*
X16271429Y41857143D01*
X16500000Y42714286D01*
X16728572Y41857143D01*
X17014286Y43057143D01*
X18157144Y41857143D02*
X17757144Y42428571D01*
X17471429Y41857143D02*
X17471429Y43057143D01*
X17928572Y43057143D01*
X18042858Y43000000D01*
X18100001Y42942857D01*
X18157144Y42828571D01*
X18157144Y42657143D01*
X18100001Y42542857D01*
X18042858Y42485714D01*
X17928572Y42428571D01*
X17471429Y42428571D01*
X511905Y37102381D02*
X511905Y38202381D01*
X878571Y37416667D01*
X1245238Y38202381D01*
X1245238Y37102381D01*
X1978572Y38202381D02*
X2188095Y38202381D01*
X2292857Y38150000D01*
X2397619Y38045238D01*
X2450000Y37835714D01*
X2450000Y37469048D01*
X2397619Y37259524D01*
X2292857Y37154762D01*
X2188095Y37102381D01*
X1978572Y37102381D01*
X1873810Y37154762D01*
X1769048Y37259524D01*
X1716667Y37469048D01*
X1716667Y37835714D01*
X1769048Y38045238D01*
X1873810Y38150000D01*
X1978572Y38202381D01*
X2764286Y38202381D02*
X3392857Y38202381D01*
X3078572Y37102381D02*
X3078572Y38202381D01*
X3759524Y37521429D02*
X4597619Y37521429D01*
X5645238Y37102381D02*
X5121429Y37102381D01*
X5121429Y38202381D01*
X44007143Y37102381D02*
X44007143Y38202381D01*
X44373809Y37416667D01*
X44740476Y38202381D01*
X44740476Y37102381D01*
X45473810Y38202381D02*
X45683333Y38202381D01*
X45788095Y38150000D01*
X45892857Y38045238D01*
X45945238Y37835714D01*
X45945238Y37469048D01*
X45892857Y37259524D01*
X45788095Y37154762D01*
X45683333Y37102381D01*
X45473810Y37102381D01*
X45369048Y37154762D01*
X45264286Y37259524D01*
X45211905Y37469048D01*
X45211905Y37835714D01*
X45264286Y38045238D01*
X45369048Y38150000D01*
X45473810Y38202381D01*
X46259524Y38202381D02*
X46888095Y38202381D01*
X46573810Y37102381D02*
X46573810Y38202381D01*
X47254762Y37521429D02*
X48092857Y37521429D01*
X49245238Y37102381D02*
X48878572Y37626190D01*
X48616667Y37102381D02*
X48616667Y38202381D01*
X49035714Y38202381D01*
X49140476Y38150000D01*
X49192857Y38097619D01*
X49245238Y37992857D01*
X49245238Y37835714D01*
X49192857Y37730952D01*
X49140476Y37678571D01*
X49035714Y37626190D01*
X48616667Y37626190D01*
D13*
X44492857Y48728571D02*
X44492857Y47228571D01*
X44492857Y48657143D02*
X44635714Y48728571D01*
X44921428Y48728571D01*
X45064286Y48657143D01*
X45135714Y48585714D01*
X45207143Y48442857D01*
X45207143Y48014286D01*
X45135714Y47871429D01*
X45064286Y47800000D01*
X44921428Y47728571D01*
X44635714Y47728571D01*
X44492857Y47800000D01*
X43135714Y48728571D02*
X43135714Y47942857D01*
X43207143Y47800000D01*
X43350000Y47728571D01*
X43635714Y47728571D01*
X43778571Y47800000D01*
X43135714Y48657143D02*
X43278571Y48728571D01*
X43635714Y48728571D01*
X43778571Y48657143D01*
X43850000Y48514286D01*
X43850000Y48371429D01*
X43778571Y48228571D01*
X43635714Y48157143D01*
X43278571Y48157143D01*
X43135714Y48085714D01*
X42421428Y47728571D02*
X42421428Y48728571D01*
X42421428Y47871429D02*
X42350000Y47800000D01*
X42207142Y47728571D01*
X41992857Y47728571D01*
X41850000Y47800000D01*
X41778571Y47942857D01*
X41778571Y48728571D01*
X40421428Y48657143D02*
X40564285Y48728571D01*
X40849999Y48728571D01*
X40992857Y48657143D01*
X41064285Y48585714D01*
X41135714Y48442857D01*
X41135714Y48014286D01*
X41064285Y47871429D01*
X40992857Y47800000D01*
X40849999Y47728571D01*
X40564285Y47728571D01*
X40421428Y47800000D01*
X39207143Y48657143D02*
X39350000Y48728571D01*
X39635714Y48728571D01*
X39778571Y48657143D01*
X39850000Y48514286D01*
X39850000Y47942857D01*
X39778571Y47800000D01*
X39635714Y47728571D01*
X39350000Y47728571D01*
X39207143Y47800000D01*
X39135714Y47942857D01*
X39135714Y48085714D01*
X39850000Y48228571D01*
X38492857Y48728571D02*
X38492857Y47228571D01*
X38492857Y47800000D02*
X38350000Y47728571D01*
X38064286Y47728571D01*
X37921429Y47800000D01*
X37850000Y47871429D01*
X37778571Y48014286D01*
X37778571Y48442857D01*
X37850000Y48585714D01*
X37921429Y48657143D01*
X38064286Y48728571D01*
X38350000Y48728571D01*
X38492857Y48657143D01*
X36921428Y48728571D02*
X37064286Y48657143D01*
X37135714Y48585714D01*
X37207143Y48442857D01*
X37207143Y48014286D01*
X37135714Y47871429D01*
X37064286Y47800000D01*
X36921428Y47728571D01*
X36707143Y47728571D01*
X36564286Y47800000D01*
X36492857Y47871429D01*
X36421428Y48014286D01*
X36421428Y48442857D01*
X36492857Y48585714D01*
X36564286Y48657143D01*
X36707143Y48728571D01*
X36921428Y48728571D01*
X35992857Y47728571D02*
X35421428Y47728571D01*
X35778571Y47228571D02*
X35778571Y48514286D01*
X35707143Y48657143D01*
X35564285Y48728571D01*
X35421428Y48728571D01*
X34992857Y48657143D02*
X34850000Y48728571D01*
X34564285Y48728571D01*
X34421428Y48657143D01*
X34350000Y48514286D01*
X34350000Y48442857D01*
X34421428Y48300000D01*
X34564285Y48228571D01*
X34778571Y48228571D01*
X34921428Y48157143D01*
X34992857Y48014286D01*
X34992857Y47942857D01*
X34921428Y47800000D01*
X34778571Y47728571D01*
X34564285Y47728571D01*
X34421428Y47800000D01*
X33707142Y48585714D02*
X33635714Y48657143D01*
X33707142Y48728571D01*
X33778571Y48657143D01*
X33707142Y48585714D01*
X33707142Y48728571D01*
X32778570Y48728571D02*
X32921428Y48657143D01*
X32992856Y48585714D01*
X33064285Y48442857D01*
X33064285Y48014286D01*
X32992856Y47871429D01*
X32921428Y47800000D01*
X32778570Y47728571D01*
X32564285Y47728571D01*
X32421428Y47800000D01*
X32349999Y47871429D01*
X32278570Y48014286D01*
X32278570Y48442857D01*
X32349999Y48585714D01*
X32421428Y48657143D01*
X32564285Y48728571D01*
X32778570Y48728571D01*
X31635713Y48728571D02*
X31635713Y47728571D01*
X31635713Y48014286D02*
X31564285Y47871429D01*
X31492856Y47800000D01*
X31349999Y47728571D01*
X31207142Y47728571D01*
X30064285Y47728571D02*
X30064285Y48942857D01*
X30135714Y49085714D01*
X30207142Y49157143D01*
X30349999Y49228571D01*
X30564285Y49228571D01*
X30707142Y49157143D01*
X30064285Y48657143D02*
X30207142Y48728571D01*
X30492856Y48728571D01*
X30635714Y48657143D01*
X30707142Y48585714D01*
X30778571Y48442857D01*
X30778571Y48014286D01*
X30707142Y47871429D01*
X30635714Y47800000D01*
X30492856Y47728571D01*
X30207142Y47728571D01*
X30064285Y47800000D01*
D14*
X36100001Y7257143D02*
X36900001Y7257143D01*
X36385715Y6057143D01*
X32228572Y7257143D02*
X32000001Y7257143D01*
X31885715Y7200000D01*
X31828572Y7142857D01*
X31714286Y6971429D01*
X31657143Y6742857D01*
X31657143Y6285714D01*
X31714286Y6171429D01*
X31771429Y6114286D01*
X31885715Y6057143D01*
X32114286Y6057143D01*
X32228572Y6114286D01*
X32285715Y6171429D01*
X32342858Y6285714D01*
X32342858Y6571429D01*
X32285715Y6685714D01*
X32228572Y6742857D01*
X32114286Y6800000D01*
X31885715Y6800000D01*
X31771429Y6742857D01*
X31714286Y6685714D01*
X31657143Y6571429D01*
X27785715Y7257143D02*
X27214286Y7257143D01*
X27157143Y6685714D01*
X27214286Y6742857D01*
X27328572Y6800000D01*
X27614286Y6800000D01*
X27728572Y6742857D01*
X27785715Y6685714D01*
X27842858Y6571429D01*
X27842858Y6285714D01*
X27785715Y6171429D01*
X27728572Y6114286D01*
X27614286Y6057143D01*
X27328572Y6057143D01*
X27214286Y6114286D01*
X27157143Y6171429D01*
X23228572Y6857143D02*
X23228572Y6057143D01*
X22942858Y7314286D02*
X22657143Y6457143D01*
X23400001Y6457143D01*
X18100001Y7257143D02*
X18842858Y7257143D01*
X18442858Y6800000D01*
X18614286Y6800000D01*
X18728572Y6742857D01*
X18785715Y6685714D01*
X18842858Y6571429D01*
X18842858Y6285714D01*
X18785715Y6171429D01*
X18728572Y6114286D01*
X18614286Y6057143D01*
X18271429Y6057143D01*
X18157143Y6114286D01*
X18100001Y6171429D01*
X13657143Y7142857D02*
X13714286Y7200000D01*
X13828572Y7257143D01*
X14114286Y7257143D01*
X14228572Y7200000D01*
X14285715Y7142857D01*
X14342858Y7028571D01*
X14342858Y6914286D01*
X14285715Y6742857D01*
X13600001Y6057143D01*
X14342858Y6057143D01*
X9842858Y6057143D02*
X9157143Y6057143D01*
X9500001Y6057143D02*
X9500001Y7257143D01*
X9385715Y7085714D01*
X9271429Y6971429D01*
X9157143Y6914286D01*
X4942858Y7257143D02*
X5057143Y7257143D01*
X5171429Y7200000D01*
X5228572Y7142857D01*
X5285715Y7028571D01*
X5342858Y6800000D01*
X5342858Y6514286D01*
X5285715Y6285714D01*
X5228572Y6171429D01*
X5171429Y6114286D01*
X5057143Y6057143D01*
X4942858Y6057143D01*
X4828572Y6114286D01*
X4771429Y6171429D01*
X4714286Y6285714D01*
X4657143Y6514286D01*
X4657143Y6800000D01*
X4714286Y7028571D01*
X4771429Y7142857D01*
X4828572Y7200000D01*
X4942858Y7257143D01*
X10664286Y47342857D02*
X10664286Y48314286D01*
X10607143Y48428571D01*
X10550000Y48485714D01*
X10435714Y48542857D01*
X10207143Y48542857D01*
X10092857Y48485714D01*
X10035714Y48428571D01*
X9978571Y48314286D01*
X9978571Y47342857D01*
X8778571Y48542857D02*
X9464286Y48542857D01*
X9121428Y48542857D02*
X9121428Y47342857D01*
X9235714Y47514286D01*
X9350000Y47628571D01*
X9464286Y47685714D01*
X11628571Y49292857D02*
X12028571Y48721429D01*
X12314286Y49292857D02*
X12314286Y48092857D01*
X11857143Y48092857D01*
X11742857Y48150000D01*
X11685714Y48207143D01*
X11628571Y48321429D01*
X11628571Y48492857D01*
X11685714Y48607143D01*
X11742857Y48664286D01*
X11857143Y48721429D01*
X12314286Y48721429D01*
X19128571Y49292857D02*
X19700000Y49292857D01*
X19700000Y48092857D01*
X15435714Y44150000D02*
X15550000Y44092857D01*
X15721429Y44092857D01*
X15892857Y44150000D01*
X16007143Y44264286D01*
X16064286Y44378571D01*
X16121429Y44607143D01*
X16121429Y44778571D01*
X16064286Y45007143D01*
X16007143Y45121429D01*
X15892857Y45235714D01*
X15721429Y45292857D01*
X15607143Y45292857D01*
X15435714Y45235714D01*
X15378571Y45178571D01*
X15378571Y44778571D01*
X15607143Y44778571D01*
X5942857Y45514286D02*
X5771428Y45571429D01*
X5714285Y45628571D01*
X5657142Y45742857D01*
X5657142Y45914286D01*
X5714285Y46028571D01*
X5771428Y46085714D01*
X5885714Y46142857D01*
X6342857Y46142857D01*
X6342857Y44942857D01*
X5942857Y44942857D01*
X5828571Y45000000D01*
X5771428Y45057143D01*
X5714285Y45171429D01*
X5714285Y45285714D01*
X5771428Y45400000D01*
X5828571Y45457143D01*
X5942857Y45514286D01*
X6342857Y45514286D01*
X5200000Y45800000D02*
X4628571Y45800000D01*
X5314285Y46142857D02*
X4914285Y44942857D01*
X4514285Y46142857D01*
X4285714Y44942857D02*
X3600000Y44942857D01*
X3942857Y46142857D02*
X3942857Y44942857D01*
X3371428Y44942857D02*
X2685714Y44942857D01*
X3028571Y46142857D02*
X3028571Y44942857D01*
D15*
X48750000Y4750000D02*
X48750000Y4250000D01*
X48250000Y4750000D02*
X48750000Y4750000D01*
X48250000Y4250000D02*
X48250000Y4750000D01*
X48250000Y4250000D02*
X47500000Y3500000D01*
X49500000Y3500000D02*
X48750000Y4250000D01*
X47500000Y3500000D02*
X49500000Y3500000D01*
X48000000Y3000000D02*
G75*
G03X48500000Y2500000I500000J0D01*
G01*
X48500000Y2500000D02*
G75*
G03X49000000Y3000000I0J500000D01*
G01*
X48500000Y2000000D02*
G75*
G03X49500000Y3000000I0J1000000D01*
G01*
X47500000Y3000000D02*
G75*
G03X48500000Y2000000I1000000J0D01*
G01*
X1000000Y4750000D02*
X500000Y5250000D01*
X2500000Y4750000D02*
X3000000Y5250000D01*
X1750000Y5000000D02*
X1750000Y5750000D01*
X2250000Y2500000D02*
X2250000Y250000D01*
X1250000Y2500000D02*
X1250000Y750000D01*
X750000Y2500000D02*
X2750000Y2500000D01*
X2500000Y2750000D02*
X2500000Y3750000D01*
X1000000Y2750000D02*
X2500000Y2750000D01*
X1000000Y3750000D02*
X1000000Y2750000D01*
X1750000Y4500000D02*
G75*
G03X1000000Y3750000I0J-750000D01*
G01*
X2500000Y3750000D02*
G75*
G03X1750000Y4500000I-750000J0D01*
G01*
D10*
X0Y2500000D02*
G75*
G03X2500000Y0I2500000J0D01*
G01*
X47500000Y0D02*
G75*
G03X50000000Y2500000I0J2500000D01*
G01*
X50000000Y2500000D02*
X50000000Y47500000D01*
X2500000Y0D02*
X47500000Y0D01*
X0Y47500000D02*
X0Y2500000D01*
X50000000Y47500000D02*
G75*
G03X47500000Y50000000I-2500000J0D01*
G01*
X2500000Y50000000D02*
G75*
G03X0Y47500000I0J-2500000D01*
G01*
X2500000Y50000000D02*
X47500000Y50000000D01*
D13*
X1100000Y48300000D02*
X1100000Y47300000D01*
X1600000Y47800000D02*
X600000Y47800000D01*
X7350000Y48550000D02*
X7350000Y47050000D01*
X7350000Y47050000D02*
X6850000Y46550000D01*
X6850000Y46550000D02*
X5100000Y46550000D01*
X4100000Y46550000D02*
X2350000Y46550000D01*
X2350000Y46550000D02*
X1850000Y47050000D01*
X1850000Y47050000D02*
X1850000Y48550000D01*
X1850000Y48550000D02*
X2350000Y49050000D01*
X2350000Y49050000D02*
X4100000Y49050000D01*
X5100000Y49050000D02*
X6850000Y49050000D01*
X6850000Y49050000D02*
X7350000Y48550000D01*
X4000000Y35750000D02*
X250000Y35750000D01*
X250000Y35750000D02*
X250000Y33250000D01*
X250000Y33250000D02*
X7750000Y33250000D01*
X7750000Y33250000D02*
X7750000Y35750000D01*
X7750000Y35750000D02*
X4000000Y35750000D01*
X4000000Y33750000D02*
X4000000Y35250000D01*
X10900000Y32200000D02*
X11700000Y32200000D01*
X12700000Y33500000D02*
G75*
G03X12700000Y33500000I-2200000J0D01*
G01*
X4000000Y32750000D02*
X250000Y32750000D01*
X250000Y32750000D02*
X250000Y30250000D01*
X250000Y30250000D02*
X7750000Y30250000D01*
X7750000Y30250000D02*
X7750000Y32750000D01*
X7750000Y32750000D02*
X4000000Y32750000D01*
X4000000Y30750000D02*
X4000000Y32250000D01*
X45250000Y23500000D02*
X49000000Y23500000D01*
X49000000Y23500000D02*
X49000000Y26000000D01*
X49000000Y26000000D02*
X41500000Y26000000D01*
X41500000Y26000000D02*
X41500000Y23500000D01*
X41500000Y23500000D02*
X45250000Y23500000D01*
X45250000Y25500000D02*
X45250000Y24000000D01*
X37000000Y30750000D02*
X40750000Y30750000D01*
X40750000Y30750000D02*
X40750000Y33250000D01*
X40750000Y33250000D02*
X33250000Y33250000D01*
X33250000Y33250000D02*
X33250000Y30750000D01*
X33250000Y30750000D02*
X37000000Y30750000D01*
X37000000Y32750000D02*
X37000000Y31250000D01*
X37000000Y26350000D02*
X40750000Y26350000D01*
X40750000Y26350000D02*
X40750000Y28850000D01*
X40750000Y28850000D02*
X33250000Y28850000D01*
X33250000Y28850000D02*
X33250000Y26350000D01*
X33250000Y26350000D02*
X37000000Y26350000D01*
X37000000Y28350000D02*
X37000000Y26850000D01*
X46000000Y29400000D02*
X47000000Y29400000D01*
X48500000Y30800000D02*
G75*
G03X48500000Y30800000I-3300000J0D01*
G01*
X20500000Y41750000D02*
X20500000Y38000000D01*
X20500000Y38000000D02*
X23000000Y38000000D01*
X23000000Y38000000D02*
X23000000Y45500000D01*
X23000000Y45500000D02*
X20500000Y45500000D01*
X20500000Y45500000D02*
X20500000Y41750000D01*
X22500000Y41750000D02*
X21000000Y41750000D01*
X32050000Y29200000D02*
X32050000Y32950000D01*
X32050000Y32950000D02*
X29550000Y32950000D01*
X29550000Y32950000D02*
X29550000Y25450000D01*
X29550000Y25450000D02*
X32050000Y25450000D01*
X32050000Y25450000D02*
X32050000Y29200000D01*
X30050000Y29200000D02*
X31550000Y29200000D01*
D16*
X16499538Y35990000D02*
G75*
G03X18044830Y41540000I462J2990000D01*
G01*
X16500462Y35990000D02*
G75*
G02X14955170Y41540000I-462J2990000D01*
G01*
X19000000Y38980000D02*
G75*
G03X19000000Y38980000I-2500000J0D01*
G01*
X18045000Y41540000D02*
X14955000Y41540000D01*
D13*
X4250000Y5750000D02*
X5750000Y5750000D01*
X5750000Y5750000D02*
X6250000Y5250000D01*
X6250000Y5250000D02*
X6250000Y3500000D01*
X6250000Y3500000D02*
X5750000Y3000000D01*
X5750000Y3000000D02*
X6250000Y2500000D01*
X6250000Y2500000D02*
X6250000Y750000D01*
X6250000Y750000D02*
X5750000Y250000D01*
X5750000Y250000D02*
X4250000Y250000D01*
X4250000Y250000D02*
X3750000Y750000D01*
X3750000Y750000D02*
X3750000Y2500000D01*
X3750000Y2500000D02*
X4250000Y3000000D01*
X4250000Y3000000D02*
X3750000Y3500000D01*
X3750000Y3500000D02*
X3750000Y5250000D01*
X3750000Y5250000D02*
X4250000Y5750000D01*
X8750000Y5750000D02*
X10250000Y5750000D01*
X10250000Y5750000D02*
X10750000Y5250000D01*
X10750000Y5250000D02*
X10750000Y3500000D01*
X10750000Y3500000D02*
X10250000Y3000000D01*
X10250000Y3000000D02*
X10750000Y2500000D01*
X10750000Y2500000D02*
X10750000Y750000D01*
X10750000Y750000D02*
X10250000Y250000D01*
X10250000Y250000D02*
X8750000Y250000D01*
X8750000Y250000D02*
X8250000Y750000D01*
X8250000Y750000D02*
X8250000Y2500000D01*
X8250000Y2500000D02*
X8750000Y3000000D01*
X8750000Y3000000D02*
X8250000Y3500000D01*
X8250000Y3500000D02*
X8250000Y5250000D01*
X8250000Y5250000D02*
X8750000Y5750000D01*
X13250000Y5750000D02*
X14750000Y5750000D01*
X14750000Y5750000D02*
X15250000Y5250000D01*
X15250000Y5250000D02*
X15250000Y3500000D01*
X15250000Y3500000D02*
X14750000Y3000000D01*
X14750000Y3000000D02*
X15250000Y2500000D01*
X15250000Y2500000D02*
X15250000Y750000D01*
X15250000Y750000D02*
X14750000Y250000D01*
X14750000Y250000D02*
X13250000Y250000D01*
X13250000Y250000D02*
X12750000Y750000D01*
X12750000Y750000D02*
X12750000Y2500000D01*
X12750000Y2500000D02*
X13250000Y3000000D01*
X13250000Y3000000D02*
X12750000Y3500000D01*
X12750000Y3500000D02*
X12750000Y5250000D01*
X12750000Y5250000D02*
X13250000Y5750000D01*
X17750000Y5750000D02*
X19250000Y5750000D01*
X19250000Y5750000D02*
X19750000Y5250000D01*
X19750000Y5250000D02*
X19750000Y3500000D01*
X19750000Y3500000D02*
X19250000Y3000000D01*
X19250000Y3000000D02*
X19750000Y2500000D01*
X19750000Y2500000D02*
X19750000Y750000D01*
X19750000Y750000D02*
X19250000Y250000D01*
X19250000Y250000D02*
X17750000Y250000D01*
X17750000Y250000D02*
X17250000Y750000D01*
X17250000Y750000D02*
X17250000Y2500000D01*
X17250000Y2500000D02*
X17750000Y3000000D01*
X17750000Y3000000D02*
X17250000Y3500000D01*
X17250000Y3500000D02*
X17250000Y5250000D01*
X17250000Y5250000D02*
X17750000Y5750000D01*
X22250000Y5750000D02*
X23750000Y5750000D01*
X23750000Y5750000D02*
X24250000Y5250000D01*
X24250000Y5250000D02*
X24250000Y3500000D01*
X24250000Y3500000D02*
X23750000Y3000000D01*
X23750000Y3000000D02*
X24250000Y2500000D01*
X24250000Y2500000D02*
X24250000Y750000D01*
X24250000Y750000D02*
X23750000Y250000D01*
X23750000Y250000D02*
X22250000Y250000D01*
X22250000Y250000D02*
X21750000Y750000D01*
X21750000Y750000D02*
X21750000Y2500000D01*
X21750000Y2500000D02*
X22250000Y3000000D01*
X22250000Y3000000D02*
X21750000Y3500000D01*
X21750000Y3500000D02*
X21750000Y5250000D01*
X21750000Y5250000D02*
X22250000Y5750000D01*
X26750000Y5750000D02*
X28250000Y5750000D01*
X28250000Y5750000D02*
X28750000Y5250000D01*
X28750000Y5250000D02*
X28750000Y3500000D01*
X28750000Y3500000D02*
X28250000Y3000000D01*
X28250000Y3000000D02*
X28750000Y2500000D01*
X28750000Y2500000D02*
X28750000Y750000D01*
X28750000Y750000D02*
X28250000Y250000D01*
X28250000Y250000D02*
X26750000Y250000D01*
X26750000Y250000D02*
X26250000Y750000D01*
X26250000Y750000D02*
X26250000Y2500000D01*
X26250000Y2500000D02*
X26750000Y3000000D01*
X26750000Y3000000D02*
X26250000Y3500000D01*
X26250000Y3500000D02*
X26250000Y5250000D01*
X26250000Y5250000D02*
X26750000Y5750000D01*
X31250000Y5750000D02*
X32750000Y5750000D01*
X32750000Y5750000D02*
X33250000Y5250000D01*
X33250000Y5250000D02*
X33250000Y3500000D01*
X33250000Y3500000D02*
X32750000Y3000000D01*
X32750000Y3000000D02*
X33250000Y2500000D01*
X33250000Y2500000D02*
X33250000Y750000D01*
X33250000Y750000D02*
X32750000Y250000D01*
X32750000Y250000D02*
X31250000Y250000D01*
X31250000Y250000D02*
X30750000Y750000D01*
X30750000Y750000D02*
X30750000Y2500000D01*
X30750000Y2500000D02*
X31250000Y3000000D01*
X31250000Y3000000D02*
X30750000Y3500000D01*
X30750000Y3500000D02*
X30750000Y5250000D01*
X30750000Y5250000D02*
X31250000Y5750000D01*
X35750000Y5750000D02*
X37250000Y5750000D01*
X37250000Y5750000D02*
X37750000Y5250000D01*
X37750000Y5250000D02*
X37750000Y3500000D01*
X37750000Y3500000D02*
X37250000Y3000000D01*
X37250000Y3000000D02*
X37750000Y2500000D01*
X37750000Y2500000D02*
X37750000Y750000D01*
X37750000Y750000D02*
X37250000Y250000D01*
X37250000Y250000D02*
X35750000Y250000D01*
X35750000Y250000D02*
X35250000Y750000D01*
X35250000Y750000D02*
X35250000Y2500000D01*
X35250000Y2500000D02*
X35750000Y3000000D01*
X35750000Y3000000D02*
X35250000Y3500000D01*
X35250000Y3500000D02*
X35250000Y5250000D01*
X35250000Y5250000D02*
X35750000Y5750000D01*
D17*
X11401000Y47084000D02*
X11401000Y36416000D01*
X7972000Y36416000D02*
X7972000Y47084000D01*
X12798000Y47084000D02*
X7972000Y47084000D01*
X12798000Y36416000D02*
X7972000Y36416000D01*
X12798000Y36416000D02*
X12798000Y47084000D01*
D16*
X1110000Y16310000D02*
X1110000Y14940000D01*
X1110000Y14940000D02*
X21670000Y14940000D01*
X21670000Y14940000D02*
X21670000Y19680000D01*
X21670000Y19680000D02*
X1110000Y19680000D01*
X1110000Y19680000D02*
X1110000Y18310000D01*
X1110000Y18310000D02*
G75*
G02X1110000Y16310000I0J-1000000D01*
G01*
X23360000Y16310000D02*
X23360000Y14940000D01*
X23360000Y14940000D02*
X49000000Y14940000D01*
X49000000Y14940000D02*
X49000000Y19680000D01*
X49000000Y19680000D02*
X23360000Y19680000D01*
X23360000Y19680000D02*
X23360000Y18310000D01*
X23360000Y18310000D02*
G75*
G02X23360000Y16310000I0J-1000000D01*
G01*
X27790000Y30190000D02*
X27790000Y31560000D01*
X27790000Y31560000D02*
X17390000Y31560000D01*
X17390000Y31560000D02*
X17390000Y26820000D01*
X17390000Y26820000D02*
X27790000Y26820000D01*
X27790000Y26820000D02*
X27790000Y28190000D01*
X27790000Y28190000D02*
G75*
G02X27790000Y30190000I0J1000000D01*
G01*
X34390000Y41440000D02*
X34390000Y42810000D01*
X34390000Y42810000D02*
X23990000Y42810000D01*
X23990000Y42810000D02*
X23990000Y38070000D01*
X23990000Y38070000D02*
X34390000Y38070000D01*
X34390000Y38070000D02*
X34390000Y39440000D01*
X34390000Y39440000D02*
G75*
G02X34390000Y41440000I0J1000000D01*
G01*
D13*
X17050000Y46300000D02*
X16350000Y45600000D01*
X16350000Y45600000D02*
X15150000Y45600000D01*
X15150000Y45600000D02*
X14450000Y46300000D01*
X17050000Y46300000D02*
X17050000Y47200000D01*
X17050000Y47200000D02*
X17150000Y47300000D01*
X14450000Y46300000D02*
X14450000Y47200000D01*
X14450000Y47200000D02*
X14350000Y47300000D01*
X16750000Y49700000D02*
X16350000Y49300000D01*
X16350000Y49300000D02*
X16350000Y48300000D01*
X16350000Y48300000D02*
X16150000Y48100000D01*
X16150000Y48100000D02*
X15350000Y48100000D01*
X15350000Y48100000D02*
X15150000Y48300000D01*
X15150000Y48300000D02*
X15150000Y49300000D01*
X15150000Y49300000D02*
X14750000Y49700000D01*
X14750000Y49700000D02*
X13150000Y49700000D01*
X13150000Y49700000D02*
X12750000Y49300000D01*
X12750000Y49300000D02*
X12750000Y47700000D01*
X12750000Y47700000D02*
X13150000Y47300000D01*
X13150000Y47300000D02*
X14350000Y47300000D01*
X17150000Y47300000D02*
X18350000Y47300000D01*
X18350000Y47300000D02*
X18750000Y47700000D01*
X18750000Y47700000D02*
X18750000Y49300000D01*
X16750000Y49700000D02*
X18350000Y49700000D01*
X18350000Y49700000D02*
X18750000Y49300000D01*
D16*
X22060000Y10400000D02*
X22060000Y7600000D01*
X22060000Y7600000D02*
X42720000Y7600000D01*
X42720000Y7600000D02*
X42720000Y10400000D01*
X42720000Y10400000D02*
X22060000Y10400000D01*
X560000Y10400000D02*
X560000Y7600000D01*
X560000Y7600000D02*
X21220000Y7600000D01*
X21220000Y7600000D02*
X21220000Y10400000D01*
X21220000Y10400000D02*
X560000Y10400000D01*
X35690000Y37270000D02*
X38310000Y37270000D01*
X38310000Y37270000D02*
X38310000Y43690000D01*
X38310000Y43690000D02*
X35690000Y43690000D01*
X35690000Y43690000D02*
X35690000Y37270000D01*
X37000000Y36380000D02*
X37000000Y37270000D01*
X37000000Y44580000D02*
X37000000Y43690000D01*
X39290000Y37270000D02*
X41910000Y37270000D01*
X41910000Y37270000D02*
X41910000Y43690000D01*
X41910000Y43690000D02*
X39290000Y43690000D01*
X39290000Y43690000D02*
X39290000Y37270000D01*
X40600000Y36380000D02*
X40600000Y37270000D01*
X40600000Y44580000D02*
X40600000Y43690000D01*
X6570000Y28510000D02*
X6570000Y25890000D01*
X6570000Y25890000D02*
X12990000Y25890000D01*
X12990000Y25890000D02*
X12990000Y28510000D01*
X12990000Y28510000D02*
X6570000Y28510000D01*
X5680000Y27200000D02*
X6570000Y27200000D01*
X13880000Y27200000D02*
X12990000Y27200000D01*
D13*
X7200000Y38550000D02*
X7200000Y39300000D01*
X7200000Y39300000D02*
X6500000Y39300000D01*
X7200000Y44450000D02*
X7200000Y43700000D01*
X7200000Y43700000D02*
X6500000Y43700000D01*
X250000Y38550000D02*
X7200000Y38550000D01*
X250000Y44450000D02*
X7200000Y44450000D01*
X250000Y44450000D02*
X250000Y38550000D01*
X42800000Y44450000D02*
X42800000Y43700000D01*
X42800000Y43700000D02*
X43500000Y43700000D01*
X42800000Y38550000D02*
X42800000Y39300000D01*
X42800000Y39300000D02*
X43500000Y39300000D01*
X49750000Y44450000D02*
X42800000Y44450000D01*
X49750000Y38550000D02*
X42800000Y38550000D01*
X49750000Y38550000D02*
X49750000Y44450000D01*
X46950000Y7200000D02*
X46200000Y7200000D01*
X46200000Y7200000D02*
X46200000Y6500000D01*
X41050000Y7200000D02*
X41800000Y7200000D01*
X41800000Y7200000D02*
X41800000Y6500000D01*
X46950000Y250000D02*
X46950000Y7200000D01*
X41050000Y250000D02*
X41050000Y7200000D01*
X41050000Y250000D02*
X46950000Y250000D01*
D17*
X6833334Y36042857D02*
X6785715Y35995238D01*
X6642858Y35947619D01*
X6547620Y35947619D01*
X6404762Y35995238D01*
X6309524Y36090476D01*
X6261905Y36185714D01*
X6214286Y36376190D01*
X6214286Y36519048D01*
X6261905Y36709524D01*
X6309524Y36804762D01*
X6404762Y36900000D01*
X6547620Y36947619D01*
X6642858Y36947619D01*
X6785715Y36900000D01*
X6833334Y36852381D01*
X7785715Y35947619D02*
X7214286Y35947619D01*
X7500000Y35947619D02*
X7500000Y36947619D01*
X7404762Y36804762D01*
X7309524Y36709524D01*
X7214286Y36661905D01*
X10333334Y29842857D02*
X10285715Y29795238D01*
X10142858Y29747619D01*
X10047620Y29747619D01*
X9904762Y29795238D01*
X9809524Y29890476D01*
X9761905Y29985714D01*
X9714286Y30176190D01*
X9714286Y30319048D01*
X9761905Y30509524D01*
X9809524Y30604762D01*
X9904762Y30700000D01*
X10047620Y30747619D01*
X10142858Y30747619D01*
X10285715Y30700000D01*
X10333334Y30652381D01*
X10714286Y30652381D02*
X10761905Y30700000D01*
X10857143Y30747619D01*
X11095239Y30747619D01*
X11190477Y30700000D01*
X11238096Y30652381D01*
X11285715Y30557143D01*
X11285715Y30461905D01*
X11238096Y30319048D01*
X10666667Y29747619D01*
X11285715Y29747619D01*
X833334Y29042857D02*
X785715Y28995238D01*
X642858Y28947619D01*
X547620Y28947619D01*
X404762Y28995238D01*
X309524Y29090476D01*
X261905Y29185714D01*
X214286Y29376190D01*
X214286Y29519048D01*
X261905Y29709524D01*
X309524Y29804762D01*
X404762Y29900000D01*
X547620Y29947619D01*
X642858Y29947619D01*
X785715Y29900000D01*
X833334Y29852381D01*
X1166667Y29947619D02*
X1785715Y29947619D01*
X1452381Y29566667D01*
X1595239Y29566667D01*
X1690477Y29519048D01*
X1738096Y29471429D01*
X1785715Y29376190D01*
X1785715Y29138095D01*
X1738096Y29042857D01*
X1690477Y28995238D01*
X1595239Y28947619D01*
X1309524Y28947619D01*
X1214286Y28995238D01*
X1166667Y29042857D01*
X48033334Y26442857D02*
X47985715Y26395238D01*
X47842858Y26347619D01*
X47747620Y26347619D01*
X47604762Y26395238D01*
X47509524Y26490476D01*
X47461905Y26585714D01*
X47414286Y26776190D01*
X47414286Y26919048D01*
X47461905Y27109524D01*
X47509524Y27204762D01*
X47604762Y27300000D01*
X47747620Y27347619D01*
X47842858Y27347619D01*
X47985715Y27300000D01*
X48033334Y27252381D01*
X48890477Y27014286D02*
X48890477Y26347619D01*
X48652381Y27395238D02*
X48414286Y26680952D01*
X49033334Y26680952D01*
X33833334Y29442857D02*
X33785715Y29395238D01*
X33642858Y29347619D01*
X33547620Y29347619D01*
X33404762Y29395238D01*
X33309524Y29490476D01*
X33261905Y29585714D01*
X33214286Y29776190D01*
X33214286Y29919048D01*
X33261905Y30109524D01*
X33309524Y30204762D01*
X33404762Y30300000D01*
X33547620Y30347619D01*
X33642858Y30347619D01*
X33785715Y30300000D01*
X33833334Y30252381D01*
X34738096Y30347619D02*
X34261905Y30347619D01*
X34214286Y29871429D01*
X34261905Y29919048D01*
X34357143Y29966667D01*
X34595239Y29966667D01*
X34690477Y29919048D01*
X34738096Y29871429D01*
X34785715Y29776190D01*
X34785715Y29538095D01*
X34738096Y29442857D01*
X34690477Y29395238D01*
X34595239Y29347619D01*
X34357143Y29347619D01*
X34261905Y29395238D01*
X34214286Y29442857D01*
X33833334Y25042857D02*
X33785715Y24995238D01*
X33642858Y24947619D01*
X33547620Y24947619D01*
X33404762Y24995238D01*
X33309524Y25090476D01*
X33261905Y25185714D01*
X33214286Y25376190D01*
X33214286Y25519048D01*
X33261905Y25709524D01*
X33309524Y25804762D01*
X33404762Y25900000D01*
X33547620Y25947619D01*
X33642858Y25947619D01*
X33785715Y25900000D01*
X33833334Y25852381D01*
X34690477Y25947619D02*
X34500000Y25947619D01*
X34404762Y25900000D01*
X34357143Y25852381D01*
X34261905Y25709524D01*
X34214286Y25519048D01*
X34214286Y25138095D01*
X34261905Y25042857D01*
X34309524Y24995238D01*
X34404762Y24947619D01*
X34595239Y24947619D01*
X34690477Y24995238D01*
X34738096Y25042857D01*
X34785715Y25138095D01*
X34785715Y25376190D01*
X34738096Y25471429D01*
X34690477Y25519048D01*
X34595239Y25566667D01*
X34404762Y25566667D01*
X34309524Y25519048D01*
X34261905Y25471429D01*
X34214286Y25376190D01*
X45033334Y32442857D02*
X44985715Y32395238D01*
X44842858Y32347619D01*
X44747620Y32347619D01*
X44604762Y32395238D01*
X44509524Y32490476D01*
X44461905Y32585714D01*
X44414286Y32776190D01*
X44414286Y32919048D01*
X44461905Y33109524D01*
X44509524Y33204762D01*
X44604762Y33300000D01*
X44747620Y33347619D01*
X44842858Y33347619D01*
X44985715Y33300000D01*
X45033334Y33252381D01*
X45366667Y33347619D02*
X46033334Y33347619D01*
X45604762Y32347619D01*
X21233334Y36842857D02*
X21185715Y36795238D01*
X21042858Y36747619D01*
X20947620Y36747619D01*
X20804762Y36795238D01*
X20709524Y36890476D01*
X20661905Y36985714D01*
X20614286Y37176190D01*
X20614286Y37319048D01*
X20661905Y37509524D01*
X20709524Y37604762D01*
X20804762Y37700000D01*
X20947620Y37747619D01*
X21042858Y37747619D01*
X21185715Y37700000D01*
X21233334Y37652381D01*
X21804762Y37319048D02*
X21709524Y37366667D01*
X21661905Y37414286D01*
X21614286Y37509524D01*
X21614286Y37557143D01*
X21661905Y37652381D01*
X21709524Y37700000D01*
X21804762Y37747619D01*
X21995239Y37747619D01*
X22090477Y37700000D01*
X22138096Y37652381D01*
X22185715Y37557143D01*
X22185715Y37509524D01*
X22138096Y37414286D01*
X22090477Y37366667D01*
X21995239Y37319048D01*
X21804762Y37319048D01*
X21709524Y37271429D01*
X21661905Y37223810D01*
X21614286Y37128571D01*
X21614286Y36938095D01*
X21661905Y36842857D01*
X21709524Y36795238D01*
X21804762Y36747619D01*
X21995239Y36747619D01*
X22090477Y36795238D01*
X22138096Y36842857D01*
X22185715Y36938095D01*
X22185715Y37128571D01*
X22138096Y37223810D01*
X22090477Y37271429D01*
X21995239Y37319048D01*
X30033334Y23842857D02*
X29985715Y23795238D01*
X29842858Y23747619D01*
X29747620Y23747619D01*
X29604762Y23795238D01*
X29509524Y23890476D01*
X29461905Y23985714D01*
X29414286Y24176190D01*
X29414286Y24319048D01*
X29461905Y24509524D01*
X29509524Y24604762D01*
X29604762Y24700000D01*
X29747620Y24747619D01*
X29842858Y24747619D01*
X29985715Y24700000D01*
X30033334Y24652381D01*
X30509524Y23747619D02*
X30700000Y23747619D01*
X30795239Y23795238D01*
X30842858Y23842857D01*
X30938096Y23985714D01*
X30985715Y24176190D01*
X30985715Y24557143D01*
X30938096Y24652381D01*
X30890477Y24700000D01*
X30795239Y24747619D01*
X30604762Y24747619D01*
X30509524Y24700000D01*
X30461905Y24652381D01*
X30414286Y24557143D01*
X30414286Y24319048D01*
X30461905Y24223810D01*
X30509524Y24176190D01*
X30604762Y24128571D01*
X30795239Y24128571D01*
X30890477Y24176190D01*
X30938096Y24223810D01*
X30985715Y24319048D01*
X10588095Y17847619D02*
X10588095Y17038095D01*
X10635714Y16942857D01*
X10683333Y16895238D01*
X10778571Y16847619D01*
X10969048Y16847619D01*
X11064286Y16895238D01*
X11111905Y16942857D01*
X11159524Y17038095D01*
X11159524Y17847619D01*
X11588095Y17752381D02*
X11635714Y17800000D01*
X11730952Y17847619D01*
X11969048Y17847619D01*
X12064286Y17800000D01*
X12111905Y17752381D01*
X12159524Y17657143D01*
X12159524Y17561905D01*
X12111905Y17419048D01*
X11540476Y16847619D01*
X12159524Y16847619D01*
X35488095Y17797619D02*
X35488095Y16988095D01*
X35535714Y16892857D01*
X35583333Y16845238D01*
X35678571Y16797619D01*
X35869048Y16797619D01*
X35964286Y16845238D01*
X36011905Y16892857D01*
X36059524Y16988095D01*
X36059524Y17797619D01*
X36440476Y17797619D02*
X37059524Y17797619D01*
X36726190Y17416667D01*
X36869048Y17416667D01*
X36964286Y17369048D01*
X37011905Y17321429D01*
X37059524Y17226190D01*
X37059524Y16988095D01*
X37011905Y16892857D01*
X36964286Y16845238D01*
X36869048Y16797619D01*
X36583333Y16797619D01*
X36488095Y16845238D01*
X36440476Y16892857D01*
X21838095Y29547619D02*
X21838095Y28738095D01*
X21885714Y28642857D01*
X21933333Y28595238D01*
X22028571Y28547619D01*
X22219048Y28547619D01*
X22314286Y28595238D01*
X22361905Y28642857D01*
X22409524Y28738095D01*
X22409524Y29547619D01*
X23314286Y29214286D02*
X23314286Y28547619D01*
X23076190Y29595238D02*
X22838095Y28880952D01*
X23457143Y28880952D01*
X28238095Y40947619D02*
X28238095Y40138095D01*
X28285714Y40042857D01*
X28333333Y39995238D01*
X28428571Y39947619D01*
X28619048Y39947619D01*
X28714286Y39995238D01*
X28761905Y40042857D01*
X28809524Y40138095D01*
X28809524Y40947619D01*
X29761905Y40947619D02*
X29285714Y40947619D01*
X29238095Y40471429D01*
X29285714Y40519048D01*
X29380952Y40566667D01*
X29619048Y40566667D01*
X29714286Y40519048D01*
X29761905Y40471429D01*
X29809524Y40376190D01*
X29809524Y40138095D01*
X29761905Y40042857D01*
X29714286Y39995238D01*
X29619048Y39947619D01*
X29380952Y39947619D01*
X29285714Y39995238D01*
X29238095Y40042857D01*
X22559524Y10797619D02*
X22226190Y11273810D01*
X21988095Y10797619D02*
X21988095Y11797619D01*
X22369048Y11797619D01*
X22464286Y11750000D01*
X22511905Y11702381D01*
X22559524Y11607143D01*
X22559524Y11464286D01*
X22511905Y11369048D01*
X22464286Y11321429D01*
X22369048Y11273810D01*
X21988095Y11273810D01*
X22988095Y10797619D02*
X22988095Y11797619D01*
X23559524Y10797619D01*
X23559524Y11797619D01*
X23988095Y11702381D02*
X24035714Y11750000D01*
X24130952Y11797619D01*
X24369048Y11797619D01*
X24464286Y11750000D01*
X24511905Y11702381D01*
X24559524Y11607143D01*
X24559524Y11511905D01*
X24511905Y11369048D01*
X23940476Y10797619D01*
X24559524Y10797619D01*
X1059524Y10797619D02*
X726190Y11273810D01*
X488095Y10797619D02*
X488095Y11797619D01*
X869048Y11797619D01*
X964286Y11750000D01*
X1011905Y11702381D01*
X1059524Y11607143D01*
X1059524Y11464286D01*
X1011905Y11369048D01*
X964286Y11321429D01*
X869048Y11273810D01*
X488095Y11273810D01*
X1488095Y10797619D02*
X1488095Y11797619D01*
X2059524Y10797619D01*
X2059524Y11797619D01*
X3059524Y10797619D02*
X2488095Y10797619D01*
X2773809Y10797619D02*
X2773809Y11797619D01*
X2678571Y11654762D01*
X2583333Y11559524D01*
X2488095Y11511905D01*
X37452381Y40483334D02*
X36976190Y40150000D01*
X37452381Y39911905D02*
X36452381Y39911905D01*
X36452381Y40292858D01*
X36500000Y40388096D01*
X36547619Y40435715D01*
X36642857Y40483334D01*
X36785714Y40483334D01*
X36880952Y40435715D01*
X36928571Y40388096D01*
X36976190Y40292858D01*
X36976190Y39911905D01*
X36452381Y40816667D02*
X36452381Y41435715D01*
X36833333Y41102381D01*
X36833333Y41245239D01*
X36880952Y41340477D01*
X36928571Y41388096D01*
X37023810Y41435715D01*
X37261905Y41435715D01*
X37357143Y41388096D01*
X37404762Y41340477D01*
X37452381Y41245239D01*
X37452381Y40959524D01*
X37404762Y40864286D01*
X37357143Y40816667D01*
X41052381Y40483334D02*
X40576190Y40150000D01*
X41052381Y39911905D02*
X40052381Y39911905D01*
X40052381Y40292858D01*
X40100000Y40388096D01*
X40147619Y40435715D01*
X40242857Y40483334D01*
X40385714Y40483334D01*
X40480952Y40435715D01*
X40528571Y40388096D01*
X40576190Y40292858D01*
X40576190Y39911905D01*
X40147619Y40864286D02*
X40100000Y40911905D01*
X40052381Y41007143D01*
X40052381Y41245239D01*
X40100000Y41340477D01*
X40147619Y41388096D01*
X40242857Y41435715D01*
X40338095Y41435715D01*
X40480952Y41388096D01*
X41052381Y40816667D01*
X41052381Y41435715D01*
X9783334Y26747619D02*
X9450000Y27223810D01*
X9211905Y26747619D02*
X9211905Y27747619D01*
X9592858Y27747619D01*
X9688096Y27700000D01*
X9735715Y27652381D01*
X9783334Y27557143D01*
X9783334Y27414286D01*
X9735715Y27319048D01*
X9688096Y27271429D01*
X9592858Y27223810D01*
X9211905Y27223810D01*
X10735715Y26747619D02*
X10164286Y26747619D01*
X10450000Y26747619D02*
X10450000Y27747619D01*
X10354762Y27604762D01*
X10259524Y27509524D01*
X10164286Y27461905D01*
M02*
