G04 #@! TF.FileFunction,Copper,L1,Top,Signal*
%FSLAX46Y46*%
G04 Gerber Fmt 4.6, Leading zero omitted, Abs format (unit mm)*
G04 Created by KiCad (PCBNEW 4.0.2+dfsg1-stable) date Mon 02 Okt 2017 19:03:43 CEST*
%MOMM*%
G01*
G04 APERTURE LIST*
%ADD10C,0.100000*%
%ADD11R,2.000000X2.000000*%
%ADD12C,2.100000*%
%ADD13C,2.000000*%
%ADD14C,1.700000*%
%ADD15R,1.700000X1.700000*%
%ADD16R,1.800000X1.800000*%
%ADD17C,1.800000*%
%ADD18O,2.540000X2.032000*%
%ADD19R,1.600000X2.400000*%
%ADD20O,1.600000X2.400000*%
%ADD21C,2.200000*%
%ADD22O,1.800000X2.000000*%
%ADD23O,2.000000X1.800000*%
%ADD24O,2.000000X1.600000*%
%ADD25O,1.600000X2.000000*%
%ADD26C,0.600000*%
%ADD27C,0.250000*%
%ADD28C,0.500000*%
G04 APERTURE END LIST*
D10*
X0Y2500000D02*
G75*
G03X2500000Y0I2500000J0D01*
G01*
X47500000Y0D02*
G75*
G03X50000000Y2500000I0J2500000D01*
G01*
X50000000Y2500000D02*
X50000000Y47500000D01*
X2500000Y0D02*
X47500000Y0D01*
X0Y47500000D02*
X0Y2500000D01*
X50000000Y47500000D02*
G75*
G03X47500000Y50000000I-2500000J0D01*
G01*
X2500000Y50000000D02*
G75*
G03X0Y47500000I0J-2500000D01*
G01*
X2500000Y50000000D02*
X47500000Y50000000D01*
D11*
X3330000Y47800000D03*
D12*
X5870000Y47800000D03*
D13*
X1460000Y34500000D03*
X6540000Y34500000D03*
D14*
X11500000Y33500000D03*
D15*
X9500000Y33500000D03*
D13*
X1460000Y31500000D03*
X6540000Y31500000D03*
X47790000Y24750000D03*
X42710000Y24750000D03*
X39540000Y32000000D03*
X34460000Y32000000D03*
X39540000Y27600000D03*
X34460000Y27600000D03*
D16*
X43950000Y30800000D03*
D17*
X46450000Y30800000D03*
D13*
X21750000Y39210000D03*
X21750000Y44290000D03*
X30800000Y31740000D03*
X30800000Y26660000D03*
D16*
X16500000Y40250000D03*
D17*
X16500000Y37710000D03*
D13*
X5000000Y1730000D03*
X5000000Y4270000D03*
X9500000Y1730000D03*
X9500000Y4270000D03*
X14000000Y1730000D03*
X14000000Y4270000D03*
X18500000Y1730000D03*
X18500000Y4270000D03*
X23000000Y1730000D03*
X23000000Y4270000D03*
X27500000Y1730000D03*
X27500000Y4270000D03*
X32000000Y1730000D03*
X32000000Y4270000D03*
X36500000Y1730000D03*
X36500000Y4270000D03*
D18*
X9750000Y41750000D03*
X9750000Y39210000D03*
X9750000Y44290000D03*
D19*
X2500000Y13500000D03*
D20*
X20280000Y21120000D03*
X5040000Y13500000D03*
X17740000Y21120000D03*
X7580000Y13500000D03*
X15200000Y21120000D03*
X10120000Y13500000D03*
X12660000Y21120000D03*
X12660000Y13500000D03*
X10120000Y21120000D03*
X15200000Y13500000D03*
X7580000Y21120000D03*
X17740000Y13500000D03*
X5040000Y21120000D03*
X20280000Y13500000D03*
X2500000Y21120000D03*
D19*
X24750000Y13500000D03*
D20*
X47610000Y21120000D03*
X27290000Y13500000D03*
X45070000Y21120000D03*
X29830000Y13500000D03*
X42530000Y21120000D03*
X32370000Y13500000D03*
X39990000Y21120000D03*
X34910000Y13500000D03*
X37450000Y21120000D03*
X37450000Y13500000D03*
X34910000Y21120000D03*
X39990000Y13500000D03*
X32370000Y21120000D03*
X42530000Y13500000D03*
X29830000Y21120000D03*
X45070000Y13500000D03*
X27290000Y21120000D03*
X47610000Y13500000D03*
X24750000Y21120000D03*
D19*
X26400000Y33000000D03*
D20*
X18780000Y25380000D03*
X23860000Y33000000D03*
X21320000Y25380000D03*
X21320000Y33000000D03*
X23860000Y25380000D03*
X18780000Y33000000D03*
X26400000Y25380000D03*
D19*
X33000000Y44250000D03*
D20*
X25380000Y36630000D03*
X30460000Y44250000D03*
X27920000Y36630000D03*
X27920000Y44250000D03*
X30460000Y36630000D03*
X25380000Y44250000D03*
X33000000Y36630000D03*
D21*
X15750000Y46900000D03*
D13*
X17550000Y48500000D03*
X13950000Y48500000D03*
X23500000Y9000000D03*
X26040000Y9000000D03*
X28580000Y9000000D03*
X31120000Y9000000D03*
X33660000Y9000000D03*
X36200000Y9000000D03*
X38740000Y9000000D03*
X41280000Y9000000D03*
X2000000Y9000000D03*
X4540000Y9000000D03*
X7080000Y9000000D03*
X9620000Y9000000D03*
X12160000Y9000000D03*
X14700000Y9000000D03*
X17240000Y9000000D03*
X19780000Y9000000D03*
D22*
X37000000Y35400000D03*
X37000000Y45560000D03*
X40600000Y35400000D03*
X40600000Y45560000D03*
D23*
X4700000Y27200000D03*
X14860000Y27200000D03*
D24*
X6500000Y42500000D03*
X6500000Y40500000D03*
X43500000Y40500000D03*
X43500000Y42500000D03*
D25*
X43000000Y6500000D03*
X45000000Y6500000D03*
D26*
X33800000Y6600000D03*
X38600000Y6600000D03*
X9750000Y46500000D03*
X1800000Y45300000D03*
X32820000Y24890000D03*
X32600000Y31400000D03*
X19000000Y27600000D03*
X43600000Y27200000D03*
X39200000Y23500000D03*
X30800000Y34300000D03*
X11760000Y26920000D03*
X45680000Y35870000D03*
X20380000Y35800000D03*
X45200000Y10670000D03*
X37800000Y38800000D03*
X35000000Y39000000D03*
X40400000Y38800000D03*
X12600000Y17000000D03*
X17600000Y17000000D03*
X33300000Y16600000D03*
X28600000Y16900000D03*
X24400000Y27800000D03*
X3400000Y37500000D03*
X40100000Y15700000D03*
X46500000Y16600000D03*
X23700000Y19000000D03*
X22200000Y17700000D03*
X5200000Y24800000D03*
X2200000Y26900000D03*
X5300000Y17500000D03*
X37150000Y31900000D03*
X21300000Y29750000D03*
X21300000Y28000000D03*
X37400000Y16600000D03*
X37450000Y19050000D03*
X18700000Y39200000D03*
X27650000Y27100000D03*
X35400000Y30200000D03*
X39300000Y30200000D03*
X35400000Y29400000D03*
X38700000Y29400000D03*
X48200000Y29200000D03*
X8700000Y36400000D03*
X11000000Y36400000D03*
X15200000Y23500000D03*
X7600000Y23600000D03*
X6100000Y29500000D03*
X4500000Y31000000D03*
X39300000Y33800000D03*
X37200000Y33800000D03*
X20300000Y18600000D03*
X17500000Y18300000D03*
X39700000Y42500000D03*
X36300000Y42500000D03*
X30525000Y40050000D03*
X29150000Y38200000D03*
X16500000Y23700000D03*
X16750000Y44750000D03*
X18500000Y44750000D03*
X25700000Y18350000D03*
X21950000Y14350000D03*
X22700000Y13350000D03*
X30750000Y17800000D03*
X23400000Y14100000D03*
X31300000Y17050000D03*
X39000000Y11500000D03*
X42400000Y11500000D03*
X6800000Y16000000D03*
X8600000Y16000000D03*
X19500000Y16000000D03*
X21200000Y16000000D03*
X22250000Y19050000D03*
X6700000Y15100000D03*
X8500000Y15100000D03*
X19200000Y15200000D03*
X21100000Y15200000D03*
X17750000Y23450000D03*
X27250000Y23700000D03*
X21200000Y17000000D03*
X19300000Y22700000D03*
D27*
X38600000Y6600000D02*
X38800000Y6600000D01*
D28*
X3330000Y47800000D02*
X3330000Y44130000D01*
X3330000Y44130000D02*
X3300000Y44100000D01*
X9750000Y44290000D02*
X3490000Y44290000D01*
X1460000Y42260000D02*
X1460000Y34500000D01*
X3490000Y44290000D02*
X3300000Y44100000D01*
X3300000Y44100000D02*
X1460000Y42260000D01*
X1460000Y34500000D02*
X3400000Y32560000D01*
X20280000Y17320000D02*
X20280000Y13500000D01*
X18400000Y19200000D02*
X20280000Y17320000D01*
X1700000Y19200000D02*
X18400000Y19200000D01*
X900000Y20000000D02*
X1700000Y19200000D01*
X900000Y27800000D02*
X900000Y20000000D01*
X3400000Y30300000D02*
X900000Y27800000D01*
X3400000Y32560000D02*
X3400000Y30300000D01*
D27*
X9750000Y46500000D02*
X8300000Y46500000D01*
X4800000Y46100000D02*
X5870000Y47170000D01*
X4800000Y46000000D02*
X4800000Y46100000D01*
X5100000Y45700000D02*
X4800000Y46000000D01*
X7500000Y45700000D02*
X5100000Y45700000D01*
X8300000Y46500000D02*
X7500000Y45700000D01*
X5870000Y47800000D02*
X5870000Y47170000D01*
X12600000Y17000000D02*
X17600000Y17000000D01*
X2200000Y26900000D02*
X2100000Y26900000D01*
D28*
X37150000Y25100000D02*
X38025000Y24225000D01*
X37150000Y31900000D02*
X37150000Y25100000D01*
X21320000Y25380000D02*
X21320000Y27980000D01*
X21750000Y37200000D02*
X21750000Y39210000D01*
X22600000Y36350000D02*
X21750000Y37200000D01*
X22600000Y31050000D02*
X22600000Y36350000D01*
X21300000Y29750000D02*
X22600000Y31050000D01*
X21320000Y27980000D02*
X21300000Y28000000D01*
X34910000Y13500000D02*
X34910000Y14110000D01*
X34910000Y14110000D02*
X37400000Y16600000D01*
X37450000Y19050000D02*
X37450000Y21120000D01*
X4700000Y27200000D02*
X4700000Y29660000D01*
X4700000Y29660000D02*
X6540000Y31500000D01*
X2500000Y21120000D02*
X2500000Y25000000D01*
X2500000Y25000000D02*
X4700000Y27200000D01*
X6540000Y31500000D02*
X6500000Y31500000D01*
X6540000Y31500000D02*
X8900000Y31500000D01*
X8900000Y31500000D02*
X9500000Y32100000D01*
X9500000Y32100000D02*
X9500000Y33500000D01*
X9750000Y39210000D02*
X9750000Y33750000D01*
X9750000Y33750000D02*
X9500000Y33500000D01*
X9750000Y39210000D02*
X12310000Y39210000D01*
X18700000Y41000000D02*
X18700000Y39200000D01*
X17800000Y41900000D02*
X18700000Y41000000D01*
X15000000Y41900000D02*
X17800000Y41900000D01*
X12310000Y39210000D02*
X15000000Y41900000D01*
X21750000Y39210000D02*
X32090000Y39210000D01*
X33000000Y38300000D02*
X33000000Y36630000D01*
X32090000Y39210000D02*
X33000000Y38300000D01*
X37450000Y21120000D02*
X37450000Y23650000D01*
X37450000Y23650000D02*
X38025000Y24225000D01*
X38025000Y24225000D02*
X38550000Y24750000D01*
X38550000Y24750000D02*
X42710000Y24750000D01*
D27*
X39540000Y27600000D02*
X38050000Y29090000D01*
X38050000Y33650000D02*
X38050000Y29090000D01*
X38900000Y43860000D02*
X40600000Y45560000D01*
X38900000Y34500000D02*
X38900000Y43860000D01*
X38900000Y34500000D02*
X38050000Y33650000D01*
X27650000Y27100000D02*
X30750000Y30200000D01*
X30750000Y30200000D02*
X35400000Y30200000D01*
X39300000Y30200000D02*
X41800000Y30200000D01*
X41800000Y30200000D02*
X42400000Y30800000D01*
X42400000Y30800000D02*
X43950000Y30800000D01*
X46450000Y30800000D02*
X45050000Y29400000D01*
X33540000Y29400000D02*
X30800000Y26660000D01*
X35400000Y29400000D02*
X33540000Y29400000D01*
X45050000Y29400000D02*
X38700000Y29400000D01*
D28*
X45000000Y6500000D02*
X47400000Y6500000D01*
X49300000Y28100000D02*
X48200000Y29200000D01*
X49300000Y8400000D02*
X49300000Y28100000D01*
X47400000Y6500000D02*
X49300000Y8400000D01*
D27*
X37000000Y35400000D02*
X35000000Y35400000D01*
X35000000Y35400000D02*
X31340000Y31740000D01*
X31340000Y31740000D02*
X30800000Y31740000D01*
X37000000Y35400000D02*
X36800000Y35400000D01*
X16500000Y37710000D02*
X16500000Y28840000D01*
X16500000Y28840000D02*
X14860000Y27200000D01*
D28*
X8700000Y36400000D02*
X8000000Y37100000D01*
X15200000Y24300000D02*
X13300000Y26200000D01*
X13300000Y26200000D02*
X13300000Y34100000D01*
X13300000Y34100000D02*
X11000000Y36400000D01*
X15200000Y23500000D02*
X15200000Y24300000D01*
X8000000Y41400000D02*
X6900000Y42500000D01*
X8000000Y37100000D02*
X8000000Y41400000D01*
X6900000Y42500000D02*
X6500000Y42500000D01*
X6500000Y40500000D02*
X6500000Y37600000D01*
X7600000Y28000000D02*
X7600000Y23600000D01*
X6100000Y29500000D02*
X7600000Y28000000D01*
X4500000Y35600000D02*
X4500000Y31000000D01*
X6500000Y37600000D02*
X4500000Y35600000D01*
X36300000Y28600000D02*
X36300000Y26500000D01*
X43500000Y35550000D02*
X41750000Y33800000D01*
X41750000Y33800000D02*
X39300000Y33800000D01*
X37200000Y33800000D02*
X36300000Y32900000D01*
X36300000Y32900000D02*
X36300000Y28600000D01*
X36300000Y26500000D02*
X32724998Y22924998D01*
X32724998Y22924998D02*
X23724998Y22924998D01*
X23724998Y22924998D02*
X21900000Y21100000D01*
X21900000Y21100000D02*
X21900000Y20200000D01*
X21900000Y20200000D02*
X20300000Y18600000D01*
X17500000Y18300000D02*
X8900000Y18300000D01*
X8900000Y18300000D02*
X7580000Y16980000D01*
X7580000Y13500000D02*
X7580000Y16980000D01*
X43500000Y35550000D02*
X43500000Y40500000D01*
X16525000Y26575000D02*
X16475000Y23725000D01*
X36300000Y42500000D02*
X34200000Y40400000D01*
X34200000Y40400000D02*
X30875000Y40400000D01*
X30875000Y40400000D02*
X30525000Y40050000D01*
X29150000Y38200000D02*
X29200000Y38150000D01*
X29200000Y38150000D02*
X29200000Y33375000D01*
X29200000Y33375000D02*
X27900000Y32075000D01*
X27900000Y32075000D02*
X27900000Y29950000D01*
X27900000Y29950000D02*
X26900000Y28950000D01*
X26900000Y28950000D02*
X18900000Y28950000D01*
X18900000Y28950000D02*
X16525000Y26575000D01*
X39700000Y42500000D02*
X43500000Y42500000D01*
X16475000Y23725000D02*
X16500000Y23700000D01*
X17550000Y45800000D02*
X17550000Y48500000D01*
X17550000Y48450000D02*
X17550000Y48500000D01*
X17550000Y45800000D02*
X17550000Y45000000D01*
X17550000Y45000000D02*
X17550000Y44000000D01*
X17550000Y44000000D02*
X17550000Y43950000D01*
X21320000Y36180000D02*
X21320000Y33000000D01*
X19750000Y37750000D02*
X21320000Y36180000D01*
X19750000Y41750000D02*
X19750000Y37750000D01*
X17550000Y43950000D02*
X19750000Y41750000D01*
D27*
X21320000Y33580000D02*
X21320000Y33000000D01*
D28*
X13950000Y48500000D02*
X13950000Y46050000D01*
X27920000Y45830000D02*
X27920000Y44250000D01*
X13950000Y46050000D02*
X15250000Y44750000D01*
X15250000Y44750000D02*
X16750000Y44750000D01*
X18500000Y44750000D02*
X19500000Y44750000D01*
X19500000Y44750000D02*
X19750000Y44750000D01*
X19750000Y44750000D02*
X21500000Y46500000D01*
X21500000Y46500000D02*
X27250000Y46500000D01*
X27250000Y46500000D02*
X27920000Y45830000D01*
D27*
X27920000Y44780000D02*
X27920000Y44250000D01*
D28*
X5000000Y4270000D02*
X5000000Y7000000D01*
X4540000Y7460000D02*
X4540000Y9000000D01*
X5000000Y7000000D02*
X4540000Y7460000D01*
X9500000Y4270000D02*
X9620000Y4390000D01*
X9620000Y4390000D02*
X9620000Y9000000D01*
X14000000Y4270000D02*
X14300000Y4570000D01*
X14300000Y4570000D02*
X14300000Y8600000D01*
X14300000Y8600000D02*
X14700000Y9000000D01*
X18500000Y4270000D02*
X18500000Y5700000D01*
X19780000Y6980000D02*
X19780000Y9000000D01*
X18500000Y5700000D02*
X19780000Y6980000D01*
X23000000Y4270000D02*
X26040000Y7310000D01*
X26040000Y7310000D02*
X26040000Y9000000D01*
X27500000Y4270000D02*
X28570000Y4270000D01*
X31120000Y6820000D02*
X31120000Y9000000D01*
X28570000Y4270000D02*
X31120000Y6820000D01*
X32000000Y4270000D02*
X33670000Y4270000D01*
X36200000Y6800000D02*
X36200000Y9000000D01*
X33670000Y4270000D02*
X36200000Y6800000D01*
X36500000Y4270000D02*
X38670000Y4270000D01*
X41280000Y6880000D02*
X41280000Y9000000D01*
X38670000Y4270000D02*
X41280000Y6880000D01*
D27*
X37000000Y45560000D02*
X37000000Y38200000D01*
X26400000Y27300000D02*
X26400000Y25380000D01*
X27100000Y28000000D02*
X26400000Y27300000D01*
X27800000Y28000000D02*
X27100000Y28000000D01*
X29200000Y29400000D02*
X27800000Y28000000D01*
X29200000Y32400000D02*
X29200000Y29400000D01*
X30200000Y33400000D02*
X29200000Y32400000D01*
X32200000Y33400000D02*
X30200000Y33400000D01*
X37000000Y38200000D02*
X32200000Y33400000D01*
X2000000Y9000000D02*
X4450000Y11450000D01*
X29830000Y19130000D02*
X29830000Y21120000D01*
X29050000Y18350000D02*
X29830000Y19130000D01*
X25700000Y18350000D02*
X29050000Y18350000D01*
X21950000Y12350000D02*
X21950000Y14350000D01*
X21550002Y11950002D02*
X21950000Y12350000D01*
X15800002Y11950002D02*
X21550002Y11950002D01*
X15300000Y11450000D02*
X15800002Y11950002D01*
X4450000Y11450000D02*
X15300000Y11450000D01*
X7080000Y9000000D02*
X7150000Y9000000D01*
X7150000Y9000000D02*
X8950002Y10800002D01*
X8950002Y10800002D02*
X15350002Y10800002D01*
X15350002Y10800002D02*
X16050000Y11500000D01*
X16050000Y11500000D02*
X22300000Y11500000D01*
X22300000Y11500000D02*
X22700000Y11900000D01*
X22700000Y11900000D02*
X22700000Y13350000D01*
X30750000Y17800000D02*
X32370000Y19420000D01*
X32370000Y19420000D02*
X32370000Y21120000D01*
X42530000Y21120000D02*
X42530000Y19380000D01*
X13510000Y10350000D02*
X12160000Y9000000D01*
X15550000Y10350000D02*
X13510000Y10350000D01*
X16200000Y11000000D02*
X15550000Y10350000D01*
X22550000Y11000000D02*
X16200000Y11000000D01*
X23400000Y11850000D02*
X22550000Y11000000D01*
X23400000Y14100000D02*
X23400000Y11850000D01*
X32350000Y18100000D02*
X31300000Y17050000D01*
X41250000Y18100000D02*
X32350000Y18100000D01*
X42530000Y19380000D02*
X41250000Y18100000D01*
X17240000Y9000000D02*
X18740000Y10500000D01*
X45070000Y19370000D02*
X45070000Y21120000D01*
X43050000Y17350000D02*
X45070000Y19370000D01*
X36350000Y17350000D02*
X43050000Y17350000D01*
X33650000Y14650000D02*
X36350000Y17350000D01*
X33650000Y12650000D02*
X33650000Y14650000D01*
X32800000Y11800000D02*
X33650000Y12650000D01*
X24100000Y11800000D02*
X32800000Y11800000D01*
X22800000Y10500000D02*
X24100000Y11800000D01*
X18740000Y10500000D02*
X22800000Y10500000D01*
X23500000Y9000000D02*
X24000000Y9000000D01*
X24000000Y9000000D02*
X26300000Y11300000D01*
X26300000Y11300000D02*
X34000000Y11300000D01*
X34000000Y11300000D02*
X34450000Y11750000D01*
X34450000Y11750000D02*
X37850000Y11750000D01*
X37850000Y11750000D02*
X38700000Y12600000D01*
X38700000Y12600000D02*
X38700000Y13250000D01*
X38700000Y13250000D02*
X38950000Y13500000D01*
X38950000Y13500000D02*
X39990000Y13500000D01*
X45070000Y13500000D02*
X44900000Y13500000D01*
X44900000Y13500000D02*
X42900000Y11500000D01*
X28580000Y10130000D02*
X28580000Y9000000D01*
X29150000Y10700000D02*
X28580000Y10130000D01*
X34250000Y10700000D02*
X29150000Y10700000D01*
X34650000Y11100000D02*
X34250000Y10700000D01*
X38600000Y11100000D02*
X34650000Y11100000D01*
X39000000Y11500000D02*
X38600000Y11100000D01*
X42900000Y11500000D02*
X42400000Y11500000D01*
X45070000Y13500000D02*
X45070000Y13170000D01*
X33660000Y9000000D02*
X35060000Y10400000D01*
X41200000Y14600000D02*
X47610000Y21010000D01*
X41200000Y12600000D02*
X41200000Y14600000D01*
X39000000Y10400000D02*
X41200000Y12600000D01*
X35060000Y10400000D02*
X39000000Y10400000D01*
X47610000Y21010000D02*
X47610000Y21120000D01*
D28*
X38740000Y9000000D02*
X42530000Y12790000D01*
X42530000Y12790000D02*
X42530000Y13500000D01*
D27*
X27290000Y13500000D02*
X27290000Y13510000D01*
X27290000Y13510000D02*
X24800000Y16000000D01*
X2500000Y15300000D02*
X2500000Y13500000D01*
X3200000Y16000000D02*
X2500000Y15300000D01*
X6800000Y16000000D02*
X3200000Y16000000D01*
X19500000Y16000000D02*
X8600000Y16000000D01*
X24800000Y16000000D02*
X21200000Y16000000D01*
X2500000Y13500000D02*
X2500000Y13800000D01*
X27290000Y13910000D02*
X27290000Y13500000D01*
X22250000Y19050000D02*
X23600000Y17700000D01*
X23600000Y17700000D02*
X29700000Y17700000D01*
X29700000Y17700000D02*
X32370000Y15030000D01*
X32370000Y15030000D02*
X32370000Y13500000D01*
X5040000Y13500000D02*
X5040000Y14140000D01*
X5040000Y14140000D02*
X6000000Y15100000D01*
X6000000Y15100000D02*
X6700000Y15100000D01*
X8500000Y15100000D02*
X8600000Y15200000D01*
X8600000Y15200000D02*
X19200000Y15200000D01*
X21100000Y15200000D02*
X23500000Y15200000D01*
X23500000Y15200000D02*
X24750000Y13950000D01*
X24750000Y13950000D02*
X24750000Y13500000D01*
X17750000Y23450000D02*
X18100000Y23800000D01*
X18100000Y23800000D02*
X27150000Y23800000D01*
X27150000Y23800000D02*
X27250000Y23700000D01*
X27290000Y20490000D02*
X27290000Y21120000D01*
X27200000Y17000000D02*
X29830000Y14370000D01*
X21200000Y17000000D02*
X27200000Y17000000D01*
X29830000Y14370000D02*
X29830000Y13500000D01*
X5040000Y22340000D02*
X5040000Y21120000D01*
X5500000Y22800000D02*
X5040000Y22340000D01*
X19200000Y22800000D02*
X5500000Y22800000D01*
X19300000Y22700000D02*
X19200000Y22800000D01*
X47000000Y29000000D02*
X46500000Y28500000D01*
X33000000Y46200000D02*
X33800000Y47000000D01*
X33800000Y47000000D02*
X45800000Y47000000D01*
X45800000Y47000000D02*
X48100000Y44700000D01*
X48100000Y44700000D02*
X48100000Y30100000D01*
X48100000Y30100000D02*
X47000000Y29000000D01*
X44200000Y24100000D02*
X43200000Y23100000D01*
X43200000Y23100000D02*
X40300000Y23100000D01*
X40300000Y23100000D02*
X39990000Y22790000D01*
X39990000Y21120000D02*
X39990000Y22790000D01*
X33000000Y46200000D02*
X33000000Y44250000D01*
X46500000Y26400000D02*
X44200000Y24100000D01*
X46500000Y28500000D02*
X46500000Y26400000D01*
G36*
X48625000Y14575355D02*
X48476206Y14798042D01*
X48078787Y15063588D01*
X47610000Y15156836D01*
X47141213Y15063588D01*
X46743794Y14798042D01*
X46478248Y14400623D01*
X46385000Y13931836D01*
X46385000Y13068164D01*
X46478248Y12599377D01*
X46743794Y12201958D01*
X47141213Y11936412D01*
X47610000Y11843164D01*
X48078787Y11936412D01*
X48476206Y12201958D01*
X48625000Y12424645D01*
X48625000Y8679594D01*
X47120406Y7175000D01*
X46136069Y7175000D01*
X46131752Y7196704D01*
X45866206Y7594123D01*
X45468787Y7859669D01*
X45000000Y7952917D01*
X44531213Y7859669D01*
X44133794Y7594123D01*
X44049302Y7467672D01*
X43919238Y7654594D01*
X43483958Y7933707D01*
X43231931Y8004543D01*
X43025000Y7893488D01*
X43025000Y6525000D01*
X43045000Y6525000D01*
X43045000Y6475000D01*
X43025000Y6475000D01*
X43025000Y5106512D01*
X43231931Y4995457D01*
X43483958Y5066293D01*
X43919238Y5345406D01*
X44049302Y5532328D01*
X44133794Y5405877D01*
X44531213Y5140331D01*
X45000000Y5047083D01*
X45468787Y5140331D01*
X45866206Y5405877D01*
X46131752Y5803296D01*
X46136069Y5825000D01*
X47400000Y5825000D01*
X47658312Y5876381D01*
X47877297Y6022703D01*
X49525000Y7670406D01*
X49525000Y2546783D01*
X49362259Y1728627D01*
X48925311Y1074689D01*
X48271373Y637741D01*
X47453217Y475000D01*
X37400285Y475000D01*
X37488823Y705822D01*
X36500000Y1694645D01*
X35511177Y705822D01*
X35599715Y475000D01*
X32900285Y475000D01*
X32988823Y705822D01*
X32000000Y1694645D01*
X31011177Y705822D01*
X31099715Y475000D01*
X28400285Y475000D01*
X28488823Y705822D01*
X27500000Y1694645D01*
X26511177Y705822D01*
X26599715Y475000D01*
X23900285Y475000D01*
X23988823Y705822D01*
X23000000Y1694645D01*
X22011177Y705822D01*
X22099715Y475000D01*
X19400285Y475000D01*
X19488823Y705822D01*
X18500000Y1694645D01*
X17511177Y705822D01*
X17599715Y475000D01*
X14900285Y475000D01*
X14988823Y705822D01*
X14000000Y1694645D01*
X13011177Y705822D01*
X13099715Y475000D01*
X10400285Y475000D01*
X10488823Y705822D01*
X9500000Y1694645D01*
X8511177Y705822D01*
X8599715Y475000D01*
X5900285Y475000D01*
X5988823Y705822D01*
X5000000Y1694645D01*
X4011177Y705822D01*
X4099715Y475000D01*
X2546783Y475000D01*
X1728627Y637741D01*
X1074689Y1074689D01*
X815827Y1462103D01*
X3468376Y1462103D01*
X3687484Y896368D01*
X3727546Y836410D01*
X3975822Y741177D01*
X4964645Y1730000D01*
X5035355Y1730000D01*
X6024178Y741177D01*
X6272454Y836410D01*
X6517556Y1391378D01*
X6519196Y1462103D01*
X7968376Y1462103D01*
X8187484Y896368D01*
X8227546Y836410D01*
X8475822Y741177D01*
X9464645Y1730000D01*
X9535355Y1730000D01*
X10524178Y741177D01*
X10772454Y836410D01*
X11017556Y1391378D01*
X11019196Y1462103D01*
X12468376Y1462103D01*
X12687484Y896368D01*
X12727546Y836410D01*
X12975822Y741177D01*
X13964645Y1730000D01*
X14035355Y1730000D01*
X15024178Y741177D01*
X15272454Y836410D01*
X15517556Y1391378D01*
X15519196Y1462103D01*
X16968376Y1462103D01*
X17187484Y896368D01*
X17227546Y836410D01*
X17475822Y741177D01*
X18464645Y1730000D01*
X18535355Y1730000D01*
X19524178Y741177D01*
X19772454Y836410D01*
X20017556Y1391378D01*
X20019196Y1462103D01*
X21468376Y1462103D01*
X21687484Y896368D01*
X21727546Y836410D01*
X21975822Y741177D01*
X22964645Y1730000D01*
X23035355Y1730000D01*
X24024178Y741177D01*
X24272454Y836410D01*
X24517556Y1391378D01*
X24519196Y1462103D01*
X25968376Y1462103D01*
X26187484Y896368D01*
X26227546Y836410D01*
X26475822Y741177D01*
X27464645Y1730000D01*
X27535355Y1730000D01*
X28524178Y741177D01*
X28772454Y836410D01*
X29017556Y1391378D01*
X29019196Y1462103D01*
X30468376Y1462103D01*
X30687484Y896368D01*
X30727546Y836410D01*
X30975822Y741177D01*
X31964645Y1730000D01*
X32035355Y1730000D01*
X33024178Y741177D01*
X33272454Y836410D01*
X33517556Y1391378D01*
X33519196Y1462103D01*
X34968376Y1462103D01*
X35187484Y896368D01*
X35227546Y836410D01*
X35475822Y741177D01*
X36464645Y1730000D01*
X36535355Y1730000D01*
X37524178Y741177D01*
X37772454Y836410D01*
X38017556Y1391378D01*
X38031624Y1997897D01*
X37812516Y2563632D01*
X37772454Y2623590D01*
X37524178Y2718823D01*
X36535355Y1730000D01*
X36464645Y1730000D01*
X35475822Y2718823D01*
X35227546Y2623590D01*
X34982444Y2068622D01*
X34968376Y1462103D01*
X33519196Y1462103D01*
X33531624Y1997897D01*
X33312516Y2563632D01*
X33272454Y2623590D01*
X33024178Y2718823D01*
X32035355Y1730000D01*
X31964645Y1730000D01*
X30975822Y2718823D01*
X30727546Y2623590D01*
X30482444Y2068622D01*
X30468376Y1462103D01*
X29019196Y1462103D01*
X29031624Y1997897D01*
X28812516Y2563632D01*
X28772454Y2623590D01*
X28524178Y2718823D01*
X27535355Y1730000D01*
X27464645Y1730000D01*
X26475822Y2718823D01*
X26227546Y2623590D01*
X25982444Y2068622D01*
X25968376Y1462103D01*
X24519196Y1462103D01*
X24531624Y1997897D01*
X24312516Y2563632D01*
X24272454Y2623590D01*
X24024178Y2718823D01*
X23035355Y1730000D01*
X22964645Y1730000D01*
X21975822Y2718823D01*
X21727546Y2623590D01*
X21482444Y2068622D01*
X21468376Y1462103D01*
X20019196Y1462103D01*
X20031624Y1997897D01*
X19812516Y2563632D01*
X19772454Y2623590D01*
X19524178Y2718823D01*
X18535355Y1730000D01*
X18464645Y1730000D01*
X17475822Y2718823D01*
X17227546Y2623590D01*
X16982444Y2068622D01*
X16968376Y1462103D01*
X15519196Y1462103D01*
X15531624Y1997897D01*
X15312516Y2563632D01*
X15272454Y2623590D01*
X15024178Y2718823D01*
X14035355Y1730000D01*
X13964645Y1730000D01*
X12975822Y2718823D01*
X12727546Y2623590D01*
X12482444Y2068622D01*
X12468376Y1462103D01*
X11019196Y1462103D01*
X11031624Y1997897D01*
X10812516Y2563632D01*
X10772454Y2623590D01*
X10524178Y2718823D01*
X9535355Y1730000D01*
X9464645Y1730000D01*
X8475822Y2718823D01*
X8227546Y2623590D01*
X7982444Y2068622D01*
X7968376Y1462103D01*
X6519196Y1462103D01*
X6531624Y1997897D01*
X6312516Y2563632D01*
X6272454Y2623590D01*
X6024178Y2718823D01*
X5035355Y1730000D01*
X4964645Y1730000D01*
X3975822Y2718823D01*
X3727546Y2623590D01*
X3482444Y2068622D01*
X3468376Y1462103D01*
X815827Y1462103D01*
X637741Y1728627D01*
X475000Y2546783D01*
X475000Y19470406D01*
X1222703Y18722703D01*
X1441688Y18576381D01*
X1700000Y18525000D01*
X8170406Y18525000D01*
X7102703Y17457297D01*
X6956381Y17238312D01*
X6921249Y17061689D01*
X6905000Y16980000D01*
X6905000Y16724909D01*
X6656421Y16725126D01*
X6389857Y16614984D01*
X6324759Y16550000D01*
X3200000Y16550000D01*
X2989524Y16508134D01*
X2811091Y16388909D01*
X2811089Y16388906D01*
X2111091Y15688909D01*
X1991866Y15510476D01*
X1950000Y15300000D01*
X1950000Y15133326D01*
X1700000Y15133326D01*
X1542504Y15103691D01*
X1397854Y15010611D01*
X1300814Y14868588D01*
X1266674Y14700000D01*
X1266674Y12300000D01*
X1296309Y12142504D01*
X1389389Y11997854D01*
X1531412Y11900814D01*
X1700000Y11866674D01*
X3300000Y11866674D01*
X3457496Y11896309D01*
X3602146Y11989389D01*
X3699186Y12131412D01*
X3733326Y12300000D01*
X3733326Y14700000D01*
X3703691Y14857496D01*
X3610611Y15002146D01*
X3468588Y15099186D01*
X3300000Y15133326D01*
X3111144Y15133326D01*
X3427817Y15450000D01*
X5572182Y15450000D01*
X5239362Y15117180D01*
X5040000Y15156836D01*
X4571213Y15063588D01*
X4173794Y14798042D01*
X3908248Y14400623D01*
X3815000Y13931836D01*
X3815000Y13068164D01*
X3908248Y12599377D01*
X4173794Y12201958D01*
X4476047Y12000000D01*
X4450000Y12000000D01*
X4239524Y11958134D01*
X4061091Y11838909D01*
X2540651Y10318469D01*
X2284693Y10424752D01*
X1717794Y10425246D01*
X1193857Y10208760D01*
X792649Y9808251D01*
X575248Y9284693D01*
X574754Y8717794D01*
X791240Y8193857D01*
X1191749Y7792649D01*
X1715307Y7575248D01*
X2282206Y7574754D01*
X2806143Y7791240D01*
X3207351Y8191749D01*
X3269885Y8342347D01*
X3331240Y8193857D01*
X3731749Y7792649D01*
X3865000Y7737318D01*
X3865000Y7460000D01*
X3916381Y7201688D01*
X4062703Y6982703D01*
X4325000Y6720406D01*
X4325000Y5532947D01*
X4193857Y5478760D01*
X3792649Y5078251D01*
X3575248Y4554693D01*
X3574754Y3987794D01*
X3791240Y3463857D01*
X4191749Y3062649D01*
X4204587Y3057318D01*
X4166368Y3042516D01*
X4106410Y3002454D01*
X4011177Y2754178D01*
X5000000Y1765355D01*
X5988823Y2754178D01*
X5893590Y3002454D01*
X5782554Y3051493D01*
X5806143Y3061240D01*
X6207351Y3461749D01*
X6424752Y3985307D01*
X6425246Y4552206D01*
X6208760Y5076143D01*
X5808251Y5477351D01*
X5675000Y5532682D01*
X5675000Y7000000D01*
X5664719Y7051688D01*
X5623619Y7258312D01*
X5477297Y7477297D01*
X5216798Y7737796D01*
X5346143Y7791240D01*
X5747351Y8191749D01*
X5809885Y8342347D01*
X5871240Y8193857D01*
X6271749Y7792649D01*
X6795307Y7575248D01*
X7362206Y7574754D01*
X7886143Y7791240D01*
X8287351Y8191749D01*
X8349885Y8342347D01*
X8411240Y8193857D01*
X8811749Y7792649D01*
X8945000Y7737318D01*
X8945000Y5582530D01*
X8693857Y5478760D01*
X8292649Y5078251D01*
X8075248Y4554693D01*
X8074754Y3987794D01*
X8291240Y3463857D01*
X8691749Y3062649D01*
X8704587Y3057318D01*
X8666368Y3042516D01*
X8606410Y3002454D01*
X8511177Y2754178D01*
X9500000Y1765355D01*
X10488823Y2754178D01*
X10393590Y3002454D01*
X10282554Y3051493D01*
X10306143Y3061240D01*
X10707351Y3461749D01*
X10924752Y3985307D01*
X10925246Y4552206D01*
X10708760Y5076143D01*
X10308251Y5477351D01*
X10295000Y5482853D01*
X10295000Y7737053D01*
X10426143Y7791240D01*
X10827351Y8191749D01*
X10889885Y8342347D01*
X10951240Y8193857D01*
X11351749Y7792649D01*
X11875307Y7575248D01*
X12442206Y7574754D01*
X12966143Y7791240D01*
X13367351Y8191749D01*
X13429885Y8342347D01*
X13491240Y8193857D01*
X13625000Y8059864D01*
X13625000Y5656904D01*
X13193857Y5478760D01*
X12792649Y5078251D01*
X12575248Y4554693D01*
X12574754Y3987794D01*
X12791240Y3463857D01*
X13191749Y3062649D01*
X13204587Y3057318D01*
X13166368Y3042516D01*
X13106410Y3002454D01*
X13011177Y2754178D01*
X14000000Y1765355D01*
X14988823Y2754178D01*
X14893590Y3002454D01*
X14782554Y3051493D01*
X14806143Y3061240D01*
X15207351Y3461749D01*
X15424752Y3985307D01*
X15425246Y4552206D01*
X15208760Y5076143D01*
X14975000Y5310311D01*
X14975000Y7574760D01*
X14982206Y7574754D01*
X15506143Y7791240D01*
X15907351Y8191749D01*
X15969885Y8342347D01*
X16031240Y8193857D01*
X16431749Y7792649D01*
X16955307Y7575248D01*
X17522206Y7574754D01*
X18046143Y7791240D01*
X18447351Y8191749D01*
X18509885Y8342347D01*
X18571240Y8193857D01*
X18971749Y7792649D01*
X19105000Y7737318D01*
X19105000Y7259594D01*
X18022703Y6177297D01*
X17876381Y5958312D01*
X17876381Y5958311D01*
X17825000Y5700000D01*
X17825000Y5532947D01*
X17693857Y5478760D01*
X17292649Y5078251D01*
X17075248Y4554693D01*
X17074754Y3987794D01*
X17291240Y3463857D01*
X17691749Y3062649D01*
X17704587Y3057318D01*
X17666368Y3042516D01*
X17606410Y3002454D01*
X17511177Y2754178D01*
X18500000Y1765355D01*
X19488823Y2754178D01*
X19393590Y3002454D01*
X19282554Y3051493D01*
X19306143Y3061240D01*
X19707351Y3461749D01*
X19924752Y3985307D01*
X19925246Y4552206D01*
X19708760Y5076143D01*
X19308251Y5477351D01*
X19254334Y5499740D01*
X20257297Y6502703D01*
X20403618Y6721688D01*
X20403619Y6721689D01*
X20455000Y6980000D01*
X20455000Y7737053D01*
X20586143Y7791240D01*
X20987351Y8191749D01*
X21204752Y8715307D01*
X21205246Y9282206D01*
X20988760Y9806143D01*
X20845154Y9950000D01*
X22434645Y9950000D01*
X22292649Y9808251D01*
X22075248Y9284693D01*
X22074754Y8717794D01*
X22291240Y8193857D01*
X22691749Y7792649D01*
X23215307Y7575248D01*
X23782206Y7574754D01*
X24306143Y7791240D01*
X24707351Y8191749D01*
X24769885Y8342347D01*
X24831240Y8193857D01*
X25231749Y7792649D01*
X25365000Y7737318D01*
X25365000Y7589594D01*
X23415742Y5640336D01*
X23284693Y5694752D01*
X22717794Y5695246D01*
X22193857Y5478760D01*
X21792649Y5078251D01*
X21575248Y4554693D01*
X21574754Y3987794D01*
X21791240Y3463857D01*
X22191749Y3062649D01*
X22204587Y3057318D01*
X22166368Y3042516D01*
X22106410Y3002454D01*
X22011177Y2754178D01*
X23000000Y1765355D01*
X23988823Y2754178D01*
X23893590Y3002454D01*
X23782554Y3051493D01*
X23806143Y3061240D01*
X24207351Y3461749D01*
X24424752Y3985307D01*
X24425246Y4552206D01*
X24370148Y4685554D01*
X26517297Y6832703D01*
X26663619Y7051688D01*
X26715000Y7310000D01*
X26715000Y7737053D01*
X26846143Y7791240D01*
X27247351Y8191749D01*
X27309885Y8342347D01*
X27371240Y8193857D01*
X27771749Y7792649D01*
X28295307Y7575248D01*
X28862206Y7574754D01*
X29386143Y7791240D01*
X29787351Y8191749D01*
X29849885Y8342347D01*
X29911240Y8193857D01*
X30311749Y7792649D01*
X30445000Y7737318D01*
X30445000Y7099594D01*
X28565280Y5219874D01*
X28308251Y5477351D01*
X27784693Y5694752D01*
X27217794Y5695246D01*
X26693857Y5478760D01*
X26292649Y5078251D01*
X26075248Y4554693D01*
X26074754Y3987794D01*
X26291240Y3463857D01*
X26691749Y3062649D01*
X26704587Y3057318D01*
X26666368Y3042516D01*
X26606410Y3002454D01*
X26511177Y2754178D01*
X27500000Y1765355D01*
X28488823Y2754178D01*
X28393590Y3002454D01*
X28282554Y3051493D01*
X28306143Y3061240D01*
X28707351Y3461749D01*
X28780029Y3636777D01*
X28828312Y3646381D01*
X29047297Y3792703D01*
X31597297Y6342703D01*
X31743619Y6561689D01*
X31795000Y6820000D01*
X31795000Y7737053D01*
X31926143Y7791240D01*
X32327351Y8191749D01*
X32389885Y8342347D01*
X32451240Y8193857D01*
X32851749Y7792649D01*
X33375307Y7575248D01*
X33942206Y7574754D01*
X34466143Y7791240D01*
X34867351Y8191749D01*
X34929885Y8342347D01*
X34991240Y8193857D01*
X35391749Y7792649D01*
X35525000Y7737318D01*
X35525000Y7079594D01*
X33390406Y4945000D01*
X33262947Y4945000D01*
X33208760Y5076143D01*
X32808251Y5477351D01*
X32284693Y5694752D01*
X31717794Y5695246D01*
X31193857Y5478760D01*
X30792649Y5078251D01*
X30575248Y4554693D01*
X30574754Y3987794D01*
X30791240Y3463857D01*
X31191749Y3062649D01*
X31204587Y3057318D01*
X31166368Y3042516D01*
X31106410Y3002454D01*
X31011177Y2754178D01*
X32000000Y1765355D01*
X32988823Y2754178D01*
X32893590Y3002454D01*
X32782554Y3051493D01*
X32806143Y3061240D01*
X33207351Y3461749D01*
X33262682Y3595000D01*
X33670000Y3595000D01*
X33928312Y3646381D01*
X34147297Y3792703D01*
X35193096Y4838502D01*
X35075248Y4554693D01*
X35074754Y3987794D01*
X35291240Y3463857D01*
X35691749Y3062649D01*
X35704587Y3057318D01*
X35666368Y3042516D01*
X35606410Y3002454D01*
X35511177Y2754178D01*
X36500000Y1765355D01*
X37488823Y2754178D01*
X37393590Y3002454D01*
X37282554Y3051493D01*
X37306143Y3061240D01*
X37707351Y3461749D01*
X37762682Y3595000D01*
X38670000Y3595000D01*
X38928312Y3646381D01*
X39147297Y3792703D01*
X41675000Y6320406D01*
X41675000Y6275000D01*
X41785427Y5769847D01*
X42080762Y5345406D01*
X42516042Y5066293D01*
X42768069Y4995457D01*
X42975000Y5106512D01*
X42975000Y6475000D01*
X42955000Y6475000D01*
X42955000Y6525000D01*
X42975000Y6525000D01*
X42975000Y7893488D01*
X42768069Y8004543D01*
X42516042Y7933707D01*
X42080762Y7654594D01*
X41955000Y7473855D01*
X41955000Y7737053D01*
X42086143Y7791240D01*
X42487351Y8191749D01*
X42704752Y8715307D01*
X42705246Y9282206D01*
X42488760Y9806143D01*
X42088251Y10207351D01*
X41564693Y10424752D01*
X41119734Y10425140D01*
X41784851Y11090257D01*
X41785016Y11089857D01*
X41988784Y10885733D01*
X42255156Y10775126D01*
X42543579Y10774874D01*
X42810143Y10885016D01*
X42875241Y10950000D01*
X42900000Y10950000D01*
X43110476Y10991866D01*
X43288909Y11111091D01*
X44309288Y12131470D01*
X44601213Y11936412D01*
X45070000Y11843164D01*
X45538787Y11936412D01*
X45936206Y12201958D01*
X46201752Y12599377D01*
X46295000Y13068164D01*
X46295000Y13931836D01*
X46201752Y14400623D01*
X45936206Y14798042D01*
X45538787Y15063588D01*
X45070000Y15156836D01*
X44601213Y15063588D01*
X44203794Y14798042D01*
X43938248Y14400623D01*
X43845000Y13931836D01*
X43845000Y13222818D01*
X43755000Y13132818D01*
X43755000Y13931836D01*
X43661752Y14400623D01*
X43396206Y14798042D01*
X42998787Y15063588D01*
X42533882Y15156064D01*
X47017136Y19639318D01*
X47141213Y19556412D01*
X47610000Y19463164D01*
X48078787Y19556412D01*
X48476206Y19821958D01*
X48625000Y20044645D01*
X48625000Y14575355D01*
X48625000Y14575355D01*
G37*
X48625000Y14575355D02*
X48476206Y14798042D01*
X48078787Y15063588D01*
X47610000Y15156836D01*
X47141213Y15063588D01*
X46743794Y14798042D01*
X46478248Y14400623D01*
X46385000Y13931836D01*
X46385000Y13068164D01*
X46478248Y12599377D01*
X46743794Y12201958D01*
X47141213Y11936412D01*
X47610000Y11843164D01*
X48078787Y11936412D01*
X48476206Y12201958D01*
X48625000Y12424645D01*
X48625000Y8679594D01*
X47120406Y7175000D01*
X46136069Y7175000D01*
X46131752Y7196704D01*
X45866206Y7594123D01*
X45468787Y7859669D01*
X45000000Y7952917D01*
X44531213Y7859669D01*
X44133794Y7594123D01*
X44049302Y7467672D01*
X43919238Y7654594D01*
X43483958Y7933707D01*
X43231931Y8004543D01*
X43025000Y7893488D01*
X43025000Y6525000D01*
X43045000Y6525000D01*
X43045000Y6475000D01*
X43025000Y6475000D01*
X43025000Y5106512D01*
X43231931Y4995457D01*
X43483958Y5066293D01*
X43919238Y5345406D01*
X44049302Y5532328D01*
X44133794Y5405877D01*
X44531213Y5140331D01*
X45000000Y5047083D01*
X45468787Y5140331D01*
X45866206Y5405877D01*
X46131752Y5803296D01*
X46136069Y5825000D01*
X47400000Y5825000D01*
X47658312Y5876381D01*
X47877297Y6022703D01*
X49525000Y7670406D01*
X49525000Y2546783D01*
X49362259Y1728627D01*
X48925311Y1074689D01*
X48271373Y637741D01*
X47453217Y475000D01*
X37400285Y475000D01*
X37488823Y705822D01*
X36500000Y1694645D01*
X35511177Y705822D01*
X35599715Y475000D01*
X32900285Y475000D01*
X32988823Y705822D01*
X32000000Y1694645D01*
X31011177Y705822D01*
X31099715Y475000D01*
X28400285Y475000D01*
X28488823Y705822D01*
X27500000Y1694645D01*
X26511177Y705822D01*
X26599715Y475000D01*
X23900285Y475000D01*
X23988823Y705822D01*
X23000000Y1694645D01*
X22011177Y705822D01*
X22099715Y475000D01*
X19400285Y475000D01*
X19488823Y705822D01*
X18500000Y1694645D01*
X17511177Y705822D01*
X17599715Y475000D01*
X14900285Y475000D01*
X14988823Y705822D01*
X14000000Y1694645D01*
X13011177Y705822D01*
X13099715Y475000D01*
X10400285Y475000D01*
X10488823Y705822D01*
X9500000Y1694645D01*
X8511177Y705822D01*
X8599715Y475000D01*
X5900285Y475000D01*
X5988823Y705822D01*
X5000000Y1694645D01*
X4011177Y705822D01*
X4099715Y475000D01*
X2546783Y475000D01*
X1728627Y637741D01*
X1074689Y1074689D01*
X815827Y1462103D01*
X3468376Y1462103D01*
X3687484Y896368D01*
X3727546Y836410D01*
X3975822Y741177D01*
X4964645Y1730000D01*
X5035355Y1730000D01*
X6024178Y741177D01*
X6272454Y836410D01*
X6517556Y1391378D01*
X6519196Y1462103D01*
X7968376Y1462103D01*
X8187484Y896368D01*
X8227546Y836410D01*
X8475822Y741177D01*
X9464645Y1730000D01*
X9535355Y1730000D01*
X10524178Y741177D01*
X10772454Y836410D01*
X11017556Y1391378D01*
X11019196Y1462103D01*
X12468376Y1462103D01*
X12687484Y896368D01*
X12727546Y836410D01*
X12975822Y741177D01*
X13964645Y1730000D01*
X14035355Y1730000D01*
X15024178Y741177D01*
X15272454Y836410D01*
X15517556Y1391378D01*
X15519196Y1462103D01*
X16968376Y1462103D01*
X17187484Y896368D01*
X17227546Y836410D01*
X17475822Y741177D01*
X18464645Y1730000D01*
X18535355Y1730000D01*
X19524178Y741177D01*
X19772454Y836410D01*
X20017556Y1391378D01*
X20019196Y1462103D01*
X21468376Y1462103D01*
X21687484Y896368D01*
X21727546Y836410D01*
X21975822Y741177D01*
X22964645Y1730000D01*
X23035355Y1730000D01*
X24024178Y741177D01*
X24272454Y836410D01*
X24517556Y1391378D01*
X24519196Y1462103D01*
X25968376Y1462103D01*
X26187484Y896368D01*
X26227546Y836410D01*
X26475822Y741177D01*
X27464645Y1730000D01*
X27535355Y1730000D01*
X28524178Y741177D01*
X28772454Y836410D01*
X29017556Y1391378D01*
X29019196Y1462103D01*
X30468376Y1462103D01*
X30687484Y896368D01*
X30727546Y836410D01*
X30975822Y741177D01*
X31964645Y1730000D01*
X32035355Y1730000D01*
X33024178Y741177D01*
X33272454Y836410D01*
X33517556Y1391378D01*
X33519196Y1462103D01*
X34968376Y1462103D01*
X35187484Y896368D01*
X35227546Y836410D01*
X35475822Y741177D01*
X36464645Y1730000D01*
X36535355Y1730000D01*
X37524178Y741177D01*
X37772454Y836410D01*
X38017556Y1391378D01*
X38031624Y1997897D01*
X37812516Y2563632D01*
X37772454Y2623590D01*
X37524178Y2718823D01*
X36535355Y1730000D01*
X36464645Y1730000D01*
X35475822Y2718823D01*
X35227546Y2623590D01*
X34982444Y2068622D01*
X34968376Y1462103D01*
X33519196Y1462103D01*
X33531624Y1997897D01*
X33312516Y2563632D01*
X33272454Y2623590D01*
X33024178Y2718823D01*
X32035355Y1730000D01*
X31964645Y1730000D01*
X30975822Y2718823D01*
X30727546Y2623590D01*
X30482444Y2068622D01*
X30468376Y1462103D01*
X29019196Y1462103D01*
X29031624Y1997897D01*
X28812516Y2563632D01*
X28772454Y2623590D01*
X28524178Y2718823D01*
X27535355Y1730000D01*
X27464645Y1730000D01*
X26475822Y2718823D01*
X26227546Y2623590D01*
X25982444Y2068622D01*
X25968376Y1462103D01*
X24519196Y1462103D01*
X24531624Y1997897D01*
X24312516Y2563632D01*
X24272454Y2623590D01*
X24024178Y2718823D01*
X23035355Y1730000D01*
X22964645Y1730000D01*
X21975822Y2718823D01*
X21727546Y2623590D01*
X21482444Y2068622D01*
X21468376Y1462103D01*
X20019196Y1462103D01*
X20031624Y1997897D01*
X19812516Y2563632D01*
X19772454Y2623590D01*
X19524178Y2718823D01*
X18535355Y1730000D01*
X18464645Y1730000D01*
X17475822Y2718823D01*
X17227546Y2623590D01*
X16982444Y2068622D01*
X16968376Y1462103D01*
X15519196Y1462103D01*
X15531624Y1997897D01*
X15312516Y2563632D01*
X15272454Y2623590D01*
X15024178Y2718823D01*
X14035355Y1730000D01*
X13964645Y1730000D01*
X12975822Y2718823D01*
X12727546Y2623590D01*
X12482444Y2068622D01*
X12468376Y1462103D01*
X11019196Y1462103D01*
X11031624Y1997897D01*
X10812516Y2563632D01*
X10772454Y2623590D01*
X10524178Y2718823D01*
X9535355Y1730000D01*
X9464645Y1730000D01*
X8475822Y2718823D01*
X8227546Y2623590D01*
X7982444Y2068622D01*
X7968376Y1462103D01*
X6519196Y1462103D01*
X6531624Y1997897D01*
X6312516Y2563632D01*
X6272454Y2623590D01*
X6024178Y2718823D01*
X5035355Y1730000D01*
X4964645Y1730000D01*
X3975822Y2718823D01*
X3727546Y2623590D01*
X3482444Y2068622D01*
X3468376Y1462103D01*
X815827Y1462103D01*
X637741Y1728627D01*
X475000Y2546783D01*
X475000Y19470406D01*
X1222703Y18722703D01*
X1441688Y18576381D01*
X1700000Y18525000D01*
X8170406Y18525000D01*
X7102703Y17457297D01*
X6956381Y17238312D01*
X6921249Y17061689D01*
X6905000Y16980000D01*
X6905000Y16724909D01*
X6656421Y16725126D01*
X6389857Y16614984D01*
X6324759Y16550000D01*
X3200000Y16550000D01*
X2989524Y16508134D01*
X2811091Y16388909D01*
X2811089Y16388906D01*
X2111091Y15688909D01*
X1991866Y15510476D01*
X1950000Y15300000D01*
X1950000Y15133326D01*
X1700000Y15133326D01*
X1542504Y15103691D01*
X1397854Y15010611D01*
X1300814Y14868588D01*
X1266674Y14700000D01*
X1266674Y12300000D01*
X1296309Y12142504D01*
X1389389Y11997854D01*
X1531412Y11900814D01*
X1700000Y11866674D01*
X3300000Y11866674D01*
X3457496Y11896309D01*
X3602146Y11989389D01*
X3699186Y12131412D01*
X3733326Y12300000D01*
X3733326Y14700000D01*
X3703691Y14857496D01*
X3610611Y15002146D01*
X3468588Y15099186D01*
X3300000Y15133326D01*
X3111144Y15133326D01*
X3427817Y15450000D01*
X5572182Y15450000D01*
X5239362Y15117180D01*
X5040000Y15156836D01*
X4571213Y15063588D01*
X4173794Y14798042D01*
X3908248Y14400623D01*
X3815000Y13931836D01*
X3815000Y13068164D01*
X3908248Y12599377D01*
X4173794Y12201958D01*
X4476047Y12000000D01*
X4450000Y12000000D01*
X4239524Y11958134D01*
X4061091Y11838909D01*
X2540651Y10318469D01*
X2284693Y10424752D01*
X1717794Y10425246D01*
X1193857Y10208760D01*
X792649Y9808251D01*
X575248Y9284693D01*
X574754Y8717794D01*
X791240Y8193857D01*
X1191749Y7792649D01*
X1715307Y7575248D01*
X2282206Y7574754D01*
X2806143Y7791240D01*
X3207351Y8191749D01*
X3269885Y8342347D01*
X3331240Y8193857D01*
X3731749Y7792649D01*
X3865000Y7737318D01*
X3865000Y7460000D01*
X3916381Y7201688D01*
X4062703Y6982703D01*
X4325000Y6720406D01*
X4325000Y5532947D01*
X4193857Y5478760D01*
X3792649Y5078251D01*
X3575248Y4554693D01*
X3574754Y3987794D01*
X3791240Y3463857D01*
X4191749Y3062649D01*
X4204587Y3057318D01*
X4166368Y3042516D01*
X4106410Y3002454D01*
X4011177Y2754178D01*
X5000000Y1765355D01*
X5988823Y2754178D01*
X5893590Y3002454D01*
X5782554Y3051493D01*
X5806143Y3061240D01*
X6207351Y3461749D01*
X6424752Y3985307D01*
X6425246Y4552206D01*
X6208760Y5076143D01*
X5808251Y5477351D01*
X5675000Y5532682D01*
X5675000Y7000000D01*
X5664719Y7051688D01*
X5623619Y7258312D01*
X5477297Y7477297D01*
X5216798Y7737796D01*
X5346143Y7791240D01*
X5747351Y8191749D01*
X5809885Y8342347D01*
X5871240Y8193857D01*
X6271749Y7792649D01*
X6795307Y7575248D01*
X7362206Y7574754D01*
X7886143Y7791240D01*
X8287351Y8191749D01*
X8349885Y8342347D01*
X8411240Y8193857D01*
X8811749Y7792649D01*
X8945000Y7737318D01*
X8945000Y5582530D01*
X8693857Y5478760D01*
X8292649Y5078251D01*
X8075248Y4554693D01*
X8074754Y3987794D01*
X8291240Y3463857D01*
X8691749Y3062649D01*
X8704587Y3057318D01*
X8666368Y3042516D01*
X8606410Y3002454D01*
X8511177Y2754178D01*
X9500000Y1765355D01*
X10488823Y2754178D01*
X10393590Y3002454D01*
X10282554Y3051493D01*
X10306143Y3061240D01*
X10707351Y3461749D01*
X10924752Y3985307D01*
X10925246Y4552206D01*
X10708760Y5076143D01*
X10308251Y5477351D01*
X10295000Y5482853D01*
X10295000Y7737053D01*
X10426143Y7791240D01*
X10827351Y8191749D01*
X10889885Y8342347D01*
X10951240Y8193857D01*
X11351749Y7792649D01*
X11875307Y7575248D01*
X12442206Y7574754D01*
X12966143Y7791240D01*
X13367351Y8191749D01*
X13429885Y8342347D01*
X13491240Y8193857D01*
X13625000Y8059864D01*
X13625000Y5656904D01*
X13193857Y5478760D01*
X12792649Y5078251D01*
X12575248Y4554693D01*
X12574754Y3987794D01*
X12791240Y3463857D01*
X13191749Y3062649D01*
X13204587Y3057318D01*
X13166368Y3042516D01*
X13106410Y3002454D01*
X13011177Y2754178D01*
X14000000Y1765355D01*
X14988823Y2754178D01*
X14893590Y3002454D01*
X14782554Y3051493D01*
X14806143Y3061240D01*
X15207351Y3461749D01*
X15424752Y3985307D01*
X15425246Y4552206D01*
X15208760Y5076143D01*
X14975000Y5310311D01*
X14975000Y7574760D01*
X14982206Y7574754D01*
X15506143Y7791240D01*
X15907351Y8191749D01*
X15969885Y8342347D01*
X16031240Y8193857D01*
X16431749Y7792649D01*
X16955307Y7575248D01*
X17522206Y7574754D01*
X18046143Y7791240D01*
X18447351Y8191749D01*
X18509885Y8342347D01*
X18571240Y8193857D01*
X18971749Y7792649D01*
X19105000Y7737318D01*
X19105000Y7259594D01*
X18022703Y6177297D01*
X17876381Y5958312D01*
X17876381Y5958311D01*
X17825000Y5700000D01*
X17825000Y5532947D01*
X17693857Y5478760D01*
X17292649Y5078251D01*
X17075248Y4554693D01*
X17074754Y3987794D01*
X17291240Y3463857D01*
X17691749Y3062649D01*
X17704587Y3057318D01*
X17666368Y3042516D01*
X17606410Y3002454D01*
X17511177Y2754178D01*
X18500000Y1765355D01*
X19488823Y2754178D01*
X19393590Y3002454D01*
X19282554Y3051493D01*
X19306143Y3061240D01*
X19707351Y3461749D01*
X19924752Y3985307D01*
X19925246Y4552206D01*
X19708760Y5076143D01*
X19308251Y5477351D01*
X19254334Y5499740D01*
X20257297Y6502703D01*
X20403618Y6721688D01*
X20403619Y6721689D01*
X20455000Y6980000D01*
X20455000Y7737053D01*
X20586143Y7791240D01*
X20987351Y8191749D01*
X21204752Y8715307D01*
X21205246Y9282206D01*
X20988760Y9806143D01*
X20845154Y9950000D01*
X22434645Y9950000D01*
X22292649Y9808251D01*
X22075248Y9284693D01*
X22074754Y8717794D01*
X22291240Y8193857D01*
X22691749Y7792649D01*
X23215307Y7575248D01*
X23782206Y7574754D01*
X24306143Y7791240D01*
X24707351Y8191749D01*
X24769885Y8342347D01*
X24831240Y8193857D01*
X25231749Y7792649D01*
X25365000Y7737318D01*
X25365000Y7589594D01*
X23415742Y5640336D01*
X23284693Y5694752D01*
X22717794Y5695246D01*
X22193857Y5478760D01*
X21792649Y5078251D01*
X21575248Y4554693D01*
X21574754Y3987794D01*
X21791240Y3463857D01*
X22191749Y3062649D01*
X22204587Y3057318D01*
X22166368Y3042516D01*
X22106410Y3002454D01*
X22011177Y2754178D01*
X23000000Y1765355D01*
X23988823Y2754178D01*
X23893590Y3002454D01*
X23782554Y3051493D01*
X23806143Y3061240D01*
X24207351Y3461749D01*
X24424752Y3985307D01*
X24425246Y4552206D01*
X24370148Y4685554D01*
X26517297Y6832703D01*
X26663619Y7051688D01*
X26715000Y7310000D01*
X26715000Y7737053D01*
X26846143Y7791240D01*
X27247351Y8191749D01*
X27309885Y8342347D01*
X27371240Y8193857D01*
X27771749Y7792649D01*
X28295307Y7575248D01*
X28862206Y7574754D01*
X29386143Y7791240D01*
X29787351Y8191749D01*
X29849885Y8342347D01*
X29911240Y8193857D01*
X30311749Y7792649D01*
X30445000Y7737318D01*
X30445000Y7099594D01*
X28565280Y5219874D01*
X28308251Y5477351D01*
X27784693Y5694752D01*
X27217794Y5695246D01*
X26693857Y5478760D01*
X26292649Y5078251D01*
X26075248Y4554693D01*
X26074754Y3987794D01*
X26291240Y3463857D01*
X26691749Y3062649D01*
X26704587Y3057318D01*
X26666368Y3042516D01*
X26606410Y3002454D01*
X26511177Y2754178D01*
X27500000Y1765355D01*
X28488823Y2754178D01*
X28393590Y3002454D01*
X28282554Y3051493D01*
X28306143Y3061240D01*
X28707351Y3461749D01*
X28780029Y3636777D01*
X28828312Y3646381D01*
X29047297Y3792703D01*
X31597297Y6342703D01*
X31743619Y6561689D01*
X31795000Y6820000D01*
X31795000Y7737053D01*
X31926143Y7791240D01*
X32327351Y8191749D01*
X32389885Y8342347D01*
X32451240Y8193857D01*
X32851749Y7792649D01*
X33375307Y7575248D01*
X33942206Y7574754D01*
X34466143Y7791240D01*
X34867351Y8191749D01*
X34929885Y8342347D01*
X34991240Y8193857D01*
X35391749Y7792649D01*
X35525000Y7737318D01*
X35525000Y7079594D01*
X33390406Y4945000D01*
X33262947Y4945000D01*
X33208760Y5076143D01*
X32808251Y5477351D01*
X32284693Y5694752D01*
X31717794Y5695246D01*
X31193857Y5478760D01*
X30792649Y5078251D01*
X30575248Y4554693D01*
X30574754Y3987794D01*
X30791240Y3463857D01*
X31191749Y3062649D01*
X31204587Y3057318D01*
X31166368Y3042516D01*
X31106410Y3002454D01*
X31011177Y2754178D01*
X32000000Y1765355D01*
X32988823Y2754178D01*
X32893590Y3002454D01*
X32782554Y3051493D01*
X32806143Y3061240D01*
X33207351Y3461749D01*
X33262682Y3595000D01*
X33670000Y3595000D01*
X33928312Y3646381D01*
X34147297Y3792703D01*
X35193096Y4838502D01*
X35075248Y4554693D01*
X35074754Y3987794D01*
X35291240Y3463857D01*
X35691749Y3062649D01*
X35704587Y3057318D01*
X35666368Y3042516D01*
X35606410Y3002454D01*
X35511177Y2754178D01*
X36500000Y1765355D01*
X37488823Y2754178D01*
X37393590Y3002454D01*
X37282554Y3051493D01*
X37306143Y3061240D01*
X37707351Y3461749D01*
X37762682Y3595000D01*
X38670000Y3595000D01*
X38928312Y3646381D01*
X39147297Y3792703D01*
X41675000Y6320406D01*
X41675000Y6275000D01*
X41785427Y5769847D01*
X42080762Y5345406D01*
X42516042Y5066293D01*
X42768069Y4995457D01*
X42975000Y5106512D01*
X42975000Y6475000D01*
X42955000Y6475000D01*
X42955000Y6525000D01*
X42975000Y6525000D01*
X42975000Y7893488D01*
X42768069Y8004543D01*
X42516042Y7933707D01*
X42080762Y7654594D01*
X41955000Y7473855D01*
X41955000Y7737053D01*
X42086143Y7791240D01*
X42487351Y8191749D01*
X42704752Y8715307D01*
X42705246Y9282206D01*
X42488760Y9806143D01*
X42088251Y10207351D01*
X41564693Y10424752D01*
X41119734Y10425140D01*
X41784851Y11090257D01*
X41785016Y11089857D01*
X41988784Y10885733D01*
X42255156Y10775126D01*
X42543579Y10774874D01*
X42810143Y10885016D01*
X42875241Y10950000D01*
X42900000Y10950000D01*
X43110476Y10991866D01*
X43288909Y11111091D01*
X44309288Y12131470D01*
X44601213Y11936412D01*
X45070000Y11843164D01*
X45538787Y11936412D01*
X45936206Y12201958D01*
X46201752Y12599377D01*
X46295000Y13068164D01*
X46295000Y13931836D01*
X46201752Y14400623D01*
X45936206Y14798042D01*
X45538787Y15063588D01*
X45070000Y15156836D01*
X44601213Y15063588D01*
X44203794Y14798042D01*
X43938248Y14400623D01*
X43845000Y13931836D01*
X43845000Y13222818D01*
X43755000Y13132818D01*
X43755000Y13931836D01*
X43661752Y14400623D01*
X43396206Y14798042D01*
X42998787Y15063588D01*
X42533882Y15156064D01*
X47017136Y19639318D01*
X47141213Y19556412D01*
X47610000Y19463164D01*
X48078787Y19556412D01*
X48476206Y19821958D01*
X48625000Y20044645D01*
X48625000Y14575355D01*
G36*
X40071240Y8193857D02*
X40471749Y7792649D01*
X40605000Y7737318D01*
X40605000Y7159594D01*
X38390406Y4945000D01*
X37762947Y4945000D01*
X37708760Y5076143D01*
X37308251Y5477351D01*
X36784693Y5694752D01*
X36217794Y5695246D01*
X35931578Y5576984D01*
X36677297Y6322703D01*
X36712241Y6375000D01*
X36823619Y6541689D01*
X36875000Y6800000D01*
X36875000Y7737053D01*
X37006143Y7791240D01*
X37407351Y8191749D01*
X37469885Y8342347D01*
X37531240Y8193857D01*
X37931749Y7792649D01*
X38455307Y7575248D01*
X39022206Y7574754D01*
X39546143Y7791240D01*
X39947351Y8191749D01*
X40009885Y8342347D01*
X40071240Y8193857D01*
X40071240Y8193857D01*
G37*
X40071240Y8193857D02*
X40471749Y7792649D01*
X40605000Y7737318D01*
X40605000Y7159594D01*
X38390406Y4945000D01*
X37762947Y4945000D01*
X37708760Y5076143D01*
X37308251Y5477351D01*
X36784693Y5694752D01*
X36217794Y5695246D01*
X35931578Y5576984D01*
X36677297Y6322703D01*
X36712241Y6375000D01*
X36823619Y6541689D01*
X36875000Y6800000D01*
X36875000Y7737053D01*
X37006143Y7791240D01*
X37407351Y8191749D01*
X37469885Y8342347D01*
X37531240Y8193857D01*
X37931749Y7792649D01*
X38455307Y7575248D01*
X39022206Y7574754D01*
X39546143Y7791240D01*
X39947351Y8191749D01*
X40009885Y8342347D01*
X40071240Y8193857D01*
G36*
X31695828Y14926354D02*
X31503794Y14798042D01*
X31238248Y14400623D01*
X31145000Y13931836D01*
X31145000Y13068164D01*
X31238248Y12599377D01*
X31404876Y12350000D01*
X30795124Y12350000D01*
X30961752Y12599377D01*
X31055000Y13068164D01*
X31055000Y13931836D01*
X30961752Y14400623D01*
X30696206Y14798042D01*
X30298787Y15063588D01*
X29830000Y15156836D01*
X29822477Y15155340D01*
X27827818Y17150000D01*
X29472182Y17150000D01*
X31695828Y14926354D01*
X31695828Y14926354D01*
G37*
X31695828Y14926354D02*
X31503794Y14798042D01*
X31238248Y14400623D01*
X31145000Y13931836D01*
X31145000Y13068164D01*
X31238248Y12599377D01*
X31404876Y12350000D01*
X30795124Y12350000D01*
X30961752Y12599377D01*
X31055000Y13068164D01*
X31055000Y13931836D01*
X30961752Y14400623D01*
X30696206Y14798042D01*
X30298787Y15063588D01*
X29830000Y15156836D01*
X29822477Y15155340D01*
X27827818Y17150000D01*
X29472182Y17150000D01*
X31695828Y14926354D01*
G36*
X10145000Y13525000D02*
X12635000Y13525000D01*
X12635000Y13545000D01*
X12685000Y13545000D01*
X12685000Y13525000D01*
X12705000Y13525000D01*
X12705000Y13475000D01*
X12685000Y13475000D01*
X12685000Y13455000D01*
X12635000Y13455000D01*
X12635000Y13475000D01*
X10145000Y13475000D01*
X10145000Y13455000D01*
X10095000Y13455000D01*
X10095000Y13475000D01*
X10075000Y13475000D01*
X10075000Y13525000D01*
X10095000Y13525000D01*
X10095000Y13545000D01*
X10145000Y13545000D01*
X10145000Y13525000D01*
X10145000Y13525000D01*
G37*
X10145000Y13525000D02*
X12635000Y13525000D01*
X12635000Y13545000D01*
X12685000Y13545000D01*
X12685000Y13525000D01*
X12705000Y13525000D01*
X12705000Y13475000D01*
X12685000Y13475000D01*
X12685000Y13455000D01*
X12635000Y13455000D01*
X12635000Y13475000D01*
X10145000Y13475000D01*
X10145000Y13455000D01*
X10095000Y13455000D01*
X10095000Y13475000D01*
X10075000Y13475000D01*
X10075000Y13525000D01*
X10095000Y13525000D01*
X10095000Y13545000D01*
X10145000Y13545000D01*
X10145000Y13525000D01*
G36*
X40811091Y14988909D02*
X40736847Y14877795D01*
X40458787Y15063588D01*
X39990000Y15156836D01*
X39521213Y15063588D01*
X39123794Y14798042D01*
X38858248Y14400623D01*
X38781851Y14016553D01*
X38756106Y14011432D01*
X38664573Y14430153D01*
X38369238Y14854594D01*
X37933958Y15133707D01*
X37681931Y15204543D01*
X37475000Y15093488D01*
X37475000Y13525000D01*
X37495000Y13525000D01*
X37495000Y13475000D01*
X37475000Y13475000D01*
X37475000Y13455000D01*
X37425000Y13455000D01*
X37425000Y13475000D01*
X37405000Y13475000D01*
X37405000Y13525000D01*
X37425000Y13525000D01*
X37425000Y15093488D01*
X37218069Y15204543D01*
X36966042Y15133707D01*
X36749357Y14994763D01*
X37689945Y15935351D01*
X37810143Y15985016D01*
X38014267Y16188784D01*
X38124874Y16455156D01*
X38125126Y16743579D01*
X38101813Y16800000D01*
X42622182Y16800000D01*
X40811091Y14988909D01*
X40811091Y14988909D01*
G37*
X40811091Y14988909D02*
X40736847Y14877795D01*
X40458787Y15063588D01*
X39990000Y15156836D01*
X39521213Y15063588D01*
X39123794Y14798042D01*
X38858248Y14400623D01*
X38781851Y14016553D01*
X38756106Y14011432D01*
X38664573Y14430153D01*
X38369238Y14854594D01*
X37933958Y15133707D01*
X37681931Y15204543D01*
X37475000Y15093488D01*
X37475000Y13525000D01*
X37495000Y13525000D01*
X37495000Y13475000D01*
X37475000Y13475000D01*
X37475000Y13455000D01*
X37425000Y13455000D01*
X37425000Y13475000D01*
X37405000Y13475000D01*
X37405000Y13525000D01*
X37425000Y13525000D01*
X37425000Y15093488D01*
X37218069Y15204543D01*
X36966042Y15133707D01*
X36749357Y14994763D01*
X37689945Y15935351D01*
X37810143Y15985016D01*
X38014267Y16188784D01*
X38124874Y16455156D01*
X38125126Y16743579D01*
X38101813Y16800000D01*
X42622182Y16800000D01*
X40811091Y14988909D01*
G36*
X33261091Y15038909D02*
X33142144Y14860892D01*
X32920000Y15009323D01*
X32920000Y15030000D01*
X32878134Y15240476D01*
X32758909Y15418909D01*
X31726487Y16451331D01*
X31914267Y16638784D01*
X32024874Y16905156D01*
X32024954Y16997136D01*
X32577818Y17550000D01*
X35772183Y17550000D01*
X33261091Y15038909D01*
X33261091Y15038909D01*
G37*
X33261091Y15038909D02*
X33142144Y14860892D01*
X32920000Y15009323D01*
X32920000Y15030000D01*
X32878134Y15240476D01*
X32758909Y15418909D01*
X31726487Y16451331D01*
X31914267Y16638784D01*
X32024874Y16905156D01*
X32024954Y16997136D01*
X32577818Y17550000D01*
X35772183Y17550000D01*
X33261091Y15038909D01*
G36*
X19605000Y17040406D02*
X19605000Y16724909D01*
X19356421Y16725126D01*
X19089857Y16614984D01*
X19024759Y16550000D01*
X9075371Y16550000D01*
X9011216Y16614267D01*
X8744844Y16724874D01*
X8456421Y16725126D01*
X8255000Y16641901D01*
X8255000Y16700406D01*
X9179594Y17625000D01*
X17235046Y17625000D01*
X17355156Y17575126D01*
X17643579Y17574874D01*
X17910143Y17685016D01*
X18114267Y17888784D01*
X18224874Y18155156D01*
X18225106Y18420300D01*
X19605000Y17040406D01*
X19605000Y17040406D01*
G37*
X19605000Y17040406D02*
X19605000Y16724909D01*
X19356421Y16725126D01*
X19089857Y16614984D01*
X19024759Y16550000D01*
X9075371Y16550000D01*
X9011216Y16614267D01*
X8744844Y16724874D01*
X8456421Y16725126D01*
X8255000Y16641901D01*
X8255000Y16700406D01*
X9179594Y17625000D01*
X17235046Y17625000D01*
X17355156Y17575126D01*
X17643579Y17574874D01*
X17910143Y17685016D01*
X18114267Y17888784D01*
X18224874Y18155156D01*
X18225106Y18420300D01*
X19605000Y17040406D01*
G36*
X21635016Y18639857D02*
X21838784Y18435733D01*
X22105156Y18325126D01*
X22197136Y18325046D01*
X22972182Y17550000D01*
X21675371Y17550000D01*
X21611216Y17614267D01*
X21344844Y17724874D01*
X21056421Y17725126D01*
X20859804Y17643885D01*
X20757297Y17797297D01*
X20610677Y17943917D01*
X20710143Y17985016D01*
X20914267Y18188784D01*
X20964604Y18310010D01*
X21535441Y18880847D01*
X21635016Y18639857D01*
X21635016Y18639857D01*
G37*
X21635016Y18639857D02*
X21838784Y18435733D01*
X22105156Y18325126D01*
X22197136Y18325046D01*
X22972182Y17550000D01*
X21675371Y17550000D01*
X21611216Y17614267D01*
X21344844Y17724874D01*
X21056421Y17725126D01*
X20859804Y17643885D01*
X20757297Y17797297D01*
X20610677Y17943917D01*
X20710143Y17985016D01*
X20914267Y18188784D01*
X20964604Y18310010D01*
X21535441Y18880847D01*
X21635016Y18639857D01*
G36*
X46272444Y25088622D02*
X46258376Y24482103D01*
X46477484Y23916368D01*
X46517546Y23856410D01*
X46765822Y23761177D01*
X47754645Y24750000D01*
X47740503Y24764142D01*
X47775858Y24799497D01*
X47790000Y24785355D01*
X47804143Y24799497D01*
X47839498Y24764142D01*
X47825355Y24750000D01*
X47839498Y24735857D01*
X47804143Y24700502D01*
X47790000Y24714645D01*
X46801177Y23725822D01*
X46896410Y23477546D01*
X47451378Y23232444D01*
X48057897Y23218376D01*
X48623632Y23437484D01*
X48625000Y23438398D01*
X48625000Y22195355D01*
X48476206Y22418042D01*
X48078787Y22683588D01*
X47610000Y22776836D01*
X47141213Y22683588D01*
X46743794Y22418042D01*
X46478248Y22020623D01*
X46385000Y21551836D01*
X46385000Y20688164D01*
X46405796Y20583614D01*
X46241529Y20419347D01*
X46295000Y20688164D01*
X46295000Y21551836D01*
X46201752Y22020623D01*
X45936206Y22418042D01*
X45538787Y22683588D01*
X45070000Y22776836D01*
X44601213Y22683588D01*
X44203794Y22418042D01*
X43938248Y22020623D01*
X43845000Y21551836D01*
X43845000Y20688164D01*
X43938248Y20219377D01*
X44203794Y19821958D01*
X44520000Y19610677D01*
X44520000Y19597817D01*
X42822182Y17900000D01*
X41827818Y17900000D01*
X42918906Y18991089D01*
X42918909Y18991091D01*
X43038134Y19169524D01*
X43080000Y19380000D01*
X43080000Y19610677D01*
X43396206Y19821958D01*
X43661752Y20219377D01*
X43755000Y20688164D01*
X43755000Y21551836D01*
X43661752Y22020623D01*
X43396206Y22418042D01*
X43198716Y22550000D01*
X43200000Y22550000D01*
X43410476Y22591866D01*
X43588909Y22711091D01*
X44588906Y23711089D01*
X44588909Y23711091D01*
X46514491Y25636673D01*
X46272444Y25088622D01*
X46272444Y25088622D01*
G37*
X46272444Y25088622D02*
X46258376Y24482103D01*
X46477484Y23916368D01*
X46517546Y23856410D01*
X46765822Y23761177D01*
X47754645Y24750000D01*
X47740503Y24764142D01*
X47775858Y24799497D01*
X47790000Y24785355D01*
X47804143Y24799497D01*
X47839498Y24764142D01*
X47825355Y24750000D01*
X47839498Y24735857D01*
X47804143Y24700502D01*
X47790000Y24714645D01*
X46801177Y23725822D01*
X46896410Y23477546D01*
X47451378Y23232444D01*
X48057897Y23218376D01*
X48623632Y23437484D01*
X48625000Y23438398D01*
X48625000Y22195355D01*
X48476206Y22418042D01*
X48078787Y22683588D01*
X47610000Y22776836D01*
X47141213Y22683588D01*
X46743794Y22418042D01*
X46478248Y22020623D01*
X46385000Y21551836D01*
X46385000Y20688164D01*
X46405796Y20583614D01*
X46241529Y20419347D01*
X46295000Y20688164D01*
X46295000Y21551836D01*
X46201752Y22020623D01*
X45936206Y22418042D01*
X45538787Y22683588D01*
X45070000Y22776836D01*
X44601213Y22683588D01*
X44203794Y22418042D01*
X43938248Y22020623D01*
X43845000Y21551836D01*
X43845000Y20688164D01*
X43938248Y20219377D01*
X44203794Y19821958D01*
X44520000Y19610677D01*
X44520000Y19597817D01*
X42822182Y17900000D01*
X41827818Y17900000D01*
X42918906Y18991089D01*
X42918909Y18991091D01*
X43038134Y19169524D01*
X43080000Y19380000D01*
X43080000Y19610677D01*
X43396206Y19821958D01*
X43661752Y20219377D01*
X43755000Y20688164D01*
X43755000Y21551836D01*
X43661752Y22020623D01*
X43396206Y22418042D01*
X43198716Y22550000D01*
X43200000Y22550000D01*
X43410476Y22591866D01*
X43588909Y22711091D01*
X44588906Y23711089D01*
X44588909Y23711091D01*
X46514491Y25636673D01*
X46272444Y25088622D01*
G36*
X26158248Y22020623D02*
X26065000Y21551836D01*
X26065000Y20688164D01*
X26158248Y20219377D01*
X26423794Y19821958D01*
X26821213Y19556412D01*
X27290000Y19463164D01*
X27758787Y19556412D01*
X28156206Y19821958D01*
X28421752Y20219377D01*
X28515000Y20688164D01*
X28515000Y21551836D01*
X28421752Y22020623D01*
X28268489Y22249998D01*
X28851511Y22249998D01*
X28698248Y22020623D01*
X28605000Y21551836D01*
X28605000Y20688164D01*
X28698248Y20219377D01*
X28963794Y19821958D01*
X29280000Y19610677D01*
X29280000Y19357817D01*
X28822182Y18900000D01*
X26175371Y18900000D01*
X26111216Y18964267D01*
X25844844Y19074874D01*
X25556421Y19075126D01*
X25289857Y18964984D01*
X25085733Y18761216D01*
X24975126Y18494844D01*
X24974912Y18250000D01*
X23827818Y18250000D01*
X22975047Y19102771D01*
X22975126Y19193579D01*
X22864984Y19460143D01*
X22661216Y19664267D01*
X22408397Y19769246D01*
X22523619Y19941688D01*
X22575000Y20200000D01*
X22575000Y20820406D01*
X23579272Y21824678D01*
X23525000Y21551836D01*
X23525000Y20688164D01*
X23618248Y20219377D01*
X23883794Y19821958D01*
X24281213Y19556412D01*
X24750000Y19463164D01*
X25218787Y19556412D01*
X25616206Y19821958D01*
X25881752Y20219377D01*
X25975000Y20688164D01*
X25975000Y21551836D01*
X25881752Y22020623D01*
X25728489Y22249998D01*
X26311511Y22249998D01*
X26158248Y22020623D01*
X26158248Y22020623D01*
G37*
X26158248Y22020623D02*
X26065000Y21551836D01*
X26065000Y20688164D01*
X26158248Y20219377D01*
X26423794Y19821958D01*
X26821213Y19556412D01*
X27290000Y19463164D01*
X27758787Y19556412D01*
X28156206Y19821958D01*
X28421752Y20219377D01*
X28515000Y20688164D01*
X28515000Y21551836D01*
X28421752Y22020623D01*
X28268489Y22249998D01*
X28851511Y22249998D01*
X28698248Y22020623D01*
X28605000Y21551836D01*
X28605000Y20688164D01*
X28698248Y20219377D01*
X28963794Y19821958D01*
X29280000Y19610677D01*
X29280000Y19357817D01*
X28822182Y18900000D01*
X26175371Y18900000D01*
X26111216Y18964267D01*
X25844844Y19074874D01*
X25556421Y19075126D01*
X25289857Y18964984D01*
X25085733Y18761216D01*
X24975126Y18494844D01*
X24974912Y18250000D01*
X23827818Y18250000D01*
X22975047Y19102771D01*
X22975126Y19193579D01*
X22864984Y19460143D01*
X22661216Y19664267D01*
X22408397Y19769246D01*
X22523619Y19941688D01*
X22575000Y20200000D01*
X22575000Y20820406D01*
X23579272Y21824678D01*
X23525000Y21551836D01*
X23525000Y20688164D01*
X23618248Y20219377D01*
X23883794Y19821958D01*
X24281213Y19556412D01*
X24750000Y19463164D01*
X25218787Y19556412D01*
X25616206Y19821958D01*
X25881752Y20219377D01*
X25975000Y20688164D01*
X25975000Y21551836D01*
X25881752Y22020623D01*
X25728489Y22249998D01*
X26311511Y22249998D01*
X26158248Y22020623D01*
G36*
X36475000Y25100000D02*
X36526381Y24841688D01*
X36672703Y24622703D01*
X37070406Y24225000D01*
X36972703Y24127297D01*
X36826381Y23908312D01*
X36793614Y23743579D01*
X36775000Y23650000D01*
X36775000Y22545801D01*
X36583794Y22418042D01*
X36318248Y22020623D01*
X36229052Y21572208D01*
X36124573Y22050153D01*
X35829238Y22474594D01*
X35393958Y22753707D01*
X35141931Y22824543D01*
X34935000Y22713488D01*
X34935000Y21145000D01*
X34955000Y21145000D01*
X34955000Y21095000D01*
X34935000Y21095000D01*
X34935000Y19526512D01*
X35141931Y19415457D01*
X35393958Y19486293D01*
X35829238Y19765406D01*
X36124573Y20189847D01*
X36229052Y20667792D01*
X36318248Y20219377D01*
X36583794Y19821958D01*
X36775000Y19694199D01*
X36775000Y19314954D01*
X36725126Y19194844D01*
X36724874Y18906421D01*
X36830825Y18650000D01*
X32377818Y18650000D01*
X32758909Y19031091D01*
X32878134Y19209524D01*
X32920000Y19420000D01*
X32920000Y19610677D01*
X33236206Y19821958D01*
X33501752Y20219377D01*
X33590948Y20667792D01*
X33695427Y20189847D01*
X33990762Y19765406D01*
X34426042Y19486293D01*
X34678069Y19415457D01*
X34885000Y19526512D01*
X34885000Y21095000D01*
X34865000Y21095000D01*
X34865000Y21145000D01*
X34885000Y21145000D01*
X34885000Y22713488D01*
X34678069Y22824543D01*
X34426042Y22753707D01*
X33990762Y22474594D01*
X33695427Y22050153D01*
X33590948Y21572208D01*
X33501752Y22020623D01*
X33236206Y22418042D01*
X33197057Y22444201D01*
X33202295Y22447701D01*
X36475000Y25720406D01*
X36475000Y25100000D01*
X36475000Y25100000D01*
G37*
X36475000Y25100000D02*
X36526381Y24841688D01*
X36672703Y24622703D01*
X37070406Y24225000D01*
X36972703Y24127297D01*
X36826381Y23908312D01*
X36793614Y23743579D01*
X36775000Y23650000D01*
X36775000Y22545801D01*
X36583794Y22418042D01*
X36318248Y22020623D01*
X36229052Y21572208D01*
X36124573Y22050153D01*
X35829238Y22474594D01*
X35393958Y22753707D01*
X35141931Y22824543D01*
X34935000Y22713488D01*
X34935000Y21145000D01*
X34955000Y21145000D01*
X34955000Y21095000D01*
X34935000Y21095000D01*
X34935000Y19526512D01*
X35141931Y19415457D01*
X35393958Y19486293D01*
X35829238Y19765406D01*
X36124573Y20189847D01*
X36229052Y20667792D01*
X36318248Y20219377D01*
X36583794Y19821958D01*
X36775000Y19694199D01*
X36775000Y19314954D01*
X36725126Y19194844D01*
X36724874Y18906421D01*
X36830825Y18650000D01*
X32377818Y18650000D01*
X32758909Y19031091D01*
X32878134Y19209524D01*
X32920000Y19420000D01*
X32920000Y19610677D01*
X33236206Y19821958D01*
X33501752Y20219377D01*
X33590948Y20667792D01*
X33695427Y20189847D01*
X33990762Y19765406D01*
X34426042Y19486293D01*
X34678069Y19415457D01*
X34885000Y19526512D01*
X34885000Y21095000D01*
X34865000Y21095000D01*
X34865000Y21145000D01*
X34885000Y21145000D01*
X34885000Y22713488D01*
X34678069Y22824543D01*
X34426042Y22753707D01*
X33990762Y22474594D01*
X33695427Y22050153D01*
X33590948Y21572208D01*
X33501752Y22020623D01*
X33236206Y22418042D01*
X33197057Y22444201D01*
X33202295Y22447701D01*
X36475000Y25720406D01*
X36475000Y25100000D01*
G36*
X41501240Y23943857D02*
X41794585Y23650000D01*
X40300000Y23650000D01*
X40089524Y23608134D01*
X39911091Y23488909D01*
X39601091Y23178909D01*
X39481866Y23000476D01*
X39440000Y22790000D01*
X39440000Y22629323D01*
X39123794Y22418042D01*
X38858248Y22020623D01*
X38765000Y21551836D01*
X38765000Y20688164D01*
X38858248Y20219377D01*
X39123794Y19821958D01*
X39521213Y19556412D01*
X39990000Y19463164D01*
X40458787Y19556412D01*
X40856206Y19821958D01*
X41121752Y20219377D01*
X41215000Y20688164D01*
X41215000Y21551836D01*
X41121752Y22020623D01*
X40856206Y22418042D01*
X40658716Y22550000D01*
X41861284Y22550000D01*
X41663794Y22418042D01*
X41398248Y22020623D01*
X41305000Y21551836D01*
X41305000Y20688164D01*
X41398248Y20219377D01*
X41663794Y19821958D01*
X41980000Y19610677D01*
X41980000Y19607817D01*
X41022182Y18650000D01*
X38068924Y18650000D01*
X38174874Y18905156D01*
X38175126Y19193579D01*
X38125000Y19314893D01*
X38125000Y19694199D01*
X38316206Y19821958D01*
X38581752Y20219377D01*
X38675000Y20688164D01*
X38675000Y21551836D01*
X38581752Y22020623D01*
X38316206Y22418042D01*
X38125000Y22545801D01*
X38125000Y23370406D01*
X38829594Y24075000D01*
X41447053Y24075000D01*
X41501240Y23943857D01*
X41501240Y23943857D01*
G37*
X41501240Y23943857D02*
X41794585Y23650000D01*
X40300000Y23650000D01*
X40089524Y23608134D01*
X39911091Y23488909D01*
X39601091Y23178909D01*
X39481866Y23000476D01*
X39440000Y22790000D01*
X39440000Y22629323D01*
X39123794Y22418042D01*
X38858248Y22020623D01*
X38765000Y21551836D01*
X38765000Y20688164D01*
X38858248Y20219377D01*
X39123794Y19821958D01*
X39521213Y19556412D01*
X39990000Y19463164D01*
X40458787Y19556412D01*
X40856206Y19821958D01*
X41121752Y20219377D01*
X41215000Y20688164D01*
X41215000Y21551836D01*
X41121752Y22020623D01*
X40856206Y22418042D01*
X40658716Y22550000D01*
X41861284Y22550000D01*
X41663794Y22418042D01*
X41398248Y22020623D01*
X41305000Y21551836D01*
X41305000Y20688164D01*
X41398248Y20219377D01*
X41663794Y19821958D01*
X41980000Y19610677D01*
X41980000Y19607817D01*
X41022182Y18650000D01*
X38068924Y18650000D01*
X38174874Y18905156D01*
X38175126Y19193579D01*
X38125000Y19314893D01*
X38125000Y19694199D01*
X38316206Y19821958D01*
X38581752Y20219377D01*
X38675000Y20688164D01*
X38675000Y21551836D01*
X38581752Y22020623D01*
X38316206Y22418042D01*
X38125000Y22545801D01*
X38125000Y23370406D01*
X38829594Y24075000D01*
X41447053Y24075000D01*
X41501240Y23943857D01*
G36*
X5485016Y29089857D02*
X5688784Y28885733D01*
X5810010Y28835396D01*
X6925000Y27720406D01*
X6925000Y23864954D01*
X6875126Y23744844D01*
X6874874Y23456421D01*
X6918846Y23350000D01*
X5500000Y23350000D01*
X5289524Y23308134D01*
X5111091Y23188909D01*
X4651091Y22728909D01*
X4628411Y22694965D01*
X4571213Y22683588D01*
X4173794Y22418042D01*
X3908248Y22020623D01*
X3815000Y21551836D01*
X3815000Y20688164D01*
X3908248Y20219377D01*
X4138353Y19875000D01*
X3401647Y19875000D01*
X3631752Y20219377D01*
X3725000Y20688164D01*
X3725000Y21551836D01*
X3631752Y22020623D01*
X3366206Y22418042D01*
X3175000Y22545801D01*
X3175000Y24720406D01*
X4369826Y25915232D01*
X4572083Y25875000D01*
X4827917Y25875000D01*
X5334973Y25975860D01*
X5764833Y26263084D01*
X6052057Y26692944D01*
X6152917Y27200000D01*
X6052057Y27707056D01*
X5764833Y28136916D01*
X5375000Y28397395D01*
X5375000Y29356116D01*
X5485016Y29089857D01*
X5485016Y29089857D01*
G37*
X5485016Y29089857D02*
X5688784Y28885733D01*
X5810010Y28835396D01*
X6925000Y27720406D01*
X6925000Y23864954D01*
X6875126Y23744844D01*
X6874874Y23456421D01*
X6918846Y23350000D01*
X5500000Y23350000D01*
X5289524Y23308134D01*
X5111091Y23188909D01*
X4651091Y22728909D01*
X4628411Y22694965D01*
X4571213Y22683588D01*
X4173794Y22418042D01*
X3908248Y22020623D01*
X3815000Y21551836D01*
X3815000Y20688164D01*
X3908248Y20219377D01*
X4138353Y19875000D01*
X3401647Y19875000D01*
X3631752Y20219377D01*
X3725000Y20688164D01*
X3725000Y21551836D01*
X3631752Y22020623D01*
X3366206Y22418042D01*
X3175000Y22545801D01*
X3175000Y24720406D01*
X4369826Y25915232D01*
X4572083Y25875000D01*
X4827917Y25875000D01*
X5334973Y25975860D01*
X5764833Y26263084D01*
X6052057Y26692944D01*
X6152917Y27200000D01*
X6052057Y27707056D01*
X5764833Y28136916D01*
X5375000Y28397395D01*
X5375000Y29356116D01*
X5485016Y29089857D01*
G36*
X10145000Y21145000D02*
X12635000Y21145000D01*
X12635000Y21165000D01*
X12685000Y21165000D01*
X12685000Y21145000D01*
X12705000Y21145000D01*
X12705000Y21095000D01*
X12685000Y21095000D01*
X12685000Y21075000D01*
X12635000Y21075000D01*
X12635000Y21095000D01*
X10145000Y21095000D01*
X10145000Y21075000D01*
X10095000Y21075000D01*
X10095000Y21095000D01*
X10075000Y21095000D01*
X10075000Y21145000D01*
X10095000Y21145000D01*
X10095000Y21165000D01*
X10145000Y21165000D01*
X10145000Y21145000D01*
X10145000Y21145000D01*
G37*
X10145000Y21145000D02*
X12635000Y21145000D01*
X12635000Y21165000D01*
X12685000Y21165000D01*
X12685000Y21145000D01*
X12705000Y21145000D01*
X12705000Y21095000D01*
X12685000Y21095000D01*
X12685000Y21075000D01*
X12635000Y21075000D01*
X12635000Y21095000D01*
X10145000Y21095000D01*
X10145000Y21075000D01*
X10095000Y21075000D01*
X10095000Y21095000D01*
X10075000Y21095000D01*
X10075000Y21145000D01*
X10095000Y21145000D01*
X10095000Y21165000D01*
X10145000Y21165000D01*
X10145000Y21145000D01*
G36*
X4088784Y30385733D02*
X4355156Y30275126D01*
X4360527Y30275121D01*
X4222703Y30137297D01*
X4076381Y29918312D01*
X4025000Y29660000D01*
X4025000Y28397395D01*
X3635167Y28136916D01*
X3347943Y27707056D01*
X3247083Y27200000D01*
X3329760Y26784354D01*
X2022703Y25477297D01*
X1876381Y25258312D01*
X1871695Y25234754D01*
X1825000Y25000000D01*
X1825000Y22545801D01*
X1633794Y22418042D01*
X1575000Y22330050D01*
X1575000Y27520406D01*
X3877297Y29822703D01*
X4023619Y30041688D01*
X4075000Y30300000D01*
X4075000Y30399541D01*
X4088784Y30385733D01*
X4088784Y30385733D01*
G37*
X4088784Y30385733D02*
X4355156Y30275126D01*
X4360527Y30275121D01*
X4222703Y30137297D01*
X4076381Y29918312D01*
X4025000Y29660000D01*
X4025000Y28397395D01*
X3635167Y28136916D01*
X3347943Y27707056D01*
X3247083Y27200000D01*
X3329760Y26784354D01*
X2022703Y25477297D01*
X1876381Y25258312D01*
X1871695Y25234754D01*
X1825000Y25000000D01*
X1825000Y22545801D01*
X1633794Y22418042D01*
X1575000Y22330050D01*
X1575000Y27520406D01*
X3877297Y29822703D01*
X4023619Y30041688D01*
X4075000Y30300000D01*
X4075000Y30399541D01*
X4088784Y30385733D01*
G36*
X11549498Y33514142D02*
X11535355Y33500000D01*
X12416016Y32619340D01*
X12625000Y32688476D01*
X12625000Y26200000D01*
X12676381Y25941688D01*
X12822703Y25722703D01*
X14525000Y24020406D01*
X14525000Y23764954D01*
X14475126Y23644844D01*
X14474874Y23356421D01*
X14477527Y23350000D01*
X8281210Y23350000D01*
X8324874Y23455156D01*
X8325126Y23743579D01*
X8275000Y23864893D01*
X8275000Y28000000D01*
X8223619Y28258311D01*
X8077297Y28477297D01*
X6764649Y29789945D01*
X6714984Y29910143D01*
X6550424Y30074991D01*
X6822206Y30074754D01*
X7346143Y30291240D01*
X7747351Y30691749D01*
X7802682Y30825000D01*
X8900000Y30825000D01*
X9158312Y30876381D01*
X9377297Y31022703D01*
X9977297Y31622703D01*
X10123619Y31841688D01*
X10175000Y32100000D01*
X10175000Y32216674D01*
X10350000Y32216674D01*
X10507496Y32246309D01*
X10652146Y32339389D01*
X10684562Y32386831D01*
X10696318Y32351294D01*
X11197085Y32131178D01*
X11743969Y32119453D01*
X12253710Y32317903D01*
X12303682Y32351294D01*
X12380660Y32583984D01*
X11500000Y33464645D01*
X11485858Y33450502D01*
X11450502Y33485858D01*
X11464645Y33500000D01*
X11450502Y33514142D01*
X11485858Y33549498D01*
X11500000Y33535355D01*
X11514142Y33549498D01*
X11549498Y33514142D01*
X11549498Y33514142D01*
G37*
X11549498Y33514142D02*
X11535355Y33500000D01*
X12416016Y32619340D01*
X12625000Y32688476D01*
X12625000Y26200000D01*
X12676381Y25941688D01*
X12822703Y25722703D01*
X14525000Y24020406D01*
X14525000Y23764954D01*
X14475126Y23644844D01*
X14474874Y23356421D01*
X14477527Y23350000D01*
X8281210Y23350000D01*
X8324874Y23455156D01*
X8325126Y23743579D01*
X8275000Y23864893D01*
X8275000Y28000000D01*
X8223619Y28258311D01*
X8077297Y28477297D01*
X6764649Y29789945D01*
X6714984Y29910143D01*
X6550424Y30074991D01*
X6822206Y30074754D01*
X7346143Y30291240D01*
X7747351Y30691749D01*
X7802682Y30825000D01*
X8900000Y30825000D01*
X9158312Y30876381D01*
X9377297Y31022703D01*
X9977297Y31622703D01*
X10123619Y31841688D01*
X10175000Y32100000D01*
X10175000Y32216674D01*
X10350000Y32216674D01*
X10507496Y32246309D01*
X10652146Y32339389D01*
X10684562Y32386831D01*
X10696318Y32351294D01*
X11197085Y32131178D01*
X11743969Y32119453D01*
X12253710Y32317903D01*
X12303682Y32351294D01*
X12380660Y32583984D01*
X11500000Y33464645D01*
X11485858Y33450502D01*
X11450502Y33485858D01*
X11464645Y33500000D01*
X11450502Y33514142D01*
X11485858Y33549498D01*
X11500000Y33535355D01*
X11514142Y33549498D01*
X11549498Y33514142D01*
G36*
X31340651Y27978469D02*
X31084693Y28084752D01*
X30517794Y28085246D01*
X29993857Y27868760D01*
X29592649Y27468251D01*
X29375248Y26944693D01*
X29374754Y26377794D01*
X29591240Y25853857D01*
X29991749Y25452649D01*
X30515307Y25235248D01*
X31082206Y25234754D01*
X31606143Y25451240D01*
X32007351Y25851749D01*
X32224752Y26375307D01*
X32225246Y26942206D01*
X32118462Y27200644D01*
X33200514Y28282696D01*
X33035248Y27884693D01*
X33034754Y27317794D01*
X33251240Y26793857D01*
X33651749Y26392649D01*
X34175307Y26175248D01*
X34742206Y26174754D01*
X35215876Y26370470D01*
X32445404Y23599998D01*
X27974913Y23599998D01*
X27975126Y23843579D01*
X27864984Y24110143D01*
X27661216Y24314267D01*
X27473509Y24392210D01*
X27531752Y24479377D01*
X27625000Y24948164D01*
X27625000Y25811836D01*
X27531752Y26280623D01*
X27454573Y26396130D01*
X27505156Y26375126D01*
X27793579Y26374874D01*
X28060143Y26485016D01*
X28264267Y26688784D01*
X28374874Y26955156D01*
X28374954Y27047136D01*
X30977818Y29650000D01*
X33012182Y29650000D01*
X31340651Y27978469D01*
X31340651Y27978469D01*
G37*
X31340651Y27978469D02*
X31084693Y28084752D01*
X30517794Y28085246D01*
X29993857Y27868760D01*
X29592649Y27468251D01*
X29375248Y26944693D01*
X29374754Y26377794D01*
X29591240Y25853857D01*
X29991749Y25452649D01*
X30515307Y25235248D01*
X31082206Y25234754D01*
X31606143Y25451240D01*
X32007351Y25851749D01*
X32224752Y26375307D01*
X32225246Y26942206D01*
X32118462Y27200644D01*
X33200514Y28282696D01*
X33035248Y27884693D01*
X33034754Y27317794D01*
X33251240Y26793857D01*
X33651749Y26392649D01*
X34175307Y26175248D01*
X34742206Y26174754D01*
X35215876Y26370470D01*
X32445404Y23599998D01*
X27974913Y23599998D01*
X27975126Y23843579D01*
X27864984Y24110143D01*
X27661216Y24314267D01*
X27473509Y24392210D01*
X27531752Y24479377D01*
X27625000Y24948164D01*
X27625000Y25811836D01*
X27531752Y26280623D01*
X27454573Y26396130D01*
X27505156Y26375126D01*
X27793579Y26374874D01*
X28060143Y26485016D01*
X28264267Y26688784D01*
X28374874Y26955156D01*
X28374954Y27047136D01*
X30977818Y29650000D01*
X33012182Y29650000D01*
X31340651Y27978469D01*
G36*
X20575126Y28144844D02*
X20574874Y27856421D01*
X20645000Y27686703D01*
X20645000Y26805801D01*
X20453794Y26678042D01*
X20188248Y26280623D01*
X20095000Y25811836D01*
X20095000Y24948164D01*
X20188248Y24479377D01*
X20274695Y24350000D01*
X19825305Y24350000D01*
X19911752Y24479377D01*
X20005000Y24948164D01*
X20005000Y25811836D01*
X19911752Y26280623D01*
X19646206Y26678042D01*
X19248787Y26943588D01*
X18780000Y27036836D01*
X18311213Y26943588D01*
X17913794Y26678042D01*
X17648248Y26280623D01*
X17555000Y25811836D01*
X17555000Y24948164D01*
X17648248Y24479377D01*
X17801823Y24249534D01*
X17711091Y24188909D01*
X17697229Y24175047D01*
X17606421Y24175126D01*
X17339857Y24064984D01*
X17193862Y23919244D01*
X17155155Y24012922D01*
X17195113Y26290519D01*
X19179594Y28275000D01*
X20629171Y28275000D01*
X20575126Y28144844D01*
X20575126Y28144844D01*
G37*
X20575126Y28144844D02*
X20574874Y27856421D01*
X20645000Y27686703D01*
X20645000Y26805801D01*
X20453794Y26678042D01*
X20188248Y26280623D01*
X20095000Y25811836D01*
X20095000Y24948164D01*
X20188248Y24479377D01*
X20274695Y24350000D01*
X19825305Y24350000D01*
X19911752Y24479377D01*
X20005000Y24948164D01*
X20005000Y25811836D01*
X19911752Y26280623D01*
X19646206Y26678042D01*
X19248787Y26943588D01*
X18780000Y27036836D01*
X18311213Y26943588D01*
X17913794Y26678042D01*
X17648248Y26280623D01*
X17555000Y25811836D01*
X17555000Y24948164D01*
X17648248Y24479377D01*
X17801823Y24249534D01*
X17711091Y24188909D01*
X17697229Y24175047D01*
X17606421Y24175126D01*
X17339857Y24064984D01*
X17193862Y23919244D01*
X17155155Y24012922D01*
X17195113Y26290519D01*
X19179594Y28275000D01*
X20629171Y28275000D01*
X20575126Y28144844D01*
G36*
X26011091Y27688909D02*
X25891866Y27510476D01*
X25850000Y27300000D01*
X25850000Y26889323D01*
X25533794Y26678042D01*
X25268248Y26280623D01*
X25175000Y25811836D01*
X25175000Y24948164D01*
X25268248Y24479377D01*
X25354695Y24350000D01*
X24905305Y24350000D01*
X24991752Y24479377D01*
X25085000Y24948164D01*
X25085000Y25811836D01*
X24991752Y26280623D01*
X24726206Y26678042D01*
X24328787Y26943588D01*
X23860000Y27036836D01*
X23391213Y26943588D01*
X22993794Y26678042D01*
X22728248Y26280623D01*
X22635000Y25811836D01*
X22635000Y24948164D01*
X22728248Y24479377D01*
X22814695Y24350000D01*
X22365305Y24350000D01*
X22451752Y24479377D01*
X22545000Y24948164D01*
X22545000Y25811836D01*
X22451752Y26280623D01*
X22186206Y26678042D01*
X21995000Y26805801D01*
X21995000Y27783211D01*
X22024874Y27855156D01*
X22025126Y28143579D01*
X21970824Y28275000D01*
X26597183Y28275000D01*
X26011091Y27688909D01*
X26011091Y27688909D01*
G37*
X26011091Y27688909D02*
X25891866Y27510476D01*
X25850000Y27300000D01*
X25850000Y26889323D01*
X25533794Y26678042D01*
X25268248Y26280623D01*
X25175000Y25811836D01*
X25175000Y24948164D01*
X25268248Y24479377D01*
X25354695Y24350000D01*
X24905305Y24350000D01*
X24991752Y24479377D01*
X25085000Y24948164D01*
X25085000Y25811836D01*
X24991752Y26280623D01*
X24726206Y26678042D01*
X24328787Y26943588D01*
X23860000Y27036836D01*
X23391213Y26943588D01*
X22993794Y26678042D01*
X22728248Y26280623D01*
X22635000Y25811836D01*
X22635000Y24948164D01*
X22728248Y24479377D01*
X22814695Y24350000D01*
X22365305Y24350000D01*
X22451752Y24479377D01*
X22545000Y24948164D01*
X22545000Y25811836D01*
X22451752Y26280623D01*
X22186206Y26678042D01*
X21995000Y26805801D01*
X21995000Y27783211D01*
X22024874Y27855156D01*
X22025126Y28143579D01*
X21970824Y28275000D01*
X26597183Y28275000D01*
X26011091Y27688909D01*
G36*
X46185285Y29475231D02*
X46696966Y29474784D01*
X46111091Y28888909D01*
X45991866Y28710476D01*
X45950000Y28500000D01*
X45950000Y26627818D01*
X44135055Y24812873D01*
X44135246Y25032206D01*
X43918760Y25556143D01*
X43518251Y25957351D01*
X42994693Y26174752D01*
X42427794Y26175246D01*
X41903857Y25958760D01*
X41502649Y25558251D01*
X41447318Y25425000D01*
X38550000Y25425000D01*
X38291688Y25373619D01*
X38072703Y25227297D01*
X38025000Y25179594D01*
X37825000Y25379594D01*
X37825000Y28537182D01*
X38221531Y28140651D01*
X38115248Y27884693D01*
X38114754Y27317794D01*
X38331240Y26793857D01*
X38731749Y26392649D01*
X39255307Y26175248D01*
X39822206Y26174754D01*
X40346143Y26391240D01*
X40747351Y26791749D01*
X40964752Y27315307D01*
X40965246Y27882206D01*
X40748760Y28406143D01*
X40348251Y28807351D01*
X40245541Y28850000D01*
X45050000Y28850000D01*
X45260476Y28891866D01*
X45438909Y29011091D01*
X45985858Y29558040D01*
X46185285Y29475231D01*
X46185285Y29475231D01*
G37*
X46185285Y29475231D02*
X46696966Y29474784D01*
X46111091Y28888909D01*
X45991866Y28710476D01*
X45950000Y28500000D01*
X45950000Y26627818D01*
X44135055Y24812873D01*
X44135246Y25032206D01*
X43918760Y25556143D01*
X43518251Y25957351D01*
X42994693Y26174752D01*
X42427794Y26175246D01*
X41903857Y25958760D01*
X41502649Y25558251D01*
X41447318Y25425000D01*
X38550000Y25425000D01*
X38291688Y25373619D01*
X38072703Y25227297D01*
X38025000Y25179594D01*
X37825000Y25379594D01*
X37825000Y28537182D01*
X38221531Y28140651D01*
X38115248Y27884693D01*
X38114754Y27317794D01*
X38331240Y26793857D01*
X38731749Y26392649D01*
X39255307Y26175248D01*
X39822206Y26174754D01*
X40346143Y26391240D01*
X40747351Y26791749D01*
X40964752Y27315307D01*
X40965246Y27882206D01*
X40748760Y28406143D01*
X40348251Y28807351D01*
X40245541Y28850000D01*
X45050000Y28850000D01*
X45260476Y28891866D01*
X45438909Y29011091D01*
X45985858Y29558040D01*
X46185285Y29475231D01*
G36*
X15075000Y40406250D02*
X15206250Y40275000D01*
X16475000Y40275000D01*
X16475000Y40295000D01*
X16525000Y40295000D01*
X16525000Y40275000D01*
X17793750Y40275000D01*
X17925000Y40406250D01*
X17925000Y40820406D01*
X18025000Y40720406D01*
X18025000Y39464954D01*
X17975126Y39344844D01*
X17974874Y39056421D01*
X18085016Y38789857D01*
X18288784Y38585733D01*
X18555156Y38475126D01*
X18843579Y38474874D01*
X19075000Y38570495D01*
X19075000Y37750000D01*
X19126381Y37491688D01*
X19272703Y37272703D01*
X20645000Y35900406D01*
X20645000Y34425801D01*
X20453794Y34298042D01*
X20188248Y33900623D01*
X20099052Y33452208D01*
X19994573Y33930153D01*
X19699238Y34354594D01*
X19263958Y34633707D01*
X19011931Y34704543D01*
X18805000Y34593488D01*
X18805000Y33025000D01*
X18825000Y33025000D01*
X18825000Y32975000D01*
X18805000Y32975000D01*
X18805000Y31406512D01*
X19011931Y31295457D01*
X19263958Y31366293D01*
X19699238Y31645406D01*
X19994573Y32069847D01*
X20099052Y32547792D01*
X20188248Y32099377D01*
X20453794Y31701958D01*
X20851213Y31436412D01*
X21320000Y31343164D01*
X21788787Y31436412D01*
X21925000Y31527426D01*
X21925000Y31329594D01*
X21010055Y30414649D01*
X20889857Y30364984D01*
X20685733Y30161216D01*
X20575126Y29894844D01*
X20574890Y29625000D01*
X18900000Y29625000D01*
X18641688Y29573619D01*
X18422703Y29427297D01*
X16293421Y27298015D01*
X16212057Y27707056D01*
X16185147Y27747329D01*
X16888909Y28451091D01*
X17008134Y28629524D01*
X17050000Y28840000D01*
X17050000Y32975000D01*
X17455000Y32975000D01*
X17455000Y32575000D01*
X17565427Y32069847D01*
X17860762Y31645406D01*
X18296042Y31366293D01*
X18548069Y31295457D01*
X18755000Y31406512D01*
X18755000Y32975000D01*
X17455000Y32975000D01*
X17050000Y32975000D01*
X17050000Y33425000D01*
X17455000Y33425000D01*
X17455000Y33025000D01*
X18755000Y33025000D01*
X18755000Y34593488D01*
X18548069Y34704543D01*
X18296042Y34633707D01*
X17860762Y34354594D01*
X17565427Y33930153D01*
X17455000Y33425000D01*
X17050000Y33425000D01*
X17050000Y36503604D01*
X17249572Y36586065D01*
X17622625Y36958468D01*
X17824769Y37445285D01*
X17825229Y37972402D01*
X17623935Y38459572D01*
X17259144Y38825000D01*
X17504429Y38825000D01*
X17697389Y38904926D01*
X17845074Y39052611D01*
X17925000Y39245571D01*
X17925000Y40093750D01*
X17793750Y40225000D01*
X16525000Y40225000D01*
X16525000Y40205000D01*
X16475000Y40205000D01*
X16475000Y40225000D01*
X15206250Y40225000D01*
X15075000Y40093750D01*
X15075000Y39245571D01*
X15154926Y39052611D01*
X15302611Y38904926D01*
X15495571Y38825000D01*
X15741477Y38825000D01*
X15377375Y38461532D01*
X15175231Y37974715D01*
X15174771Y37447598D01*
X15376065Y36960428D01*
X15748468Y36587375D01*
X15950000Y36503692D01*
X15950000Y29067818D01*
X15337621Y28455439D01*
X14987917Y28525000D01*
X14732083Y28525000D01*
X14225027Y28424140D01*
X13975000Y28257077D01*
X13975000Y34100000D01*
X13969033Y34130000D01*
X13923619Y34358312D01*
X13777297Y34577297D01*
X11664649Y36689945D01*
X11614984Y36810143D01*
X11411216Y37014267D01*
X11144844Y37124874D01*
X10856421Y37125126D01*
X10589857Y37014984D01*
X10425000Y36850415D01*
X10425000Y37846137D01*
X10588654Y37878690D01*
X11056148Y38191059D01*
X11285962Y38535000D01*
X12310000Y38535000D01*
X12568312Y38586381D01*
X12787297Y38732703D01*
X15075000Y41020406D01*
X15075000Y40406250D01*
X15075000Y40406250D01*
G37*
X15075000Y40406250D02*
X15206250Y40275000D01*
X16475000Y40275000D01*
X16475000Y40295000D01*
X16525000Y40295000D01*
X16525000Y40275000D01*
X17793750Y40275000D01*
X17925000Y40406250D01*
X17925000Y40820406D01*
X18025000Y40720406D01*
X18025000Y39464954D01*
X17975126Y39344844D01*
X17974874Y39056421D01*
X18085016Y38789857D01*
X18288784Y38585733D01*
X18555156Y38475126D01*
X18843579Y38474874D01*
X19075000Y38570495D01*
X19075000Y37750000D01*
X19126381Y37491688D01*
X19272703Y37272703D01*
X20645000Y35900406D01*
X20645000Y34425801D01*
X20453794Y34298042D01*
X20188248Y33900623D01*
X20099052Y33452208D01*
X19994573Y33930153D01*
X19699238Y34354594D01*
X19263958Y34633707D01*
X19011931Y34704543D01*
X18805000Y34593488D01*
X18805000Y33025000D01*
X18825000Y33025000D01*
X18825000Y32975000D01*
X18805000Y32975000D01*
X18805000Y31406512D01*
X19011931Y31295457D01*
X19263958Y31366293D01*
X19699238Y31645406D01*
X19994573Y32069847D01*
X20099052Y32547792D01*
X20188248Y32099377D01*
X20453794Y31701958D01*
X20851213Y31436412D01*
X21320000Y31343164D01*
X21788787Y31436412D01*
X21925000Y31527426D01*
X21925000Y31329594D01*
X21010055Y30414649D01*
X20889857Y30364984D01*
X20685733Y30161216D01*
X20575126Y29894844D01*
X20574890Y29625000D01*
X18900000Y29625000D01*
X18641688Y29573619D01*
X18422703Y29427297D01*
X16293421Y27298015D01*
X16212057Y27707056D01*
X16185147Y27747329D01*
X16888909Y28451091D01*
X17008134Y28629524D01*
X17050000Y28840000D01*
X17050000Y32975000D01*
X17455000Y32975000D01*
X17455000Y32575000D01*
X17565427Y32069847D01*
X17860762Y31645406D01*
X18296042Y31366293D01*
X18548069Y31295457D01*
X18755000Y31406512D01*
X18755000Y32975000D01*
X17455000Y32975000D01*
X17050000Y32975000D01*
X17050000Y33425000D01*
X17455000Y33425000D01*
X17455000Y33025000D01*
X18755000Y33025000D01*
X18755000Y34593488D01*
X18548069Y34704543D01*
X18296042Y34633707D01*
X17860762Y34354594D01*
X17565427Y33930153D01*
X17455000Y33425000D01*
X17050000Y33425000D01*
X17050000Y36503604D01*
X17249572Y36586065D01*
X17622625Y36958468D01*
X17824769Y37445285D01*
X17825229Y37972402D01*
X17623935Y38459572D01*
X17259144Y38825000D01*
X17504429Y38825000D01*
X17697389Y38904926D01*
X17845074Y39052611D01*
X17925000Y39245571D01*
X17925000Y40093750D01*
X17793750Y40225000D01*
X16525000Y40225000D01*
X16525000Y40205000D01*
X16475000Y40205000D01*
X16475000Y40225000D01*
X15206250Y40225000D01*
X15075000Y40093750D01*
X15075000Y39245571D01*
X15154926Y39052611D01*
X15302611Y38904926D01*
X15495571Y38825000D01*
X15741477Y38825000D01*
X15377375Y38461532D01*
X15175231Y37974715D01*
X15174771Y37447598D01*
X15376065Y36960428D01*
X15748468Y36587375D01*
X15950000Y36503692D01*
X15950000Y29067818D01*
X15337621Y28455439D01*
X14987917Y28525000D01*
X14732083Y28525000D01*
X14225027Y28424140D01*
X13975000Y28257077D01*
X13975000Y34100000D01*
X13969033Y34130000D01*
X13923619Y34358312D01*
X13777297Y34577297D01*
X11664649Y36689945D01*
X11614984Y36810143D01*
X11411216Y37014267D01*
X11144844Y37124874D01*
X10856421Y37125126D01*
X10589857Y37014984D01*
X10425000Y36850415D01*
X10425000Y37846137D01*
X10588654Y37878690D01*
X11056148Y38191059D01*
X11285962Y38535000D01*
X12310000Y38535000D01*
X12568312Y38586381D01*
X12787297Y38732703D01*
X15075000Y41020406D01*
X15075000Y40406250D01*
G36*
X48271373Y49362259D02*
X48925311Y48925311D01*
X49362259Y48271373D01*
X49525000Y47453217D01*
X49525000Y28829594D01*
X48864649Y29489945D01*
X48814984Y29610143D01*
X48611216Y29814267D01*
X48569440Y29831614D01*
X48608134Y29889524D01*
X48650000Y30100000D01*
X48650000Y44700000D01*
X48608134Y44910476D01*
X48488909Y45088909D01*
X46188909Y47388909D01*
X46010476Y47508134D01*
X45800000Y47550000D01*
X33800000Y47550000D01*
X33589524Y47508134D01*
X33411091Y47388909D01*
X32611091Y46588909D01*
X32491866Y46410476D01*
X32450000Y46200000D01*
X32450000Y45883326D01*
X32200000Y45883326D01*
X32042504Y45853691D01*
X31897854Y45760611D01*
X31800814Y45618588D01*
X31766674Y45450000D01*
X31766674Y44758833D01*
X31674573Y45180153D01*
X31379238Y45604594D01*
X30943958Y45883707D01*
X30691931Y45954543D01*
X30485000Y45843488D01*
X30485000Y44275000D01*
X30505000Y44275000D01*
X30505000Y44225000D01*
X30485000Y44225000D01*
X30485000Y42656512D01*
X30691931Y42545457D01*
X30943958Y42616293D01*
X31379238Y42895406D01*
X31674573Y43319847D01*
X31766674Y43741167D01*
X31766674Y43050000D01*
X31796309Y42892504D01*
X31889389Y42747854D01*
X32031412Y42650814D01*
X32200000Y42616674D01*
X33800000Y42616674D01*
X33957496Y42646309D01*
X34102146Y42739389D01*
X34199186Y42881412D01*
X34233326Y43050000D01*
X34233326Y45450000D01*
X34203691Y45607496D01*
X34110611Y45752146D01*
X33968588Y45849186D01*
X33800000Y45883326D01*
X33550000Y45883326D01*
X33550000Y45972182D01*
X34027818Y46450000D01*
X35946264Y46450000D01*
X35775860Y46194973D01*
X35675000Y45687917D01*
X35675000Y45432083D01*
X35775860Y44925027D01*
X36063084Y44495167D01*
X36450000Y44236637D01*
X36450000Y43222733D01*
X36444844Y43224874D01*
X36156421Y43225126D01*
X35889857Y43114984D01*
X35685733Y42911216D01*
X35635396Y42789990D01*
X33920406Y41075000D01*
X30875000Y41075000D01*
X30616688Y41023619D01*
X30397703Y40877297D01*
X30235055Y40714649D01*
X30114857Y40664984D01*
X29910733Y40461216D01*
X29800126Y40194844D01*
X29799874Y39906421D01*
X29808725Y39885000D01*
X23012947Y39885000D01*
X22958760Y40016143D01*
X22558251Y40417351D01*
X22034693Y40634752D01*
X21467794Y40635246D01*
X20943857Y40418760D01*
X20542649Y40018251D01*
X20425000Y39734922D01*
X20425000Y41750000D01*
X20395163Y41900000D01*
X20373619Y42008312D01*
X20227297Y42227297D01*
X19188772Y43265822D01*
X20761177Y43265822D01*
X20856410Y43017546D01*
X21411378Y42772444D01*
X22017897Y42758376D01*
X22583632Y42977484D01*
X22643590Y43017546D01*
X22738823Y43265822D01*
X21750000Y44254645D01*
X20761177Y43265822D01*
X19188772Y43265822D01*
X18429533Y44025061D01*
X18643579Y44024874D01*
X18764893Y44075000D01*
X19750000Y44075000D01*
X20008312Y44126381D01*
X20224140Y44270593D01*
X20218376Y44022103D01*
X20437484Y43456368D01*
X20477546Y43396410D01*
X20725822Y43301177D01*
X21714645Y44290000D01*
X21785355Y44290000D01*
X22774178Y43301177D01*
X23022454Y43396410D01*
X23267556Y43951378D01*
X23273902Y44225000D01*
X24055000Y44225000D01*
X24055000Y43825000D01*
X24165427Y43319847D01*
X24460762Y42895406D01*
X24896042Y42616293D01*
X25148069Y42545457D01*
X25355000Y42656512D01*
X25355000Y44225000D01*
X24055000Y44225000D01*
X23273902Y44225000D01*
X23281624Y44557897D01*
X23062516Y45123632D01*
X23022454Y45183590D01*
X22774178Y45278823D01*
X21785355Y44290000D01*
X21714645Y44290000D01*
X21700503Y44304142D01*
X21735858Y44339497D01*
X21750000Y44325355D01*
X22738823Y45314178D01*
X22643590Y45562454D01*
X22088622Y45807556D01*
X21769551Y45814957D01*
X21779594Y45825000D01*
X24804488Y45825000D01*
X24460762Y45604594D01*
X24165427Y45180153D01*
X24055000Y44675000D01*
X24055000Y44275000D01*
X25355000Y44275000D01*
X25355000Y44295000D01*
X25405000Y44295000D01*
X25405000Y44275000D01*
X25425000Y44275000D01*
X25425000Y44225000D01*
X25405000Y44225000D01*
X25405000Y42656512D01*
X25611931Y42545457D01*
X25863958Y42616293D01*
X26299238Y42895406D01*
X26594573Y43319847D01*
X26699052Y43797792D01*
X26788248Y43349377D01*
X27053794Y42951958D01*
X27451213Y42686412D01*
X27920000Y42593164D01*
X28388787Y42686412D01*
X28786206Y42951958D01*
X29051752Y43349377D01*
X29140948Y43797792D01*
X29245427Y43319847D01*
X29540762Y42895406D01*
X29976042Y42616293D01*
X30228069Y42545457D01*
X30435000Y42656512D01*
X30435000Y44225000D01*
X30415000Y44225000D01*
X30415000Y44275000D01*
X30435000Y44275000D01*
X30435000Y45843488D01*
X30228069Y45954543D01*
X29976042Y45883707D01*
X29540762Y45604594D01*
X29245427Y45180153D01*
X29140948Y44702208D01*
X29051752Y45150623D01*
X28786206Y45548042D01*
X28595000Y45675801D01*
X28595000Y45830000D01*
X28584317Y45883707D01*
X28543619Y46088312D01*
X28397297Y46307297D01*
X27727297Y46977297D01*
X27508312Y47123619D01*
X27250000Y47175000D01*
X21500000Y47175000D01*
X21241688Y47123619D01*
X21022703Y46977297D01*
X19470406Y45425000D01*
X18764954Y45425000D01*
X18644844Y45474874D01*
X18356421Y45475126D01*
X18225000Y45420824D01*
X18225000Y47237053D01*
X18356143Y47291240D01*
X18757351Y47691749D01*
X18974752Y48215307D01*
X18975246Y48782206D01*
X18758760Y49306143D01*
X18540284Y49525000D01*
X47453217Y49525000D01*
X48271373Y49362259D01*
X48271373Y49362259D01*
G37*
X48271373Y49362259D02*
X48925311Y48925311D01*
X49362259Y48271373D01*
X49525000Y47453217D01*
X49525000Y28829594D01*
X48864649Y29489945D01*
X48814984Y29610143D01*
X48611216Y29814267D01*
X48569440Y29831614D01*
X48608134Y29889524D01*
X48650000Y30100000D01*
X48650000Y44700000D01*
X48608134Y44910476D01*
X48488909Y45088909D01*
X46188909Y47388909D01*
X46010476Y47508134D01*
X45800000Y47550000D01*
X33800000Y47550000D01*
X33589524Y47508134D01*
X33411091Y47388909D01*
X32611091Y46588909D01*
X32491866Y46410476D01*
X32450000Y46200000D01*
X32450000Y45883326D01*
X32200000Y45883326D01*
X32042504Y45853691D01*
X31897854Y45760611D01*
X31800814Y45618588D01*
X31766674Y45450000D01*
X31766674Y44758833D01*
X31674573Y45180153D01*
X31379238Y45604594D01*
X30943958Y45883707D01*
X30691931Y45954543D01*
X30485000Y45843488D01*
X30485000Y44275000D01*
X30505000Y44275000D01*
X30505000Y44225000D01*
X30485000Y44225000D01*
X30485000Y42656512D01*
X30691931Y42545457D01*
X30943958Y42616293D01*
X31379238Y42895406D01*
X31674573Y43319847D01*
X31766674Y43741167D01*
X31766674Y43050000D01*
X31796309Y42892504D01*
X31889389Y42747854D01*
X32031412Y42650814D01*
X32200000Y42616674D01*
X33800000Y42616674D01*
X33957496Y42646309D01*
X34102146Y42739389D01*
X34199186Y42881412D01*
X34233326Y43050000D01*
X34233326Y45450000D01*
X34203691Y45607496D01*
X34110611Y45752146D01*
X33968588Y45849186D01*
X33800000Y45883326D01*
X33550000Y45883326D01*
X33550000Y45972182D01*
X34027818Y46450000D01*
X35946264Y46450000D01*
X35775860Y46194973D01*
X35675000Y45687917D01*
X35675000Y45432083D01*
X35775860Y44925027D01*
X36063084Y44495167D01*
X36450000Y44236637D01*
X36450000Y43222733D01*
X36444844Y43224874D01*
X36156421Y43225126D01*
X35889857Y43114984D01*
X35685733Y42911216D01*
X35635396Y42789990D01*
X33920406Y41075000D01*
X30875000Y41075000D01*
X30616688Y41023619D01*
X30397703Y40877297D01*
X30235055Y40714649D01*
X30114857Y40664984D01*
X29910733Y40461216D01*
X29800126Y40194844D01*
X29799874Y39906421D01*
X29808725Y39885000D01*
X23012947Y39885000D01*
X22958760Y40016143D01*
X22558251Y40417351D01*
X22034693Y40634752D01*
X21467794Y40635246D01*
X20943857Y40418760D01*
X20542649Y40018251D01*
X20425000Y39734922D01*
X20425000Y41750000D01*
X20395163Y41900000D01*
X20373619Y42008312D01*
X20227297Y42227297D01*
X19188772Y43265822D01*
X20761177Y43265822D01*
X20856410Y43017546D01*
X21411378Y42772444D01*
X22017897Y42758376D01*
X22583632Y42977484D01*
X22643590Y43017546D01*
X22738823Y43265822D01*
X21750000Y44254645D01*
X20761177Y43265822D01*
X19188772Y43265822D01*
X18429533Y44025061D01*
X18643579Y44024874D01*
X18764893Y44075000D01*
X19750000Y44075000D01*
X20008312Y44126381D01*
X20224140Y44270593D01*
X20218376Y44022103D01*
X20437484Y43456368D01*
X20477546Y43396410D01*
X20725822Y43301177D01*
X21714645Y44290000D01*
X21785355Y44290000D01*
X22774178Y43301177D01*
X23022454Y43396410D01*
X23267556Y43951378D01*
X23273902Y44225000D01*
X24055000Y44225000D01*
X24055000Y43825000D01*
X24165427Y43319847D01*
X24460762Y42895406D01*
X24896042Y42616293D01*
X25148069Y42545457D01*
X25355000Y42656512D01*
X25355000Y44225000D01*
X24055000Y44225000D01*
X23273902Y44225000D01*
X23281624Y44557897D01*
X23062516Y45123632D01*
X23022454Y45183590D01*
X22774178Y45278823D01*
X21785355Y44290000D01*
X21714645Y44290000D01*
X21700503Y44304142D01*
X21735858Y44339497D01*
X21750000Y44325355D01*
X22738823Y45314178D01*
X22643590Y45562454D01*
X22088622Y45807556D01*
X21769551Y45814957D01*
X21779594Y45825000D01*
X24804488Y45825000D01*
X24460762Y45604594D01*
X24165427Y45180153D01*
X24055000Y44675000D01*
X24055000Y44275000D01*
X25355000Y44275000D01*
X25355000Y44295000D01*
X25405000Y44295000D01*
X25405000Y44275000D01*
X25425000Y44275000D01*
X25425000Y44225000D01*
X25405000Y44225000D01*
X25405000Y42656512D01*
X25611931Y42545457D01*
X25863958Y42616293D01*
X26299238Y42895406D01*
X26594573Y43319847D01*
X26699052Y43797792D01*
X26788248Y43349377D01*
X27053794Y42951958D01*
X27451213Y42686412D01*
X27920000Y42593164D01*
X28388787Y42686412D01*
X28786206Y42951958D01*
X29051752Y43349377D01*
X29140948Y43797792D01*
X29245427Y43319847D01*
X29540762Y42895406D01*
X29976042Y42616293D01*
X30228069Y42545457D01*
X30435000Y42656512D01*
X30435000Y44225000D01*
X30415000Y44225000D01*
X30415000Y44275000D01*
X30435000Y44275000D01*
X30435000Y45843488D01*
X30228069Y45954543D01*
X29976042Y45883707D01*
X29540762Y45604594D01*
X29245427Y45180153D01*
X29140948Y44702208D01*
X29051752Y45150623D01*
X28786206Y45548042D01*
X28595000Y45675801D01*
X28595000Y45830000D01*
X28584317Y45883707D01*
X28543619Y46088312D01*
X28397297Y46307297D01*
X27727297Y46977297D01*
X27508312Y47123619D01*
X27250000Y47175000D01*
X21500000Y47175000D01*
X21241688Y47123619D01*
X21022703Y46977297D01*
X19470406Y45425000D01*
X18764954Y45425000D01*
X18644844Y45474874D01*
X18356421Y45475126D01*
X18225000Y45420824D01*
X18225000Y47237053D01*
X18356143Y47291240D01*
X18757351Y47691749D01*
X18974752Y48215307D01*
X18975246Y48782206D01*
X18758760Y49306143D01*
X18540284Y49525000D01*
X47453217Y49525000D01*
X48271373Y49362259D01*
G36*
X28425126Y38344844D02*
X28424973Y38169410D01*
X28388787Y38193588D01*
X27920000Y38286836D01*
X27451213Y38193588D01*
X27053794Y37928042D01*
X26788248Y37530623D01*
X26695000Y37061836D01*
X26695000Y36198164D01*
X26788248Y35729377D01*
X27053794Y35331958D01*
X27451213Y35066412D01*
X27920000Y34973164D01*
X28388787Y35066412D01*
X28525000Y35157426D01*
X28525000Y33654594D01*
X27633326Y32762920D01*
X27633326Y34200000D01*
X27603691Y34357496D01*
X27510611Y34502146D01*
X27368588Y34599186D01*
X27200000Y34633326D01*
X25600000Y34633326D01*
X25442504Y34603691D01*
X25297854Y34510611D01*
X25200814Y34368588D01*
X25166674Y34200000D01*
X25166674Y33508833D01*
X25074573Y33930153D01*
X24779238Y34354594D01*
X24343958Y34633707D01*
X24091931Y34704543D01*
X23885000Y34593488D01*
X23885000Y33025000D01*
X23905000Y33025000D01*
X23905000Y32975000D01*
X23885000Y32975000D01*
X23885000Y31406512D01*
X24091931Y31295457D01*
X24343958Y31366293D01*
X24779238Y31645406D01*
X25074573Y32069847D01*
X25166674Y32491167D01*
X25166674Y31800000D01*
X25196309Y31642504D01*
X25289389Y31497854D01*
X25431412Y31400814D01*
X25600000Y31366674D01*
X27200000Y31366674D01*
X27225000Y31371378D01*
X27225000Y30229594D01*
X26620406Y29625000D01*
X22129594Y29625000D01*
X23077297Y30572703D01*
X23223619Y30791688D01*
X23275000Y31050000D01*
X23275000Y31431084D01*
X23376042Y31366293D01*
X23628069Y31295457D01*
X23835000Y31406512D01*
X23835000Y32975000D01*
X23815000Y32975000D01*
X23815000Y33025000D01*
X23835000Y33025000D01*
X23835000Y34593488D01*
X23628069Y34704543D01*
X23376042Y34633707D01*
X23275000Y34568916D01*
X23275000Y36350000D01*
X23223619Y36608311D01*
X23077297Y36827297D01*
X22842758Y37061836D01*
X24155000Y37061836D01*
X24155000Y36198164D01*
X24248248Y35729377D01*
X24513794Y35331958D01*
X24911213Y35066412D01*
X25380000Y34973164D01*
X25848787Y35066412D01*
X26246206Y35331958D01*
X26511752Y35729377D01*
X26605000Y36198164D01*
X26605000Y37061836D01*
X26511752Y37530623D01*
X26246206Y37928042D01*
X25848787Y38193588D01*
X25380000Y38286836D01*
X24911213Y38193588D01*
X24513794Y37928042D01*
X24248248Y37530623D01*
X24155000Y37061836D01*
X22842758Y37061836D01*
X22425000Y37479594D01*
X22425000Y37947053D01*
X22556143Y38001240D01*
X22957351Y38401749D01*
X23012682Y38535000D01*
X28504085Y38535000D01*
X28425126Y38344844D01*
X28425126Y38344844D01*
G37*
X28425126Y38344844D02*
X28424973Y38169410D01*
X28388787Y38193588D01*
X27920000Y38286836D01*
X27451213Y38193588D01*
X27053794Y37928042D01*
X26788248Y37530623D01*
X26695000Y37061836D01*
X26695000Y36198164D01*
X26788248Y35729377D01*
X27053794Y35331958D01*
X27451213Y35066412D01*
X27920000Y34973164D01*
X28388787Y35066412D01*
X28525000Y35157426D01*
X28525000Y33654594D01*
X27633326Y32762920D01*
X27633326Y34200000D01*
X27603691Y34357496D01*
X27510611Y34502146D01*
X27368588Y34599186D01*
X27200000Y34633326D01*
X25600000Y34633326D01*
X25442504Y34603691D01*
X25297854Y34510611D01*
X25200814Y34368588D01*
X25166674Y34200000D01*
X25166674Y33508833D01*
X25074573Y33930153D01*
X24779238Y34354594D01*
X24343958Y34633707D01*
X24091931Y34704543D01*
X23885000Y34593488D01*
X23885000Y33025000D01*
X23905000Y33025000D01*
X23905000Y32975000D01*
X23885000Y32975000D01*
X23885000Y31406512D01*
X24091931Y31295457D01*
X24343958Y31366293D01*
X24779238Y31645406D01*
X25074573Y32069847D01*
X25166674Y32491167D01*
X25166674Y31800000D01*
X25196309Y31642504D01*
X25289389Y31497854D01*
X25431412Y31400814D01*
X25600000Y31366674D01*
X27200000Y31366674D01*
X27225000Y31371378D01*
X27225000Y30229594D01*
X26620406Y29625000D01*
X22129594Y29625000D01*
X23077297Y30572703D01*
X23223619Y30791688D01*
X23275000Y31050000D01*
X23275000Y31431084D01*
X23376042Y31366293D01*
X23628069Y31295457D01*
X23835000Y31406512D01*
X23835000Y32975000D01*
X23815000Y32975000D01*
X23815000Y33025000D01*
X23835000Y33025000D01*
X23835000Y34593488D01*
X23628069Y34704543D01*
X23376042Y34633707D01*
X23275000Y34568916D01*
X23275000Y36350000D01*
X23223619Y36608311D01*
X23077297Y36827297D01*
X22842758Y37061836D01*
X24155000Y37061836D01*
X24155000Y36198164D01*
X24248248Y35729377D01*
X24513794Y35331958D01*
X24911213Y35066412D01*
X25380000Y34973164D01*
X25848787Y35066412D01*
X26246206Y35331958D01*
X26511752Y35729377D01*
X26605000Y36198164D01*
X26605000Y37061836D01*
X26511752Y37530623D01*
X26246206Y37928042D01*
X25848787Y38193588D01*
X25380000Y38286836D01*
X24911213Y38193588D01*
X24513794Y37928042D01*
X24248248Y37530623D01*
X24155000Y37061836D01*
X22842758Y37061836D01*
X22425000Y37479594D01*
X22425000Y37947053D01*
X22556143Y38001240D01*
X22957351Y38401749D01*
X23012682Y38535000D01*
X28504085Y38535000D01*
X28425126Y38344844D01*
G36*
X47550000Y44472182D02*
X47550000Y31573549D01*
X47201532Y31922625D01*
X46714715Y32124769D01*
X46187598Y32125229D01*
X45700428Y31923935D01*
X45327375Y31551532D01*
X45283326Y31445450D01*
X45283326Y31700000D01*
X45253691Y31857496D01*
X45160611Y32002146D01*
X45018588Y32099186D01*
X44850000Y32133326D01*
X43050000Y32133326D01*
X42892504Y32103691D01*
X42747854Y32010611D01*
X42650814Y31868588D01*
X42616674Y31700000D01*
X42616674Y31350000D01*
X42400000Y31350000D01*
X42189524Y31308134D01*
X42011091Y31188909D01*
X41572182Y30750000D01*
X40442203Y30750000D01*
X40528823Y30975822D01*
X39540000Y31964645D01*
X39525858Y31950502D01*
X39490503Y31985857D01*
X39504645Y32000000D01*
X39575355Y32000000D01*
X40564178Y31011177D01*
X40812454Y31106410D01*
X41057556Y31661378D01*
X41071624Y32267897D01*
X40852516Y32833632D01*
X40812454Y32893590D01*
X40564178Y32988823D01*
X39575355Y32000000D01*
X39504645Y32000000D01*
X39490503Y32014142D01*
X39525858Y32049497D01*
X39540000Y32035355D01*
X40528823Y33024178D01*
X40490150Y33125000D01*
X41750000Y33125000D01*
X42008312Y33176381D01*
X42227297Y33322703D01*
X43977297Y35072703D01*
X44123619Y35291688D01*
X44175000Y35550000D01*
X44175000Y39363931D01*
X44196704Y39368248D01*
X44594123Y39633794D01*
X44859669Y40031213D01*
X44952917Y40500000D01*
X44859669Y40968787D01*
X44594123Y41366206D01*
X44393885Y41500000D01*
X44594123Y41633794D01*
X44859669Y42031213D01*
X44952917Y42500000D01*
X44859669Y42968787D01*
X44594123Y43366206D01*
X44196704Y43631752D01*
X43727917Y43725000D01*
X43272083Y43725000D01*
X42803296Y43631752D01*
X42405877Y43366206D01*
X42278118Y43175000D01*
X39964954Y43175000D01*
X39844844Y43224874D01*
X39556421Y43225126D01*
X39450000Y43181154D01*
X39450000Y43632182D01*
X40052671Y44234853D01*
X40092944Y44207943D01*
X40600000Y44107083D01*
X41107056Y44207943D01*
X41536916Y44495167D01*
X41824140Y44925027D01*
X41925000Y45432083D01*
X41925000Y45687917D01*
X41824140Y46194973D01*
X41653736Y46450000D01*
X45572182Y46450000D01*
X47550000Y44472182D01*
X47550000Y44472182D01*
G37*
X47550000Y44472182D02*
X47550000Y31573549D01*
X47201532Y31922625D01*
X46714715Y32124769D01*
X46187598Y32125229D01*
X45700428Y31923935D01*
X45327375Y31551532D01*
X45283326Y31445450D01*
X45283326Y31700000D01*
X45253691Y31857496D01*
X45160611Y32002146D01*
X45018588Y32099186D01*
X44850000Y32133326D01*
X43050000Y32133326D01*
X42892504Y32103691D01*
X42747854Y32010611D01*
X42650814Y31868588D01*
X42616674Y31700000D01*
X42616674Y31350000D01*
X42400000Y31350000D01*
X42189524Y31308134D01*
X42011091Y31188909D01*
X41572182Y30750000D01*
X40442203Y30750000D01*
X40528823Y30975822D01*
X39540000Y31964645D01*
X39525858Y31950502D01*
X39490503Y31985857D01*
X39504645Y32000000D01*
X39575355Y32000000D01*
X40564178Y31011177D01*
X40812454Y31106410D01*
X41057556Y31661378D01*
X41071624Y32267897D01*
X40852516Y32833632D01*
X40812454Y32893590D01*
X40564178Y32988823D01*
X39575355Y32000000D01*
X39504645Y32000000D01*
X39490503Y32014142D01*
X39525858Y32049497D01*
X39540000Y32035355D01*
X40528823Y33024178D01*
X40490150Y33125000D01*
X41750000Y33125000D01*
X42008312Y33176381D01*
X42227297Y33322703D01*
X43977297Y35072703D01*
X44123619Y35291688D01*
X44175000Y35550000D01*
X44175000Y39363931D01*
X44196704Y39368248D01*
X44594123Y39633794D01*
X44859669Y40031213D01*
X44952917Y40500000D01*
X44859669Y40968787D01*
X44594123Y41366206D01*
X44393885Y41500000D01*
X44594123Y41633794D01*
X44859669Y42031213D01*
X44952917Y42500000D01*
X44859669Y42968787D01*
X44594123Y43366206D01*
X44196704Y43631752D01*
X43727917Y43725000D01*
X43272083Y43725000D01*
X42803296Y43631752D01*
X42405877Y43366206D01*
X42278118Y43175000D01*
X39964954Y43175000D01*
X39844844Y43224874D01*
X39556421Y43225126D01*
X39450000Y43181154D01*
X39450000Y43632182D01*
X40052671Y44234853D01*
X40092944Y44207943D01*
X40600000Y44107083D01*
X41107056Y44207943D01*
X41536916Y44495167D01*
X41824140Y44925027D01*
X41925000Y45432083D01*
X41925000Y45687917D01*
X41824140Y46194973D01*
X41653736Y46450000D01*
X45572182Y46450000D01*
X47550000Y44472182D01*
G36*
X35775860Y34765027D02*
X36063084Y34335167D01*
X36492944Y34047943D01*
X36493282Y34047876D01*
X35822703Y33377297D01*
X35676381Y33158312D01*
X35649864Y33025000D01*
X35625000Y32900000D01*
X35625000Y32849979D01*
X35268251Y33207351D01*
X34744693Y33424752D01*
X34177794Y33425246D01*
X33653857Y33208760D01*
X33252649Y32808251D01*
X33035248Y32284693D01*
X33034754Y31717794D01*
X33251240Y31193857D01*
X33651749Y30792649D01*
X33754459Y30750000D01*
X31825285Y30750000D01*
X32007351Y30931749D01*
X32224752Y31455307D01*
X32225094Y31847276D01*
X35227817Y34850000D01*
X35758958Y34850000D01*
X35775860Y34765027D01*
X35775860Y34765027D01*
G37*
X35775860Y34765027D02*
X36063084Y34335167D01*
X36492944Y34047943D01*
X36493282Y34047876D01*
X35822703Y33377297D01*
X35676381Y33158312D01*
X35649864Y33025000D01*
X35625000Y32900000D01*
X35625000Y32849979D01*
X35268251Y33207351D01*
X34744693Y33424752D01*
X34177794Y33425246D01*
X33653857Y33208760D01*
X33252649Y32808251D01*
X33035248Y32284693D01*
X33034754Y31717794D01*
X33251240Y31193857D01*
X33651749Y30792649D01*
X33754459Y30750000D01*
X31825285Y30750000D01*
X32007351Y30931749D01*
X32224752Y31455307D01*
X32225094Y31847276D01*
X35227817Y34850000D01*
X35758958Y34850000D01*
X35775860Y34765027D01*
G36*
X1509498Y31514142D02*
X1495355Y31500000D01*
X1509498Y31485857D01*
X1474143Y31450502D01*
X1460000Y31464645D01*
X1445858Y31450502D01*
X1410503Y31485857D01*
X1424645Y31500000D01*
X1410503Y31514142D01*
X1445858Y31549497D01*
X1460000Y31535355D01*
X1474143Y31549497D01*
X1509498Y31514142D01*
X1509498Y31514142D01*
G37*
X1509498Y31514142D02*
X1495355Y31500000D01*
X1509498Y31485857D01*
X1474143Y31450502D01*
X1460000Y31464645D01*
X1445858Y31450502D01*
X1410503Y31485857D01*
X1424645Y31500000D01*
X1410503Y31514142D01*
X1445858Y31549497D01*
X1460000Y31535355D01*
X1474143Y31549497D01*
X1509498Y31514142D01*
G36*
X7325000Y37100000D02*
X7376381Y36841688D01*
X7522703Y36622703D01*
X8035351Y36110055D01*
X8085016Y35989857D01*
X8288784Y35785733D01*
X8555156Y35675126D01*
X8843579Y35674874D01*
X9075000Y35770495D01*
X9075000Y34783326D01*
X8650000Y34783326D01*
X8492504Y34753691D01*
X8347854Y34660611D01*
X8250814Y34518588D01*
X8216674Y34350000D01*
X8216674Y32650000D01*
X8246309Y32492504D01*
X8339389Y32347854D01*
X8481412Y32250814D01*
X8650000Y32216674D01*
X8662080Y32216674D01*
X8620406Y32175000D01*
X7802947Y32175000D01*
X7748760Y32306143D01*
X7348251Y32707351D01*
X6824693Y32924752D01*
X6257794Y32925246D01*
X5733857Y32708760D01*
X5332649Y32308251D01*
X5175000Y31928591D01*
X5175000Y33475822D01*
X5551177Y33475822D01*
X5646410Y33227546D01*
X6201378Y32982444D01*
X6807897Y32968376D01*
X7373632Y33187484D01*
X7433590Y33227546D01*
X7528823Y33475822D01*
X6540000Y34464645D01*
X5551177Y33475822D01*
X5175000Y33475822D01*
X5175000Y33801881D01*
X5227484Y33666368D01*
X5267546Y33606410D01*
X5515822Y33511177D01*
X6504645Y34500000D01*
X6575355Y34500000D01*
X7564178Y33511177D01*
X7812454Y33606410D01*
X8057556Y34161378D01*
X8071624Y34767897D01*
X7852516Y35333632D01*
X7812454Y35393590D01*
X7564178Y35488823D01*
X6575355Y34500000D01*
X6504645Y34500000D01*
X6490503Y34514142D01*
X6525858Y34549497D01*
X6540000Y34535355D01*
X7528823Y35524178D01*
X7433590Y35772454D01*
X6878622Y36017556D01*
X6272103Y36031624D01*
X5706368Y35812516D01*
X5646410Y35772454D01*
X5551178Y35524180D01*
X5464976Y35610382D01*
X6977297Y37122703D01*
X7123619Y37341688D01*
X7175000Y37600000D01*
X7175000Y39363931D01*
X7196704Y39368248D01*
X7325000Y39453972D01*
X7325000Y37100000D01*
X7325000Y37100000D01*
G37*
X7325000Y37100000D02*
X7376381Y36841688D01*
X7522703Y36622703D01*
X8035351Y36110055D01*
X8085016Y35989857D01*
X8288784Y35785733D01*
X8555156Y35675126D01*
X8843579Y35674874D01*
X9075000Y35770495D01*
X9075000Y34783326D01*
X8650000Y34783326D01*
X8492504Y34753691D01*
X8347854Y34660611D01*
X8250814Y34518588D01*
X8216674Y34350000D01*
X8216674Y32650000D01*
X8246309Y32492504D01*
X8339389Y32347854D01*
X8481412Y32250814D01*
X8650000Y32216674D01*
X8662080Y32216674D01*
X8620406Y32175000D01*
X7802947Y32175000D01*
X7748760Y32306143D01*
X7348251Y32707351D01*
X6824693Y32924752D01*
X6257794Y32925246D01*
X5733857Y32708760D01*
X5332649Y32308251D01*
X5175000Y31928591D01*
X5175000Y33475822D01*
X5551177Y33475822D01*
X5646410Y33227546D01*
X6201378Y32982444D01*
X6807897Y32968376D01*
X7373632Y33187484D01*
X7433590Y33227546D01*
X7528823Y33475822D01*
X6540000Y34464645D01*
X5551177Y33475822D01*
X5175000Y33475822D01*
X5175000Y33801881D01*
X5227484Y33666368D01*
X5267546Y33606410D01*
X5515822Y33511177D01*
X6504645Y34500000D01*
X6575355Y34500000D01*
X7564178Y33511177D01*
X7812454Y33606410D01*
X8057556Y34161378D01*
X8071624Y34767897D01*
X7852516Y35333632D01*
X7812454Y35393590D01*
X7564178Y35488823D01*
X6575355Y34500000D01*
X6504645Y34500000D01*
X6490503Y34514142D01*
X6525858Y34549497D01*
X6540000Y34535355D01*
X7528823Y35524178D01*
X7433590Y35772454D01*
X6878622Y36017556D01*
X6272103Y36031624D01*
X5706368Y35812516D01*
X5646410Y35772454D01*
X5551178Y35524180D01*
X5464976Y35610382D01*
X6977297Y37122703D01*
X7123619Y37341688D01*
X7175000Y37600000D01*
X7175000Y39363931D01*
X7196704Y39368248D01*
X7325000Y39453972D01*
X7325000Y37100000D01*
G36*
X5405877Y43366206D02*
X5140331Y42968787D01*
X5047083Y42500000D01*
X5140331Y42031213D01*
X5405877Y41633794D01*
X5606115Y41500000D01*
X5405877Y41366206D01*
X5140331Y40968787D01*
X5047083Y40500000D01*
X5140331Y40031213D01*
X5405877Y39633794D01*
X5803296Y39368248D01*
X5825000Y39363931D01*
X5825000Y37879594D01*
X4022703Y36077297D01*
X3876381Y35858312D01*
X3850139Y35726381D01*
X3825000Y35600000D01*
X3825000Y33089594D01*
X2830336Y34084258D01*
X2884752Y34215307D01*
X2885246Y34782206D01*
X2668760Y35306143D01*
X2268251Y35707351D01*
X2135000Y35762682D01*
X2135000Y41980406D01*
X3769594Y43615000D01*
X5778225Y43615000D01*
X5405877Y43366206D01*
X5405877Y43366206D01*
G37*
X5405877Y43366206D02*
X5140331Y42968787D01*
X5047083Y42500000D01*
X5140331Y42031213D01*
X5405877Y41633794D01*
X5606115Y41500000D01*
X5405877Y41366206D01*
X5140331Y40968787D01*
X5047083Y40500000D01*
X5140331Y40031213D01*
X5405877Y39633794D01*
X5803296Y39368248D01*
X5825000Y39363931D01*
X5825000Y37879594D01*
X4022703Y36077297D01*
X3876381Y35858312D01*
X3850139Y35726381D01*
X3825000Y35600000D01*
X3825000Y33089594D01*
X2830336Y34084258D01*
X2884752Y34215307D01*
X2885246Y34782206D01*
X2668760Y35306143D01*
X2268251Y35707351D01*
X2135000Y35762682D01*
X2135000Y41980406D01*
X3769594Y43615000D01*
X5778225Y43615000D01*
X5405877Y43366206D01*
G36*
X32303782Y38041624D02*
X32133794Y37928042D01*
X31868248Y37530623D01*
X31775000Y37061836D01*
X31775000Y36198164D01*
X31868248Y35729377D01*
X32133794Y35331958D01*
X32531213Y35066412D01*
X32996118Y34973936D01*
X31972182Y33950000D01*
X30200005Y33950000D01*
X30200000Y33950001D01*
X29989524Y33908134D01*
X29875000Y33831612D01*
X29875000Y35144063D01*
X29991213Y35066412D01*
X30460000Y34973164D01*
X30928787Y35066412D01*
X31326206Y35331958D01*
X31591752Y35729377D01*
X31685000Y36198164D01*
X31685000Y37061836D01*
X31591752Y37530623D01*
X31326206Y37928042D01*
X30928787Y38193588D01*
X30460000Y38286836D01*
X29991213Y38193588D01*
X29875000Y38115937D01*
X29875000Y38150000D01*
X29874957Y38150216D01*
X29875126Y38343579D01*
X29796032Y38535000D01*
X31810406Y38535000D01*
X32303782Y38041624D01*
X32303782Y38041624D01*
G37*
X32303782Y38041624D02*
X32133794Y37928042D01*
X31868248Y37530623D01*
X31775000Y37061836D01*
X31775000Y36198164D01*
X31868248Y35729377D01*
X32133794Y35331958D01*
X32531213Y35066412D01*
X32996118Y34973936D01*
X31972182Y33950000D01*
X30200005Y33950000D01*
X30200000Y33950001D01*
X29989524Y33908134D01*
X29875000Y33831612D01*
X29875000Y35144063D01*
X29991213Y35066412D01*
X30460000Y34973164D01*
X30928787Y35066412D01*
X31326206Y35331958D01*
X31591752Y35729377D01*
X31685000Y36198164D01*
X31685000Y37061836D01*
X31591752Y37530623D01*
X31326206Y37928042D01*
X30928787Y38193588D01*
X30460000Y38286836D01*
X29991213Y38193588D01*
X29875000Y38115937D01*
X29875000Y38150000D01*
X29874957Y38150216D01*
X29875126Y38343579D01*
X29796032Y38535000D01*
X31810406Y38535000D01*
X32303782Y38041624D01*
G36*
X39375860Y46194973D02*
X39275000Y45687917D01*
X39275000Y45432083D01*
X39344561Y45082379D01*
X38511091Y44248909D01*
X38391866Y44070476D01*
X38350000Y43860000D01*
X38350000Y34727817D01*
X37820054Y34197872D01*
X37814984Y34210143D01*
X37788904Y34236268D01*
X37936916Y34335167D01*
X38224140Y34765027D01*
X38325000Y35272083D01*
X38325000Y35527917D01*
X38224140Y36034973D01*
X37936916Y36464833D01*
X37507056Y36752057D01*
X37000000Y36852917D01*
X36492944Y36752057D01*
X36063084Y36464833D01*
X35775860Y36034973D01*
X35758958Y35950000D01*
X35527818Y35950000D01*
X37388909Y37811091D01*
X37508134Y37989524D01*
X37550000Y38200000D01*
X37550000Y44236637D01*
X37936916Y44495167D01*
X38224140Y44925027D01*
X38325000Y45432083D01*
X38325000Y45687917D01*
X38224140Y46194973D01*
X38053736Y46450000D01*
X39546264Y46450000D01*
X39375860Y46194973D01*
X39375860Y46194973D01*
G37*
X39375860Y46194973D02*
X39275000Y45687917D01*
X39275000Y45432083D01*
X39344561Y45082379D01*
X38511091Y44248909D01*
X38391866Y44070476D01*
X38350000Y43860000D01*
X38350000Y34727817D01*
X37820054Y34197872D01*
X37814984Y34210143D01*
X37788904Y34236268D01*
X37936916Y34335167D01*
X38224140Y34765027D01*
X38325000Y35272083D01*
X38325000Y35527917D01*
X38224140Y36034973D01*
X37936916Y36464833D01*
X37507056Y36752057D01*
X37000000Y36852917D01*
X36492944Y36752057D01*
X36063084Y36464833D01*
X35775860Y36034973D01*
X35758958Y35950000D01*
X35527818Y35950000D01*
X37388909Y37811091D01*
X37508134Y37989524D01*
X37550000Y38200000D01*
X37550000Y44236637D01*
X37936916Y44495167D01*
X38224140Y44925027D01*
X38325000Y45432083D01*
X38325000Y45687917D01*
X38224140Y46194973D01*
X38053736Y46450000D01*
X39546264Y46450000D01*
X39375860Y46194973D01*
G36*
X42405877Y41633794D02*
X42606115Y41500000D01*
X42405877Y41366206D01*
X42140331Y40968787D01*
X42047083Y40500000D01*
X42140331Y40031213D01*
X42405877Y39633794D01*
X42803296Y39368248D01*
X42825000Y39363931D01*
X42825000Y35829594D01*
X41956902Y34961496D01*
X42025000Y35275000D01*
X42025000Y35375000D01*
X40625000Y35375000D01*
X40625000Y35355000D01*
X40575000Y35355000D01*
X40575000Y35375000D01*
X40555000Y35375000D01*
X40555000Y35425000D01*
X40575000Y35425000D01*
X40575000Y36793508D01*
X40625000Y36793508D01*
X40625000Y35425000D01*
X42025000Y35425000D01*
X42025000Y35525000D01*
X41906961Y36068421D01*
X41589949Y36525305D01*
X41122226Y36826095D01*
X40847577Y36903329D01*
X40625000Y36793508D01*
X40575000Y36793508D01*
X40352423Y36903329D01*
X40077774Y36826095D01*
X39610051Y36525305D01*
X39450000Y36294636D01*
X39450000Y41818790D01*
X39555156Y41775126D01*
X39843579Y41774874D01*
X39964893Y41825000D01*
X42278118Y41825000D01*
X42405877Y41633794D01*
X42405877Y41633794D01*
G37*
X42405877Y41633794D02*
X42606115Y41500000D01*
X42405877Y41366206D01*
X42140331Y40968787D01*
X42047083Y40500000D01*
X42140331Y40031213D01*
X42405877Y39633794D01*
X42803296Y39368248D01*
X42825000Y39363931D01*
X42825000Y35829594D01*
X41956902Y34961496D01*
X42025000Y35275000D01*
X42025000Y35375000D01*
X40625000Y35375000D01*
X40625000Y35355000D01*
X40575000Y35355000D01*
X40575000Y35375000D01*
X40555000Y35375000D01*
X40555000Y35425000D01*
X40575000Y35425000D01*
X40575000Y36793508D01*
X40625000Y36793508D01*
X40625000Y35425000D01*
X42025000Y35425000D01*
X42025000Y35525000D01*
X41906961Y36068421D01*
X41589949Y36525305D01*
X41122226Y36826095D01*
X40847577Y36903329D01*
X40625000Y36793508D01*
X40575000Y36793508D01*
X40352423Y36903329D01*
X40077774Y36826095D01*
X39610051Y36525305D01*
X39450000Y36294636D01*
X39450000Y41818790D01*
X39555156Y41775126D01*
X39843579Y41774874D01*
X39964893Y41825000D01*
X42278118Y41825000D01*
X42405877Y41633794D01*
G36*
X12742649Y49308251D02*
X12525248Y48784693D01*
X12524754Y48217794D01*
X12741240Y47693857D01*
X13141749Y47292649D01*
X13275000Y47237318D01*
X13275000Y46050000D01*
X13326381Y45791688D01*
X13472703Y45572703D01*
X14772703Y44272703D01*
X14991688Y44126381D01*
X15250000Y44075000D01*
X16485046Y44075000D01*
X16605156Y44025126D01*
X16875000Y44024890D01*
X16875000Y43950000D01*
X16926381Y43691688D01*
X17072703Y43472703D01*
X18012718Y42532688D01*
X17800000Y42575000D01*
X15000000Y42575000D01*
X14741689Y42523619D01*
X14522703Y42377297D01*
X12030406Y39885000D01*
X11285962Y39885000D01*
X11056148Y40228941D01*
X10754029Y40430810D01*
X11111329Y40678026D01*
X11437265Y41183382D01*
X11521916Y41484274D01*
X11413528Y41725000D01*
X9775000Y41725000D01*
X9775000Y41705000D01*
X9725000Y41705000D01*
X9725000Y41725000D01*
X9705000Y41725000D01*
X9705000Y41775000D01*
X9725000Y41775000D01*
X9725000Y41795000D01*
X9775000Y41795000D01*
X9775000Y41775000D01*
X11413528Y41775000D01*
X11521916Y42015726D01*
X11437265Y42316618D01*
X11111329Y42821974D01*
X10754029Y43069190D01*
X11056148Y43271059D01*
X11368517Y43738553D01*
X11478207Y44290000D01*
X11368517Y44841447D01*
X11056148Y45308941D01*
X10588654Y45621310D01*
X10037207Y45731000D01*
X9462793Y45731000D01*
X8911346Y45621310D01*
X8443852Y45308941D01*
X8214038Y44965000D01*
X4005000Y44965000D01*
X4005000Y46366674D01*
X4330000Y46366674D01*
X4487496Y46396309D01*
X4632146Y46489389D01*
X4729186Y46631412D01*
X4736232Y46666208D01*
X4753899Y46648541D01*
X4845125Y46739767D01*
X4946441Y46486298D01*
X5519475Y46232867D01*
X6145873Y46218018D01*
X6730272Y46444011D01*
X6793559Y46486298D01*
X6894876Y46739768D01*
X5870000Y47764645D01*
X5855858Y47750502D01*
X5820502Y47785858D01*
X5834645Y47800000D01*
X5905355Y47800000D01*
X6930232Y46775124D01*
X7183702Y46876441D01*
X7437133Y47449475D01*
X7451982Y48075873D01*
X7225989Y48660272D01*
X7183702Y48723559D01*
X6930232Y48824876D01*
X5905355Y47800000D01*
X5834645Y47800000D01*
X5820502Y47814142D01*
X5855858Y47849498D01*
X5870000Y47835355D01*
X6894876Y48860232D01*
X6793559Y49113702D01*
X6220525Y49367133D01*
X5594127Y49381982D01*
X5009728Y49155989D01*
X4946441Y49113702D01*
X4845125Y48860233D01*
X4753899Y48951459D01*
X4737847Y48935407D01*
X4733691Y48957496D01*
X4640611Y49102146D01*
X4498588Y49199186D01*
X4330000Y49233326D01*
X2330000Y49233326D01*
X2172504Y49203691D01*
X2027854Y49110611D01*
X1930814Y48968588D01*
X1896674Y48800000D01*
X1896674Y46800000D01*
X1926309Y46642504D01*
X2019389Y46497854D01*
X2161412Y46400814D01*
X2330000Y46366674D01*
X2655000Y46366674D01*
X2655000Y44409594D01*
X982703Y42737297D01*
X836381Y42518312D01*
X836381Y42518311D01*
X785000Y42260000D01*
X785000Y35762947D01*
X653857Y35708760D01*
X475000Y35530215D01*
X475000Y47453217D01*
X637741Y48271373D01*
X1074689Y48925311D01*
X1728627Y49362259D01*
X2546783Y49525000D01*
X12959776Y49525000D01*
X12742649Y49308251D01*
X12742649Y49308251D01*
G37*
X12742649Y49308251D02*
X12525248Y48784693D01*
X12524754Y48217794D01*
X12741240Y47693857D01*
X13141749Y47292649D01*
X13275000Y47237318D01*
X13275000Y46050000D01*
X13326381Y45791688D01*
X13472703Y45572703D01*
X14772703Y44272703D01*
X14991688Y44126381D01*
X15250000Y44075000D01*
X16485046Y44075000D01*
X16605156Y44025126D01*
X16875000Y44024890D01*
X16875000Y43950000D01*
X16926381Y43691688D01*
X17072703Y43472703D01*
X18012718Y42532688D01*
X17800000Y42575000D01*
X15000000Y42575000D01*
X14741689Y42523619D01*
X14522703Y42377297D01*
X12030406Y39885000D01*
X11285962Y39885000D01*
X11056148Y40228941D01*
X10754029Y40430810D01*
X11111329Y40678026D01*
X11437265Y41183382D01*
X11521916Y41484274D01*
X11413528Y41725000D01*
X9775000Y41725000D01*
X9775000Y41705000D01*
X9725000Y41705000D01*
X9725000Y41725000D01*
X9705000Y41725000D01*
X9705000Y41775000D01*
X9725000Y41775000D01*
X9725000Y41795000D01*
X9775000Y41795000D01*
X9775000Y41775000D01*
X11413528Y41775000D01*
X11521916Y42015726D01*
X11437265Y42316618D01*
X11111329Y42821974D01*
X10754029Y43069190D01*
X11056148Y43271059D01*
X11368517Y43738553D01*
X11478207Y44290000D01*
X11368517Y44841447D01*
X11056148Y45308941D01*
X10588654Y45621310D01*
X10037207Y45731000D01*
X9462793Y45731000D01*
X8911346Y45621310D01*
X8443852Y45308941D01*
X8214038Y44965000D01*
X4005000Y44965000D01*
X4005000Y46366674D01*
X4330000Y46366674D01*
X4487496Y46396309D01*
X4632146Y46489389D01*
X4729186Y46631412D01*
X4736232Y46666208D01*
X4753899Y46648541D01*
X4845125Y46739767D01*
X4946441Y46486298D01*
X5519475Y46232867D01*
X6145873Y46218018D01*
X6730272Y46444011D01*
X6793559Y46486298D01*
X6894876Y46739768D01*
X5870000Y47764645D01*
X5855858Y47750502D01*
X5820502Y47785858D01*
X5834645Y47800000D01*
X5905355Y47800000D01*
X6930232Y46775124D01*
X7183702Y46876441D01*
X7437133Y47449475D01*
X7451982Y48075873D01*
X7225989Y48660272D01*
X7183702Y48723559D01*
X6930232Y48824876D01*
X5905355Y47800000D01*
X5834645Y47800000D01*
X5820502Y47814142D01*
X5855858Y47849498D01*
X5870000Y47835355D01*
X6894876Y48860232D01*
X6793559Y49113702D01*
X6220525Y49367133D01*
X5594127Y49381982D01*
X5009728Y49155989D01*
X4946441Y49113702D01*
X4845125Y48860233D01*
X4753899Y48951459D01*
X4737847Y48935407D01*
X4733691Y48957496D01*
X4640611Y49102146D01*
X4498588Y49199186D01*
X4330000Y49233326D01*
X2330000Y49233326D01*
X2172504Y49203691D01*
X2027854Y49110611D01*
X1930814Y48968588D01*
X1896674Y48800000D01*
X1896674Y46800000D01*
X1926309Y46642504D01*
X2019389Y46497854D01*
X2161412Y46400814D01*
X2330000Y46366674D01*
X2655000Y46366674D01*
X2655000Y44409594D01*
X982703Y42737297D01*
X836381Y42518312D01*
X836381Y42518311D01*
X785000Y42260000D01*
X785000Y35762947D01*
X653857Y35708760D01*
X475000Y35530215D01*
X475000Y47453217D01*
X637741Y48271373D01*
X1074689Y48925311D01*
X1728627Y49362259D01*
X2546783Y49525000D01*
X12959776Y49525000D01*
X12742649Y49308251D01*
G36*
X36450000Y38427818D02*
X34225000Y36202818D01*
X34225000Y37061836D01*
X34131752Y37530623D01*
X33866206Y37928042D01*
X33675000Y38055801D01*
X33675000Y38300000D01*
X33623619Y38558311D01*
X33477297Y38777297D01*
X32567297Y39687297D01*
X32510871Y39725000D01*
X34200000Y39725000D01*
X34458312Y39776381D01*
X34677297Y39922703D01*
X36450000Y41695406D01*
X36450000Y38427818D01*
X36450000Y38427818D01*
G37*
X36450000Y38427818D02*
X34225000Y36202818D01*
X34225000Y37061836D01*
X34131752Y37530623D01*
X33866206Y37928042D01*
X33675000Y38055801D01*
X33675000Y38300000D01*
X33623619Y38558311D01*
X33477297Y38777297D01*
X32567297Y39687297D01*
X32510871Y39725000D01*
X34200000Y39725000D01*
X34458312Y39776381D01*
X34677297Y39922703D01*
X36450000Y41695406D01*
X36450000Y38427818D01*
G36*
X15799498Y46914142D02*
X15785355Y46900000D01*
X15799498Y46885857D01*
X15764143Y46850502D01*
X15750000Y46864645D01*
X15735858Y46850502D01*
X15700503Y46885857D01*
X15714645Y46900000D01*
X15700503Y46914142D01*
X15735858Y46949497D01*
X15750000Y46935355D01*
X15764143Y46949497D01*
X15799498Y46914142D01*
X15799498Y46914142D01*
G37*
X15799498Y46914142D02*
X15785355Y46900000D01*
X15799498Y46885857D01*
X15764143Y46850502D01*
X15750000Y46864645D01*
X15735858Y46850502D01*
X15700503Y46885857D01*
X15714645Y46900000D01*
X15700503Y46914142D01*
X15735858Y46949497D01*
X15750000Y46935355D01*
X15764143Y46949497D01*
X15799498Y46914142D01*
M02*
